<svg xmlns="http://www.w3.org/2000/svg" width="33.5" height="33.5" viewBox="0 0 33.5 33.5">
  <g id="Groupe_2537" data-name="Groupe 2537" transform="translate(-148.122 63) rotate(-90)">
    <rect id="Rectangle_2209" data-name="Rectangle 2209" width="33.5" height="33.5" rx="16.75" transform="translate(29.5 148.122)" fill="#fff"/>
    <g id="Groupe_2520" data-name="Groupe 2520" transform="translate(38.744 156.586)">
      <g id="Groupe_2524" data-name="Groupe 2524" transform="translate(0)">
        <path id="Tracé_2308" data-name="Tracé 2308" d="M-3785.894-8541.214a1.525,1.525,0,0,1-1.085-.448l-12.2-12.194a1.537,1.537,0,0,1,0-2.174,1.54,1.54,0,0,1,2.169,0l12.2,12.2a1.532,1.532,0,0,1,0,2.169A1.526,1.526,0,0,1-3785.894-8541.214Z" transform="translate(3799.625 8556.477)" fill="#27b17c"/>
      </g>
      <path id="Tracé_2309" data-name="Tracé 2309" d="M-3784.813-8540.051h-8.167a1.534,1.534,0,0,1-1.534-1.533,1.535,1.535,0,0,1,1.534-1.537h6.634v-6.342a1.532,1.532,0,0,1,1.534-1.533,1.532,1.532,0,0,1,1.534,1.533v7.879A1.534,1.534,0,0,1-3784.813-8540.051Z" transform="translate(3798.543 8555.316)" fill="#27b17c"/>
    </g>
  </g>
</svg>
