<svg xmlns="http://www.w3.org/2000/svg" width="81.145" height="111.497" viewBox="0 0 81.145 111.497">
  <g id="Groupe_3534" data-name="Groupe 3534" transform="translate(-317.878 -124.954)">
    <g id="Groupe_3257" data-name="Groupe 3257" transform="translate(7351.199 5807.546)">
      <path id="Tracé_12334" data-name="Tracé 12334" d="M-971.992-396.193l4.333-4.113c-2.258-5.483-24.259-25.716-27.736-20.813C-986.543-417.848-972.149-396.8-971.992-396.193Z" transform="translate(-6023.972 -5243.955)" fill="#609d43"/>
      <path id="Tracé_12335" data-name="Tracé 12335" d="M-931.812-357.461a5.347,5.347,0,0,1-5.12-4.089v-46.77a1.183,1.183,0,0,1,1.183-1.183h7.516a1.183,1.183,0,0,1,1.183,1.183v46.77A4.617,4.617,0,0,1-931.812-357.461Z" transform="translate(-6060.633 -5251.715)" fill="#609d43"/>
      <path id="Tracé_12336" data-name="Tracé 12336" d="M-982.732-343.945l-1.328-8.442c-5.973-3.026-38.378-.942-38.225,6.849C-1011.639-350.678-983.3-344.362-982.732-343.945Z" transform="translate(-6007.109 -5286.699)" fill="#8fc23e"/>
      <path id="Tracé_12337" data-name="Tracé 12337" d="M-926.664-350.915l3.045-6.723c6.527-2.426,38.146-.865,36.4,5.338C-896.7-356.361-926.014-351.249-926.664-350.915Z" transform="translate(-6067.072 -5283.556)" fill="#8fc23e"/>
      <path id="Tracé_12338" data-name="Tracé 12338" d="M-969.9-322.136l-1.957-5.832c-4.707-1.837-28.075,1.116-27.051,6.549C-991.754-325.5-970.366-322.4-969.9-322.136Z" transform="translate(-6021.748 -5302.502)" fill="#609d43"/>
      <path id="Tracé_12339" data-name="Tracé 12339" d="M-924.442-323.8l.881-5.433c3.8-2.6,24.3-5.144,24.171-.256C-906.107-331.439-924.078-324.129-924.442-323.8Z" transform="translate(-6068.465 -5300.152)" fill="#609d43"/>
      <path id="Tracé_12340" data-name="Tracé 12340" d="M-928.671-380.537l-5.3-7.79c4.048-4.927,38.979-19.9,44.284-14.868C-904.286-401.11-928.374-381.09-928.671-380.537Z" transform="translate(-6062.491 -5255.031)" fill="#609d43"/>
      <g id="Groupe_3230" data-name="Groupe 3230" transform="translate(-7009.822 -5682.592)">
        <path id="Tracé_12341" data-name="Tracé 12341" d="M-952.523-407.125c-26.147.976-18.7-37.688-1.432-38.333S-929.689-407.978-952.523-407.125Z" transform="translate(969.674 453.429)" fill="#cfc138"/>
        <ellipse id="Ellipse_788" data-name="Ellipse 788" cx="5.948" cy="2.78" rx="5.948" ry="2.78" transform="translate(10.282 7.955)" fill="#6b1818" opacity="0.2"/>
        <g id="Groupe_3228" data-name="Groupe 3228" transform="translate(6.595)">
          <path id="Tracé_12342" data-name="Tracé 12342" d="M-936.218-458.1c-.858-2.7.45-6.157-1.458-8.715,1.72.121,3.39,2.541,4.529,3.869,1.3-1.779,2.989-2.116,4.871-2.151-2.5,2.645-2.175,6.6-3.794,9.571a3.345,3.345,0,0,1-2.995-.117Z" transform="translate(943.061 466.819)" fill="#609d43"/>
          <path id="Tracé_12343" data-name="Tracé 12343" d="M-946.9-455.413l4.2-2.622a9.718,9.718,0,0,0-3.662-6.293c-1.45-1.244-4.162-3.526-5.762-1.255C-948.68-463.191-946.935-455.739-946.9-455.413Z" transform="translate(952.116 466.65)" fill="#8fc23e"/>
          <path id="Tracé_12344" data-name="Tracé 12344" d="M-921.066-451.244c-3.514-.438-5.515-4.123-2.729-7.006a8.559,8.559,0,0,1,4.377-2.415c1.179-.211,2.976,1.047,3.627.9C-918.457-459.175-920.662-454.008-921.066-451.244Z" transform="translate(935.179 462.975)" fill="#8fc23e"/>
        </g>
        <g id="Groupe_3229" data-name="Groupe 3229" transform="translate(0 11.789)" opacity="0.2">
          <path id="Tracé_12345" data-name="Tracé 12345" d="M-952.725-400.663a14.356,14.356,0,0,0,9.57-3.664c-7.628,3.072-17.241-.47-21.525-7.847-5.156-8.879-1.533-18.97,2.084-23.032l-.019.01C-973.036-425.349-974.013-399.867-952.725-400.663Z" transform="translate(969.8 435.205)" fill="#6b1818"/>
          <path id="Tracé_12346" data-name="Tracé 12346" d="M-952.725-400.663a14.356,14.356,0,0,0,9.57-3.664c-7.628,3.072-17.241-.47-21.525-7.847-5.156-8.879-1.533-18.97,2.084-23.032l-.019.01C-973.036-425.349-974.013-399.867-952.725-400.663Z" transform="translate(969.8 435.205)" fill="#6b1818" opacity="0.2"/>
        </g>
        <path id="Tracé_12347" data-name="Tracé 12347" d="M-936.041-413.685a22.591,22.591,0,0,1-2.353-1.109,16.208,16.208,0,0,1-1.709-1.394,17.2,17.2,0,0,0,2.116-3.6.367.367,0,0,0,.026-.206c.037.014.074.031.112.044.445.152.7-.43.429-.737-.713-.807-1.684-1.362-2.461-2.12a22.968,22.968,0,0,1-2.349-2.747c-.125-.168-.248-.339-.37-.51q.576-.633,1.146-1.272c.331-.371-.206-.918-.55-.55s-.715.758-1.077,1.132c-.971-1.426-1.854-2.916-2.733-4.4a.226.226,0,0,0-.391.228c.781,1.625,1.571,3.254,2.5,4.8q-1.473,1.489-3.009,2.912a53.865,53.865,0,0,1-4.442-6.585,6.437,6.437,0,0,0,.635-.694c.283-.366-.224-.887-.516-.516-.152.192-.317.374-.487.551-.177-.322-.356-.643-.526-.968-.144-.276-.534-.034-.411.24.171.378.351.753.53,1.126-2.1,1.925-5.147,3.072-6.6,5.583a.257.257,0,0,0,.349.349,7.317,7.317,0,0,0,1.034-.7c1.245,2.443,2.5,4.887,3.846,7.273q-1.84,1.473-3.732,2.879c-.5.373-1.068.732-1.643,1.1-.583-1-1.147-2.011-1.723-3.03-.164-.29-.67-.1-.551.232a23.825,23.825,0,0,0,1.51,3.295,9.426,9.426,0,0,0-2.441,2.135c-.267.366.172.8.55.716a8.051,8.051,0,0,0,2.741-1.4c.745,1.2,1.56,2.357,2.4,3.454.511.667,1.063,1.388,1.652,2.11a8.694,8.694,0,0,0-1.034.881.456.456,0,0,0,.44.756,8.256,8.256,0,0,0,1.449-.627,14.5,14.5,0,0,0,4.248,3.532.315.315,0,0,0,.38-.492,35.57,35.57,0,0,0-3.176-3.084c-.172-.17-.339-.345-.508-.518,1.034-.666,2.025-1.453,2.955-2.1.684-.475,1.359-.964,2.028-1.461.475.6.96,1.191,1.468,1.759.527.589,1.141,1.314,1.818,1.99-1.414,1.1-3.38,2.229-4.261,3.729a.264.264,0,0,0,.295.383c1.72-.419,3.437-2.239,4.76-3.379a5.357,5.357,0,0,0,2.443,1.293.55.55,0,0,0,.53-.911,8.471,8.471,0,0,0-1.706-1.489c1.288-1.149,2.535-2.338,3.737-3.58a.418.418,0,0,0-.591-.591c-1.307,1.191-2.628,2.37-3.974,3.517l-.009-.007c-.832-.738-1.61-1.534-2.372-2.343q-.545-.579-1.067-1.177.912-.7,1.807-1.419a30.42,30.42,0,0,0,3.957-3.765c.093.084.182.172.276.255,1.162,1.037,2.8,2.633,4.489,2.139A.5.5,0,0,0-936.041-413.685Zm-20.584-11.488a.281.281,0,0,0-.044-.052c.778-.684,1.508-1.46,2.285-2.085.877-.707,1.9-1.332,2.78-2.078a49.409,49.409,0,0,0,4.122,6.878q-2.081,1.889-4.249,3.682c-.273.226-.549.449-.824.673C-953.972-420.458-955.3-422.817-956.625-425.173Zm5.789,16.769c-.89.607-1.91,1.157-2.865,1.768-.572-.631-1.126-1.278-1.655-1.945a36.948,36.948,0,0,1-2.492-3.609c.693-.544,1.354-1.107,1.961-1.565q1.67-1.26,3.273-2.6c.748,1.276,1.526,2.534,2.358,3.76.579.854,1.179,1.7,1.8,2.528Q-949.636-409.223-950.836-408.4Zm4.93-3.549q-.743.57-1.5,1.123-1.284-1.539-2.443-3.183c-.689-.982-1.349-1.983-1.991-3,.279-.238.558-.475.834-.716,1.438-1.255,2.825-2.564,4.176-3.909.472.625.956,1.243,1.463,1.845a48.37,48.37,0,0,0,3.792,4.019A34.7,34.7,0,0,1-945.906-411.954Zm5.187-4.8-.117-.107a52.409,52.409,0,0,1-4.207-4.319q-.521-.6-1.025-1.22,1.441-1.463,2.829-2.977c.233.361.471.719.725,1.068a13.5,13.5,0,0,0,4,4.06.342.342,0,0,0-.071.1A15.3,15.3,0,0,1-940.719-416.75Z" transform="translate(964.886 444.699)" fill="#6b1818" opacity="0.2"/>
      </g>
      <path id="Tracé_12348" data-name="Tracé 12348" d="M-929.134-373.863l-7.913-9.365c3.577-4.164,29.622-19.609,35.023-15.652C-914.937-392.508-928.883-374.325-929.134-373.863Z" transform="translate(-6060.561 -5257.974)" fill="#4a7c31"/>
      <path id="Tracé_12349" data-name="Tracé 12349" d="M-987.946-360.2l.848-10.216c-5.993-5.911-43.706-16.788-45.718-7.8C-1019.175-379.742-988.483-360.908-987.946-360.2Z" transform="translate(-6000.505 -5269.19)" fill="#609d43"/>
      <path id="Tracé_12378" data-name="Tracé 12378" d="M-932.261-252.1s-4.656-32.446-4.656-32.936h0c5.768,1.555,7.254-3.7,9.944-3.7,0,0-.053,3.7-.046,3.7-4.572,12.26-.729,23.181-4.481,37.147C-931.792-246.8-932.261-252.185-932.261-252.1Z" transform="translate(-6060.642 -5327.446)" fill="#775547"/>
      <path id="Tracé_12379" data-name="Tracé 12379" d="M-935.6-217.618c-1.7.808-4.759.03-4.31,2.976.166-.345.281-.578.393-.813.544-1.147,2.5-.914,3.562-.93-.267.758-.524,1.488-.81,2.3-.417.453-.906.837-1.323,1.29a2.261,2.261,0,0,0-.509,2.2c.266-.889.542-1.769,1.579-2.142a9,9,0,0,0,.666,6.345c.14-1.921-.393-3.692.027-5.657a12.359,12.359,0,0,1,1.9-3.914l-.493-3.455a10.153,10.153,0,0,1-.315,1.37A.644.644,0,0,1-935.6-217.618Z" transform="translate(-6058.737 -5370.914)" fill="#775547"/>
      <path id="Tracé_12380" data-name="Tracé 12380" d="M-948.136-271.994c-1.488-.191-2.993-.834-4.5-.744a3.059,3.059,0,0,0-2.716,2.347c.143-.153.252-.288.379-.4,1.768-1.624,3.417-.927,5.414-.252a6.449,6.449,0,0,0-1.816,1.669,2.208,2.208,0,0,0-.217,2.179c.615-1.238.842-2.054,2.145-2.8a11.531,11.531,0,0,1,1.725-.785,7.1,7.1,0,0,0,1.831-.98,16.65,16.65,0,0,0-.545,5.506c.138,1.668,1.284,2.935,1.826,4.461a14.547,14.547,0,0,1,.5,2.039,6.088,6.088,0,0,0,.25-.914,3.432,3.432,0,0,0-.1-1.671,30.709,30.709,0,0,1-1.14-3.222,19.3,19.3,0,0,1-.14-3.175.815.815,0,0,1,.059-.2c.936,1.244,2.513,1.989,3.279,3.329a17.845,17.845,0,0,1,1.127,3.249,8.153,8.153,0,0,0-1.831-5.34c-.4-.564-1.018-1.029-1.479-1.553a2.29,2.29,0,0,1-.657-1.529c.723-2.233,2.151-4.122,2.815-6.357l-1.708-1.07C-943.856-275.507-945.823-273.351-948.136-271.994Z" transform="translate(-6049.081 -5334.051)" fill="#775547"/>
      <path id="Tracé_12381" data-name="Tracé 12381" d="M-924.774-194.377a16.873,16.873,0,0,0,.186,5.176c.29,1.091,1.171,3.23,2.4,3.589a7.938,7.938,0,0,1-1.4-5.376,1.161,1.161,0,0,1,.038-.229,6.541,6.541,0,0,1,2.7,2.536,6.21,6.21,0,0,0,.655,1.378c-.109-.615-.125-1-.239-1.469-.416-1.714-1.982-2.551-2.993-3.873.017-.689.034-1.44.052-2.181l-1.713-1.36A3.487,3.487,0,0,1-924.774-194.377Z" transform="translate(-6068.064 -5385.483)" fill="#775547"/>
      <path id="Tracé_12382" data-name="Tracé 12382" d="M-918.96-262.589a14.164,14.164,0,0,0,.157,4.347c.244.916.983,2.713,2.016,3.015a6.67,6.67,0,0,1-1.172-4.516.983.983,0,0,1,.032-.192,5.5,5.5,0,0,1,2.269,2.13,5.217,5.217,0,0,0,.55,1.158c-.091-.517-.1-.841-.2-1.234-.35-1.439-1.664-2.143-2.514-3.253.015-.579.029-1.209.044-1.831l-1.439-1.143A2.93,2.93,0,0,1-918.96-262.589Z" transform="translate(-6071.741 -5342.89)" fill="#775547"/>
      <path id="Tracé_12383" data-name="Tracé 12383" d="M-943.419-278.971c.224-.759.469-1.517.756-2.267.05-.13.157-.462.287-.8l2.977-2.864a5.815,5.815,0,0,0-.443.742,14.943,14.943,0,0,0-1.815,4.666,5.606,5.606,0,0,0,.433,2.731,4.154,4.154,0,0,0,.9,1.345,9.1,9.1,0,0,0,2.188,1.269,5,5,0,0,1,1.752,1.561,14.159,14.159,0,0,1,1.719,4.166.365.365,0,0,1-.044.373,14.8,14.8,0,0,0-1.863-3.924,7.069,7.069,0,0,0-3.756-2.03,8,8,0,0,1,.267,1.079c.212,1.635-.623,3.568-.957,5.289a1.739,1.739,0,0,0,.177,1.574c-1.4-.068-.331-3.823-.144-4.818-.712,1.319-2,2.533-2.372,3.7-.261-.612,1.206-2.563,1.545-3.165a4.793,4.793,0,0,0,.751-2.437c-.172-1.775-1.161-2.951-1.768-4.448a27.742,27.742,0,0,1-2.56,5.748,11.935,11.935,0,0,0,.106,3.1,8.11,8.11,0,0,1-.4,3.126,8.412,8.412,0,0,1-1.3,2.711,8.025,8.025,0,0,1-1.784,1.9c.47-1.047,1.4-1.9,1.887-2.973a10.237,10.237,0,0,0,.692-2.562,12.623,12.623,0,0,0-.223-4.212c-.435.345-.844.7-1.273,1a2.59,2.59,0,0,0-.819,1.042c-.565,1.148-.521,2.384-1.109,3.562a4.084,4.084,0,0,1-1.24,1.753,10.263,10.263,0,0,0,1-2.028c.355-1.128.245-2.373.679-3.455a6.4,6.4,0,0,0-1.537.943,9.06,9.06,0,0,0-1.535,1.586,6.966,6.966,0,0,1-.761.926.93.93,0,0,1-.467.258c.13-.223.262-.447.4-.671a10.432,10.432,0,0,1,3.089-3.575,12.049,12.049,0,0,0,3.327-2.553,14.412,14.412,0,0,0,2.208-3.778C-944-276.535-943.768-277.787-943.419-278.971Z" transform="translate(-6050.26 -5329.853)" fill="#775547"/>
      <path id="Tracé_12384" data-name="Tracé 12384" d="M-929.379-242.97c-.279-.738-.541-1.486-.765-2.254-.038-.133-.154-.462-.251-.8l.639-4.065a5.751,5.751,0,0,0,.095.855,14.89,14.89,0,0,0,1.368,4.8,5.58,5.58,0,0,0,1.988,1.907,4.138,4.138,0,0,0,1.523.527,9.064,9.064,0,0,0,2.5-.311,4.975,4.975,0,0,1,2.33.184,14.1,14.1,0,0,1,3.872,2.271.363.363,0,0,1,.189.323,14.756,14.756,0,0,0-3.841-1.992,7.046,7.046,0,0,0-4.2.65,7.951,7.951,0,0,1,.861.7c1.153,1.17,1.653,3.207,2.425,4.774.294.595.525,1,1.088,1.143-1.153.789-2.563-2.835-3.014-3.737.229,1.475-.065,3.215.345,4.364-.576-.329-.586-2.76-.679-3.442a4.778,4.778,0,0,0-.871-2.386c-1.205-1.3-2.7-1.643-4.08-2.465a27.638,27.638,0,0,1,1.428,6.1,11.9,11.9,0,0,0,1.952,2.4,8.075,8.075,0,0,1,1.567,2.72,8.367,8.367,0,0,1,.6,2.933,7.977,7.977,0,0,1-.269,2.584c-.257-1.114-.033-2.348-.292-3.495a10.2,10.2,0,0,0-.993-2.45,12.573,12.573,0,0,0-2.713-3.207c-.137.535-.248,1.063-.408,1.561a2.586,2.586,0,0,0-.023,1.32c.242,1.251,1.021,2.205,1.264,3.495a4.064,4.064,0,0,1,.071,2.138,10.209,10.209,0,0,0-.429-2.21c-.4-1.108-1.234-2.031-1.541-3.15a6.363,6.363,0,0,0-.653,1.673,9.012,9.012,0,0,0-.263,2.183,7,7,0,0,1-.047,1.193.928.928,0,0,1-.215.486c-.031-.255-.061-.513-.089-.772a10.4,10.4,0,0,1,.3-4.7,11.988,11.988,0,0,0,1.1-4.029,14.354,14.354,0,0,0-.522-4.327C-928.375-240.685-928.943-241.82-929.379-242.97Z" transform="translate(-6064.732 -5351.679)" fill="#775547"/>
      <path id="Tracé_12385" data-name="Tracé 12385" d="M-919.7-264.45c-.209-.593-.4-1.193-.561-1.808-.027-.106-.112-.37-.181-.643l.765-3.169a4.117,4.117,0,0,0,.041.677,10.683,10.683,0,0,0,.966,3.833,4.638,4.638,0,0,0,1.655,1.588,3.9,3.9,0,0,0,1.315.482,8.937,8.937,0,0,0,2.216-.133,4.874,4.874,0,0,1,2.042.248,12.656,12.656,0,0,1,3.3,1.959.28.28,0,0,1,.151.262,13.436,13.436,0,0,0-3.282-1.739,6.906,6.906,0,0,0-3.732.324,6.852,6.852,0,0,1,.724.585c.956.972,1.3,2.6,1.9,3.863.229.481.412.808.9.948-1.054.569-2.116-2.344-2.468-3.074.129,1.17-.217,2.526.086,3.448-.49-.284-.378-2.2-.426-2.738a3.482,3.482,0,0,0-.648-1.916c-1-1.08-2.293-1.413-3.469-2.121a19.694,19.694,0,0,1,.953,4.864,9.5,9.5,0,0,0,1.6,1.975,6.13,6.13,0,0,1,1.244,2.209,5.95,5.95,0,0,1,.384,2.334,5.694,5.694,0,0,1-.366,2.02c-.171-.887.088-1.848-.083-2.762a7.465,7.465,0,0,0-.752-1.971,10.087,10.087,0,0,0-2.228-2.644c-.148.415-.271.825-.437,1.209a1.825,1.825,0,0,0-.086,1.037c.151.995.789,1.78.938,2.805a2.873,2.873,0,0,1-.044,1.685,7.25,7.25,0,0,0-.268-1.757c-.294-.889-.985-1.652-1.2-2.547a4.78,4.78,0,0,0-.658,1.287,6.433,6.433,0,0,0-.341,1.705,4.88,4.88,0,0,1-.1.936.707.707,0,0,1-.213.373c-.015-.2-.029-.406-.04-.611a7.385,7.385,0,0,1,.5-3.681,8.784,8.784,0,0,0,1.173-3.12,10.137,10.137,0,0,0-.244-3.427C-918.932-262.608-919.375-263.526-919.7-264.45Z" transform="translate(-6070.972 -5339.151)" fill="#775547"/>
    </g>
  </g>
</svg>
