<svg xmlns="http://www.w3.org/2000/svg" width="82.976" height="78.547" viewBox="0 0 82.976 78.547">
  <g id="Groupe_3523" data-name="Groupe 3523" transform="translate(-62.524 -47.318)">
    <g id="Groupe_3486" data-name="Groupe 3486" transform="translate(62.524 47.318)">
      <g id="Groupe_2561" data-name="Groupe 2561" transform="translate(0 0)">
        <path id="Tracé_9407" data-name="Tracé 9407" d="M203.622,193.079a17.141,17.141,0,0,1-16.984,10.282,9.524,9.524,0,0,1-.963,8.471,9.076,9.076,0,0,1-7.368,3.992,6.668,6.668,0,0,1,1.285,5.922,6.431,6.431,0,0,1-4.1,4.352,13.479,13.479,0,0,1,4.077,10.136,13.262,13.262,0,0,1-4.875,9.709,12.068,12.068,0,0,1,7.785,5.069,12.957,12.957,0,0,1,1.927,9.39,11.2,11.2,0,0,1,9.665.02,11.687,11.687,0,0,1,6.116,7.674,6.666,6.666,0,0,1,5.719-2.888,6.959,6.959,0,0,1,5.622,3.338c2.418-3.72,7.387-5.005,11.7-4.177s8.115,3.377,11.675,6.015a9.322,9.322,0,0,1,2.729-7.775,9.643,9.643,0,0,1,8.114-2.38,3.608,3.608,0,0,1-1.782-4.237,3.456,3.456,0,0,1,3.931-2.229,13.918,13.918,0,0,1,1.155-10.831,13.332,13.332,0,0,1,8.619-6.389,10.567,10.567,0,0,1-3.444-16.479,3.952,3.952,0,0,1-5.135-.9,4.138,4.138,0,0,1,.383-5.3,9.274,9.274,0,0,1-9.343-4.549,9.616,9.616,0,0,1,.882-10.5,12.065,12.065,0,0,1-10.923,1.293,12.559,12.559,0,0,1-7.48-8.282,10.557,10.557,0,0,1-9.2,8.153C209.061,200.325,205.237,197.222,203.622,193.079Z" transform="translate(-174.69 -191.834)" fill="#e98d22"/>
        <path id="Tracé_9408" data-name="Tracé 9408" d="M240.792,217.461a30.5,30.5,0,0,0-10.5-9.144c-.811-.439-1.634-.844-2.482-1.2a34.742,34.742,0,0,0-9.9-2.613c-10.4-1.168-21.351,2.975-27.593,11.508a30.885,30.885,0,0,0-5.844,15.605c-.081.923-.113,1.848-.1,2.774.117,11.37,6.517,20.2,17.207,23.915,9.935,3.439,21.823,3.655,31.112-1.686,8.176-4.695,13.725-13,13.647-22.543A29.3,29.3,0,0,0,240.792,217.461Z" transform="translate(-175.25 -192.556)" fill="#fdd31c"/>
        <path id="Tracé_9409" data-name="Tracé 9409" d="M246.33,234.318c.078,9.544-5.471,17.849-13.647,22.543-9.288,5.342-21.177,5.125-31.112,1.686-10.69-3.715-17.09-12.544-17.207-23.915-.009-.926.024-1.85.1-2.774a19.629,19.629,0,0,0,7.78,13.128c5.629,4.186,13.053,5.464,20.032,4.69a27.17,27.17,0,0,0,11.835-3.91c6.291-4.088,9.983-11.544,10.438-19.038a34.864,34.864,0,0,0-4.267-18.165,30.5,30.5,0,0,1,10.5,9.144A29.3,29.3,0,0,1,246.33,234.318Z" transform="translate(-175.25 -192.802)" fill="#fcd8a9" style="mix-blend-mode: multiply;isolation: isolate"/>
      </g>
    </g>
  </g>
</svg>
