<svg xmlns="http://www.w3.org/2000/svg" width="80.055" height="84.952" viewBox="0 0 80.055 84.952">
  <g id="Groupe_3530" data-name="Groupe 3530" transform="translate(-230.531 -507.901)">
    <g id="Groupe_3276" data-name="Groupe 3276" transform="translate(230.531 507.901)">
      <g id="Groupe_2553" data-name="Groupe 2553" transform="translate(21.232 70.731)">
        <path id="Tracé_9355" data-name="Tracé 9355" d="M240.6,150.8c-.069.107-.146.207-.223.307a9.879,9.879,0,0,1-5.081,2.925,3.1,3.1,0,0,1-.76,3.255,3.813,3.813,0,0,1-2.234,1.059,4.02,4.02,0,0,1-1.013.023,6.059,6.059,0,0,1-3.2-1.389,7.948,7.948,0,0,1-2.932-5.511,4.34,4.34,0,0,1-3.508-2.886,4.067,4.067,0,0,1-.192-1.582,4.22,4.22,0,0,1,.66-2.042,3.658,3.658,0,0,1,.629-.791l18.161,1.5A4.639,4.639,0,0,1,240.6,150.8Z" transform="translate(-221.446 -144.17)" fill="#7dc4d4"/>
      </g>
      <path id="Tracé_9356" data-name="Tracé 9356" d="M232.3,158.72a4.02,4.02,0,0,1-1.013.023,6.059,6.059,0,0,1-3.2-1.389,7.948,7.948,0,0,1-2.932-5.511,4.34,4.34,0,0,1-3.508-2.886,4.067,4.067,0,0,1-.192-1.582,4.22,4.22,0,0,1,.66-2.042,1.23,1.23,0,0,1,.591.668,2.383,2.383,0,0,0-.054,2.3,3.492,3.492,0,0,0,1.758,1.574,6.792,6.792,0,0,0,2.349.476,6.807,6.807,0,0,0,5.542,8.366Z" transform="translate(-200.214 -73.813)" fill="#c5e4ea" style="mix-blend-mode: multiply;isolation: isolate"/>
      <path id="Tracé_9357" data-name="Tracé 9357" d="M240.605,150.8a27.377,27.377,0,0,1-15.774-1.773A12.294,12.294,0,0,1,221.462,147a4.3,4.3,0,0,1,1.289-2.832l18.161,1.5A4.639,4.639,0,0,1,240.605,150.8Z" transform="translate(-200.219 -73.439)" fill="#c5e4ea" style="mix-blend-mode: multiply;isolation: isolate"/>
      <path id="Tracé_9358" data-name="Tracé 9358" d="M250.18,133.446c0,.015-.007.022-.007.038a10.678,10.678,0,0,1-4.337,5.911,18.548,18.548,0,0,1-6.931,2.786,29.516,29.516,0,0,1-14.845-.783,15.892,15.892,0,0,1-5.043-2.5,8.286,8.286,0,0,1-3.071-4.621,6.721,6.721,0,0,1,.016-2.848,6.552,6.552,0,0,1,1.059-2.387c1.044-1.473,2.633-2.111,4.1-3.055,2.74-1.773,6.517-2.287,9.694-2.656.537-.061,1.082-.115,1.619-.146a39.961,39.961,0,0,1,9.618.422,12.192,12.192,0,0,1,5.941,2.3,7.231,7.231,0,0,1,.56.522A7.563,7.563,0,0,1,250.18,133.446Z" transform="translate(-198.403 -66.668)" fill="#337583"/>
      <path id="Tracé_9359" data-name="Tracé 9359" d="M250.256,133.5c0,.015-.007.022-.007.038a25.716,25.716,0,0,1-10.071,2.226,55.026,55.026,0,0,1-24.14-4.284A6.552,6.552,0,0,1,217.1,129.1c1.044-1.473,2.633-2.111,4.1-3.055,2.74-1.773,6.517-2.287,9.694-2.656.537-.061,1.082-.115,1.619-.146a63.234,63.234,0,0,1,13.325,2.027,20.368,20.368,0,0,1,2.234.7,7.231,7.231,0,0,1,.56.522A7.563,7.563,0,0,1,250.256,133.5Z" transform="translate(-198.479 -65.569)" fill="#c5e4ea" style="mix-blend-mode: multiply;isolation: isolate"/>
      <path id="Tracé_9360" data-name="Tracé 9360" d="M253.553,117.312a8.341,8.341,0,0,1-.085,1.513c-1.144,7.561-10.677,9.2-16.925,9.1a53.326,53.326,0,0,1-23.012-5.435c-3.109-1.6-6.348-3.761-7.469-7.246a6.7,6.7,0,0,1,.039-4.229,6.29,6.29,0,0,1,.353-.806,5.9,5.9,0,0,1,1.39-1.719,19.386,19.386,0,0,1,5.035-2.986,37.016,37.016,0,0,1,11.552-2.548,41.916,41.916,0,0,1,18.875,3.032,20.107,20.107,0,0,1,7.368,4.751A10.6,10.6,0,0,1,253.553,117.312Z" transform="translate(-195.175 -58.689)" fill="#7dc4d4"/>
      <path id="Tracé_9361" data-name="Tracé 9361" d="M253.724,117.312a14.306,14.306,0,0,1-5.067,2.817,36.217,36.217,0,0,1-7.254,1.381c-6.616.753-13.394,1.2-19.873-.33-6.11-1.435-12-4.851-15.26-10.162a6.288,6.288,0,0,1,.353-.806,5.9,5.9,0,0,1,1.39-1.719,19.385,19.385,0,0,1,5.035-2.986,37.015,37.015,0,0,1,11.552-2.548,41.916,41.916,0,0,1,18.875,3.032,20.107,20.107,0,0,1,7.368,4.751A10.6,10.6,0,0,1,253.724,117.312Z" transform="translate(-195.346 -58.352)" fill="#c5e4ea" style="mix-blend-mode: multiply;isolation: isolate"/>
      <path id="Tracé_9362" data-name="Tracé 9362" d="M253.158,111.1c-4.614,3.592-10.954,4.529-16.641,4.775-10.133.437-21.454-1.466-29.191-8.551a16.661,16.661,0,0,1-3.784-4.959,13.312,13.312,0,0,1-.744-2,9.532,9.532,0,0,1-.139-4.72c.891-3.869,4.268-6.816,8.4-8.014a28.709,28.709,0,0,1,8.566-.86c2.61.046,5.166.145,7.8.161A67.7,67.7,0,0,1,244.476,89.2a26.239,26.239,0,0,1,8.436,3.569,13.024,13.024,0,0,1,4.107,4.567,9.677,9.677,0,0,1,.975,2.817C258.722,104.283,256.466,108.528,253.158,111.1Z" transform="translate(-194.112 -52.795)" fill="#337583"/>
      <path id="Tracé_9363" data-name="Tracé 9363" d="M257.129,97.336c-3.616,3.485-8.582,5.342-13.518,6.386a53.864,53.864,0,0,1-40.843-8.075c.891-3.869,4.268-6.816,8.4-8.014a28.709,28.709,0,0,1,8.566-.86c2.61.046,5.166.145,7.8.161A67.7,67.7,0,0,1,244.586,89.2a26.24,26.24,0,0,1,8.436,3.569A13.024,13.024,0,0,1,257.129,97.336Z" transform="translate(-194.222 -52.265)" fill="#c5e4ea" style="mix-blend-mode: multiply;isolation: isolate"/>
      <path id="Tracé_9364" data-name="Tracé 9364" d="M258.65,84.684a13.078,13.078,0,0,1-1.259,1.727c-.168.207-.353.414-.545.614-3.93,4.129-9.7,6.217-15.429,7.315a59.886,59.886,0,0,1-36.544-4.629,27.834,27.834,0,0,1-7.239-4.675,12.808,12.808,0,0,1-4.068-7.254,11.049,11.049,0,0,1,1.458-7.023,14.054,14.054,0,0,1,3-3.661,22.217,22.217,0,0,1,11.3-4.751,55.6,55.6,0,0,1,9.456-.415c4.751.1,9.434-.422,14.216-.031a72.487,72.487,0,0,1,9.165,1.343q3.166.668,6.256,1.62c4.184,1.29,8.513,3.162,10.831,6.739C261.789,75.527,261.167,80.685,258.65,84.684Z" transform="translate(-191.237 -43.348)" fill="#7dc4d4"/>
      <path id="Tracé_9365" data-name="Tracé 9365" d="M259.386,84.684a13.078,13.078,0,0,1-1.259,1.727c-9.534,3.362-20.034,3.354-30.051,1.788a60.909,60.909,0,0,1-19.435-6.026,35.1,35.1,0,0,1-12.88-11.413,14.054,14.054,0,0,1,3-3.661,22.217,22.217,0,0,1,11.3-4.751,55.6,55.6,0,0,1,9.456-.415c4.751.1,9.434-.422,14.216-.031a72.487,72.487,0,0,1,9.165,1.343,17.112,17.112,0,0,1,2.764,1.543c3.278,2.272,5.481,5.742,7.592,9.127q2.429,3.892,4.866,7.791A20.871,20.871,0,0,1,259.386,84.684Z" transform="translate(-191.974 -43.148)" fill="#c5e4ea" style="mix-blend-mode: multiply;isolation: isolate"/>
      <path id="Tracé_9366" data-name="Tracé 9366" d="M207.878,35.7c-4.48-.161-9.5.918-12.535,4.43a13.472,13.472,0,0,0-3.356,11.406c.829,4.232,3.786,7.947,6.872,10.814,10.591,9.841,24.887,15.558,39.214,16.784l.039,0q1.186.1,2.374.158a48.255,48.255,0,0,0,12.156-.717c7.434-1.544,14.436-6.074,17.138-13.434,2.166-5.9.451-12.3-2.791-17.453a24.953,24.953,0,0,0-8.306-8.3,29.508,29.508,0,0,0-16.469-3.517c-6.186.353-12.139,2.224-18.364,1.982-5.193-.2-10.244-1.829-15.433-2.132C208.238,35.715,208.058,35.706,207.878,35.7Z" transform="translate(-190.69 -32.942)" fill="#337583"/>
      <path id="Tracé_9367" data-name="Tracé 9367" d="M263.654,53.55a11.315,11.315,0,0,1-3.538,6.555c-.291.276-.6.538-.921.791a19.345,19.345,0,0,1-8.881,3.493,49.137,49.137,0,0,1-9.856.291,91.735,91.735,0,0,1-19.734-2.755A44.656,44.656,0,0,1,203.5,53.365c-2.341-1.98-4.421-4.4-4.8-7.207a6.274,6.274,0,0,1-.046-1.32,7.7,7.7,0,0,1,3.085-5.573,9.228,9.228,0,0,1,2.448-1.328c3.884-1.4,8.3-.522,12.189.391a52.909,52.909,0,0,0,9.971,1.581,78.961,78.961,0,0,0,10-.484c8.19-.706,19.366-1.167,25.076,6.064A10.556,10.556,0,0,1,263.654,53.55Z" transform="translate(-192.895 -33.429)" fill="#377a87"/>
      <path id="Tracé_9368" data-name="Tracé 9368" d="M260.115,62.011c-.291.276-.6.538-.921.791a19.345,19.345,0,0,1-8.881,3.493,49.138,49.138,0,0,1-9.856.291,91.736,91.736,0,0,1-19.734-2.755A44.656,44.656,0,0,1,203.5,55.272c-2.341-1.98-4.421-4.4-4.8-7.207a6.274,6.274,0,0,1-.046-1.32,8.442,8.442,0,0,1,5.319-3.4c3.6-.691,7.292.53,10.608,2.088s6.509,3.484,10.078,4.344c4.3,1.036,8.8.446,13.179-.138s8.9-1.151,13.179-.061,8.359,4.214,9.2,8.551A9.2,9.2,0,0,1,260.115,62.011Z" transform="translate(-192.895 -35.336)" fill="#98bcc3" style="mix-blend-mode: multiply;isolation: isolate"/>
      <path id="Tracé_9369" data-name="Tracé 9369" d="M289.385,94.525a25.468,25.468,0,0,1-14.664,14.6,21.249,21.249,0,0,0,7.371-2.009,14.147,14.147,0,0,0,5.721-5.044A11.013,11.013,0,0,0,289.385,94.525Z" transform="translate(-217.306 -55.016)" fill="#7dc4d4"/>
      <path id="Tracé_9370" data-name="Tracé 9370" d="M211,129.591a10.169,10.169,0,0,1-8.4-11.932,13.163,13.163,0,0,0-1.32,4.779,6.712,6.712,0,0,0,1.561,4.582,7.171,7.171,0,0,0,3.7,2.038A23.515,23.515,0,0,0,211,129.591Z" transform="translate(-193.743 -63.466)" fill="#337583"/>
      <path id="Tracé_9371" data-name="Tracé 9371" d="M255.346,141.039a19.967,19.967,0,0,0,13.649-7.6,7.641,7.641,0,0,1-2.8,5.122,11.283,11.283,0,0,1-5.336,2.421A20.449,20.449,0,0,1,255.346,141.039Z" transform="translate(-211.09 -69.05)" fill="#7dc4d4"/>
      <path id="Tracé_9372" data-name="Tracé 9372" d="M190.62,67.487a14.278,14.278,0,0,0,8.236,16.665A27.693,27.693,0,0,1,190.62,67.487Z" transform="translate(-190.185 -45.018)" fill="#337583"/>
      <path id="Tracé_9373" data-name="Tracé 9373" d="M284.42,75.553a19.276,19.276,0,0,0,12.7-23.305,14.864,14.864,0,0,1,1.957,11.641,15.322,15.322,0,0,1-7.28,9.528A23.46,23.46,0,0,1,284.42,75.553Z" transform="translate(-220.418 -39.439)" fill="#7dc4d4"/>
      <path id="Tracé_9374" data-name="Tracé 9374" d="M210.449,31.647a8.613,8.613,0,0,0-6.7,4.839,10.43,10.43,0,0,0-.119,8.386,13.257,13.257,0,0,0,5.687,6.3,19.278,19.278,0,0,1-3.786-9.844,11.833,11.833,0,0,1,.8-5.947A6.063,6.063,0,0,1,210.449,31.647Z" transform="translate(-194.234 -31.647)" fill="#7dc4d4"/>
      <path id="Tracé_9375" data-name="Tracé 9375" d="M255.135,35.31a23.407,23.407,0,0,1,8.815,1.119,14.364,14.364,0,0,1,7.1,5.191,10.409,10.409,0,0,1,1.634,8.5,13.626,13.626,0,0,0,.728-7.191,10.5,10.5,0,0,0-3.8-6.093,12.461,12.461,0,0,0-6.8-2.252A41.384,41.384,0,0,0,255.135,35.31Z" transform="translate(-211.023 -32.583)" fill="#7dc4d4"/>
    </g>
  </g>
</svg>
