<svg xmlns="http://www.w3.org/2000/svg" width="100.183" height="83.504" viewBox="0 0 100.183 83.504">
  <g id="Groupe_3525" data-name="Groupe 3525" transform="translate(-218.988 -164.563)">
    <g id="Groupe_3280" data-name="Groupe 3280" transform="matrix(0.966, 0.259, -0.259, 0.966, 228.807, 158.191)">
      <g id="Groupe_3279" data-name="Groupe 3279" transform="translate(0)">
        <path id="Tracé_9376" data-name="Tracé 9376" d="M72.189,33.838a11.155,11.155,0,0,1-9.628,6.208,7.477,7.477,0,0,1-5.18,12.72A18.3,18.3,0,0,1,36.616,65.89c-3.827-.664-7.852-3.189-8.21-7.056a3.873,3.873,0,0,1-6.031-3.93A17.849,17.849,0,0,1,1.486,45.763a17.608,17.608,0,0,1,.055-14.28,16.9,16.9,0,0,1,6.364-7.6,6.326,6.326,0,0,1,.5-7.672,6.333,6.333,0,0,1,7.606-1.155A17.008,17.008,0,0,1,28.866.369a17,17,0,0,1,17.9,7.789,9.679,9.679,0,0,1,3.959-1.092,8.732,8.732,0,0,1,4.7.768l.16.076a12.619,12.619,0,0,1,2.066,1.284C61.873,12.464,61.3,17.1,60.2,18.461a11.159,11.159,0,0,1,9.073,2.3,10.121,10.121,0,0,1,1.669,1.687,10.428,10.428,0,0,1,1.109,1.765A11.2,11.2,0,0,1,72.189,33.838Z" transform="translate(9.327 4.097)" fill="#fff"/>
        <path id="Tracé_9377" data-name="Tracé 9377" d="M43.366,9.449c-12.412,6.995-22.36,18.909-26.314,32.589A72.539,72.539,0,0,0,0,17.042,53.542,53.542,0,0,0,36.663,0a11.209,11.209,0,0,0,1.375,3.459,12.4,12.4,0,0,0,.73,1.131c.379.556.8,1.091,1.236,1.62.035.038.062.083.1.121q.356.431.734.84A16.934,16.934,0,0,0,43.366,9.449Z" transform="translate(50.186 0)" fill="#fff"/>
        <path id="Tracé_9378" data-name="Tracé 9378" d="M72.189,9.628a11.155,11.155,0,0,1-9.628,6.208,7.672,7.672,0,0,1,1.6,8.065,7.671,7.671,0,0,1-6.775,4.655A18.3,18.3,0,0,1,36.616,41.679c-3.827-.664-7.852-3.189-8.21-7.056a3.873,3.873,0,0,1-6.031-3.93A17.848,17.848,0,0,1,1.486,21.552a17.608,17.608,0,0,1,.055-14.28A15.357,15.357,0,0,0,5.4,20.7a15.325,15.325,0,0,0,18,2.529A3.541,3.541,0,0,0,28.713,26.7a12.974,12.974,0,0,0,22.848-3.087,5.342,5.342,0,0,0,6.211-2.343,5.567,5.567,0,0,0-.88-6.742c4.048.192,8.139-1.9,10.982-4.782A14.725,14.725,0,0,0,72.052,0,11.2,11.2,0,0,1,72.189,9.628Z" transform="translate(9.327 28.308)" fill="#c5e4ea"/>
        <path id="Tracé_9379" data-name="Tracé 9379" d="M15.531,1.284A20.43,20.43,0,0,1,9.057,3.252,49,49,0,0,1,0,3.458,30.7,30.7,0,0,0,13.465,0,12.619,12.619,0,0,1,15.531,1.284Z" transform="translate(51.441 12.008)" fill="#c5e4ea"/>
        <path id="Tracé_9380" data-name="Tracé 9380" d="M9.328,1.491A26.591,26.591,0,0,0,0,13.418,25.716,25.716,0,0,1,6.914,0,10.959,10.959,0,0,1,9.328,1.491Z" transform="translate(69.273 23.365)" fill="#c5e4ea"/>
        <path id="Tracé_9381" data-name="Tracé 9381" d="M.166,0A9.9,9.9,0,0,0,5.475,6.427a9.906,9.906,0,0,0,8.336-.019,4.121,4.121,0,0,0,2.63,2.956,3.845,3.845,0,0,0,3.706-.9,4.494,4.494,0,0,1-3.736,2.578A4.219,4.219,0,0,1,12.54,8.978a8.53,8.53,0,0,1-9.109-.337A8.743,8.743,0,0,1,.166,0Z" transform="translate(26.681 22.062)" fill="#c5e4ea"/>
        <path id="Tracé_9382" data-name="Tracé 9382" d="M8.592,0A5.116,5.116,0,0,1,4.834,3.452,5.116,5.116,0,0,1,0,1.82,5.659,5.659,0,0,0,3.374,5.463,4,4,0,0,0,7.966,4.035,6.55,6.55,0,0,0,8.592,0Z" transform="translate(47.121 40.986)" fill="#c5e4ea"/>
        <path id="Tracé_9383" data-name="Tracé 9383" d="M10.094,1.131A34.393,34.393,0,0,1,0,7.7,36.306,36.306,0,0,0,9.364,0,12.406,12.406,0,0,0,10.094,1.131Z" transform="translate(78.859 3.459)" fill="#c5e4ea"/>
        <path id="Tracé_9384" data-name="Tracé 9384" d="M5.42.961A57.361,57.361,0,0,0,0,4.639,32,32,0,0,1,4.589,0c.035.038.062.083.1.121Q5.042.551,5.42.961Z" transform="translate(85.6 6.211)" fill="#c5e4ea"/>
        <g id="Groupe_2555" data-name="Groupe 2555" transform="translate(0 24.051)">
          <path id="Tracé_9385" data-name="Tracé 9385" d="M2.038,0A18.6,18.6,0,0,0,.3,3.993a7.229,7.229,0,0,0,.05,4.3,4.529,4.529,0,0,0,3.025,2.9A3.326,3.326,0,0,0,7.092,9.61a2.907,2.907,0,0,0-.475-3.194A2.906,2.906,0,0,0,3.46,5.741" transform="translate(66.231 34.169)" fill="none" stroke="#c5e4ea" stroke-miterlimit="10" stroke-width="1"/>
          <path id="Tracé_9386" data-name="Tracé 9386" d="M11.267,3.784A26.14,26.14,0,0,1,5.349,6.045a5.716,5.716,0,0,1-3.188.105A3.264,3.264,0,0,1,0,3.279,3.265,3.265,0,0,1,1.894.224,2.129,2.129,0,0,1,4.03.352,1.289,1.289,0,0,1,4.146,2.3" transform="translate(3.159 0)" fill="none" stroke="#c5e4ea" stroke-miterlimit="10" stroke-width="1"/>
          <path id="Tracé_9387" data-name="Tracé 9387" d="M10.769,0A13.394,13.394,0,0,1,3.814,3.756a4.309,4.309,0,0,1-2.635-.131,1.874,1.874,0,0,1-1.1-2.183" transform="translate(0 7.415)" fill="none" stroke="#c5e4ea" stroke-miterlimit="10" stroke-width="1"/>
          <path id="Tracé_9388" data-name="Tracé 9388" d="M.68,0A11.811,11.811,0,0,0,1.969,10.473" transform="translate(63.475 40.596)" fill="none" stroke="#c5e4ea" stroke-miterlimit="10" stroke-width="1"/>
        </g>
      </g>
    </g>
  </g>
</svg>
