<svg xmlns="http://www.w3.org/2000/svg" width="139.794" height="161.389" viewBox="0 0 139.794 161.389">
  <g id="Groupe_3538" data-name="Groupe 3538" transform="translate(-439.85 -262.69)">
    <path id="Tracé_12276" data-name="Tracé 12276" d="M1299.765-747.859c-61.672-3.674-35.356-92.843,5.386-90.416S1353.624-744.651,1299.765-747.859Z" transform="translate(-793.627 1129.67)" fill="#fdbf21"/>
    <ellipse id="Ellipse_784" data-name="Ellipse 784" cx="6.565" cy="14.044" rx="6.565" ry="14.044" transform="translate(497.461 303.185) rotate(-84.452)" fill="#f71c1c" opacity="0.2"/>
    <path id="Tracé_12081" data-name="Tracé 12081" d="M1340.8-877.26c-1.032-2.525,1.288-5,2.868-6.525,1.967-1.9,4.631-3.937,7.077-4.545l-.8-1.7c-3.491,4.311-5.8,9.505-8.214,14.627l1.71.533c.775-4.15,2.731-7.784,4.715-11.346a1.48,1.48,0,0,0,.055-1.555,1,1,0,0,0-1.542-.228c-2.979,3.1-4.62,7.3-7.27,10.7l1.759,1.612c1.494-2.463,2.454-5.262,3.777-7.835a1.175,1.175,0,1,0-2.1-1.031,47.116,47.116,0,0,0-2.208,4.954c-.537,1.418-1.38,3.205-.71,4.639.2.423.718.751,1.111.337a3.162,3.162,0,0,0,.933-1.518c.222-.821.5-1.625.786-2.42a44.21,44.21,0,0,1,2.192-4.961l-2.1-1.031c-1.209,2.372-2.066,4.987-3.431,7.255-.856,1.422.746,2.92,1.759,1.612,2.5-3.224,4.013-7.344,6.789-10.3l-1.641-1.5c-2.086,3.878-4.079,7.825-4.647,12.35a.9.9,0,0,0,1.71.533c2.139-4.886,4.261-10.126,7.813-13.945.663-.713.36-2.017-.624-1.887a10.268,10.268,0,0,0-3.964,1.718,25.257,25.257,0,0,0-4.613,3.7c-1.857,1.9-5.051,6.423-1.815,8.447.347.217.8-.3.631-.7Z" transform="translate(-828.148 1153.477)" fill="#006838"/>
    <path id="Tracé_12082" data-name="Tracé 12082" d="M1324.508-863.788c-1.835-8.59,3.229-18.838-1.886-27.293,5.264.889,9.687,8.846,12.8,13.28,4.536-5.094,9.844-5.626,15.654-5.172-8.48,7.4-8.677,19.682-14.556,28.359a10.355,10.355,0,0,1-9.193-1.258Z" transform="translate(-820.766 1153.771)" fill="#609d43"/>
    <path id="Tracé_12083" data-name="Tracé 12083" d="M1313.83-848.447l10.481-5.2c-.927-7.261-2.391-10.645-7.171-15.625-3.124-3.254-8.977-9.236-13.255-4.263C1311.413-867.133,1313.813-849.221,1313.83-848.447Z" transform="translate(-812.206 1146.625)" fill="#8fc23e"/>
    <path id="Tracé_12084" data-name="Tracé 12084" d="M1353.224-838.183c-8.158-1.831-12.02-10.947-4.815-17.088a20.21,20.21,0,0,1,10.839-4.677c2.819-.226,6.755,3.141,8.319,2.953C1361.167-856.226,1354.805-844.587,1353.224-838.183Z" transform="translate(-830.812 1139.554)" fill="#8fc23e"/>
    <path id="Tracé_12086" data-name="Tracé 12086" d="M1299.427-741.857c9.73.58,17.449-1.923,23.328-6.426-18.629,5.479-40.411-5.04-48.8-23.355-10.091-22.044.728-44.933,10.156-53.653l-.048.02C1257.329-804.511,1249.214-744.849,1299.427-741.857Z" transform="translate(-793.562 1123.717)" fill="#f71c1c"/>
    <path id="Tracé_12087" data-name="Tracé 12087" d="M1299.427-741.857c9.73.58,17.449-1.923,23.328-6.426-18.629,5.479-40.411-5.04-48.8-23.355-10.091-22.044.728-44.933,10.156-53.653l-.048.02C1257.329-804.511,1249.214-744.849,1299.427-741.857Z" transform="translate(-793.562 1123.717)" fill="#f39c29"/>
    <path id="Tracé_12280" data-name="Tracé 12280" d="M1335.758-771.427c-1.725-1.146-3.658-1.785-5.279-3.143a38.405,38.405,0,0,1-3.7-3.665,40.616,40.616,0,0,0,5.8-7.987.866.866,0,0,0,.107-.478c.085.041.167.09.252.128,1.011.458,1.741-.852,1.176-1.634-1.49-2.06-3.648-3.585-5.3-5.544a54.289,54.289,0,0,1-4.893-6.991c-.256-.424-.5-.854-.752-1.283q1.5-1.357,2.983-2.727c.863-.8-.275-2.2-1.166-1.417q-1.383,1.221-2.79,2.413c-1.957-3.573-3.692-7.277-5.419-10.955a.534.534,0,0,0-.97.447c1.463,4,2.949,8.007,4.778,11.854q-3.8,3.164-7.736,6.159a127.127,127.127,0,0,1-8.936-16.49,15.443,15.443,0,0,0,1.65-1.486c.749-.8-.324-2.136-1.1-1.332-.4.417-.829.807-1.27,1.184-.343-.8-.689-1.592-1.015-2.4-.276-.68-1.248-.2-1.02.47.316.929.653,1.848.99,2.768-5.374,4.043-12.8,6.045-16.79,11.614a.607.607,0,0,0,.741.9,17.282,17.282,0,0,0,2.591-1.406c2.368,6.026,4.751,12.054,7.379,17.971q-4.661,3.041-9.429,5.913c-1.265.763-2.677,1.477-4.111,2.211-1.141-2.48-2.237-4.989-3.356-7.514-.318-.719-1.553-.378-1.348.42a56.1,56.1,0,0,0,2.8,8.088,22.26,22.26,0,0,0-6.224,4.46c-.71.8.221,1.929,1.13,1.807a19,19,0,0,0,6.762-2.674c1.476,2.992,3.127,5.9,4.853,8.666,1.049,1.684,2.181,3.505,3.4,5.334a20.525,20.525,0,0,0-2.632,1.834,1.076,1.076,0,0,0,.861,1.877,19.489,19.489,0,0,0,3.549-1.142c2.648,3.669,5.68,7.121,9.177,9.272a.743.743,0,0,0,1-1.07c-1.861-2.923-4.549-5.309-6.761-7.973-.364-.439-.718-.888-1.074-1.333,2.581-1.33,5.09-2.952,7.423-4.26,1.715-.961,3.413-1.957,5.1-2.97.979,1.518,1.983,3.018,3.05,4.469,1.1,1.5,2.38,3.349,3.818,5.091-3.576,2.272-8.452,4.467-10.865,7.791a.623.623,0,0,0,.605.969c4.138-.591,8.588-4.477,11.957-6.855a12.644,12.644,0,0,0,5.447,3.6,1.3,1.3,0,0,0,1.455-2.021,19.994,19.994,0,0,0-3.671-3.89c3.288-2.406,6.491-4.915,9.6-7.562a.987.987,0,0,0-1.253-1.523c-3.344,2.5-6.716,4.971-10.144,7.359l-.019-.019c-1.786-1.924-3.433-3.973-5.04-6.048q-1.15-1.485-2.24-3.009c1.536-.957,3.062-1.927,4.57-2.923a71.748,71.748,0,0,0,10.158-7.946c.2.219.389.447.589.664,2.5,2.7,5.979,6.827,10.062,6.052A1.191,1.191,0,0,0,1335.758-771.427ZM1290-803.126a.726.726,0,0,0-.093-.133c1.984-1.429,3.878-3.085,5.846-4.379,2.223-1.461,4.763-2.7,7.007-4.248a116.717,116.717,0,0,0,8.118,17.106q-5.322,3.965-10.828,7.684c-.693.469-1.393.93-2.09,1.394C1295.162-791.44,1292.578-797.288,1290-803.126Zm9.777,40.731c-2.23,1.225-4.754,2.284-7.137,3.5-1.2-1.613-2.354-3.261-3.444-4.949a87.335,87.335,0,0,1-5.034-9.049c1.755-1.122,3.435-2.293,4.967-3.231q4.213-2.58,8.285-5.369c1.467,3.169,3.009,6.3,4.684,9.375,1.167,2.14,2.383,4.265,3.659,6.354Q1302.789-764.043,1299.781-762.4Zm12.4-7.216c-1.251.78-2.514,1.542-3.781,2.3q-2.668-3.912-5.016-8.038c-1.4-2.466-2.718-4.97-3.995-7.5.709-.495,1.42-.989,2.124-1.492,3.666-2.621,7.224-5.381,10.707-8.232.968,1.577,1.963,3.14,3.017,4.671a114.425,114.425,0,0,0,8,10.311A81.945,81.945,0,0,1,1312.178-769.611Zm13.285-10.088-.249-.279a123.714,123.714,0,0,1-8.9-11.112q-1.087-1.534-2.13-3.1,3.719-3.109,7.328-6.351c.464.9.943,1.8,1.459,2.675,2.06,3.51,4.854,8.072,8.466,10.455a.807.807,0,0,0-.191.227A36.112,36.112,0,0,1,1325.463-779.7Z" transform="translate(-798.666 1119.976)" fill="#f49625"/>
    <path id="Tracé_12089" data-name="Tracé 12089" d="M1331.711-808.208c10.293-1.7,17.4,17.528,17.818,27.584s-12.035,18.4-20.615,10.808S1317.508-805.861,1331.711-808.208Z" transform="translate(-820.431 1115.961)" fill="#ffe91a" opacity="0.15"/>
    <g id="Groupe_3119" data-name="Groupe 3119" transform="translate(510.566 320.281)">
      <ellipse id="Ellipse_745" data-name="Ellipse 745" cx="6.294" cy="6.155" rx="6.294" ry="6.155" transform="translate(1.028 14.72) rotate(-84.453)" fill="#f71c1c" opacity="0.2"/>
      <circle id="Ellipse_746" data-name="Ellipse 746" cx="5.195" cy="5.195" r="5.195" transform="translate(0 9.704) rotate(-39.452)" fill="#fce9ff"/>
      <circle id="Ellipse_747" data-name="Ellipse 747" cx="2.35" cy="2.35" r="2.35" transform="translate(3.271 9.129)" fill="#543200"/>
      <path id="Tracé_12090" data-name="Tracé 12090" d="M1356.679-783.5a.274.274,0,0,1-.388.357,7.024,7.024,0,0,0-3.339-.72c-1.116.01-.478-1.675,1.855-1.06A2.751,2.751,0,0,1,1356.679-783.5Z" transform="translate(-1344.998 785.055)" fill="#543200"/>
      <path id="Tracé_12091" data-name="Tracé 12091" d="M1352.526-766.664a.935.935,0,0,1-1.021.84.934.934,0,0,1-.84-1.021.935.935,0,0,1,1.02-.84A.935.935,0,0,1,1352.526-766.664Z" transform="translate(-1344.195 777.122)" fill="#fff"/>
    </g>
    <g id="Groupe_3120" data-name="Groupe 3120" transform="translate(488.819 317.95)">
      <ellipse id="Ellipse_748" data-name="Ellipse 748" cx="6.294" cy="6.155" rx="6.294" ry="6.155" transform="translate(1.028 14.939) rotate(-84.453)" fill="#f71c1c" opacity="0.2"/>
      <circle id="Ellipse_749" data-name="Ellipse 749" cx="5.195" cy="5.195" r="5.195" transform="matrix(0.772, -0.635, 0.635, 0.772, 0, 9.923)" fill="#fce9ff"/>
      <circle id="Ellipse_750" data-name="Ellipse 750" cx="2.35" cy="2.35" r="2.35" transform="translate(3.271 9.348)" fill="#543200"/>
      <path id="Tracé_12092" data-name="Tracé 12092" d="M1306.308-788.3a.274.274,0,0,0,.312.425,7.025,7.025,0,0,1,3.415-.064c1.092.224.791-1.551-1.618-1.4A2.752,2.752,0,0,0,1306.308-788.3Z" transform="translate(-1302.16 789.348)" fill="#543200"/>
      <path id="Tracé_12093" data-name="Tracé 12093" d="M1312.488-770.553a.935.935,0,0,1-1.021.84.935.935,0,0,1-.84-1.021.935.935,0,0,1,1.021-.84A.935.935,0,0,1,1312.488-770.553Z" transform="translate(-1304.158 781.23)" fill="#fff"/>
    </g>
    <path id="Tracé_12094" data-name="Tracé 12094" d="M1326.619-757.091l-.186-.02c-4.618-.529-5.381-3.185-5.411-3.3a.322.322,0,0,1,.228-.394.321.321,0,0,1,.394.226c.029.1.715,2.351,4.863,2.826,4.166.479,5.13-2.011,5.14-2.036a.323.323,0,0,1,.415-.19.322.322,0,0,1,.19.414C1332.2-759.441,1331.114-756.655,1326.619-757.091Z" transform="translate(-820.084 1094.263)" fill="#f71c1c" opacity="0.75"/>
    <path id="Tracé_12095" data-name="Tracé 12095" d="M1299.849-760.088c1.913.766,4.722.407,6.268,1.541s-1.414,3.9-5.5,2.312S1296.611-761.386,1299.849-760.088Z" transform="translate(-809.334 1094.059)" fill="#ff5252" opacity="0.7"/>
    <path id="Tracé_12096" data-name="Tracé 12096" d="M1355.617-755.022c-2.013.439-4.724-.381-6.437.481s.749,4.08,5.045,3.192S1359.025-755.766,1355.617-755.022Z" transform="translate(-832.702 1091.663)" fill="#ff5252" opacity="0.7"/>
    <path id="Tracé_12281" data-name="Tracé 12281" d="M1307.519-678.457c.6,12.047,15.227,18.116,15.85,18.368a.5.5,0,0,0,.087.027.64.64,0,0,0,.707-.459.694.694,0,0,0-.327-.887c-.145-.059-14.55-6.037-15.1-17.215" transform="translate(-814.007 1056.717)" fill="#f7841c"/>
    <path id="Tracé_12282" data-name="Tracé 12282" d="M1346.474-676.971c.6,12.043,14.511,17.961,15.1,18.207a.51.51,0,0,0,.091.028.639.639,0,0,0,.705-.454.7.7,0,0,0-.321-.89c-.138-.058-13.812-5.877-14.366-17.057" transform="translate(-831.63 1056.038)" fill="#f7841c"/>
    <path id="Tracé_12287" data-name="Tracé 12287" d="M1404.829-745.956c-3.293,0-7-3.677-11.017-10.929a.459.459,0,0,1,.18-.625.461.461,0,0,1,.626.18c3.789,6.839,7.319,10.455,10.211,10.455,3.833,0,10.2-7.658,10.259-7.735a.461.461,0,0,1,.649-.063.46.46,0,0,1,.063.648C1415.527-753.7,1409.094-745.956,1404.829-745.956Z" transform="translate(-852.975 1092.78)" fill="#bf6511"/>
    <path id="Tracé_12277" data-name="Tracé 12277" d="M1242.21-745.956c-3.781,0-9.485-7.741-9.726-8.07a.5.5,0,0,1,.056-.648.378.378,0,0,1,.575.063c.057.077,5.7,7.735,9.1,7.735,2.563,0,5.694-3.615,9.053-10.455a.385.385,0,0,1,.555-.18.492.492,0,0,1,.16.625C1248.417-749.633,1245.13-745.956,1242.21-745.956Z" transform="translate(-780.017 1092.78)" fill="#bf6511"/>
    <path id="Tracé_12278" data-name="Tracé 12278" d="M1277.778-669.439c-18.809,0-34.246-4.447-45.88-13.219-9.545-7.2-16.352-17.093-20.229-29.415a75.572,75.572,0,0,1-2.911-31c1.046-8.713,3.573-14.983,6.44-15.972a2.625,2.625,0,0,1,2.721.64.286.286,0,0,1-.078.485.611.611,0,0,1-.672-.057,1.441,1.441,0,0,0-1.558-.447c-2.036.7-4.751,5.826-5.9,15.41a75.052,75.052,0,0,0,2.891,30.782c6.044,19.2,22.258,42.1,65.177,42.1,38.738,0,55.647-18.275,63.01-33.606,10.853-22.6,5.843-49.239-1.3-53.3a3.112,3.112,0,0,0-3.019-.174.6.6,0,0,1-.661-.1c-.143-.16-.078-.374.145-.476a4.356,4.356,0,0,1,4.127.213c3.908,2.22,6.958,10.108,7.77,20.1a67.341,67.341,0,0,1-6.16,33.969C1334.227-687.966,1317.079-669.439,1277.778-669.439Z" transform="translate(-768.416 1093.518)" fill="#48afef"/>
    <path id="Tracé_12106" data-name="Tracé 12106" d="M1223.693-757.636l1.133-.6a1.785,1.785,0,0,1,2.037.272l4.271,4.776c.423.473.239,1.1-.412,1.413h0a1.842,1.842,0,0,1-1.823-.156l-5.4-4.178A.861.861,0,0,1,1223.693-757.636Z" transform="translate(-775.875 1093.175)" fill="#f48417"/>
    <path id="Tracé_12107" data-name="Tracé 12107" d="M1230.841-751.139a1.845,1.845,0,0,1-1.824-.156l-5.4-4.178a.879.879,0,0,1-.375-.71.815.815,0,0,0,.261,1.1l5.4,4.178a1.842,1.842,0,0,0,1.823.156,1,1,0,0,0,.639-.846A1.191,1.191,0,0,1,1230.841-751.139Z" transform="translate(-775.878 1092.147)" fill="#e83116" opacity="0.2"/>
    <path id="Tracé_12108" data-name="Tracé 12108" d="M1435.245-755.959l-1.276-.6a2.2,2.2,0,0,0-2.293.272l-4.808,4.776c-.476.473-.269,1.1.463,1.413h0a2.3,2.3,0,0,0,2.053-.156l6.083-4.177C1436.124-754.88,1436.019-755.6,1435.245-755.959Z" transform="translate(-867.913 1092.409)" fill="#f48417"/>
    <path id="Tracé_12109" data-name="Tracé 12109" d="M1427.515-751.282l4.808-4.777a2.117,2.117,0,0,1,1.815-.42l-.169-.079a2.2,2.2,0,0,0-2.293.272l-4.808,4.776c-.476.473-.269,1.1.463,1.413a2.119,2.119,0,0,0,.46.131C1427.218-750.3,1427.083-750.853,1427.515-751.282Z" transform="translate(-867.913 1092.409)" fill="#e83116" opacity="0.2"/>
    <path id="Tracé_12279" data-name="Tracé 12279" d="M1227.02-752.482c.43-.911,3.559-2.3,4.707-1.781s.516,4-1.808,3.768A3.259,3.259,0,0,1,1227.02-752.482Z" transform="translate(-777.657 1091.321)" fill="#bf6511"/>
    <path id="Tracé_12288" data-name="Tracé 12288" d="M1436.507-752.482c-.485-.911-4.007-2.3-5.3-1.781s-.582,4,2.035,3.768A3.609,3.609,0,0,0,1436.507-752.482Z" transform="translate(-869.728 1091.321)" fill="#bf6511"/>
    <path id="Tracé_12289" data-name="Tracé 12289" d="M1288.253-813.629s29.646,10.952,53.107,4.947l1.118,2.444s-19.575,8.74-55.956-5.1Z" transform="translate(-804.294 1118.39)" fill="#fce9ff"/>
    <path id="Tracé_12290" data-name="Tracé 12290" d="M1286.207-810.989s31.681,11.211,55.142,5.206l1.17,2.325s-21.384,8.329-57.765-5.517Z" transform="translate(-803.484 1117.184)" fill="#fce9ff"/>
    <path id="Tracé_12291" data-name="Tracé 12291" d="M1287.3-812.768s30.2,10.864,53.658,4.858l1.578,2.925s-20.933,8.5-57.314-5.348Z" transform="translate(-803.698 1117.996)" fill="#48afef"/>
    <path id="Tracé_12283" data-name="Tracé 12283" d="M1332.231-647.176a.657.657,0,0,1,.173,1.015c-1.517,1.82-4.909,5.6-6.152,5.337-1.446-.31-.355-3.38,1.534-4.815a10.181,10.181,0,0,1,3.791-1.806Z" transform="translate(-822.231 1042.474)" fill="#f7841c"/>
    <path id="Tracé_12284" data-name="Tracé 12284" d="M1368.943-645.945a.775.775,0,0,1,.2,1.2c-1.641,1.959-5.152,5.851-6.45,5.572-1.533-.329-.376-3.583,1.626-5.1a10.792,10.792,0,0,1,4.019-1.914Z" transform="translate(-838.694 1041.902)" fill="#f7841c"/>
    <path id="Tracé_12285" data-name="Tracé 12285" d="M1362.448-639.315c1.3.279,4.809-3.613,6.45-5.572a.834.834,0,0,0,.1-.919l.092.038a.775.775,0,0,1,.2,1.2c-1.642,1.959-5.152,5.851-6.45,5.572a.8.8,0,0,1-.533-.36A.928.928,0,0,0,1362.448-639.315Z" transform="translate(-838.838 1041.725)" fill="#f7841c"/>
    <path id="Tracé_12286" data-name="Tracé 12286" d="M1326.046-640.937c1.243.267,4.635-3.518,6.153-5.337a.713.713,0,0,0,.129-.662.658.658,0,0,1,.161,1.008c-1.517,1.82-4.909,5.6-6.152,5.337a.761.761,0,0,1-.565-.457A.833.833,0,0,0,1326.046-640.937Z" transform="translate(-822.315 1042.242)" fill="#f7841c"/>
    <ellipse id="Ellipse_785" data-name="Ellipse 785" cx="30.721" cy="3.739" rx="30.721" ry="3.739" transform="translate(483.52 406.502)" fill="#e6e6e6" style="mix-blend-mode: soft-light;isolation: isolate"/>
  </g>
</svg>
