<svg xmlns="http://www.w3.org/2000/svg" width="103.52" height="79.927" viewBox="0 0 103.52 79.927">
  <g id="Groupe_3526" data-name="Groupe 3526" transform="translate(-59.252 -158.191)">
    <g id="Groupe_3281" data-name="Groupe 3281" transform="translate(59.252 158.191)">
      <g id="Groupe_2561" data-name="Groupe 2561" transform="translate(0 0)">
        <path id="Tracé_9407" data-name="Tracé 9407" d="M197.559,192.818a13.549,13.549,0,0,1-13.425,8.128,7.528,7.528,0,0,1-.761,6.7,7.175,7.175,0,0,1-5.824,3.155,5.271,5.271,0,0,1,1.016,4.681,5.084,5.084,0,0,1-3.245,3.44,10.655,10.655,0,0,1,3.223,8.012,10.483,10.483,0,0,1-3.853,7.674,9.54,9.54,0,0,1,6.154,4.007,10.242,10.242,0,0,1,1.523,7.423,8.853,8.853,0,0,1,7.64.016,9.238,9.238,0,0,1,4.835,6.066,5.269,5.269,0,0,1,4.52-2.283,5.5,5.5,0,0,1,4.444,2.639c1.912-2.941,5.839-3.957,9.251-3.3s6.415,2.669,9.228,4.754a7.368,7.368,0,0,1,2.157-6.146,7.622,7.622,0,0,1,6.413-1.881,2.852,2.852,0,0,1-1.408-3.349,2.732,2.732,0,0,1,3.107-1.762,11,11,0,0,1,.913-8.561,10.538,10.538,0,0,1,6.813-5.051,8.353,8.353,0,0,1-2.723-13.026,3.124,3.124,0,0,1-4.059-.709,3.271,3.271,0,0,1,.3-4.186,7.331,7.331,0,0,1-7.385-3.6,7.6,7.6,0,0,1,.7-8.3,9.537,9.537,0,0,1-8.634,1.022,9.928,9.928,0,0,1-5.913-6.547,8.345,8.345,0,0,1-7.27,6.445C201.859,198.546,198.836,196.093,197.559,192.818Z" transform="translate(-174.69 -191.834)" fill="#e98d22"/>
        <path id="Tracé_9408" data-name="Tracé 9408" d="M228.968,214.7a24.112,24.112,0,0,0-8.3-7.228c-.641-.347-1.291-.667-1.962-.952a27.463,27.463,0,0,0-7.825-2.066c-8.217-.923-16.877,2.352-21.811,9.1a24.413,24.413,0,0,0-4.619,12.335c-.064.73-.089,1.46-.083,2.192a19.455,19.455,0,0,0,13.6,18.9c7.853,2.718,17.25,2.889,24.592-1.333,6.463-3.711,10.849-10.275,10.787-17.819A23.163,23.163,0,0,0,228.968,214.7Z" transform="translate(-177.16 -195.018)" fill="#fdd31c"/>
        <path id="Tracé_9409" data-name="Tracé 9409" d="M233.346,228.921c.062,7.544-4.325,14.108-10.787,17.819-7.342,4.222-16.74,4.051-24.592,1.333a19.455,19.455,0,0,1-13.6-18.9c-.007-.732.019-1.463.083-2.192a15.516,15.516,0,0,0,6.15,10.377c4.45,3.309,10.318,4.319,15.835,3.707a21.477,21.477,0,0,0,9.355-3.091c4.973-3.231,7.891-9.125,8.251-15.049a27.558,27.558,0,0,0-3.373-14.359,24.112,24.112,0,0,1,8.3,7.228A23.163,23.163,0,0,1,233.346,228.921Z" transform="translate(-177.16 -196.105)" fill="#fcd8a9" style="mix-blend-mode: multiply;isolation: isolate"/>
      </g>
      <g id="Groupe_2562" data-name="Groupe 2562" transform="translate(9.848 14.928)">
        <path id="Tracé_9414" data-name="Tracé 9414" d="M277.969,248.317a12.341,12.341,0,0,1-13.046,2.463,3.688,3.688,0,0,1-2.8,4.919c2.907,2.134,3.73,6.358,2.563,9.766s-3.96,6.043-7.06,7.876a26.031,26.031,0,0,1-29.506-2.7,17.157,17.157,0,0,1-15.293,6.1c-3.516-.458-7.368-2.814-7.353-6.358a12.248,12.248,0,0,1-12.323,1.182c-3.859-1.983-6.2-6.81-4.854-10.926a7.3,7.3,0,0,1,2.1-3.15,7.527,7.527,0,0,1,8.377-1.439,6.934,6.934,0,0,1,10.775-5.1,16.784,16.784,0,0,1,8.012-16.454,16.552,16.552,0,0,1,9.931-2.026,10.282,10.282,0,0,1,3.888,1.3c.894.537,2.542,1.9,2.6,3.064-.144-2.893,2.269-6.329,5.47-5.477a8.7,8.7,0,0,1-5.262-4.59,10.563,10.563,0,0,1-1.4-5.249,9.189,9.189,0,0,1,6.036-8.556c3.558-1.131,7.912.709,9.243,4.2a12.313,12.313,0,0,1,21.959,10.482,12.336,12.336,0,0,1,8.227,3.737,11.728,11.728,0,0,1,2.571,3.981A12.341,12.341,0,0,1,277.969,248.317Z" transform="translate(-187.915 -211.88)" fill="#fff"/>
        <path id="Tracé_9415" data-name="Tracé 9415" d="M277.969,255a12.341,12.341,0,0,1-13.046,2.463,3.688,3.688,0,0,1-2.8,4.919c2.907,2.134,3.73,6.358,2.563,9.766s-3.96,6.043-7.06,7.876a26.031,26.031,0,0,1-29.506-2.7,17.157,17.157,0,0,1-15.293,6.1c-3.516-.458-7.368-2.814-7.353-6.358a12.248,12.248,0,0,1-12.323,1.182c-3.859-1.983-6.2-6.81-4.854-10.926a7.3,7.3,0,0,1,2.1-3.15,6.6,6.6,0,0,0,.888,5.67,8.14,8.14,0,0,0,7.382,3.151,11.426,11.426,0,0,0,7.232-3.91,8.927,8.927,0,0,0,17.069-.508,2.171,2.171,0,0,0,3.386-.15,18.725,18.725,0,0,0,18.308,3.429,11.917,11.917,0,0,0,5.943-4.3,7.027,7.027,0,0,0,.594-7.081,4.015,4.015,0,0,0,4-.387,3.637,3.637,0,0,0,1.454-3.516c1.518.566,3.659-.357,4.861-1.446a4.579,4.579,0,0,0,1.353-4.432,11.636,11.636,0,0,0,15.394-12.638,11.728,11.728,0,0,1,2.571,3.981A12.341,12.341,0,0,1,277.969,255Z" transform="translate(-187.915 -218.561)" fill="#c5e4ea" style="mix-blend-mode: multiply;isolation: isolate"/>
        <path id="Tracé_9416" data-name="Tracé 9416" d="M247.608,247.1a9.069,9.069,0,0,1-4.813,11.639,2.456,2.456,0,0,1,.33,2.137,2.642,2.642,0,0,1-1.477,1.693,2.393,2.393,0,0,0,2.423-.733,2.424,2.424,0,0,0,.409-2.516,3.864,3.864,0,0,0,2.239-1.323,8.88,8.88,0,0,0,2.319-5.258A9.094,9.094,0,0,0,247.608,247.1Z" transform="translate(-201.632 -220.871)" fill="#c5e4ea" style="mix-blend-mode: multiply;isolation: isolate"/>
        <path id="Tracé_9417" data-name="Tracé 9417" d="M267.7,222.108a6.081,6.081,0,0,0,5.151,8.546,3.012,3.012,0,0,0,.973,3.191,3.134,3.134,0,0,0,3.4.288,2.953,2.953,0,0,1-2.878-1.211,3.056,3.056,0,0,1-.089-3.181,7.061,7.061,0,0,1-4.949-2.318A7.277,7.277,0,0,1,267.7,222.108Z" transform="translate(-208.152 -214.491)" fill="#c5e4ea" style="mix-blend-mode: multiply;isolation: isolate"/>
      </g>
    </g>
  </g>
</svg>
