<svg xmlns="http://www.w3.org/2000/svg" width="111.513" height="162.652" viewBox="0 0 111.513 162.652">
  <g id="Groupe_3536" data-name="Groupe 3536" transform="translate(-668.164 -79.451)">
    <g id="Groupe_3254" data-name="Groupe 3254" transform="translate(7458.83 5812.144)">
      <path id="Tracé_12400" data-name="Tracé 12400" d="M-359.429-468.959l4.934-9.933c-4.049-7.688-39.914-29.82-45.6-21.457C-384.969-497.8-359.72-469.83-359.429-468.959Z" transform="translate(-6380.572 -5189.485)" fill="#8fc23e"/>
      <path id="Tracé_12401" data-name="Tracé 12401" d="M-312.185-496.111c-42.386,1.583-30.322-61.094-2.321-62.14S-275.17-497.494-312.185-496.111Z" transform="translate(-6418.344 -5154.333)" fill="#fdbf21"/>
      <ellipse id="Ellipse_789" data-name="Ellipse 789" cx="9.641" cy="4.507" rx="9.641" ry="4.507" transform="translate(-6741.665 -5712.61)" fill="#f71c1c" opacity="0.2"/>
      <g id="Groupe_3247" data-name="Groupe 3247" transform="translate(-6747.641 -5732.693)">
        <path id="Tracé_12296" data-name="Tracé 12296" d="M-275.069-602.49c-.872-1.657.548-3.5,1.527-4.649a12.221,12.221,0,0,1,4.534-3.575l-.657-1.105c-2.1,3.178-3.335,6.88-4.642,10.54l1.2.251a25.922,25.922,0,0,1,2.469-8.065,1.016,1.016,0,0,0-.066-1.067.687.687,0,0,0-1.069-.053c-1.83,2.313-2.672,5.3-4.257,7.8l1.309.984c.857-1.782,1.328-3.758,2.061-5.6a.807.807,0,1,0-1.507-.565,32.359,32.359,0,0,0-1.18,3.531c-.273,1-.73,2.281-.178,3.217.163.276.541.466.782.157a2.17,2.17,0,0,0,.537-1.1c.1-.576.231-1.143.377-1.706a30.376,30.376,0,0,1,1.169-3.536l-1.507-.565c-.669,1.7-1.081,3.545-1.863,5.185-.49,1.029.7,1.946,1.309.984,1.492-2.369,2.255-5.285,3.955-7.489l-1.221-.914a24.378,24.378,0,0,0-2.356,8.747.615.615,0,0,0,1.2.25c1.137-3.48,2.24-7.2,4.413-10.047.406-.531.112-1.4-.552-1.248a7.047,7.047,0,0,0-2.594,1.437,17.32,17.32,0,0,0-2.906,2.837c-1.143,1.422-3.025,4.724-.68,5.893.251.125.524-.257.384-.521Z" transform="translate(289.608 612.154)" fill="#006838"/>
        <path id="Tracé_12297" data-name="Tracé 12297" d="M-291.626-590.579c-1.824-5.748.956-13.087-3.1-18.524,3.656.258,7.207,5.4,9.627,8.225,2.761-3.782,6.353-4.5,10.353-4.573-5.3,5.621-4.623,14.025-8.064,20.344a7.11,7.11,0,0,1-6.366-.25Z" transform="translate(300.991 610.241)" fill="#609d43"/>
        <path id="Tracé_12298" data-name="Tracé 12298" d="M-303.064-574.389l6.816-4.251c-1.115-4.9-2.34-7.115-5.937-10.2-2.35-2.017-6.747-5.716-9.34-2.034C-305.956-587-303.127-574.916-303.064-574.389Z" transform="translate(311.525 599.792)" fill="#8fc23e"/>
        <path id="Tracé_12299" data-name="Tracé 12299" d="M-261.191-567.631c-5.7-.71-8.941-6.683-4.424-11.357a13.875,13.875,0,0,1,7.1-3.915c1.911-.342,4.824,1.7,5.88,1.466C-256.962-580.487-260.536-572.112-261.191-567.631Z" transform="translate(284.069 593.836)" fill="#8fc23e"/>
        <path id="Tracé_12300" data-name="Tracé 12300" d="M-278.4-607.384a13.707,13.707,0,0,0,.862,2.579c.336.914.625,2.288,1.375,2.855.6.455,1.268-.2,1.184-.953a4.62,4.62,0,0,0-.626-1.461c-.233-.473-.475-.94-.721-1.4-.409-.77-.943-1.717-1.755-1.948a.269.269,0,0,0-.317.333Z" transform="translate(290.753 609.378)" fill="#006838"/>
      </g>
      <g id="Groupe_3248" data-name="Groupe 3248" transform="translate(-6758.332 -5706.394)" opacity="0.2">
        <path id="Tracé_12301" data-name="Tracé 12301" d="M-312.512-485.635c6.687-.249,11.8-2.472,15.514-5.939-12.366,4.98-27.948-.762-34.892-12.72-8.358-14.393-2.485-30.752,3.379-37.336l-.031.017C-345.437-525.654-347.022-484.346-312.512-485.635Z" transform="translate(340.192 541.631)" fill="#f71c1c"/>
        <path id="Tracé_12302" data-name="Tracé 12302" d="M-312.512-485.635c6.687-.249,11.8-2.472,15.514-5.939-12.366,4.98-27.948-.762-34.892-12.72-8.358-14.393-2.485-30.752,3.379-37.336l-.031.017C-345.437-525.654-347.022-484.346-312.512-485.635Z" transform="translate(340.192 541.631)" fill="#f71c1c" opacity="0.2"/>
      </g>
      <path id="Tracé_12402" data-name="Tracé 12402" d="M-285.467-506.745a36.735,36.735,0,0,1-3.815-1.8,26.3,26.3,0,0,1-2.77-2.259,27.879,27.879,0,0,0,3.43-5.842.6.6,0,0,0,.042-.333c.06.022.12.05.18.07.721.246,1.133-.7.7-1.194-1.155-1.309-2.73-2.208-3.989-3.437a37.225,37.225,0,0,1-3.807-4.452c-.2-.273-.4-.55-.6-.827q.934-1.026,1.858-2.061c.537-.6-.335-1.488-.891-.891q-.864.927-1.746,1.835c-1.574-2.311-3.006-4.727-4.43-7.126a.367.367,0,0,0-.633.37c1.265,2.634,2.547,5.276,4.052,7.783q-2.388,2.414-4.877,4.722a87.237,87.237,0,0,1-7.2-10.675,10.588,10.588,0,0,0,1.029-1.125c.459-.593-.364-1.438-.838-.838-.246.312-.513.606-.789.893-.288-.521-.576-1.042-.852-1.569-.234-.446-.867-.055-.666.389.278.614.569,1.219.86,1.825-3.4,3.12-8.343,4.98-10.7,9.051a.417.417,0,0,0,.566.566,11.835,11.835,0,0,0,1.677-1.133c2.018,3.96,4.047,7.921,6.235,11.79q-2.983,2.387-6.05,4.666c-.814.6-1.731,1.187-2.663,1.784-.944-1.618-1.86-3.26-2.792-4.912-.266-.47-1.087-.155-.894.377a38.525,38.525,0,0,0,2.447,5.341,15.287,15.287,0,0,0-3.957,3.461c-.432.593.279,1.3.892,1.16a13.046,13.046,0,0,0,4.443-2.277c1.207,1.947,2.528,3.821,3.891,5.6.829,1.081,1.723,2.25,2.677,3.419a14.127,14.127,0,0,0-1.677,1.428.739.739,0,0,0,.713,1.226,13.374,13.374,0,0,0,2.349-1.016,23.491,23.491,0,0,0,6.886,5.727.51.51,0,0,0,.615-.8c-1.466-1.874-3.46-3.326-5.149-5-.278-.276-.549-.559-.822-.839,1.675-1.08,3.282-2.355,4.79-3.4,1.108-.771,2.2-1.564,3.287-2.368.77.972,1.555,1.931,2.38,2.851.854.954,1.849,2.13,2.947,3.225-2.293,1.79-5.479,3.614-6.907,6.045a.428.428,0,0,0,.478.622c2.789-.679,5.571-3.629,7.716-5.477a8.686,8.686,0,0,0,3.96,2.1.892.892,0,0,0,.86-1.477,13.727,13.727,0,0,0-2.766-2.415c2.088-1.862,4.109-3.789,6.058-5.8a.677.677,0,0,0-.957-.957c-2.12,1.93-4.26,3.842-6.444,5.7l-.014-.012c-1.348-1.2-2.61-2.487-3.845-3.8q-.885-.939-1.731-1.907c.986-.755,1.964-1.52,2.929-2.3a49.256,49.256,0,0,0,6.414-6.1c.15.137.3.279.447.415,1.884,1.68,4.538,4.268,7.277,3.468A.818.818,0,0,0-285.467-506.745Zm-33.368-18.623a.481.481,0,0,0-.073-.085c1.261-1.108,2.445-2.365,3.7-3.38,1.422-1.146,3.075-2.158,4.506-3.368a80.107,80.107,0,0,0,6.683,11.15q-3.374,3.063-6.889,5.969c-.442.367-.89.728-1.335,1.091C-314.535-517.725-316.688-521.55-318.835-525.368Zm9.384,27.183c-1.443.984-3.1,1.875-4.644,2.866-.928-1.022-1.825-2.072-2.682-3.153a59.894,59.894,0,0,1-4.04-5.849c1.124-.883,2.195-1.795,3.179-2.537q2.708-2.043,5.305-4.218c1.213,2.068,2.474,4.108,3.823,6.095.939,1.384,1.911,2.756,2.922,4.1Q-307.5-499.511-309.451-498.185Zm7.993-5.754q-1.2.924-2.431,1.821-2.083-2.5-3.961-5.16c-1.117-1.592-2.187-3.215-3.227-4.857.452-.385.9-.77,1.353-1.161,2.331-2.034,4.579-4.156,6.77-6.336.766,1.013,1.549,2.015,2.371,2.991a78.468,78.468,0,0,0,6.147,6.514A56.253,56.253,0,0,1-301.458-503.938Zm8.408-7.775-.189-.174a84.874,84.874,0,0,1-6.82-7q-.845-.976-1.661-1.977,2.335-2.371,4.586-4.826c.377.585.764,1.165,1.175,1.731,1.64,2.262,3.853,5.193,6.479,6.582a.557.557,0,0,0-.115.167A24.786,24.786,0,0,1-293.05-511.714Z" transform="translate(-6426.104 -5168.484)" fill="#f49625"/>
      <path id="Tracé_12403" data-name="Tracé 12403" d="M-367.547-435.133l6.417-8.885c-5.93-9.121-52.46-38.137-57.066-28.119C-401.127-469.241-368.035-436.167-367.547-435.133Z" transform="translate(-6369.224 -5207.041)" fill="#609d43"/>
      <path id="Tracé_12404" data-name="Tracé 12404" d="M-274.482-353.959a5.347,5.347,0,0,1-5.12-4.089v-46.77A1.183,1.183,0,0,1-278.419-406h7.516a1.183,1.183,0,0,1,1.183,1.183v46.77A4.617,4.617,0,0,1-274.482-353.959Z" transform="translate(-6456.134 -5249.815)" fill="#609d43"/>
      <path id="Tracé_12405" data-name="Tracé 12405" d="M-274.438-366.85a5.1,5.1,0,0,1-5.12-3.366v-38.5a1.094,1.094,0,0,1,1.183-.974h7.516a1.094,1.094,0,0,1,1.183.974v38.5C-270.249-366.711-274.438-366.85-274.438-366.85Z" transform="translate(-6456.162 -5247.505)" fill="#609d43"/>
      <path id="Tracé_12406" data-name="Tracé 12406" d="M-347.278-350.705-349-361.661c-7.751-3.927-49.808-1.223-49.609,8.89C-384.794-359.444-348.019-351.247-347.278-350.705Z" transform="translate(-6381.505 -5276.539)" fill="#8fc23e"/>
      <path id="Tracé_12407" data-name="Tracé 12407" d="M-266.654-357.557l3.792-8.373c8.129-3.021,47.506-1.077,45.328,6.647C-229.333-364.339-265.844-357.973-266.654-357.557Z" transform="translate(-6464.254 -5274.093)" fill="#8fc23e"/>
      <path id="Tracé_12408" data-name="Tracé 12408" d="M-354.043-368.228l1.1-13.258c-7.779-7.672-56.723-21.788-59.334-10.121C-394.573-393.6-354.74-369.152-354.043-368.228Z" transform="translate(-6372.936 -5256.053)" fill="#609d43"/>
      <path id="Tracé_12409" data-name="Tracé 12409" d="M-330.626-322.4l-2.54-7.569c-6.108-2.383-36.437,1.449-35.108,8.5C-358.986-326.768-331.229-322.746-330.626-322.4Z" transform="translate(-6400.503 -5297.049)" fill="#609d43"/>
      <path id="Tracé_12410" data-name="Tracé 12410" d="M-263.887-323.79l1.1-6.766c4.727-3.238,30.267-6.406,30.1-.32C-241.054-333.3-263.434-324.2-263.887-323.79Z" transform="translate(-6465.989 -5294.761)" fill="#609d43"/>
      <path id="Tracé_12411" data-name="Tracé 12411" d="M-263.377-458.948l-22.962-6.461c4.019-8.985,40.888-48.843,52.194-44.8C-253.083-492.661-263.182-459.871-263.377-458.948Z" transform="translate(-6451.91 -5184.285)" fill="#8fc23e"/>
      <path id="Tracé_12412" data-name="Tracé 12412" d="M-269.154-394.448l-6.6-9.7c5.041-6.136,48.544-24.781,55.149-18.517C-238.786-420.068-268.784-395.136-269.154-394.448Z" transform="translate(-6458.549 -5238.57)" fill="#4a7c31"/>
      <path id="Tracé_12413" data-name="Tracé 12413" d="M-270.165-413.11l-9.855-11.662c4.454-5.186,36.89-24.42,43.616-19.493C-252.486-436.329-269.853-413.686-270.165-413.11Z" transform="translate(-6455.873 -5225.319)" fill="#8fc23e"/>
      <path id="Tracé_12414" data-name="Tracé 12414" d="M-279.636-417.6l-16.1-2.385c.676-6.8,16.223-41.159,24.559-40.978C-279.8-445.239-279.71-418.248-279.636-417.6Z" transform="translate(-6446.02 -5215.351)" fill="#609d43"/>
      <path id="Tracé_12415" data-name="Tracé 12415" d="M-368.226-408.086l4.818-10.36c-7.792-8.46-60.734-30.567-63.491-19.342C-408.972-437.741-368.922-409.078-368.226-408.086Z" transform="translate(-6363.766 -5227.93)" fill="#4a7c31"/>
      <path id="Tracé_12416" data-name="Tracé 12416" d="M-284.885-414.881l-8.741-7.824c3.414-7.17,41.14-35.75,49.061-31.262C-261.586-447.064-284.691-415.638-284.885-414.881Z" transform="translate(-6447.34 -5219.438)" fill="#609d43"/>
      <path id="Tracé_12417" data-name="Tracé 12417" d="M-274.94-249.273s-4.656-32.446-4.656-32.936h0c5.769,1.555,7.254-3.7,9.944-3.7,0,0-.052,3.7-.046,3.7-4.571,12.26-.729,23.181-4.481,37.147C-274.471-243.976-274.94-249.358-274.94-249.273Z" transform="translate(-6456.138 -5325.124)" fill="#775547"/>
      <path id="Tracé_12418" data-name="Tracé 12418" d="M-278.28-214.791c-1.7.808-4.759.03-4.31,2.976.166-.345.281-.578.393-.813.544-1.147,2.5-.915,3.562-.93-.266.758-.524,1.488-.81,2.3-.417.453-.906.837-1.323,1.29a2.262,2.262,0,0,0-.51,2.2c.267-.889.543-1.769,1.579-2.142a9,9,0,0,0,.666,6.345c.14-1.921-.393-3.692.027-5.657a12.347,12.347,0,0,1,1.9-3.914l-.494-3.455a10.079,10.079,0,0,1-.315,1.37A.643.643,0,0,1-278.28-214.791Z" transform="translate(-6454.233 -5368.591)" fill="#775547"/>
      <path id="Tracé_12419" data-name="Tracé 12419" d="M-290.815-269.168c-1.489-.191-2.993-.834-4.5-.744a3.059,3.059,0,0,0-2.716,2.348c.142-.153.252-.288.379-.4,1.768-1.624,3.417-.927,5.413-.252a6.454,6.454,0,0,0-1.816,1.669,2.207,2.207,0,0,0-.218,2.179c.615-1.238.842-2.054,2.145-2.8a11.509,11.509,0,0,1,1.725-.786,7.1,7.1,0,0,0,1.83-.979,16.641,16.641,0,0,0-.544,5.506c.138,1.668,1.283,2.935,1.825,4.461a14.5,14.5,0,0,1,.5,2.039,6.2,6.2,0,0,0,.25-.914,3.434,3.434,0,0,0-.1-1.671,30.626,30.626,0,0,1-1.14-3.222,19.265,19.265,0,0,1-.14-3.175.8.8,0,0,1,.058-.2c.936,1.244,2.513,1.99,3.279,3.329a17.854,17.854,0,0,1,1.127,3.249,8.153,8.153,0,0,0-1.831-5.34c-.4-.564-1.018-1.028-1.479-1.553a2.292,2.292,0,0,1-.657-1.529c.723-2.233,2.151-4.122,2.815-6.357l-1.708-1.07C-286.535-272.681-288.5-270.525-290.815-269.168Z" transform="translate(-6444.577 -5331.727)" fill="#775547"/>
      <path id="Tracé_12420" data-name="Tracé 12420" d="M-261.638-259.762a14.178,14.178,0,0,0,.157,4.347c.244.916.984,2.713,2.016,3.014a6.665,6.665,0,0,1-1.172-4.515.955.955,0,0,1,.032-.193,5.5,5.5,0,0,1,2.268,2.13,5.217,5.217,0,0,0,.55,1.157c-.092-.516-.105-.84-.2-1.234-.349-1.44-1.664-2.143-2.514-3.253.014-.579.029-1.21.044-1.832l-1.438-1.142A2.934,2.934,0,0,1-261.638-259.762Z" transform="translate(-6467.238 -5340.566)" fill="#775547"/>
      <path id="Tracé_12421" data-name="Tracé 12421" d="M-286.1-276.145c.225-.759.469-1.517.756-2.267.05-.13.157-.462.287-.8l2.977-2.864a5.772,5.772,0,0,0-.443.742,14.945,14.945,0,0,0-1.816,4.666,5.6,5.6,0,0,0,.433,2.731,4.15,4.15,0,0,0,.9,1.345,9.1,9.1,0,0,0,2.188,1.268,5,5,0,0,1,1.752,1.561,14.16,14.16,0,0,1,1.72,4.166.364.364,0,0,1-.044.373,14.823,14.823,0,0,0-1.863-3.925,7.074,7.074,0,0,0-3.756-2.03,7.971,7.971,0,0,1,.267,1.079c.212,1.636-.624,3.568-.957,5.29a1.739,1.739,0,0,0,.177,1.574c-1.4-.068-.33-3.823-.144-4.818-.711,1.319-2,2.533-2.372,3.7-.261-.613,1.206-2.563,1.546-3.165a4.8,4.8,0,0,0,.75-2.437c-.172-1.775-1.161-2.951-1.768-4.448a27.72,27.72,0,0,1-2.56,5.748,11.937,11.937,0,0,0,.106,3.1,8.119,8.119,0,0,1-.4,3.127,8.4,8.4,0,0,1-1.3,2.711,8.015,8.015,0,0,1-1.784,1.9c.47-1.047,1.4-1.9,1.887-2.973a10.236,10.236,0,0,0,.692-2.562,12.624,12.624,0,0,0-.223-4.212c-.435.345-.844.7-1.273,1a2.589,2.589,0,0,0-.82,1.042c-.565,1.148-.521,2.384-1.109,3.562a4.083,4.083,0,0,1-1.24,1.753,10.283,10.283,0,0,0,1-2.028c.355-1.128.245-2.372.678-3.455a6.4,6.4,0,0,0-1.537.942,9.063,9.063,0,0,0-1.535,1.587,6.959,6.959,0,0,1-.761.926.932.932,0,0,1-.467.258c.13-.223.262-.448.4-.671a10.436,10.436,0,0,1,3.089-3.576,12.042,12.042,0,0,0,3.327-2.553,14.409,14.409,0,0,0,2.208-3.778C-286.682-273.708-286.447-274.96-286.1-276.145Z" transform="translate(-6445.756 -5327.53)" fill="#775547"/>
      <path id="Tracé_12422" data-name="Tracé 12422" d="M-272.057-240.143c-.279-.738-.541-1.487-.765-2.254-.039-.134-.154-.462-.251-.8l.639-4.065a5.8,5.8,0,0,0,.094.855,14.887,14.887,0,0,0,1.368,4.8,5.584,5.584,0,0,0,1.988,1.907,4.134,4.134,0,0,0,1.523.527,9.077,9.077,0,0,0,2.5-.311,4.981,4.981,0,0,1,2.33.184,14.107,14.107,0,0,1,3.872,2.271.363.363,0,0,1,.189.323,14.755,14.755,0,0,0-3.841-1.992,7.044,7.044,0,0,0-4.2.65,7.948,7.948,0,0,1,.862.7c1.153,1.17,1.653,3.207,2.425,4.774.294.595.524,1,1.088,1.143-1.153.789-2.563-2.835-3.014-3.737.23,1.475-.065,3.215.346,4.364-.576-.329-.586-2.76-.679-3.442a4.774,4.774,0,0,0-.872-2.386c-1.2-1.3-2.7-1.643-4.08-2.465a27.633,27.633,0,0,1,1.428,6.1,11.893,11.893,0,0,0,1.953,2.4,8.082,8.082,0,0,1,1.567,2.719,8.369,8.369,0,0,1,.6,2.933,7.98,7.98,0,0,1-.27,2.584c-.257-1.114-.033-2.348-.292-3.495a10.2,10.2,0,0,0-.993-2.45,12.577,12.577,0,0,0-2.712-3.208c-.137.536-.248,1.063-.408,1.561a2.581,2.581,0,0,0-.023,1.32c.242,1.251,1.021,2.205,1.264,3.495a4.069,4.069,0,0,1,.072,2.138,10.262,10.262,0,0,0-.429-2.21c-.4-1.108-1.234-2.03-1.542-3.15a6.371,6.371,0,0,0-.653,1.673,9.032,9.032,0,0,0-.263,2.183,6.916,6.916,0,0,1-.047,1.193.928.928,0,0,1-.214.486c-.031-.255-.061-.513-.089-.772a10.392,10.392,0,0,1,.3-4.7,11.992,11.992,0,0,0,1.1-4.029,14.343,14.343,0,0,0-.522-4.327C-271.053-237.858-271.621-238.993-272.057-240.143Z" transform="translate(-6460.229 -5349.356)" fill="#775547"/>
      <path id="Tracé_12423" data-name="Tracé 12423" d="M-262.38-261.623c-.209-.593-.4-1.194-.561-1.807-.027-.106-.112-.37-.181-.644l.765-3.169a4.064,4.064,0,0,0,.04.677,10.691,10.691,0,0,0,.966,3.833,4.645,4.645,0,0,0,1.655,1.588,3.9,3.9,0,0,0,1.314.482,8.918,8.918,0,0,0,2.216-.133,4.881,4.881,0,0,1,2.042.249,12.637,12.637,0,0,1,3.3,1.959.28.28,0,0,1,.151.262,13.44,13.44,0,0,0-3.282-1.739,6.9,6.9,0,0,0-3.732.324,6.8,6.8,0,0,1,.724.585c.957.972,1.3,2.6,1.9,3.863.229.481.412.808.9.948-1.054.569-2.116-2.344-2.467-3.074.128,1.171-.217,2.526.087,3.448-.491-.285-.378-2.2-.426-2.738a3.482,3.482,0,0,0-.648-1.915c-1-1.08-2.293-1.413-3.469-2.121a19.71,19.71,0,0,1,.953,4.864,9.494,9.494,0,0,0,1.6,1.975A6.144,6.144,0,0,1-257.3-251.7a5.958,5.958,0,0,1,.384,2.334,5.679,5.679,0,0,1-.366,2.021c-.171-.887.088-1.848-.083-2.762a7.477,7.477,0,0,0-.752-1.971,10.1,10.1,0,0,0-2.228-2.644c-.147.415-.271.825-.437,1.21a1.832,1.832,0,0,0-.086,1.037c.151.995.789,1.78.939,2.805a2.877,2.877,0,0,1-.044,1.685,7.252,7.252,0,0,0-.267-1.757c-.295-.889-.985-1.652-1.2-2.547A4.787,4.787,0,0,0-262.1-251a6.423,6.423,0,0,0-.34,1.706,4.89,4.89,0,0,1-.1.936.706.706,0,0,1-.213.373c-.015-.2-.028-.406-.04-.611a7.38,7.38,0,0,1,.5-3.681,8.78,8.78,0,0,0,1.172-3.12,10.129,10.129,0,0,0-.244-3.427C-261.61-259.781-262.053-260.7-262.38-261.623Z" transform="translate(-6466.469 -5336.828)" fill="#775547"/>
    </g>
  </g>
</svg>
