<svg xmlns="http://www.w3.org/2000/svg" width="178.122" height="154.719" viewBox="0 0 178.122 154.719">
  <g id="Groupe_3542" data-name="Groupe 3542" transform="translate(-608.298 -101.353)">
    <g id="Groupe_3502" data-name="Groupe 3502" transform="translate(311.755 -374.097)">
      <path id="Tracé_12619" data-name="Tracé 12619" d="M301.593,560.755l68.289,1.077s-8.052-20.38-25.292-17.029c0,0,2.112-22.13-14.746-15.011a30.709,30.709,0,0,0-18.706,23.1S300.51,545.536,301.593,560.755Z" fill="#cfcfcf"/>
      <path id="Tracé_12620" data-name="Tracé 12620" d="M381.283,527.3l68.29,1.077s-8.052-20.38-25.292-17.029c0,0,2.112-22.129-14.746-15.011a30.713,30.713,0,0,0-18.706,23.1S380.2,512.091,381.283,527.3Z" fill="#989898" opacity="0.34" style="isolation: isolate"/>
    </g>
    <g id="Groupe_3503" data-name="Groupe 3503" transform="translate(311.755 -374.097)">
      <path id="Tracé_12668" data-name="Tracé 12668" d="M396.715,500.334c.067,1.494.13,3.007.19,4.514C396.853,503.45,396.8,501.863,396.715,500.334Z" fill="#e8e8e8"/>
      <path id="Tracé_12669" data-name="Tracé 12669" d="M396.423,496.61c-.037,0-.073-.009-.11-.011a18.064,18.064,0,0,1,.332,2.549C396.585,498.225,396.513,497.356,396.423,496.61Z" fill="#e8e8e8"/>
      <path id="Tracé_12670" data-name="Tracé 12670" d="M365.665,507.605a2.738,2.738,0,0,0-.606-.141C365.3,507.509,365.5,507.559,365.665,507.605Z" fill="#e8e8e8"/>
      <path id="Tracé_12671" data-name="Tracé 12671" d="M400.291,535.2l.781-.426C400.552,534.885,400.265,535.074,400.291,535.2Z" fill="#c77353"/>
      <path id="Tracé_12673" data-name="Tracé 12673" d="M387.7,535.041v-2.17c-.016.036-.228.794-.524,1.921Z" fill="#e68652"/>
      <path id="Tracé_12674" data-name="Tracé 12674" d="M376.065,528.22a9.109,9.109,0,0,0,.893,1.691l10.226,4.881c.3-1.127.508-1.885.524-1.921v-.463A21.283,21.283,0,0,1,376.065,528.22Z" fill="#e68652"/>
      <path id="Tracé_12675" data-name="Tracé 12675" d="M391.526,506.094a1.306,1.306,0,0,0-1.286,1.313v.034a1.277,1.277,0,0,0,1.291,1.249,1.308,1.308,0,0,0,1.287-1.313v-.034A1.277,1.277,0,0,0,391.526,506.094Z" fill="#1a2024"/>
      <path id="Tracé_12676" data-name="Tracé 12676" d="M391.911,501.772a3.42,3.42,0,0,0-1.75,1.255c-.324.462-.379.815-.284.868.2.125.941-.9,2.267-1.307,1.322-.425,2.48,0,2.579-.214.05-.1-.183-.36-.693-.562A3.273,3.273,0,0,0,391.911,501.772Z" fill="#1a2024"/>
      <path id="Tracé_12677" data-name="Tracé 12677" d="M380.547,507.093v-.032a1.278,1.278,0,0,0-1.29-1.251,1.307,1.307,0,0,0-1.292,1.313v.036a1.275,1.275,0,0,0,1.29,1.247A1.308,1.308,0,0,0,380.547,507.093Z" fill="#1a2024"/>
      <path id="Tracé_12678" data-name="Tracé 12678" d="M378.508,502.328c1.387.058,2.342.864,2.508.693.079-.074-.055-.4-.47-.767a3.342,3.342,0,0,0-1.989-.772,3.383,3.383,0,0,0-2.066.57c-.458.321-.626.632-.555.715C376.08,502.952,377.123,502.248,378.508,502.328Z" fill="#1a2024"/>
      <path id="Tracé_12679" data-name="Tracé 12679" d="M388.465,512.687a1.983,1.983,0,0,1,.2,1.116c-.063.252-.4.312-.76.334a8.7,8.7,0,0,0-2.268.326,8.6,8.6,0,0,0,2.288.1,2.33,2.33,0,0,0,.6-.06.887.887,0,0,0,.6-.519,2.266,2.266,0,0,0-.138-1.472c-.289-.924-.594-1.888-.913-2.9-1.327-4.107-2.533-7.394-2.69-7.34a51.242,51.242,0,0,0,2.122,7.532Q388.01,511.31,388.465,512.687Z" fill="#1a2024"/>
      <path id="Tracé_12680" data-name="Tracé 12680" d="M379.285,498.854c1.639.112,2.977.564,3.173.2.09-.174-.155-.538-.7-.9a5.13,5.13,0,0,0-2.38-.775,5.014,5.014,0,0,0-2.451.395c-.587.274-.874.6-.807.785C376.272,498.951,377.648,498.708,379.285,498.854Z" fill="#1a2024"/>
      <path id="Tracé_12681" data-name="Tracé 12681" d="M391.227,499.327c1.339-.228,2.51-.086,2.737-.463.1-.182-.119-.493-.656-.741a4.423,4.423,0,0,0-4.421.663c-.438.4-.557.756-.414.9C388.8,499.987,389.88,499.507,391.227,499.327Z" fill="#1a2024"/>
      <path id="Tracé_12682" data-name="Tracé 12682" d="M365.7,507.617l-.036-.012a5.984,5.984,0,0,0-.606-.141c-.511-.059-1.047.019-2.208-.018-1.481.3-2.911,1.412-2.915,4.588-.008,5.845,4.992,5.411,6.015,5.129l-.223-9.533Zm-1.646,7.294a1.1,1.1,0,0,1-.986.16,3,3,0,0,1-1.567-2.827,3.985,3.985,0,0,1,.375-1.808,1.517,1.517,0,0,1,1.126-1,.794.794,0,0,1,.6.173.734.734,0,0,1,.242.41c.05.269-.066.392-.083.376-.033-.017.007-.141-.075-.323a.545.545,0,0,0-.635-.318,1.253,1.253,0,0,0-.811.859,3.886,3.886,0,0,0-.3,1.618,2.878,2.878,0,0,0,1.231,2.53,1.024,1.024,0,0,0,.8-.008c.183-.086.264-.185.29-.164S364.255,514.749,364.059,514.911Z" fill="#f0ad80"/>
      <path id="Tracé_12683" data-name="Tracé 12683" d="M366.093,507.887a.961.961,0,0,0-.361-.257l.223,9.533a.479.479,0,0,0,.2-.081C366.165,516.91,366.1,509.021,366.093,507.887Z" fill="#f0ad80"/>
      <path id="Tracé_12684" data-name="Tracé 12684" d="M363.977,514.757a1.024,1.024,0,0,1-.8.008,2.878,2.878,0,0,1-1.231-2.53,3.885,3.885,0,0,1,.3-1.618,1.253,1.253,0,0,1,.811-.859.544.544,0,0,1,.635.318c.082.182.042.306.075.323.017.016.133-.107.083-.376a.734.734,0,0,0-.242-.41.794.794,0,0,0-.6-.173,1.517,1.517,0,0,0-1.126,1,3.986,3.986,0,0,0-.375,1.808,3,3,0,0,0,1.567,2.827,1.1,1.1,0,0,0,.986-.16c.2-.162.229-.3.208-.318S364.165,514.671,363.977,514.757Z" fill="#e68652"/>
      <path id="Tracé_12685" data-name="Tracé 12685" d="M386.765,521.853a3.4,3.4,0,0,0,2.262-.877c.471-.437.615-.823.541-.881-.141-.152-1.18.976-2.775.972s-2.55-1.141-2.7-.991c-.078.059.038.445.478.886A3.183,3.183,0,0,0,386.765,521.853Z" fill="#1a2024"/>
      <path id="Tracé_12686" data-name="Tracé 12686" d="M403.236,482.5a.91.91,0,0,0-.484-.628c-.4-.135-.754.275-1.035.6a3.283,3.283,0,0,1-.654.693h2.28A4.262,4.262,0,0,0,403.236,482.5Z" fill="#292932"/>
      <path id="Tracé_12687" data-name="Tracé 12687" d="M365.065,507.464a2.737,2.737,0,0,1,.606.141l.063.017-.152-6.5c-.028-.556-.033-1.105-.026-1.651a2.618,2.618,0,0,1-.7.192,1.665,1.665,0,0,1-.932-.184,1.577,1.577,0,0,1-.632-.665,1.7,1.7,0,0,1-.189-.847,1.2,1.2,0,0,1,.063-.29,5.767,5.767,0,0,1-1.616,1.153,4.926,4.926,0,0,1-.525.207c.12-.029.241-.051.36-.088.5,2.408.87,6.861,1.453,8.5h.016A5.914,5.914,0,0,1,365.065,507.464Z" fill="#292932"/>
      <path id="Tracé_12688" data-name="Tracé 12688" d="M384.988,483.507c-.059-.119-.139-.226-.2-.343h-.966c.4.108.792.231,1.18.366Z" fill="#292932"/>
      <path id="Tracé_12689" data-name="Tracé 12689" d="M369.548,499.8a2.037,2.037,0,0,1-1.147-.7,5.128,5.128,0,0,1-.814-2.105,8.017,8.017,0,0,1-.967,1.68,2.643,2.643,0,0,1-1.066.791c-.007.546,0,1.1.026,1.651l.152,6.5c.2.06.34.109.36.119v.146c.6.659.476,2.024,1.661,1.56.71-.28,1.806-3.093,2.047-3.848a38.62,38.62,0,0,0,1.535-7.313,3.447,3.447,0,0,1-.51,1.085A1.312,1.312,0,0,1,369.548,499.8Z" fill="#292932"/>
      <path id="Tracé_12690" data-name="Tracé 12690" d="M408.028,492.5l.375-2.754a4.328,4.328,0,0,0-2.31-.426,12.6,12.6,0,0,1-5.652-1.573,6.371,6.371,0,0,0,1.666-1.205,4.167,4.167,0,0,0,1.236-3.378h-2.28a3.21,3.21,0,0,1-2.494.665,5.307,5.307,0,0,1-2.16-.665c-.062-.034-.127-.062-.187-.1-.026-.03-.051-.062-.078-.091-.32-.354-.633-.692-.941-1.019a20.847,20.847,0,0,0-6.368-5.066,20.053,20.053,0,0,0-11.208-1.082,8.618,8.618,0,0,0-6.432,6.858,6.271,6.271,0,0,0-6.56-.737l-.054-.026a5.281,5.281,0,0,0-1.919,1.262,10.932,10.932,0,0,0-2.559,4.8c-.038.14-.073.281-.109.422a9.579,9.579,0,0,1-3.23,3.267c-.231.138-.5.306-.527.588a.83.83,0,0,0,.4.676,4.7,4.7,0,0,0,1.935.874,11.561,11.561,0,0,1-.8,1.759c-.271.478-.59,1.049-.358,1.553a1,1,0,0,0,1.055.5,2.871,2.871,0,0,0,1.115-.515l-.806,2.007a5.418,5.418,0,0,0,2.015,0,1.012,1.012,0,0,1,.139-.061c.136-.056.335-.139.585-.268a6,6,0,0,0,1.863-1.509l.014-.024v.005h0l.076.073.017.016h0a1.274,1.274,0,0,0-.063,1.414,1.422,1.422,0,0,0,.571.589,1.525,1.525,0,0,0,.845.156,2.457,2.457,0,0,0,.7-.209,2.484,2.484,0,0,0,.936-.726,7.885,7.885,0,0,0,1.066-1.942l.131-.306.059.331a4.971,4.971,0,0,0,.823,2.323,1.831,1.831,0,0,0,1.025.625,1.11,1.11,0,0,0,1.087-.368,3.3,3.3,0,0,0,.594-1.487,11.334,11.334,0,0,0,.208-1.609,26.717,26.717,0,0,0-.046-3.1c-.056-.99-.115-1.933-.1-2.82a12.565,12.565,0,0,1,.268-2.446,6.789,6.789,0,0,1,1.483-3.168,3.68,3.68,0,0,1,.9-.749c.022-.013.04-.03.062-.043l-.029.028a7.886,7.886,0,0,0-.881.833,6.9,6.9,0,0,0-1.4,3.141,12.371,12.371,0,0,0-.216,1.958,11.208,11.208,0,0,1,3.363-2.465l-.107.1c2.53-.889,5.391-1.759,7.784-.477,1.858.994,2.944,3.038,4.327,4.677a12.868,12.868,0,0,0,9.424,5.008c.037,0,.073.01.11.011.09.746.162,1.615.222,2.538.01.165.034.327.04.493.01.23.02.462.03.693.082,1.529.138,3.116.19,4.514q.025.649.05,1.3c.01.246.02.5.03.72l2.19-5.333v.021a10.4,10.4,0,0,0,.463-.942l.048-.1V500.5a16.257,16.257,0,0,1,.721-1.514l.024.022a1.577,1.577,0,0,0,2.225-.165l.038-.045a1.68,1.68,0,0,0,.068-1.995,3.711,3.711,0,0,0-.767-.82,2.448,2.448,0,0,0,2.4.686,2.046,2.046,0,0,0,1.4-2.034,1.787,1.787,0,0,0-1-1.434A5.39,5.39,0,0,0,408.028,492.5Zm-6.1,1-.226.171a2.964,2.964,0,0,1-.385.252,4.806,4.806,0,0,1-.551.3,7.638,7.638,0,0,1-3.873.681,10.948,10.948,0,0,1-5.455-2.2,18.739,18.739,0,0,1-4.673-5.752c-.65-1.153-1.179-2.338-1.763-3.427-.388-.135-.781-.258-1.18-.366h.966a12.746,12.746,0,0,0-1.811-2.582,6.206,6.206,0,0,0-2.6-1.7,4.235,4.235,0,0,0-1.374-.185,4.623,4.623,0,0,0-1.26.236,5.109,5.109,0,0,0-1.887,1.17,5.335,5.335,0,0,0-1.026,1.379,6.768,6.768,0,0,0-.47,1.421.279.279,0,0,1,.008-.1l.043-.291a5.008,5.008,0,0,1,.346-1.07,5.32,5.32,0,0,1,1.018-1.429,5.148,5.148,0,0,1,1.922-1.224,4.693,4.693,0,0,1,1.3-.26,4.293,4.293,0,0,1,1.429.18,6.338,6.338,0,0,1,2.69,1.731,12.865,12.865,0,0,1,1.913,2.726c.044.084.1.159.144.243s.073.146.111.217c.55,1.046,1.058,2.15,1.666,3.227a18.762,18.762,0,0,0,4.607,5.7,10,10,0,0,0,4.22,2.009,9.759,9.759,0,0,0,1.127.193,7.744,7.744,0,0,0,3.831-.607,12.776,12.776,0,0,0,1.269-.706.366.366,0,0,1-.075.06Zm.583-4a6.809,6.809,0,0,1-.963.5,8.86,8.86,0,0,1-1.522.509,10.041,10.041,0,0,1-1.946.245,10.361,10.361,0,0,1-1.958-.166,9.154,9.154,0,0,1-1.548-.444,6.893,6.893,0,0,1-.989-.461,1.512,1.512,0,0,1-.338-.22c.018-.038.517.239,1.375.532a10.073,10.073,0,0,0,1.531.39,10,10,0,0,0,3.83-.076,10.186,10.186,0,0,0,1.509-.451c.842-.33,1.324-.628,1.345-.591a1.458,1.458,0,0,1-.33.233Z" fill="#292932"/>
      <path id="Tracé_12691" data-name="Tracé 12691" d="M396.9,504.848c.017.46.033.89.05,1.3Q396.931,505.5,396.9,504.848Z" fill="#292932"/>
      <path id="Tracé_12692" data-name="Tracé 12692" d="M396.685,499.641c-.006-.166-.03-.328-.04-.493q.039.582.07,1.186C396.7,500.1,396.7,499.871,396.685,499.641Z" fill="#292932"/>
      <path id="Tracé_12693" data-name="Tracé 12693" d="M365.665,507.605l.036.012.027.013v-.008Z" fill="#292932"/>
      <path id="Tracé_12694" data-name="Tracé 12694" d="M365.065,507.464a5.9,5.9,0,0,0-2.208-.018C364.016,507.483,364.552,507.4,365.065,507.464Z" fill="#292932"/>
      <path id="Tracé_12695" data-name="Tracé 12695" d="M365.732,507.622v.008a.961.961,0,0,1,.361.257v-.146C366.072,507.731,365.937,507.682,365.732,507.622Z" fill="#292932"/>
      <path id="Tracé_12696" data-name="Tracé 12696" d="M360.732,499.122a.948.948,0,0,0,.216-.053c.026-.009.051-.022.078-.031-.077.018-.152.041-.229.056A.266.266,0,0,0,360.732,499.122Z" fill="#5e4f40"/>
      <path id="Tracé_12697" data-name="Tracé 12697" d="M371.336,498.286a3.448,3.448,0,0,0,.134-.5,11.5,11.5,0,0,0,.209-1.643,26.653,26.653,0,0,0-.058-3.122c-.064-.99-.129-1.93-.122-2.806,0-.153.017-.3.023-.458-.048.051-.1.1-.147.148A39.007,39.007,0,0,1,371.336,498.286Z" fill="#5e4f40"/>
      <path id="Tracé_12698" data-name="Tracé 12698" d="M363.1,497.968a1.705,1.705,0,0,0,.189.847,1.578,1.578,0,0,0,.632.665,1.665,1.665,0,0,0,.932.184,2.58,2.58,0,0,0,.7-.192v-.2a2.457,2.457,0,0,1-.7.209,1.525,1.525,0,0,1-.845-.156,1.421,1.421,0,0,1-.571-.589,1.274,1.274,0,0,1,.063-1.414h0a4.591,4.591,0,0,1-.331.354A1.217,1.217,0,0,0,363.1,497.968Z" fill="#5e4f40"/>
      <path id="Tracé_12699" data-name="Tracé 12699" d="M363.165,497.678a1.162,1.162,0,0,1,.217-.422,6,6,0,0,1-1.863,1.509c-.25.129-.449.212-.585.268a1.01,1.01,0,0,0-.139.061c.077-.015.152-.038.229-.056a4.929,4.929,0,0,0,.525-.207A5.768,5.768,0,0,0,363.165,497.678Z" fill="#5e4f40"/>
      <path id="Tracé_12700" data-name="Tracé 12700" d="M363.5,497.324l-.017-.017-.078-.07-.019.019a1.161,1.161,0,0,0-.217.422C363.281,497.564,363.394,497.448,363.5,497.324Z" fill="#5e4f40"/>
      <path id="Tracé_12701" data-name="Tracé 12701" d="M374.045,483.8c-.022.013-.04.03-.062.043l.033-.015Z" fill="#5e4f40"/>
      <path id="Tracé_12702" data-name="Tracé 12702" d="M363.4,497.234h0l.078.071Z" fill="#5e4f40"/>
      <path id="Tracé_12703" data-name="Tracé 12703" d="M363.4,497.232l-.014.024.019-.019Z" fill="#5e4f40"/>
      <path id="Tracé_12704" data-name="Tracé 12704" d="M363.5,497.323l-.018-.016.017.017Z" fill="#5e4f40"/>
      <path id="Tracé_12705" data-name="Tracé 12705" d="M365.554,499.472a2.643,2.643,0,0,0,1.066-.791,8.018,8.018,0,0,0,.967-1.68c-.017-.109-.04-.216-.05-.326l.19.028c-.04.1-.1.2-.14.3a5.128,5.128,0,0,0,.814,2.105,2.037,2.037,0,0,0,1.147.7,1.312,1.312,0,0,0,1.278-.434,3.437,3.437,0,0,0,.51-1.085,39.035,39.035,0,0,0,.039-8.384c.046-.052.1-.1.147-.148a12.387,12.387,0,0,1,.216-1.958,6.9,6.9,0,0,1,1.4-3.141,7.969,7.969,0,0,1,.881-.833l-.033.015a3.681,3.681,0,0,0-.9.749,6.8,6.8,0,0,0-1.483,3.168,12.565,12.565,0,0,0-.268,2.446c-.016.887.043,1.83.1,2.82a26.713,26.713,0,0,1,.046,3.1,11.31,11.31,0,0,1-.208,1.609,3.3,3.3,0,0,1-.594,1.487,1.109,1.109,0,0,1-1.087.368,1.826,1.826,0,0,1-1.025-.625,4.972,4.972,0,0,1-.823-2.323l-.059-.331-.131.306a7.883,7.883,0,0,1-1.066,1.942,2.485,2.485,0,0,1-.936.726C365.55,499.34,365.555,499.407,365.554,499.472Z" fill="#5e4f40"/>
      <path id="Tracé_12706" data-name="Tracé 12706" d="M367.537,496.675c.01.11.033.217.05.326.044-.1.1-.2.14-.3Z" fill="#5e4f40"/>
      <path id="Tracé_12707" data-name="Tracé 12707" d="M383.108,480.438a6.348,6.348,0,0,0-2.69-1.731,4.318,4.318,0,0,0-1.429-.18,4.731,4.731,0,0,0-1.3.26,5.149,5.149,0,0,0-1.922,1.224,5.335,5.335,0,0,0-1.018,1.429,5.009,5.009,0,0,0-.346,1.07l-.043.291a.279.279,0,0,0-.008.1,6.768,6.768,0,0,1,.47-1.421,5.335,5.335,0,0,1,1.026-1.379,5.122,5.122,0,0,1,1.887-1.17A4.624,4.624,0,0,1,379,478.7a4.235,4.235,0,0,1,1.374.185,6.206,6.206,0,0,1,2.6,1.7,12.776,12.776,0,0,1,1.811,2.582h.235A12.85,12.85,0,0,0,383.108,480.438Z" fill="#5e4f40"/>
      <path id="Tracé_12708" data-name="Tracé 12708" d="M396.889,494.906a7.638,7.638,0,0,0,3.873-.681,4.814,4.814,0,0,0,.551-.3,2.894,2.894,0,0,0,.385-.252l.226-.171a.367.367,0,0,0,.072-.064,12.773,12.773,0,0,1-1.269.706,7.744,7.744,0,0,1-3.831.607,9.752,9.752,0,0,1-1.127-.193c.019.06.045.116.065.176A10.127,10.127,0,0,0,396.889,494.906Z" fill="#5e4f40"/>
      <path id="Tracé_12709" data-name="Tracé 12709" d="M385,483.53c.092.032.185.06.276.094-.038-.071-.073-.146-.111-.217s-.1-.159-.144-.243h-.235c.063.117.143.224.2.343Z" fill="#5e4f40"/>
      <path id="Tracé_12710" data-name="Tracé 12710" d="M386.765,486.957a18.739,18.739,0,0,0,4.673,5.752,10.082,10.082,0,0,0,4.4,2.027c-.02-.06-.046-.116-.065-.176a10,10,0,0,1-4.22-2.009,18.762,18.762,0,0,1-4.607-5.7c-.608-1.077-1.116-2.181-1.666-3.227-.091-.034-.184-.062-.276-.094C385.584,484.619,386.113,485.8,386.765,486.957Z" fill="#5e4f40"/>
      <path id="Tracé_12711" data-name="Tracé 12711" d="M394.57,490.145a9.148,9.148,0,0,0,1.548.444,10.363,10.363,0,0,0,1.958.166,10.043,10.043,0,0,0,1.946-.245,8.863,8.863,0,0,0,1.522-.509,6.815,6.815,0,0,0,.963-.5,1.447,1.447,0,0,0,.326-.233c-.021-.037-.5.261-1.345.591a10.182,10.182,0,0,1-1.509.451,10,10,0,0,1-3.83.076,10.077,10.077,0,0,1-1.531-.39c-.858-.293-1.357-.57-1.375-.532a1.51,1.51,0,0,0,.338.22A6.938,6.938,0,0,0,394.57,490.145Z" fill="#5e4f40"/>
      <path id="Tracé_12712" data-name="Tracé 12712" d="M320.924,550.947c11.575-13.694,14.3-14.869,14.3-14.869.012.049.032.1.045.151,2.309-1.03,12.753-5.35,23.371-4.325a2.532,2.532,0,0,1-.309-1.736c-13.952-.163-39.247,11.386-61.788,25.464V565.1A262.927,262.927,0,0,1,320.924,550.947Z" fill="#d83808"/>
      <path id="Tracé_12713" data-name="Tracé 12713" d="M372.839,607.1a179.921,179.921,0,0,1-16.874,23.065h.973a169.032,169.032,0,0,0,16.219-22.71Q372.988,607.281,372.839,607.1Z" fill="#59251f"/>
      <path id="Tracé_12714" data-name="Tracé 12714" d="M317.443,555.12c1.243-1.51,2.4-2.892,3.481-4.173a262.893,262.893,0,0,0-24.38,14.149v35.068a29.927,29.927,0,0,0,1.586,9.621c4.8-5.606,11.686-13.787,17.418-21.1C307.346,581,305.031,570.2,317.443,555.12Z" fill="#59251f"/>
      <path id="Tracé_12715" data-name="Tracé 12715" d="M348.6,630.164h7.368A179.921,179.921,0,0,0,372.839,607.1a5.507,5.507,0,0,1-.419-.6A209.935,209.935,0,0,1,348.6,630.164Z" fill="#59251f"/>
      <path id="Tracé_12716" data-name="Tracé 12716" d="M388.85,575.625c-1.308,3.185-2.808,6.623-4.514,10.245-1.571,3.541-3.37,7.323-5.412,11.256.221.107.433.218.631.33a118.09,118.09,0,0,0,12.41-22.547c-1.8.764-2.879,1.217-2.879,1.217C389,575.954,388.927,575.791,388.85,575.625Z" fill="#e8b03c"/>
      <path id="Tracé_12717" data-name="Tracé 12717" d="M373.612,546.9l-.006.014a1.877,1.877,0,0,0-.119.35l5.258,3.6a2.872,2.872,0,0,0-.125-.335,7.588,7.588,0,0,0-1.72-2.146,8.216,8.216,0,0,0-1.8-1.185c-.527-.166-1.009-.339-1.43-.518A.676.676,0,0,1,373.612,546.9Z" fill="#e8b03c"/>
      <path id="Tracé_12718" data-name="Tracé 12718" d="M376.558,545.019a23.259,23.259,0,0,1-5.336-3.4c.777,1.559,1.416,2.877,1.75,3.569A19.819,19.819,0,0,1,376.558,545.019Z" fill="#e8b03c"/>
      <path id="Tracé_12719" data-name="Tracé 12719" d="M388.85,575.625c-.053-.116-.114-.236-.162-.349-1.2,3.163-2.639,6.735-4.352,10.594C386.042,582.248,387.542,578.81,388.85,575.625Z" fill="#e8b03c"/>
      <path id="Tracé_12720" data-name="Tracé 12720" d="M379.557,549.84l3.314-.952c-1.521-.248-3.272-.565-4.924-.94A8.311,8.311,0,0,1,379.557,549.84Z" fill="#e8b03c"/>
      <path id="Tracé_12721" data-name="Tracé 12721" d="M378.924,597.126c2.042-3.933,3.841-7.715,5.412-11.256-1.678,3.563-3.556,7.3-5.645,11.146C378.765,597.052,378.847,597.089,378.924,597.126Z" fill="#e8b03c"/>
      <path id="Tracé_12722" data-name="Tracé 12722" d="M386.5,563.583c-1.4-4.128-4.721-7.257-6.707-10.919a1.478,1.478,0,0,1-.445.421,1.671,1.671,0,0,1-.65.222,2.361,2.361,0,0,1-.606-.009,5.18,5.18,0,0,1-.995-.265c-.293-.1-.592-.21-.895-.33a9.8,9.8,0,0,1-1.831-.932,6.431,6.431,0,0,1-.869-.691,4.911,4.911,0,0,1-.752-.9,4.632,4.632,0,0,1-.713-1.991c-.087.049-.171.113-.259.157a9.979,9.979,0,0,1-1.848.683c-.609.162-1.2.283-1.774.394a4.265,4.265,0,0,1-1.978.049,2.291,2.291,0,0,1-.989-.573,1.793,1.793,0,0,1-.537-1.111,1.769,1.769,0,0,1,.281-1.119,2.655,2.655,0,0,1,.638-.69,3.8,3.8,0,0,1,.349-.242c.059-.037.119-.069.178-.1l.172-.086c.115-.055.226-.116.341-.163l.343-.14a6.958,6.958,0,0,1,1.346-.358,6.874,6.874,0,0,1,1.32-.1c-.305-.252-.623-.526-.948-.816-3.752-3.338-8.65-8.96-10.033-12.066-10.618-1.025-21.062,3.3-23.371,4.325a28.865,28.865,0,0,0,3.362,6.83c5.415,8.854,14.028,20.065,4.154,23.521-42.077,14.727,29.184,28.933,29.184,28.933l-1.507,2.625a.58.58,0,0,1,.528-.169,2.587,2.587,0,0,0,2.3-.5c1.4-1.673,3.663-1.237,5.4-.448,2.089-3.845,3.967-7.583,5.645-11.146,1.713-3.859,3.156-7.431,4.352-10.594C386.886,571.074,388.176,568.531,386.5,563.583Zm-12.59-2.358.1-1.388.092-1.333a13.726,13.726,0,0,1,5.972,5.346l-1.329-.372c-.18-.051-.361-.1-.541-.148-.75-.21-1.5-.41-2.253-.614-.7-.19-1.4-.389-2.1-.573Zm-4.762-3.987-.6,1.243-.606,1.247-.423.869-1.521-.351-.6-.125-1.993-.409c-.122-.025-.243-.046-.365-.07q-.963-.192-1.928-.368A13.753,13.753,0,0,1,369.15,557.238Zm-14.13,10.143a13.7,13.7,0,0,1,5.229-7.546c.436.213.874.42,1.312.626.457.215.913.434,1.372.644h.006l2.416,1.082,1.509.639,1.312-3.165-.036,3.7q.816.344,1.622.672l1.093-2.636c-.218-.054-.437-.109-.655-.161l.093-1.338.088-1.263.087-1.254a13.9,13.9,0,0,1,1.453.308c.332.09.651.2.97.317l-.553,1.136-.553,1.138-.484,1-.033,3.366c.546.218,1.09.437,1.642.653a.247.247,0,0,1,.17.219.243.243,0,0,1-.137.228c-.57.285-1.126.59-1.694.878l-.013,1.3-1.8-.367c-4.04,2.086-8.036,4.23-11.949,6.485h0l-1.123.64-1.115.635A13.68,13.68,0,0,1,355.02,567.381Zm7.377,14.63-.092,1.362a13.759,13.759,0,0,1-6.408-6.463l1.678.5.219.065c.566.168,1.132.332,1.7.5q1.556.453,3.116.888l-.119,1.765Zm4.371,2.643-1.375,3.3.027-3.514c-.238-.047-.476-.091-.713-.155-.267-.073-.52-.171-.779-.259l-1.394,3.345.057-7.546,2.424.495.35-.716c.189.049.379.1.568.144l-.05.749,2.414.492-.863,2.071.4-.82.877-1.795c1.309.332,2.622.634,3.942.926.143.032.284.065.427.1.518.114,1.039.217,1.559.323q.874.177,1.754.341a13.763,13.763,0,0,1-9.628,2.519Zm14.84-10.06a13.686,13.686,0,0,1-4.71,7.14c-.407-.211-.811-.424-1.222-.628-.436-.216-.875-.426-1.313-.635-.266-.127-.53-.261-.8-.385q-2.389-1.124-4.811-2.179c-1.718-.758-3.446-1.482-5.176-2.189a.249.249,0,0,1-.17-.219.236.236,0,0,1,.139-.228q7.761-3.914,15.308-8.214c.076-.043.154-.084.23-.128l.874-.5,1.093-.624a13.69,13.69,0,0,1,.558,8.789Z" fill="#e8b03c"/>
      <path id="Tracé_12723" data-name="Tracé 12723" d="M368.508,545.846a6.461,6.461,0,0,0-1.141.392l-.284.137c-.1.046-.187.1-.281.157l-.141.081c-.043.028-.087.054-.127.084a2.664,2.664,0,0,0-.239.185c-.658.585-.575,1.091.187,1.334a3.261,3.261,0,0,0,1.388-.117c.561-.125,1.125-.254,1.679-.414a6.856,6.856,0,0,0,2.5-1.231,8.315,8.315,0,0,1-1.285-.785c-.059-.005-.108-.015-.168-.019A7.055,7.055,0,0,0,368.508,545.846Z" fill="#e8b03c"/>
      <path id="Tracé_12724" data-name="Tracé 12724" d="M373.413,547.847a3.136,3.136,0,0,0,.508,1.563,3.653,3.653,0,0,0,.53.647,5.106,5.106,0,0,0,.671.547,8.787,8.787,0,0,0,1.563.828c.275.116.554.225.835.33a4.207,4.207,0,0,0,.738.227.709.709,0,0,0,.441-.028.3.3,0,0,0,.108-.093.389.389,0,0,0,.069-.162,1.344,1.344,0,0,0-.026-.561,2.333,2.333,0,0,0-.105-.283l-5.258-3.6A2.024,2.024,0,0,0,373.413,547.847Z" fill="#e8b03c"/>
      <path id="Tracé_12725" data-name="Tracé 12725" d="M371.465,604.4c-.328-.69-2.981-.76-2.981-.76a26.987,26.987,0,0,1,1.062-3.9l-3.8,6.627s-35.091-3.532-50.2-17.676c-5.732,7.315-12.621,15.5-17.418,21.1a29.992,29.992,0,0,0,7.408,11.79c.18.177.363.35.547.522.055.051.107.1.161.153a29.89,29.89,0,0,0,20.3,7.914H348.6A209.9,209.9,0,0,0,372.42,606.5,13.98,13.98,0,0,1,371.465,604.4Z" fill="#e8b03c"/>
      <path id="Tracé_12728" data-name="Tracé 12728" d="M387.114,535.04c.2,0,.383.011.589,0l-.524-.249Z" fill="#f0ad80"/>
      <path id="Tracé_12731" data-name="Tracé 12731" d="M378.121,542.066l.535.213-1.7-1.163C377.343,541.431,377.745,541.761,378.121,542.066Z" fill="#f0ad80"/>
      <path id="Tracé_12732" data-name="Tracé 12732" d="M372.343,537.324a22.615,22.615,0,0,0-5.036-3.151q.156.27.316.556l9.333,6.387C375.482,539.915,373.957,538.665,372.343,537.324Z" fill="#f0ad80"/>
      <g id="Groupe_3505" data-name="Groupe 3505">
        <path id="Tracé_12838" data-name="Tracé 12838" d="M378.12,542.066c1.428,1.156,2.763,2.225,4.045,3.246.374.028.724.056,1.043.083l-4.553-3.116Z" fill="#f0ad80"/>
        <g id="Groupe_3504" data-name="Groupe 3504">
          <path id="Tracé_12839" data-name="Tracé 12839" d="M396.951,506.145c-.017-.406-.033-.836-.05-1.3-.06-1.507-.123-3.02-.19-4.514q-.031-.6-.07-1.186a18.045,18.045,0,0,0-.332-2.549,12.868,12.868,0,0,1-9.424-5.008c-1.383-1.639-2.469-3.683-4.327-4.677-2.393-1.282-5.254-.412-7.784.477l.107-.1a11.208,11.208,0,0,0-3.363,2.465c-.006.153-.023.3-.023.458-.007.876.058,1.816.122,2.806a26.653,26.653,0,0,1,.058,3.122,11.5,11.5,0,0,1-.209,1.643,3.448,3.448,0,0,1-.134.5A38.62,38.62,0,0,1,369.8,505.6c-.241.755-1.337,3.568-2.047,3.848-1.185.464-1.066-.9-1.661-1.56.009,1.134.067,9.023.057,9.2,0,.018-.079.049-.2.081l.361,15.383c.044.067.089.136.135.208a21.715,21.715,0,0,1,4.436-5.743l6.075,2.9a9.108,9.108,0,0,1-.893-1.691,21.282,21.282,0,0,0,11.643,4.188v.451s9.079-1.069,9.489-10.563C397.341,518.856,397.192,512.654,396.951,506.145Zm-16.4.948a1.308,1.308,0,0,1-1.287,1.313,1.275,1.275,0,0,1-1.291-1.247h0v-.036a1.306,1.306,0,0,1,1.287-1.313,1.278,1.278,0,0,1,1.29,1.251Zm.469-4.072c-.166.171-1.121-.635-2.508-.693-1.385-.08-2.428.624-2.572.439-.072-.083.1-.394.554-.715h0a3.383,3.383,0,0,1,2.066-.57,3.342,3.342,0,0,1,1.989.772C380.962,502.623,381.1,502.947,381.017,503.021Zm1.44-3.969c-.2.364-1.534-.088-3.173-.2-1.637-.146-3.013.1-3.167-.3-.066-.181.221-.506.808-.78h0a5.013,5.013,0,0,1,2.451-.395,5.13,5.13,0,0,1,2.38.775C382.3,498.516,382.549,498.88,382.457,499.052Zm6.43-.266a4.423,4.423,0,0,1,4.421-.663c.537.248.753.559.656.741-.227.377-1.4.235-2.737.463-1.347.18-2.43.66-2.754.361C388.33,499.542,388.449,499.184,388.887,498.786Zm-.81,10.824c.319,1.013.624,1.977.913,2.9a2.272,2.272,0,0,1,.138,1.472.887.887,0,0,1-.6.519,2.327,2.327,0,0,1-.6.06,8.6,8.6,0,0,1-2.288-.1,8.656,8.656,0,0,1,2.268-.326c.355-.022.7-.082.76-.334a1.992,1.992,0,0,0-.2-1.116q-.456-1.375-.958-2.885a51.257,51.257,0,0,1-2.123-7.53C385.544,502.216,386.75,505.5,388.077,509.61Zm.944,11.366a3.4,3.4,0,0,1-2.262.877,3.18,3.18,0,0,1-2.2-.891c-.435-.441-.551-.827-.473-.886h0c.153-.15,1.109.987,2.7.991s2.634-1.124,2.775-.972C389.636,520.153,389.492,520.539,389.021,520.976Zm3.8-13.6a1.308,1.308,0,0,1-1.286,1.313h0a1.277,1.277,0,0,1-1.291-1.249v-.034a1.306,1.306,0,0,1,1.286-1.313,1.276,1.276,0,0,1,1.291,1.249Zm-.673-4.789c-1.326.4-2.07,1.432-2.267,1.307-.1-.053-.04-.406.284-.868a3.42,3.42,0,0,1,1.75-1.255,3.273,3.273,0,0,1,2.119.04c.51.2.743.462.693.562C394.623,502.592,393.466,502.163,392.144,502.588Z" fill="#f0ad80"/>
          <path id="Tracé_12840" data-name="Tracé 12840" d="M387.179,534.792l-10.226-4.881a11.417,11.417,0,0,0,10.161,5.129l0,.005a11.416,11.416,0,0,1-10.159-5.129l-6.075-2.9a21.7,21.7,0,0,0-4.427,5.742c.261.406.549.886.856,1.419a22.619,22.619,0,0,1,5.036,3.147c1.6,1.332,3.118,2.573,4.583,3.767l-9.3-6.362c.677,1.2,1.421,2.607,2.14,4l8.358,3.333c-.366-.292-.757-.618-1.134-.925l1.669,1.142.02.008,4.534,3.1c1.126.093,1.868.167,1.868.167h.006l2.62-10.522c-.206.01-.39,0-.589,0Zm-2.014,10.082h0a9.516,9.516,0,0,1,.086-1.178A9.5,9.5,0,0,0,385.165,544.874Z" fill="#f0ad80"/>
        </g>
        <path id="Tracé_12841" data-name="Tracé 12841" d="M369.762,538.733c.51.992,1.007,1.978,1.459,2.883a23.258,23.258,0,0,0,5.336,3.4c1.851.037,3.955.17,5.608.3-1.283-1.021-2.618-2.09-4.045-3.246Z" fill="#f0ad80"/>
      </g>
      <path id="Tracé_12842" data-name="Tracé 12842" d="M342.786,566.58c9.874-3.456,1.261-14.667-4.154-23.521q-2.634.982-5.387,2.139h0q2.751-1.156,5.387-2.139a28.886,28.886,0,0,1-3.362-6.83c-.013-.049-.033-.1-.045-.151,0,0-2.726,1.175-14.3,14.868h0c-1.083,1.281-2.238,2.663-3.481,4.173-12.412,15.079-10.1,25.879-1.895,33.563,4.651-5.936,8.538-11.3,9.908-14.232-1.37,2.934-5.257,8.3-9.908,14.232,15.1,14.144,50.2,17.676,50.2,17.676l3.8-6.627a4.24,4.24,0,0,1,.915-1.594l1.507-2.625S300.709,581.307,342.786,566.58ZM327.37,594.252c-.2.166-1.262-.827-2.373-2.219s-1.85-2.656-1.65-2.822,1.262.827,2.373,2.218,1.845,2.656,1.645,2.823Zm3.057-1.3,0,0-.392-.135c-.136-.048-.273-.11-.416-.17-.29-.115-.586-.269-.9-.428a13.018,13.018,0,0,1-1.91-1.268,13.17,13.17,0,0,1-1.648-1.607c-.225-.275-.44-.534-.618-.8-.09-.13-.181-.252-.259-.376l-.219-.36c-.543-.928-.728-1.576-.622-1.632s.507.455,1.158,1.239l.256.306c.089.107.189.211.287.323.192.227.417.452.645.7a18.28,18.28,0,0,0,3.353,2.706c.284.17.55.341.81.48.129.072.252.147.373.21l.351.184c.9.464,1.479.727,1.445.864C332.089,593.3,331.434,593.271,330.427,592.948Z" fill="#dba338"/>
      <path id="Tracé_12739" data-name="Tracé 12739" d="M330.673,592.32l-.351-.184c-.121-.063-.244-.138-.373-.21-.26-.139-.526-.31-.81-.48a18.036,18.036,0,0,1-3.353-2.7c-.228-.244-.453-.469-.645-.7-.1-.112-.2-.216-.287-.323l-.256-.306c-.651-.784-1.037-1.306-1.158-1.239s.079.7.622,1.632l.219.36c.078.124.169.246.259.376.178.262.393.521.618.8a13.17,13.17,0,0,0,1.648,1.607,13.018,13.018,0,0,0,1.91,1.268c.313.159.609.313.9.428.143.06.28.122.416.17l.392.135c1.007.323,1.662.355,1.691.236C332.152,593.047,331.565,592.784,330.673,592.32Z" fill="#dba338"/>
      <path id="Tracé_12740" data-name="Tracé 12740" d="M323.345,589.211c-.2.166.539,1.43,1.65,2.822s2.173,2.385,2.373,2.219-.539-1.43-1.65-2.823S323.545,589.044,323.345,589.211Z" fill="#dba338"/>
      <path id="Tracé_12741" data-name="Tracé 12741" d="M373.157,607.454a3.791,3.791,0,0,0,2.561,1.179c3.111.187,3.84.181,3.455-.792,0,0,2.2.481,1.639-1.332,0,0,3.419-1.162,1.793-2.547s-2.631-1.762-2.094-1.989c0,0,2.553,1.257,3.161.078.359-.7-1.049-1.59-2.262-2.2-.84-.425-1.585-.717-1.585-.717s2.168.068.719-1.029a9.167,9.167,0,0,0-.989-.645q-1.356,1.908-2.833,3.79Q375.036,604.31,373.157,607.454Z" fill="#f0ad80"/>
      <path id="Tracé_12742" data-name="Tracé 12742" d="M376.6,601.405q-.658.835-1.323,1.652-1.18,2.01-2.437,4.04.148.183.318.357,1.881-3.138,3.565-6.208C376.68,601.3,376.641,601.352,376.6,601.405Z" fill="#f0ad80"/>
      <path id="Tracé_12743" data-name="Tracé 12743" d="M372.42,606.5a5.507,5.507,0,0,0,.419.6q1.257-2.03,2.437-4.04Q373.854,604.814,372.42,606.5Z" fill="#f0ad80"/>
      <path id="Tracé_12744" data-name="Tracé 12744" d="M376.722,601.246q1.476-1.881,2.833-3.79c-.2-.112-.41-.223-.631-.33Q377.865,599.16,376.722,601.246Z" fill="#f0ad80"/>
      <path id="Tracé_12745" data-name="Tracé 12745" d="M375.276,603.057c.442-.546.884-1.1,1.323-1.652.042-.053.081-.106.123-.159q1.145-2.085,2.2-4.12c-.077-.037-.154-.074-.233-.11Q377.07,600,375.276,603.057Z" fill="#f0ad80"/>
      <path id="Tracé_12746" data-name="Tracé 12746" d="M373.29,597.464a2.587,2.587,0,0,1-2.3.5.581.581,0,0,0-.528.169l-.915,1.594a26.992,26.992,0,0,0-1.062,3.9s2.653.07,2.981.76a13.969,13.969,0,0,0,.953,2.1q1.432-1.683,2.856-3.438,1.794-3.054,3.415-6.041C376.953,596.227,374.685,595.791,373.29,597.464Z" fill="#f0ad80"/>
      <path id="Tracé_12747" data-name="Tracé 12747" d="M369.548,599.732l.915-1.594A4.24,4.24,0,0,0,369.548,599.732Z" fill="#f0ad80"/>
      <path id="Tracé_12748" data-name="Tracé 12748" d="M459.474,528.569s.087-.029.225-.081l-.589-1.51-4.566,1.312V539.8c4.439-3.212,7.443-5.446,7.443-5.446l-.726-1.863c-.248.1-.484.207-.7.32Z" fill="#e8b03c"/>
      <path id="Tracé_12749" data-name="Tracé 12749" d="M387.539,547.546a2.1,2.1,0,0,1-.038.786l8.731,5.975s-.129.511-.395,1.454c1.324.958,2.032,1.447,2.032,1.447a111.986,111.986,0,0,1-5.9,17.7c5.993-2.545,20.06-8.589,29.571-13.239,7.434-3.636,23.515-14.994,33.01-21.865V528.29Z" fill="#e8b03c"/>
      <path id="Tracé_12750" data-name="Tracé 12750" d="M395.837,555.761c.266-.943.395-1.454.395-1.454l-8.731-5.975a3.638,3.638,0,0,1-.353.893C391.127,552.308,394.056,554.472,395.837,555.761Z" fill="#e8b03c"/>
      <path id="Tracé_12751" data-name="Tracé 12751" d="M389.084,576.126s1.08-.453,2.879-1.217a111.848,111.848,0,0,0,5.906-17.7s-.708-.489-2.032-1.447a188.356,188.356,0,0,1-6.987,19.864C388.927,575.791,389,575.954,389.084,576.126Z" fill="#e8b03c"/>
      <path id="Tracé_12752" data-name="Tracé 12752" d="M387.012,549.484s-1.794-.215-4.141-.6l-3.314.952c.025.04.053.075.078.115a3.856,3.856,0,0,1,.38.9,2.729,2.729,0,0,1,.084.935l13.309,9.108a145.789,145.789,0,0,1-4.72,14.379c.048.113.109.233.162.349a188.357,188.357,0,0,0,6.987-19.864c-1.781-1.289-4.71-3.453-8.689-6.536C387.1,549.312,387.065,549.4,387.012,549.484Z" fill="#e8b03c"/>
      <path id="Tracé_12753" data-name="Tracé 12753" d="M379.8,552.664c1.986,3.662,5.312,6.791,6.707,10.919,1.674,4.948.384,7.491,2.186,11.693a145.789,145.789,0,0,0,4.72-14.379L380.1,551.789a1.683,1.683,0,0,1-.006.174A1.6,1.6,0,0,1,379.8,552.664Z" fill="#e8b03c"/>
      <path id="Tracé_12754" data-name="Tracé 12754" d="M385.083,545.563l-.237.952,1.858,1.271.835-.24C387.3,545.979,385.133,545.572,385.083,545.563Z" fill="#d83808"/>
      <path id="Tracé_12755" data-name="Tracé 12755" d="M383.9,546.689c.605.478,1.2.948,1.772,1.392l1.027-.295-1.858-1.271-.043.171C384.5,546.7,384.2,546.694,383.9,546.689Z" fill="#d83808"/>
      <path id="Tracé_12756" data-name="Tracé 12756" d="M376.558,545.019a19.817,19.817,0,0,0-3.586.166c.161.333.251.522.251.522a1.906,1.906,0,0,1,.014.2l.044.03h.006c.009.005.014.013.022.018l.017.014.028.022a.109.109,0,0,1,.026,0,7.439,7.439,0,0,1,1.866.387,8.241,8.241,0,0,1,2.264,1.212c.148.109.293.234.437.358,1.652.375,3.4.692,4.924.94l2.806-.807c-.569-.444-1.167-.914-1.772-1.392A18.373,18.373,0,0,1,376.558,545.019Z" fill="#d83808"/>
      <path id="Tracé_12757" data-name="Tracé 12757" d="M373.676,546.65a.228.228,0,0,1-.007.028c.421.179.9.352,1.43.518-.043-.021-.088-.052-.13-.072A8.37,8.37,0,0,0,373.676,546.65Z" fill="#d83808"/>
      <path id="Tracé_12758" data-name="Tracé 12758" d="M383.209,545.4l1.637,1.12.237-.952h-.006S384.335,545.488,383.209,545.4Z" fill="#d83808"/>
      <path id="Tracé_12759" data-name="Tracé 12759" d="M382.165,545.312l1.739,1.377c.3,0,.6.008.9,0l.043-.171-1.637-1.12C382.89,545.368,382.54,545.34,382.165,545.312Z" fill="#d83808"/>
      <path id="Tracé_12760" data-name="Tracé 12760" d="M383.9,546.689q-.844-.666-1.739-1.377c-1.654-.126-3.758-.259-5.608-.293A18.373,18.373,0,0,0,383.9,546.689Z" fill="#d83808"/>
      <path id="Tracé_12761" data-name="Tracé 12761" d="M387.5,548.332a2.1,2.1,0,0,0,.038-.786l-.835.24Z" fill="#d83808"/>
      <path id="Tracé_12762" data-name="Tracé 12762" d="M385.677,548.081c.507.4.994.774,1.471,1.144a3.638,3.638,0,0,0,.353-.893l-.8-.546Z" fill="#d83808"/>
      <path id="Tracé_12763" data-name="Tracé 12763" d="M387.012,549.484c.056-.09.09-.172.136-.259-.477-.37-.964-.747-1.471-1.144l-2.806.807C385.218,549.269,387.012,549.484,387.012,549.484Z" fill="#d83808"/>
      <path id="Tracé_12764" data-name="Tracé 12764" d="M361.313,530.411l4.682,3.2.053.02c.088-.208.182-.413.279-.616l-.011-.473a6.843,6.843,0,0,0-.745-.982c-1.712-1.693-3.935-1.258-4.8-1.557-1.495-.516-2.235-.39-2.44.161A19.72,19.72,0,0,1,361.313,530.411Z" fill="#d83808"/>
      <path id="Tracé_12765" data-name="Tracé 12765" d="M366.451,532.754c-.046-.072-.091-.141-.135-.208l.011.473C366.365,532.931,366.407,532.841,366.451,532.754Z" fill="#d83808"/>
      <path id="Tracé_12766" data-name="Tracé 12766" d="M361.313,530.411a19.7,19.7,0,0,0-2.981-.243,2.532,2.532,0,0,0,.309,1.736,27.474,27.474,0,0,1,7.354,1.711Z" fill="#d83808"/>
      <path id="Tracé_12767" data-name="Tracé 12767" d="M365.995,533.615l.048.033.005-.013Z" fill="#d83808"/>
      <path id="Tracé_12768" data-name="Tracé 12768" d="M368.674,543.97l1.212.83c.272.016.536.041.779.08a6.827,6.827,0,0,1,1.7.509,1.878,1.878,0,0,1,.61-.2c-.334-.692-.973-2.01-1.75-3.569a29.264,29.264,0,0,1-3.741-3.792l-1.051-.42-.023-.969c-.574-.793-.875-1.3-.875-1.3a11.467,11.467,0,0,1,.511-1.489l-.048-.033a27.474,27.474,0,0,0-7.354-1.711C360.024,535.01,364.922,540.632,368.674,543.97Z" fill="#d83808"/>
      <path id="Tracé_12769" data-name="Tracé 12769" d="M372.46,546.013c-.025-.02-.046-.039-.067-.058-.068-.02-.123-.038-.2-.059a9.092,9.092,0,0,0-.968-.178l.631.432A1.719,1.719,0,0,1,372.46,546.013Z" fill="#d83808"/>
      <path id="Tracé_12770" data-name="Tracé 12770" d="M372.091,546.309l.068.047.03-.027C372.147,546.322,372.126,546.316,372.091,546.309Z" fill="#d83808"/>
      <path id="Tracé_12771" data-name="Tracé 12771" d="M366.43,537.4l1.051.42c-.428-.52-.785-.99-1.074-1.389Z" fill="#d83808"/>
      <path id="Tracé_12772" data-name="Tracé 12772" d="M372.159,546.356l-.068-.047c-.175-.034-.292-.064-.3-.11,0-.014.035-.032.063-.049l-.631-.432c-.148-.02-.3-.037-.462-.049a8.4,8.4,0,0,0,1.285.785C372.088,546.422,372.123,546.388,372.159,546.356Z" fill="#d83808"/>
      <path id="Tracé_12773" data-name="Tracé 12773" d="M369.886,544.8l-1.212-.83c.325.29.643.564.948.816C369.712,544.788,369.8,544.8,369.886,544.8Z" fill="#d83808"/>
      <path id="Tracé_12774" data-name="Tracé 12774" d="M366.327,533.019c-.1.2-.191.408-.279.616.1.039.2.073.3.113Z" fill="#d83808"/>
      <path id="Tracé_12775" data-name="Tracé 12775" d="M367.307,534.173c-.307-.533-.6-1.013-.856-1.419-.044.087-.082.177-.124.265l.017.729C366.665,533.88,366.987,534.026,367.307,534.173Z" fill="#d83808"/>
      <path id="Tracé_12776" data-name="Tracé 12776" d="M366.344,533.748c-.1-.04-.2-.074-.3-.113l-.005.013.3.207Z" fill="#d83808"/>
      <path id="Tracé_12777" data-name="Tracé 12777" d="M366.344,533.748v.107l1.276.874q-.16-.288-.316-.556C366.987,534.026,366.665,533.88,366.344,533.748Z" fill="#d83808"/>
      <path id="Tracé_12778" data-name="Tracé 12778" d="M367.481,537.824a29.266,29.266,0,0,0,3.741,3.792c-.452-.9-.949-1.891-1.459-2.883Z" fill="#d83808"/>
      <path id="Tracé_12779" data-name="Tracé 12779" d="M366.043,533.648a11.467,11.467,0,0,0-.511,1.489s.3.505.875,1.3l-.06-2.58Z" fill="#d83808"/>
      <path id="Tracé_12780" data-name="Tracé 12780" d="M367.623,534.729l-1.276-.874.06,2.58c.289.4.646.869,1.074,1.389l2.282.909C369.044,537.336,368.3,535.933,367.623,534.729Z" fill="#d83808"/>
      <path id="Tracé_12781" data-name="Tracé 12781" d="M372.554,546l-.161-.048c.021.019.042.038.067.058Z" fill="#d83808"/>
      <path id="Tracé_12782" data-name="Tracé 12782" d="M373.237,545.905a1.9,1.9,0,0,0-.014-.2s-.09-.189-.251-.522a1.878,1.878,0,0,0-.61.2h0A5.056,5.056,0,0,1,373.237,545.905Z" fill="#d83808"/>
      <path id="Tracé_12783" data-name="Tracé 12783" d="M473.648,519.785c-1.01-1.147-5.53-.125-5.53-.125a4.436,4.436,0,0,0-1.679-1.292c-1.3-.593-3.779,3.272-3.254,6.058.453,2.4-2.626,3.738-3.486,4.062l1.562,4.008c3.392-1.385,9.639-1.686,11.866-1.788C475.516,530.6,474.657,520.932,473.648,519.785Z" fill="#f0ad80"/>
      <path id="Tracé_12784" data-name="Tracé 12784" d="M459.474,528.569l1.088,4.247c.215-.113.451-.219.7-.32l-1.562-4.008C459.565,528.54,459.474,528.569,459.474,528.569Z" fill="#f0ad80"/>
      <path id="Tracé_12785" data-name="Tracé 12785" d="M368.14,563.366l.036-3.7-1.312,3.165.916.388C367.9,563.268,368.02,563.315,368.14,563.366Z" fill="#e8b03c"/>
      <path id="Tracé_12786" data-name="Tracé 12786" d="M371.236,567.93l.013-1.3c-.607.308-1.206.626-1.809.938Z" fill="#e8b03c"/>
      <path id="Tracé_12787" data-name="Tracé 12787" d="M371.3,561.281l-.1.206-.346-.085-1.093,2.636c.5.2,1.006.409,1.506.609Z" fill="#e8b03c"/>
      <path id="Tracé_12788" data-name="Tracé 12788" d="M367.24,583.452l.194-.4.863-2.071-2.414-.492-.1,1.459-.085,1.263-.085,1.263c-.065-.013-.129-.029-.194-.042l-.027,3.514,1.375-3.3a.46.46,0,0,1-.111-.009Z" fill="#e8b03c"/>
      <path id="Tracé_12789" data-name="Tracé 12789" d="M363.856,582.686l.556-1.136.6-1.234-2.424-.495-.057,7.546,1.394-3.345c-.207-.07-.421-.128-.624-.207Z" fill="#e8b03c"/>
      <path id="Tracé_12790" data-name="Tracé 12790" d="M373.142,546.509a.386.386,0,0,1-.224.141l.581.419c-.04.043-.088.073-.129.115l.117.08a1.877,1.877,0,0,1,.119-.35l.006-.014a.686.686,0,0,0,.057-.222l-.211-.091c-.047-.013-.1-.032-.148-.043S373.2,546.522,373.142,546.509Z" fill="#d83808"/>
      <path id="Tracé_12791" data-name="Tracé 12791" d="M373.142,546.509c.059.013.106.02.168.035.045.011.1.03.148.043-.1-.045-.2-.091-.287-.137A.459.459,0,0,1,373.142,546.509Z" fill="#d83808"/>
      <path id="Tracé_12792" data-name="Tracé 12792" d="M372.918,546.65a.8.8,0,0,1-.337-.006l.789.54c.041-.042.089-.072.129-.115Z" fill="#d83808"/>
      <path id="Tracé_12793" data-name="Tracé 12793" d="M377.947,547.948c-1.015-.23-1.988-.482-2.848-.752a8.186,8.186,0,0,1,1.8,1.185,7.589,7.589,0,0,1,1.72,2.146,2.863,2.863,0,0,1,.125.335l.294.2c-.128-.32-.246-.644-.347-.975l.865-.249A8.317,8.317,0,0,0,377.947,547.948Z" fill="#d83808"/>
      <path id="Tracé_12794" data-name="Tracé 12794" d="M372.249,546.537c-.064-.025-.129-.051-.2-.083a6.856,6.856,0,0,1-2.5,1.231c-.554.16-1.118.289-1.679.414a3.261,3.261,0,0,1-1.388.117c-.762-.243-.845-.749-.187-1.334a2.664,2.664,0,0,1,.239-.185c.04-.03.084-.056.127-.084l.141-.081c.094-.052.184-.111.281-.157l.284-.137a6.461,6.461,0,0,1,1.141-.392,7.036,7.036,0,0,1,2.09-.2c.06,0,.109.014.168.019-.358-.256-.738-.547-1.144-.883a6.874,6.874,0,0,0-1.32.1,6.958,6.958,0,0,0-1.346.358l-.343.14c-.115.047-.226.108-.341.163l-.172.086c-.059.035-.119.067-.178.1a3.661,3.661,0,0,0-.349.242,2.655,2.655,0,0,0-.638.69,1.769,1.769,0,0,0-.281,1.119,1.793,1.793,0,0,0,.537,1.111,2.3,2.3,0,0,0,.989.573,4.265,4.265,0,0,0,1.978-.049c.572-.111,1.165-.232,1.774-.394a9.979,9.979,0,0,0,1.848-.683c.088-.044.172-.108.259-.157-.012-.109-.032-.216-.035-.327A3.452,3.452,0,0,1,372.249,546.537Z" fill="#d83808"/>
      <path id="Tracé_12795" data-name="Tracé 12795" d="M378.876,551.706a.389.389,0,0,1-.069.162.3.3,0,0,1-.108.093.709.709,0,0,1-.441.028,4.207,4.207,0,0,1-.738-.227c-.281-.1-.56-.214-.835-.33a8.787,8.787,0,0,1-1.563-.828,5.106,5.106,0,0,1-.671-.547,3.653,3.653,0,0,1-.53-.647,3.136,3.136,0,0,1-.508-1.563,2.015,2.015,0,0,1,.074-.583l-.117-.08a5.834,5.834,0,0,1-1.331,1,4.632,4.632,0,0,0,.713,1.991,4.907,4.907,0,0,0,.752.9,6.431,6.431,0,0,0,.869.691,9.8,9.8,0,0,0,1.831.932c.3.12.6.228.895.33a5.11,5.11,0,0,0,.995.265,2.279,2.279,0,0,0,.606.009,1.671,1.671,0,0,0,.65-.222,1.478,1.478,0,0,0,.445-.421,15.355,15.355,0,0,1-.756-1.6l-.294-.2a2.333,2.333,0,0,1,.105.283A1.342,1.342,0,0,1,378.876,551.706Z" fill="#d83808"/>
      <path id="Tracé_12796" data-name="Tracé 12796" d="M372.581,546.644a2.213,2.213,0,0,1-.332-.107,3.434,3.434,0,0,0-.245,1.321,2.972,2.972,0,0,0,.035.327,5.854,5.854,0,0,0,1.331-1Z" fill="#d83808"/>
      <path id="Tracé_12797" data-name="Tracé 12797" d="M379.039,551.064l1.06.725a2.729,2.729,0,0,0-.084-.935,3.874,3.874,0,0,0-.38-.9c-.025-.04-.053-.075-.078-.115l-.865.249C378.793,550.42,378.911,550.744,379.039,551.064Z" fill="#d83808"/>
      <path id="Tracé_12798" data-name="Tracé 12798" d="M379.8,552.664a1.6,1.6,0,0,0,.3-.7,1.691,1.691,0,0,0,.006-.174l-1.06-.725A15.232,15.232,0,0,0,379.8,552.664Z" fill="#d83808"/>
      <path id="Tracé_12799" data-name="Tracé 12799" d="M373.309,545.955c.007,0,.011.01.017.014Z" fill="#d83808"/>
      <path id="Tracé_12800" data-name="Tracé 12800" d="M373.676,546.65a8.37,8.37,0,0,1,1.293.474c.042.02.087.051.13.072.86.27,1.833.522,2.848.752-.144-.124-.289-.249-.437-.358a8.241,8.241,0,0,0-2.264-1.212,7.4,7.4,0,0,0-1.866-.387.109.109,0,0,0-.026,0A.723.723,0,0,1,373.676,546.65Z" fill="#d83808"/>
      <path id="Tracé_12801" data-name="Tracé 12801" d="M373.676,546.65c-.073-.02-.149-.045-.218-.063l.211.091C373.665,546.669,373.675,546.66,373.676,546.65Z" fill="#d83808"/>
      <path id="Tracé_12802" data-name="Tracé 12802" d="M373.242,545.99h.108l-.024-.022c-.006,0-.01-.01-.017-.014a.24.24,0,0,1-.028-.02c-.007-.006-.029-.007-.043-.013C373.24,545.945,373.241,545.968,373.242,545.99Z" fill="#d83808"/>
      <path id="Tracé_12803" data-name="Tracé 12803" d="M373.582,546.271c-.024.042-.145.012-.336-.049a.619.619,0,0,1-.075.228c.091.046.187.092.287.137.069.018.145.043.218.063a.723.723,0,0,0-.322-.659h0C373.52,546.133,373.6,546.24,373.582,546.271Z" fill="#d83808"/>
      <path id="Tracé_12804" data-name="Tracé 12804" d="M373.281,545.935l-.044-.03v.017C373.252,545.928,373.265,545.928,373.281,545.935Z" fill="#d83808"/>
      <path id="Tracé_12805" data-name="Tracé 12805" d="M373.354,545.991l-.028-.022.024.022Z" fill="#d83808"/>
      <path id="Tracé_12806" data-name="Tracé 12806" d="M373.287,545.937h-.006l.028.02C373.316,545.963,373.3,545.942,373.287,545.937Z" fill="#d83808"/>
      <path id="Tracé_12807" data-name="Tracé 12807" d="M373.246,546.222c.191.061.312.091.336.049s-.062-.138-.232-.28h-.108A1.621,1.621,0,0,1,373.246,546.222Z" fill="#d83808"/>
      <path id="Tracé_12808" data-name="Tracé 12808" d="M372.2,545.9l.2.059c-.268-.241-.258-.426-.031-.566a6.827,6.827,0,0,0-1.7-.509c-.243-.039-.507-.064-.779-.08l1.342.918A9.107,9.107,0,0,1,372.2,545.9Z" fill="#d83808"/>
      <path id="Tracé_12809" data-name="Tracé 12809" d="M372.565,546.4l-.251-.044c-.013.028-.019.06-.031.089l.3.2a.8.8,0,0,0,.337.006Z" fill="#d83808"/>
      <path id="Tracé_12810" data-name="Tracé 12810" d="M372.352,546.241c-.017.034-.022.075-.038.11l.251.044Z" fill="#d83808"/>
      <path id="Tracé_12811" data-name="Tracé 12811" d="M372.5,546.051c-.014.013-.032.021-.045.035-.081.091-.18.161-.269.243.035.007.085.016.125.022.016-.035.021-.076.038-.11l.213.154c.167.029.361.068.577.114a.459.459,0,0,0,.029-.059,4.814,4.814,0,0,1-.659-.391Z" fill="#d83808"/>
      <path id="Tracé_12812" data-name="Tracé 12812" d="M373.142,546.509c-.216-.046-.41-.085-.577-.114l.353.255A.386.386,0,0,0,373.142,546.509Z" fill="#d83808"/>
      <path id="Tracé_12813" data-name="Tracé 12813" d="M372.314,546.351c-.04-.006-.09-.015-.125-.022l-.03.027.124.084C372.3,546.411,372.3,546.379,372.314,546.351Z" fill="#d83808"/>
      <path id="Tracé_12814" data-name="Tracé 12814" d="M372.458,546.086c.013-.014.031-.022.045-.035-.018-.014-.027-.025-.043-.038a1.7,1.7,0,0,0-.6.137l.232.159c.035.007.056.013.1.02C372.278,546.247,372.377,546.177,372.458,546.086Z" fill="#d83808"/>
      <path id="Tracé_12815" data-name="Tracé 12815" d="M371.8,546.2c0,.046.12.076.3.11l-.232-.159C371.831,546.167,371.794,546.185,371.8,546.2Z" fill="#d83808"/>
      <path id="Tracé_12816" data-name="Tracé 12816" d="M372.249,546.537a2.213,2.213,0,0,0,.332.107l-.3-.2C372.265,546.471,372.265,546.505,372.249,546.537Z" fill="#d83808"/>
      <path id="Tracé_12817" data-name="Tracé 12817" d="M372.159,546.356c-.036.032-.071.066-.108.1.069.032.134.058.2.083.012-.032.021-.066.034-.1Z" fill="#d83808"/>
      <path id="Tracé_12818" data-name="Tracé 12818" d="M370.765,545.669c.161.012.314.029.462.049l-1.342-.918c-.088-.005-.174-.012-.264-.014C370.028,545.122,370.408,545.413,370.765,545.669Z" fill="#d83808"/>
      <path id="Tracé_12819" data-name="Tracé 12819" d="M372.5,546.051l.009.008a4.814,4.814,0,0,0,.659.391.619.619,0,0,0,.075-.228c-.165-.053-.4-.129-.685-.217A.5.5,0,0,0,372.5,546.051Z" fill="#d83808"/>
      <path id="Tracé_12820" data-name="Tracé 12820" d="M373.242,545.99v-.068a.676.676,0,0,0-.673.079A6.055,6.055,0,0,1,373.242,545.99Z" fill="#d83808"/>
      <path id="Tracé_12821" data-name="Tracé 12821" d="M372.565,546h0Z" fill="#d83808"/>
      <path id="Tracé_12822" data-name="Tracé 12822" d="M373.246,546.222a1.494,1.494,0,0,0,0-.232,5.893,5.893,0,0,0-.677.011h0Z" fill="#d83808"/>
      <path id="Tracé_12823" data-name="Tracé 12823" d="M372.393,545.955l.161.048h.011a.676.676,0,0,1,.673-.079v-.017a5.022,5.022,0,0,0-.874-.516h0C372.135,545.529,372.125,545.714,372.393,545.955Z" fill="#d83808"/>
      <path id="Tracé_12824" data-name="Tracé 12824" d="M372.5,546.051a.5.5,0,0,1,.058-.046h-.007l-.094.01C372.476,546.026,372.485,546.037,372.5,546.051Z" fill="#d83808"/>
      <path id="Tracé_12825" data-name="Tracé 12825" d="M359.493,577.968a11.2,11.2,0,0,0,3,2.653l.119-1.765Q361.049,578.424,359.493,577.968Z" fill="#5a833f"/>
      <path id="Tracé_12826" data-name="Tracé 12826" d="M364.894,581.707c.156.051.309.11.47.153.025.007.05.011.075.017l.012-1.473.432.089.05-.749c-.189-.049-.379-.1-.568-.144l-.35.716.423.086Z" fill="#5a833f"/>
      <path id="Tracé_12827" data-name="Tracé 12827" d="M365.439,581.877c.115.027.23.048.345.075l.1-1.459-.432-.089Z" fill="#5a833f"/>
      <path id="Tracé_12828" data-name="Tracé 12828" d="M361.1,559.274q.966.174,1.928.368c.122.024.243.045.365.07l1.993.409.6.125,1.521.351.423-.869.606-1.247.6-1.243A13.753,13.753,0,0,0,361.1,559.274Z" fill="#5a833f"/>
      <path id="Tracé_12829" data-name="Tracé 12829" d="M365.7,583.215l.085-1.263c-.115-.027-.23-.048-.345-.075l-.019,2.559c.065.013.129.029.194.042Z" fill="#5a833f"/>
      <path id="Tracé_12830" data-name="Tracé 12830" d="M365.365,581.86c-.161-.043-.314-.1-.47-.153l.544-1.3-.423-.086-.6,1.234-.556,1.136-.552,1.129c.2.079.417.137.624.207.259.088.512.186.779.259.237.064.475.108.713.155l.019-2.559C365.414,581.871,365.389,581.867,365.365,581.86Z" fill="#5a833f"/>
      <path id="Tracé_12831" data-name="Tracé 12831" d="M359.493,577.968c-.567-.165-1.133-.329-1.7-.5l-.219-.065-1.678-.5a13.76,13.76,0,0,0,6.408,6.463L362.4,582l.093-1.39A11.211,11.211,0,0,1,359.493,577.968Z" fill="#5a833f"/>
      <path id="Tracé_12832" data-name="Tracé 12832" d="M371.921,557.694a13.914,13.914,0,0,0-1.453-.308l-.087,1.254-.088,1.263-.093,1.338c.218.052.437.107.655.161l.346.085.1-.206.484-1,.553-1.138.553-1.136C372.572,557.9,372.253,557.784,371.921,557.694Z" fill="#5a833f"/>
      <path id="Tracé_12833" data-name="Tracé 12833" d="M374.1,558.5l-.092,1.333-.1,1.388-.064.918c.7.184,1.4.383,2.1.573.751.2,1.5.4,2.253.614.18.051.361.1.541.148l1.329.372A13.726,13.726,0,0,0,374.1,558.5Z" fill="#5a833f"/>
      <path id="Tracé_12834" data-name="Tracé 12834" d="M372.91,565.3c-.552-.216-1.1-.435-1.642-.653-.5-.2-1.006-.4-1.506-.609q-.807-.33-1.622-.672c-.12-.051-.239-.1-.36-.149l-.916-.388-1.509-.639-2.416-1.082h-.006c-.459-.21-.915-.429-1.372-.644-.438-.206-.876-.413-1.312-.626a13.721,13.721,0,0,0-5,15.49l1.115-.635,1.123-.64h0c3.913-2.255,7.909-4.4,11.949-6.485.6-.312,1.2-.63,1.809-.938.568-.288,1.124-.593,1.694-.878a.243.243,0,0,0,.137-.228A.248.248,0,0,0,372.91,565.3Z" fill="#5a833f"/>
      <path id="Tracé_12835" data-name="Tracé 12835" d="M374.64,581.786c-.52-.106-1.041-.209-1.559-.323-.143-.031-.284-.064-.427-.1-1.32-.292-2.633-.594-3.942-.926l-.877,1.795-.4.82-.666,1.6a13.761,13.761,0,0,0,9.626-2.527Q375.515,581.965,374.64,581.786Z" fill="#5a833f"/>
      <path id="Tracé_12836" data-name="Tracé 12836" d="M367.24,583.452l-.583,1.193a.468.468,0,0,1,.111.009l.666-1.6Z" fill="#5a833f"/>
      <path id="Tracé_12837" data-name="Tracé 12837" d="M381.054,565.806l-1.093.624-.874.5c-.076.044-.154.085-.23.128q-7.548,4.3-15.308,8.214a.236.236,0,0,0-.139.228.249.249,0,0,0,.17.219c1.73.707,3.458,1.431,5.176,2.189q2.421,1.056,4.811,2.179c.266.124.53.258.8.385.438.209.877.419,1.313.635.411.2.815.417,1.222.628a13.662,13.662,0,0,0,4.152-15.929Z" fill="#5a833f"/>
    </g>
  </g>
</svg>
