<svg xmlns="http://www.w3.org/2000/svg" width="78.487" height="136.522" viewBox="0 0 78.487 136.522">
  <g id="Groupe_3540" data-name="Groupe 3540" transform="translate(-115.346 -275.858)">
    <path id="Tracé_12223" data-name="Tracé 12223" d="M467.761-755.7c-61.2,2.286-43.782-88.214-3.351-89.723S521.207-757.694,467.761-755.7Z" transform="translate(-309.941 1136.353)" fill="#fdbf21"/>
    <ellipse id="Ellipse_776" data-name="Ellipse 776" cx="13.921" cy="6.508" rx="13.921" ry="6.508" transform="translate(141.742 290.894)" fill="#f71c1c" opacity="0.2"/>
    <path id="Tracé_12224" data-name="Tracé 12224" d="M467.433-747.955c9.656-.361,17.032-3.57,22.4-8.576-17.855,7.19-40.354-1.1-50.381-18.367-12.068-20.782-3.588-44.4,4.879-53.909l-.046.025C419.894-805.737,417.605-746.094,467.433-747.955Z" transform="translate(-309.79 1128.676)" fill="#f71c1c"/>
    <path id="Tracé_12225" data-name="Tracé 12225" d="M467.433-747.955c9.656-.361,17.032-3.57,22.4-8.576-17.855,7.19-40.354-1.1-50.381-18.367-12.068-20.782-3.588-44.4,4.879-53.909l-.046.025C419.894-805.737,417.605-746.094,467.433-747.955Z" transform="translate(-309.79 1128.676)" fill="#f39c29"/>
    <path id="Tracé_12226" data-name="Tracé 12226" d="M500.846-781.069c-1.812-.966-3.78-1.41-5.509-2.6a37.922,37.922,0,0,1-4-3.262,40.273,40.273,0,0,0,4.952-8.435.856.856,0,0,0,.06-.482c.088.033.173.072.261.1,1.041.355,1.636-1.007,1-1.725-1.668-1.889-3.942-3.188-5.76-4.963a53.753,53.753,0,0,1-5.5-6.428c-.293-.394-.579-.794-.864-1.194q1.348-1.482,2.682-2.977c.775-.869-.483-2.148-1.286-1.286q-1.248,1.337-2.522,2.648c-2.272-3.337-4.34-6.825-6.4-10.289a.53.53,0,0,0-.914.534c1.827,3.8,3.677,7.617,5.85,11.237q-3.448,3.486-7.043,6.817a126.031,126.031,0,0,1-10.4-15.413,15.332,15.332,0,0,0,1.486-1.624c.662-.857-.525-2.077-1.209-1.21-.355.45-.741.876-1.139,1.29-.415-.753-.832-1.5-1.231-2.267-.338-.645-1.251-.079-.961.562.4.886.822,1.761,1.241,2.636-4.914,4.5-12.047,7.19-15.452,13.068a.6.6,0,0,0,.817.817,17.115,17.115,0,0,0,2.421-1.636c2.914,5.718,5.843,11.438,9,17.024q-4.307,3.448-8.736,6.738c-1.175.873-2.5,1.714-3.845,2.575-1.363-2.337-2.685-4.707-4.031-7.091-.383-.679-1.569-.224-1.29.544a55.567,55.567,0,0,0,3.533,7.712,22.072,22.072,0,0,0-5.713,5c-.625.857.4,1.882,1.287,1.675a18.832,18.832,0,0,0,6.416-3.287c1.743,2.811,3.65,5.517,5.618,8.085,1.2,1.561,2.489,3.25,3.867,4.937a20.355,20.355,0,0,0-2.421,2.062,1.067,1.067,0,0,0,1.03,1.77,19.328,19.328,0,0,0,3.392-1.467c2.965,3.366,6.287,6.481,9.943,8.268a.737.737,0,0,0,.888-1.152c-2.117-2.706-5-4.8-7.434-7.219-.4-.4-.793-.807-1.188-1.212,2.42-1.56,4.74-3.4,6.916-4.914,1.6-1.113,3.18-2.257,4.746-3.419,1.111,1.4,2.246,2.787,3.437,4.116,1.233,1.377,2.67,3.076,4.255,4.656-3.31,2.584-7.911,5.217-9.973,8.729a.618.618,0,0,0,.69.9c4.026-.981,8.044-5.24,11.14-7.909A12.538,12.538,0,0,0,488.687-757a1.288,1.288,0,0,0,1.242-2.133,19.8,19.8,0,0,0-3.994-3.486c3.014-2.689,5.933-5.472,8.747-8.381a.978.978,0,0,0-1.383-1.382c-3.06,2.787-6.151,5.548-9.3,8.233l-.02-.017c-1.946-1.727-3.768-3.59-5.552-5.483q-1.277-1.355-2.5-2.755,2.135-1.635,4.229-3.322a71.206,71.206,0,0,0,9.262-8.813c.217.2.426.4.645.6,2.721,2.427,6.553,6.163,10.507,5.007A1.181,1.181,0,0,0,500.846-781.069Zm-48.18-26.89a.687.687,0,0,0-.1-.122c1.821-1.6,3.531-3.416,5.348-4.88,2.053-1.654,4.441-3.116,6.506-4.863a115.669,115.669,0,0,0,9.649,16.1q-4.872,4.421-9.947,8.619c-.639.53-1.285,1.052-1.928,1.576C458.875-796.923,455.766-802.445,452.666-807.959Zm13.549,39.249c-2.083,1.422-4.472,2.708-6.706,4.139-1.34-1.476-2.636-2.992-3.873-4.554a86.525,86.525,0,0,1-5.833-8.446c1.623-1.275,3.169-2.592,4.59-3.664q3.91-2.949,7.66-6.091c1.751,2.987,3.573,5.931,5.52,8.8,1.356,2,2.76,3.98,4.219,5.918Q469.026-770.624,466.215-768.709Zm11.54-8.307q-1.74,1.333-3.511,2.628-3.007-3.6-5.719-7.45c-1.613-2.3-3.157-4.643-4.66-7.013.653-.557,1.306-1.112,1.952-1.676,3.366-2.937,6.612-6,9.775-9.148,1.106,1.463,2.237,2.909,3.424,4.319a113.4,113.4,0,0,0,8.876,9.406A81.307,81.307,0,0,1,477.756-777.016ZM489.9-788.243l-.273-.25a122.636,122.636,0,0,1-9.848-10.11q-1.22-1.41-2.4-2.855,3.372-3.424,6.621-6.968c.545.846,1.1,1.683,1.7,2.5,2.369,3.266,5.563,7.5,9.354,9.5a.791.791,0,0,0-.166.241A35.785,35.785,0,0,1,489.9-788.243Z" transform="translate(-315.652 1125.937)" fill="#f49625"/>
    <path id="Tracé_12227" data-name="Tracé 12227" d="M491.188-815.618c9.992-2.664,18.843,15.627,20.222,25.508s-10.111,19.3-19.3,12.639S477.4-811.941,491.188-815.618Z" transform="translate(-335.36 1122.709)" fill="#ffe91a" opacity="0.15"/>
    <ellipse id="Ellipse_777" data-name="Ellipse 777" cx="6.101" cy="6.24" rx="6.101" ry="6.24" transform="translate(158.749 321.466)" fill="#f71c1c" opacity="0.2"/>
    <circle id="Ellipse_778" data-name="Ellipse 778" cx="5.15" cy="5.15" r="5.15" transform="translate(157.254 329.095) rotate(-45)" fill="#fce9ff"/>
    <circle id="Ellipse_779" data-name="Ellipse 779" cx="2.33" cy="2.33" r="2.33" transform="translate(162.023 328.339)" fill="#543200"/>
    <path id="Tracé_12228" data-name="Tracé 12228" d="M517.258-792.632a.272.272,0,0,1-.348.39,6.953,6.953,0,0,0-3.363-.39c-1.1.116-.632-1.607,1.729-1.224A2.726,2.726,0,0,1,517.258-792.632Z" transform="translate(-349.26 1112.569)" fill="#543200"/>
    <path id="Tracé_12229" data-name="Tracé 12229" d="M514.78-775.424a.927.927,0,0,1-.927.927.926.926,0,0,1-.926-.927.926.926,0,0,1,.926-.926A.927.927,0,0,1,514.78-775.424Z" transform="translate(-349.235 1104.464)" fill="#fff"/>
    <ellipse id="Ellipse_780" data-name="Ellipse 780" cx="6.101" cy="6.24" rx="6.101" ry="6.24" transform="translate(137.089 321.466)" fill="#f71c1c" opacity="0.2"/>
    <circle id="Ellipse_781" data-name="Ellipse 781" cx="5.15" cy="5.15" r="5.15" transform="translate(135.595 329.095) rotate(-45)" fill="#fce9ff"/>
    <circle id="Ellipse_782" data-name="Ellipse 782" cx="2.33" cy="2.33" r="2.33" transform="translate(140.634 328.579)" fill="#543200"/>
    <path id="Tracé_12230" data-name="Tracé 12230" d="M466.728-792.632a.272.272,0,0,0,.348.39,6.953,6.953,0,0,1,3.363-.39c1.1.116.632-1.607-1.729-1.224A2.725,2.725,0,0,0,466.728-792.632Z" transform="translate(-327.892 1112.569)" fill="#543200"/>
    <path id="Tracé_12231" data-name="Tracé 12231" d="M474.554-775.424a.926.926,0,0,1-.926.927.926.926,0,0,1-.927-.927.926.926,0,0,1,.927-.926A.926.926,0,0,1,474.554-775.424Z" transform="translate(-330.668 1104.464)" fill="#fff"/>
    <path id="Tracé_12232" data-name="Tracé 12232" d="M489.977-758.865l-.185,0c-4.607-.079-5.614-2.627-5.655-2.735a.319.319,0,0,1,.187-.411.318.318,0,0,1,.41.185c.038.1.931,2.251,5.069,2.322,4.156.074,4.869-2.475,4.876-2.5a.32.32,0,0,1,.391-.227.32.32,0,0,1,.227.39C495.263-761.719,494.453-758.865,489.977-758.865Z" transform="translate(-335.937 1097.952)" fill="#f71c1c" opacity="0.75"/>
    <path id="Tracé_12233" data-name="Tracé 12233" d="M481.536-651.3l.05-31.417c0-.013,0-.032,0-.045a1.122,1.122,0,0,0-1.009-1.216,1.169,1.169,0,0,0-.943,1.3l.792,30.209c-1.3-.735-5.667-.191-5.213,2.1.136.687.569.854,1.557.9s4.51,0,4.746-.4A2.872,2.872,0,0,0,481.536-651.3Z" transform="translate(-331.812 1061.83)" fill="#f7841c"/>
    <path id="Tracé_12234" data-name="Tracé 12234" d="M504.262-652.468l.792-30.209c0-.013,0-.032,0-.045a1.143,1.143,0,0,0-.978-1.256,1.146,1.146,0,0,0-.975,1.261l.05,31.417a2.873,2.873,0,0,0,.02,1.439c.236.4,3.758.445,4.746.4s1.421-.214,1.557-.9C509.929-652.659,505.562-653.2,504.262-652.468Z" transform="translate(-344.681 1061.83)" fill="#f7841c"/>
    <path id="Tracé_12235" data-name="Tracé 12235" d="M506.287-625.719a3.151,3.151,0,0,1,1.341-.3,5.027,5.027,0,0,0-1.336.1Z" transform="translate(-346.17 1035.082)" fill="#f71c1c"/>
    <path id="Tracé_12236" data-name="Tracé 12236" d="M508.454-650.011c-.988.047-4.51,0-4.746-.4a2.874,2.874,0,0,1-.02-1.439l-.05-31.417a1.548,1.548,0,0,1,.106-.571,1.284,1.284,0,0,0-.642,1.184l.05,31.417a2.873,2.873,0,0,0,.02,1.439c.236.4,3.758.445,4.746.4.923-.044,1.362-.193,1.526-.773A3.118,3.118,0,0,1,508.454-650.011Z" transform="translate(-344.681 1061.764)" fill="#f49625"/>
    <path id="Tracé_12237" data-name="Tracé 12237" d="M481.6-651.185l.05-31.417c0-.013,0-.032,0-.045a1.323,1.323,0,0,0-.534-1.08,1.535,1.535,0,0,1,.113.544c0,.013,0,.032,0,.045l-.05,31.417a2.88,2.88,0,0,1-.02,1.439c-.236.4-3.758.445-4.746.4a2.675,2.675,0,0,1-1.1-.209c.171.556.609.7,1.517.746.988.047,4.51,0,4.746-.4A2.872,2.872,0,0,0,481.6-651.185Z" transform="translate(-331.875 1061.713)" fill="#f49625"/>
    <g id="Groupe_3201" data-name="Groupe 3201" transform="translate(118.604 275.858)">
      <g id="Groupe_3193" data-name="Groupe 3193" transform="translate(6.779 32.79)">
        <path id="Tracé_12238" data-name="Tracé 12238" d="M441.777-802.5a36.017,36.017,0,0,1,17.446-5.038c27.079-.085,42.444,9.584,42.444,9.584l.552-7.487S462.48-812.5,462.2-812.5s-12.145,2.188-12.424,2.288-7.324,1.344-7.324,1.344Z" transform="translate(-441.777 812.503)" fill="#344f59"/>
      </g>
      <g id="Groupe_3194" data-name="Groupe 3194">
        <path id="Tracé_12239" data-name="Tracé 12239" d="M566.947-786.717a7.554,7.554,0,0,0,.076-2.043h0A7.573,7.573,0,0,1,566.947-786.717Z" transform="translate(-492.771 834.334)" fill="#ff7252"/>
        <path id="Tracé_12240" data-name="Tracé 12240" d="M566.746-784.93a9.245,9.245,0,0,1-.228,1A9.145,9.145,0,0,0,566.746-784.93Z" transform="translate(-492.573 832.566)" fill="#ff7252"/>
        <path id="Tracé_12241" data-name="Tracé 12241" d="M566.945-784.965l0,.019Z" transform="translate(-492.769 832.582)"/>
        <path id="Tracé_12242" data-name="Tracé 12242" d="M566.5-783.079l-.019.062C566.489-783.038,566.5-783.058,566.5-783.079Z" transform="translate(-492.557 831.712)"/>
        <path id="Tracé_12243" data-name="Tracé 12243" d="M429.734-830.447a8.882,8.882,0,0,1,.5-1.084c.261-.475.526-.917.807-1.327a8.475,8.475,0,0,1,1.416-1.626,6.86,6.86,0,0,1,.566-.445,7.45,7.45,0,0,1,1.329-.744,66.879,66.879,0,0,1,10.195-3.5,73.194,73.194,0,0,1,8.586-1.649c.667-.088,1.335-.169,2-.24q2.64-.278,5.3-.378.943-.036,1.886-.052,1.8-.029,3.612.018,2.71.07,5.421.306a98.54,98.54,0,0,1,16.063,2.775q1.753.452,3.485.964.451.132.9.274t.907.292c.384.129.768.265,1.15.405a24.33,24.33,0,0,1,4.895,2.371,15.481,15.481,0,0,1,1.49,1.1,11.453,11.453,0,0,1,2.886,3.56l.031.3a5.7,5.7,0,0,1,.17.629c0,.011,0,.023.007.034a6.289,6.289,0,0,1,.1.629c.188-2.453-.2-6.04-3.449-8.265,0,0,.169-13.563-9.093-24.276-3.312-3.831-9.3-7.111-10.546-8.131l-.2-2.154s-2.268-2.572-13.161-2.742c-11.256-.176-13.5,3.347-13.5,3.347l-.245,1.927s-17.3,8.1-18.622,30.464c0,0-6.093,4.1-5.374,8.564,0,0,.05-.084.148-.226a8.278,8.278,0,0,1,.328-1.094C429.727-830.423,429.73-830.435,429.734-830.447Z" transform="translate(-429.188 873.4)" fill="#ff7252"/>
        <path id="Tracé_12244" data-name="Tracé 12244" d="M541.724-807.14q-.452-.141-.9-.274-1.732-.511-3.485-.964,1.753.452,3.485.964Q541.271-807.282,541.724-807.14Z" transform="translate(-479.104 843.389)" fill="#ff7252"/>
        <path id="Tracé_12245" data-name="Tracé 12245" d="M447.832-809.827a66.887,66.887,0,0,0-10.195,3.5,7.451,7.451,0,0,0-1.329.744,7.451,7.451,0,0,1,1.329-.744A66.887,66.887,0,0,1,447.832-809.827Z" transform="translate(-432.474 844.057)" fill="#ff7252"/>
        <path id="Tracé_12246" data-name="Tracé 12246" d="M566.724-790.79a5.7,5.7,0,0,0-.17-.629l-.031-.3.031.3A5.328,5.328,0,0,1,566.724-790.79Z" transform="translate(-492.575 835.7)" fill="#ff7252"/>
        <path id="Tracé_12247" data-name="Tracé 12247" d="M434.044-801.127a8.476,8.476,0,0,0-1.416,1.626A8.476,8.476,0,0,1,434.044-801.127Z" transform="translate(-430.775 840.042)" fill="#ff7252"/>
        <path id="Tracé_12248" data-name="Tracé 12248" d="M429.9-793.561a8.273,8.273,0,0,0-.328,1.094h0A8.7,8.7,0,0,1,429.9-793.561Z" transform="translate(-429.365 836.55)" fill="#ff7252"/>
        <path id="Tracé_12249" data-name="Tracé 12249" d="M567-789.3h0a6.275,6.275,0,0,0-.1-.629C566.95-789.721,566.983-789.511,567-789.3Z" transform="translate(-492.753 834.873)" fill="#ff7252"/>
        <path id="Tracé_12250" data-name="Tracé 12250" d="M547.169-805.536c.384.129.768.265,1.15.405C547.937-805.271,547.553-805.407,547.169-805.536Z" transform="translate(-483.642 842.077)" fill="#ff7252"/>
        <path id="Tracé_12251" data-name="Tracé 12251" d="M494.34-814.126q-1.807-.047-3.612-.018Q492.532-814.174,494.34-814.126Z" transform="translate(-457.592 846.055)" fill="#ff7252"/>
        <path id="Tracé_12252" data-name="Tracé 12252" d="M457.71-811.241a73.2,73.2,0,0,1,8.586-1.649A73.2,73.2,0,0,0,457.71-811.241Z" transform="translate(-442.352 845.471)" fill="#ff7252"/>
        <path id="Tracé_12253" data-name="Tracé 12253" d="M477.378-813.66q2.64-.278,5.3-.378Q480.02-813.935,477.378-813.66Z" transform="translate(-451.43 846.001)" fill="#ff7252"/>
        <path id="Tracé_12254" data-name="Tracé 12254" d="M430.2-794.558a8.422,8.422,0,0,1,.5-1.085A8.887,8.887,0,0,0,430.2-794.558Z" transform="translate(-429.656 837.51)" fill="#ff7252"/>
        <path id="Tracé_12255" data-name="Tracé 12255" d="M497.436-814.1q2.711.07,5.421.306Q500.148-814.029,497.436-814.1Z" transform="translate(-460.688 846.03)" fill="#ff7252"/>
        <path id="Tracé_12256" data-name="Tracé 12256" d="M507.5-813.532a98.523,98.523,0,0,1,16.063,2.775A98.523,98.523,0,0,0,507.5-813.532Z" transform="translate(-465.334 845.767)" fill="#ff7252"/>
        <path id="Tracé_12257" data-name="Tracé 12257" d="M558.4-800.379a15.482,15.482,0,0,1,1.49,1.1A15.482,15.482,0,0,0,558.4-800.379Z" transform="translate(-488.824 839.697)" fill="#ff7252"/>
        <path id="Tracé_12258" data-name="Tracé 12258" d="M473.656-813.1c.667-.088,1.335-.169,2-.24C474.991-813.264,474.323-813.183,473.656-813.1Z" transform="translate(-449.712 845.677)" fill="#ff7252"/>
        <path id="Tracé_12259" data-name="Tracé 12259" d="M549.3-804.783a24.33,24.33,0,0,1,4.895,2.371A24.33,24.33,0,0,0,549.3-804.783Z" transform="translate(-484.628 841.729)" fill="#ff7252"/>
        <path id="Tracé_12260" data-name="Tracé 12260" d="M430.181-793.592c0-.012.008-.024.012-.036C430.189-793.616,430.185-793.6,430.181-793.592Z" transform="translate(-429.646 836.581)" fill="#ff7252"/>
        <path id="Tracé_12261" data-name="Tracé 12261" d="M566.9-789.992c0,.011,0,.023.007.034C566.9-789.969,566.9-789.981,566.9-789.992Z" transform="translate(-492.747 834.903)" fill="#ff7252"/>
        <path id="Tracé_12262" data-name="Tracé 12262" d="M487.225-814.083q.942-.036,1.886-.052Q488.168-814.121,487.225-814.083Z" transform="translate(-455.975 846.046)" fill="#ff7252"/>
        <path id="Tracé_12263" data-name="Tracé 12263" d="M503.513-801.145a5.34,5.34,0,0,0-.17-.629l-.031-.3a11.452,11.452,0,0,0-2.886-3.56,15.482,15.482,0,0,0-1.49-1.1,24.325,24.325,0,0,0-4.894-2.371c-.382-.141-.766-.277-1.15-.405q-.453-.151-.907-.292t-.9-.274q-1.732-.511-3.485-.964a98.521,98.521,0,0,0-16.063-2.775q-2.708-.234-5.421-.306-1.807-.047-3.612-.018-.943.015-1.886.052-2.66.1-5.3.379c-.669.071-1.337.152-2,.24a73.2,73.2,0,0,0-8.586,1.649,66.88,66.88,0,0,0-10.195,3.5,7.455,7.455,0,0,0-1.329.744,6.891,6.891,0,0,0-.566.445,8.476,8.476,0,0,0-1.416,1.626c-.281.41-.545.852-.807,1.327a8.412,8.412,0,0,0-.5,1.084c0,.012-.007.024-.012.036a8.7,8.7,0,0,0-.328,1.094c1.1-1.588,8.988-11.188,37.225-7.959,32.254,3.689,36.354,12.1,36.354,12.1a13.031,13.031,0,0,0,.466-2.653c-.022-.212-.055-.422-.1-.629C503.517-801.122,503.516-801.133,503.513-801.145Z" transform="translate(-429.365 846.055)" fill="#ff7252"/>
      </g>
      <g id="Groupe_3196" data-name="Groupe 3196" transform="translate(44.822 2.748)" opacity="0.3">
        <g id="Groupe_3195" data-name="Groupe 3195">
          <path id="Tracé_12264" data-name="Tracé 12264" d="M518.569-868.3c-1.79,2.144-4.887,5.841-5.441,8.952a62.215,62.215,0,0,0-.7,9.511c1.845-10.464,3.356-11.966,6.343-16.309Z" transform="translate(-512.43 868.296)"/>
        </g>
      </g>
      <g id="Groupe_3198" data-name="Groupe 3198" transform="translate(5.399 30.024)" opacity="0.5">
        <g id="Groupe_3197" data-name="Groupe 3197">
          <path id="Tracé_12265" data-name="Tracé 12265" d="M504.619-810.354a16.538,16.538,0,0,1-2.529-.76c-.8-.279-1.782-.606-2.945-.918s-2.459-.756-3.938-1.083a124.8,124.8,0,0,0-23.342-3.528,88.234,88.234,0,0,0-23.5,1.431c-1.455.383-2.782.719-3.917,1.095-1.11.44-2.1.76-2.861,1.113a16.6,16.6,0,0,1-2.369,1.147,16.33,16.33,0,0,1,2.23-1.43c.753-.4,1.734-.769,2.848-1.256,1.137-.422,2.468-.8,3.935-1.225a82.052,82.052,0,0,1,23.681-1.682,112.183,112.183,0,0,1,23.444,3.783c1.478.365,2.773.845,3.927,1.2s2.129.726,2.916,1.053A16.483,16.483,0,0,1,504.619-810.354Z" transform="translate(-439.215 817.639)" fill="#1b292f"/>
        </g>
      </g>
      <g id="Groupe_3200" data-name="Groupe 3200" transform="translate(51.181 8.295)" opacity="0.3">
        <g id="Groupe_3199" data-name="Groupe 3199">
          <path id="Tracé_12266" data-name="Tracé 12266" d="M524.243-856.236a2.135,2.135,0,0,1,.274-1.349,1.2,1.2,0,0,1,1.2-.38,3.345,3.345,0,0,1,1.182.595A34.436,34.436,0,0,1,541-832.817a.568.568,0,0,1-.836.579,38.577,38.577,0,0,0-11.457-4.247c-1.318-.278-3.213-.169-3.782-1.538a7.179,7.179,0,0,1-.378-2.622Q524.394-848.44,524.243-856.236Z" transform="translate(-524.241 857.995)" fill="#fff"/>
        </g>
      </g>
    </g>
    <g id="Groupe_3203" data-name="Groupe 3203" transform="translate(142.365 279.024)">
      <g id="Groupe_3202" data-name="Groupe 3202">
        <path id="Tracé_12267" data-name="Tracé 12267" d="M473.848-854.914c-.218.014-.568-2.81-.527-6.31s.449-6.315.667-6.3.177,2.837.142,6.306S474.076-854.927,473.848-854.914Z" transform="translate(-473.318 867.52)" opacity="0.5"/>
      </g>
    </g>
    <path id="Tracé_12268" data-name="Tracé 12268" d="M426.425-757.154c-1.284,1.209-1.583,3.312-1.655,4.981a17.351,17.351,0,0,0,.76,5.742,14.431,14.431,0,0,0,6.517,8.589c.4.223,1.779.538,1.792,1.127.023,1.014-1.664.04-2.022-.133a13.7,13.7,0,0,1-4.381-3.394,18.408,18.408,0,0,1-4.243-10.561,11.923,11.923,0,0,1,.981-6.325c.325-.625.937-1.77,1.794-1.608A.93.93,0,0,1,426.425-757.154Z" transform="translate(-307.793 1096.342)" fill="#bf6511"/>
    <path id="Tracé_12269" data-name="Tracé 12269" d="M441.514-718.586a1.622,1.622,0,0,1,.537-.177c1.467-.21,2.358-.394,3.292.214.993.645,1.241,1.192,1.142,1.588s-2.11,1.515-3.922.919a2.392,2.392,0,0,1-1.812-2.135Z" transform="translate(-315.922 1077.977)" fill="#bf6511"/>
    <path id="Tracé_12270" data-name="Tracé 12270" d="M445.343-718.549c-.949-.617-1.852-.418-3.36-.2a1.24,1.24,0,0,0-.41.135l-.823.442h0c0,.15.3,0,.641-.078h0a5.683,5.683,0,0,1,.838-.172c1.319-.192,2.16-.322,3.039.25.789.513,1.107.963,1.154,1.326a.309.309,0,0,0,.062-.11C446.585-717.357,446.336-717.9,445.343-718.549Z" transform="translate(-315.922 1077.977)" fill="#bf6511" opacity="0.35"/>
    <path id="Tracé_12271" data-name="Tracé 12271" d="M556.168-752.932c1.312,1.236,1.618,3.385,1.691,5.091a17.742,17.742,0,0,1-.776,5.869,14.752,14.752,0,0,1-6.662,8.779c-.414.229-1.818.55-1.832,1.152-.024,1.036,1.7.041,2.067-.136a14,14,0,0,0,4.479-3.47,18.812,18.812,0,0,0,4.337-10.794,12.193,12.193,0,0,0-1-6.466c-.332-.639-.957-1.809-1.833-1.644A.951.951,0,0,0,556.168-752.932Z" transform="translate(-365.694 1094.409)" fill="#bf6511"/>
    <path id="Tracé_12272" data-name="Tracé 12272" d="M545.078-713.508a1.667,1.667,0,0,0-.549-.18c-1.5-.215-2.41-.4-3.365.218-1.015.66-1.269,1.218-1.167,1.624s2.157,1.548,4.009.939a2.445,2.445,0,0,0,1.852-2.182Z" transform="translate(-361.719 1075.636)" fill="#bf6511"/>
    <path id="Tracé_12273" data-name="Tracé 12273" d="M541.164-713.469c.97-.631,1.893-.427,3.435-.208a1.26,1.26,0,0,1,.418.137l.841.452h0c0,.154-.307,0-.655-.08h0a5.851,5.851,0,0,0-.857-.176c-1.349-.2-2.208-.329-3.107.256-.807.524-1.132.984-1.18,1.355a.319.319,0,0,1-.063-.112C539.894-712.251,540.148-712.81,541.164-713.469Z" transform="translate(-361.719 1075.636)" fill="#bf6511" opacity="0.35"/>
    <path id="Tracé_9159" data-name="Tracé 9159" d="M492.583-838.76q-1.178-.212-2.361-.391c-.841-.131-1.682-.246-2.522-.353a.112.112,0,0,1-.1-.076.107.107,0,0,1,.034-.116q2.985-2.661,5.827-5.469l1.461-1.446-2.015-.025c-1.59-.022-3.178-.022-4.765.035l-1.194.041-1.2.07c-.8.05-1.594.113-2.394.208.785.178,1.57.323,2.357.457l1.184.191,1.182.166c.841.118,1.656.219,2.489.312a.112.112,0,0,1,.1.076.109.109,0,0,1-.033.116q-2.991,2.647-5.794,5.441l-1.43,1.411,1.963.052c1.59.044,3.181.066,4.765.03.8,0,1.594-.035,2.394-.07s1.6-.09,2.4-.172C494.155-838.461,493.366-838.619,492.583-838.76Z" transform="translate(-335.587 1136.911)" fill="#344f59"/>
    <path id="Tracé_9160" data-name="Tracé 9160" d="M491.063-848.543l.776-4,.776,4Z" transform="translate(-339.143 1139.632)" fill="#344f59"/>
    <path id="Tracé_11071" data-name="Tracé 11071" d="M494.236-848.543l.776-4,.776,4Z" transform="translate(-340.608 1139.632)" fill="#344f59"/>
    <path id="Tracé_9161" data-name="Tracé 9161" d="M495.522-831.838l-.776,3.956-.776-3.956Z" transform="translate(-340.485 1130.075)" fill="#344f59"/>
    <path id="Tracé_11072" data-name="Tracé 11072" d="M492.626-831.838l-.776,3.956-.776-3.956Z" transform="translate(-339.148 1130.075)" fill="#344f59"/>
  </g>
</svg>
