<svg xmlns="http://www.w3.org/2000/svg" width="98.623" height="73.149" viewBox="0 0 98.623 73.149">
  <g id="Groupe_3532" data-name="Groupe 3532" transform="translate(-217.187 -275.516)">
    <g id="Groupe_3293" data-name="Groupe 3293" transform="translate(217.187 275.516)">
      <g id="Groupe_3304" data-name="Groupe 3304" transform="translate(0 0)">
        <path id="Tracé_12526" data-name="Tracé 12526" d="M320.794-184.636s26.092,11.23,50.233,1.389c13.028-5.811,20.884-17.234,17.275-35.084-5.968-24.017-46.129-10.344-36.7,10.229-7.047,2.936-5.215,13.939,2.808,12.836-2.516,2.025-2.005,6.518,1.1,6.819C343.477-180.024,320.794-184.636,320.794-184.636Z" transform="translate(-320.794 233.88)" fill="#c0dee6"/>
        <path id="Tracé_12526-2" data-name="Tracé 12526" d="M320.794-186.155s24.168,8.423,48.309-1.418c13.028-5.811,20.884-17.234,17.275-35.084-5.968-24.017-46.129-10.343-36.7,10.229-7.047,2.936-5.215,13.939,2.808,12.836-2.517,2.025-2.005,6.518,1.1,6.819C341.552-184.351,320.794-186.155,320.794-186.155Z" transform="translate(-320.794 235.4)" fill="#fff"/>
        <path id="Tracé_9381" data-name="Tracé 9381" d="M363.282-210.367a9.5,9.5,0,0,0,11.423,7.074,9.442,9.442,0,0,0,1.748-.595,4.012,4.012,0,0,0,2.508,2.924,3.742,3.742,0,0,0,3.625-.812,4.374,4.374,0,0,1-3.682,2.444,4.107,4.107,0,0,1-3.733-2.079,8.3,8.3,0,0,1-8.861-.488A8.515,8.515,0,0,1,363.282-210.367Z" transform="translate(-335.65 226.607)" fill="#c0dee6"/>
      </g>
      <g id="Groupe_3294" data-name="Groupe 3294" transform="translate(0 41.051)">
        <path id="Tracé_12535" data-name="Tracé 12535" d="M332.16-153.942s17.061,7.066,36.379,4.176,24.493-17.989,39.108-19.916c7.685-.351,15.41,2.457,19.811,9.02,3.186,4.759,4.541,11.43,1.994,16.77-2.851,5.977-12.163,8.634-17.159,3.709-3.237-2.676-3.044-5.5-3.678-9.1a15.764,15.764,0,0,0-8.834-.964s-12.046,11.511-27.143,11.511C349.4-139.7,332.16-153.942,332.16-153.942Z" transform="translate(-332.16 169.711)" fill="#fff"/>
        <path id="Tracé_9382" data-name="Tracé 9382" d="M426.275-141.007a7.859,7.859,0,0,1,11.039,1.3c.925,1.173.97,3.009,1.649,4.072a8.88,8.88,0,0,0-1.07-7.716,6.278,6.278,0,0,0-7.188-2.287C428.663-144.783,427.422-142.9,426.275-141.007Z" transform="translate(-361.081 162.421)" fill="#c0dee6"/>
      </g>
      <path id="Tracé_9386" data-name="Tracé 9386" d="M430.265-175.97a34.641,34.641,0,0,1,6.275-5.584,7.585,7.585,0,0,1,3.9-1.628,4.222,4.222,0,0,1,4.368,4.072,4.221,4.221,0,0,1-1.252,3.152,2.825,2.825,0,0,1-2.71.846,1.71,1.71,0,0,1-1.143-2.129,1.86,1.86,0,0,1,.087-.228" transform="translate(-356.321 209.53)" fill="none" stroke="#c0dee6" stroke-miterlimit="10.001" stroke-width="1"/>
      <path id="Tracé_9387" data-name="Tracé 9387" d="M433.468-183.247a17.76,17.76,0,0,1,6.859-7.926,5.714,5.714,0,0,1,3.331-1.073,2.484,2.484,0,0,1,2.385,2.192" transform="translate(-356.693 210.584)" fill="none" stroke="#c0dee6" stroke-miterlimit="10.001" stroke-width="1"/>
      <path id="Tracé_9389" data-name="Tracé 9389" d="M350.414-167.666a10.491,10.491,0,0,0,8.784-2.459,5.222,5.222,0,0,0,1.9-3.223,4.421,4.421,0,0,0-.928-2.993,4.812,4.812,0,0,0-3.281-2.009,3.43,3.43,0,0,0-3.345,1.661,2.678,2.678,0,0,0,.889,3.472" transform="translate(-347.026 208.97)" fill="none" stroke="#c0dee6" stroke-miterlimit="10.001" stroke-width="1"/>
    </g>
    <g id="Groupe_3303" data-name="Groupe 3303" transform="translate(224.896 317.954) rotate(-6)">
      <path id="Tracé_12559" data-name="Tracé 12559" d="M.493,14.6,42.571,5.765,0,0Z" transform="translate(12.455 4.144)" fill="#444143"/>
      <path id="Tracé_12560" data-name="Tracé 12560" d="M3.364,12.025,44.806,3.25,0,0Z" transform="translate(9.583 6.717)" fill="#e28e56"/>
      <path id="Tracé_12561" data-name="Tracé 12561" d="M4.407,0,42.571,9.909,0,4.144Z" transform="translate(12.455 0)" fill="#fab55f"/>
      <path id="Tracé_12562" data-name="Tracé 12562" d="M0,8.189l55.025-5L9.583,0,0,8.189" transform="translate(0 6.717)" fill="#fab55f"/>
    </g>
  </g>
</svg>
