<svg xmlns="http://www.w3.org/2000/svg" width="108.873" height="139.773" viewBox="0 0 108.873 139.773">
  <g id="Groupe_3535" data-name="Groupe 3535" transform="translate(-489.399 -98.559)">
    <g id="Groupe_3256" data-name="Groupe 3256" transform="translate(7422.83 5809.611)">
      <path id="Tracé_12294" data-name="Tracé 12294" d="M-678.472-422.1l5.624-5.338c-2.93-7.116-31.484-33.375-36-27.012C-697.358-450.208-678.676-422.886-678.472-422.1Z" transform="translate(-6203.663 -5222.91)" fill="#609d43"/>
      <path id="Tracé_12304" data-name="Tracé 12304" d="M-622.9-357.548a5.346,5.346,0,0,1-5.12-4.089v-46.77a1.183,1.183,0,0,1,1.183-1.183h7.516a1.183,1.183,0,0,1,1.183,1.183v46.77A4.616,4.616,0,0,1-622.9-357.548Z" transform="translate(-6254.351 -5251.661)" fill="#609d43"/>
      <path id="Tracé_12305" data-name="Tracé 12305" d="M-692.412-354.294l-1.724-10.956c-7.751-3.927-49.808-1.223-49.609,8.889C-729.928-363.033-693.153-354.835-692.412-354.294Z" transform="translate(-6181.777 -5278.384)" fill="#8fc23e"/>
      <path id="Tracé_12306" data-name="Tracé 12306" d="M-611.788-361.145l3.792-8.372c8.129-3.022,47.506-1.077,45.328,6.646C-574.467-367.927-610.978-361.562-611.788-361.145Z" transform="translate(-6264.527 -5275.938)" fill="#8fc23e"/>
      <path id="Tracé_12307" data-name="Tracé 12307" d="M-699.177-371.817l1.1-13.259c-7.779-7.672-56.723-21.788-59.334-10.121C-739.707-397.185-699.874-372.741-699.177-371.817Z" transform="translate(-6173.208 -5257.898)" fill="#609d43"/>
      <path id="Tracé_12308" data-name="Tracé 12308" d="M-675.76-325.99l-2.54-7.569c-6.108-2.383-36.437,1.449-35.108,8.5C-704.121-330.357-676.363-326.334-675.76-325.99Z" transform="translate(-6200.776 -5298.894)" fill="#609d43"/>
      <path id="Tracé_12309" data-name="Tracé 12309" d="M-609.021-327.379l1.1-6.766c4.727-3.238,30.267-6.406,30.1-.319C-586.188-336.892-608.568-327.788-609.021-327.379Z" transform="translate(-6266.262 -5296.606)" fill="#609d43"/>
      <path id="Tracé_12310" data-name="Tracé 12310" d="M-613.674-432.506l-15.948-4.488c2.791-6.241,28.4-33.923,36.25-31.117C-606.525-455.921-613.539-433.147-613.674-432.506Z" transform="translate(-6253.343 -5214.838)" fill="#8fc23e"/>
      <path id="Tracé_12311" data-name="Tracé 12311" d="M-614.288-398.036l-6.6-9.7c5.041-6.136,48.543-24.781,55.149-18.516C-583.92-423.656-613.918-398.724-614.288-398.036Z" transform="translate(-6258.821 -5240.415)" fill="#4a7c31"/>
      <g id="Groupe_3227" data-name="Groupe 3227" transform="translate(-6900.339 -5711.053)">
        <path id="Tracé_12312" data-name="Tracé 12312" d="M-653.252-448.009c-34.747,1.3-24.858-50.084-1.9-50.942S-622.907-449.142-653.252-448.009Z" transform="translate(676.044 515.436)" fill="#fcec24"/>
        <ellipse id="Ellipse_787" data-name="Ellipse 787" cx="7.904" cy="3.695" rx="7.904" ry="3.695" transform="translate(13.663 16.464)" fill="#f71c1c" opacity="0.2"/>
        <g id="Groupe_3225" data-name="Groupe 3225" transform="translate(8.764 0)">
          <path id="Tracé_12313" data-name="Tracé 12313" d="M-622.824-535.217c-.715-1.358.449-2.872,1.252-3.812a10.016,10.016,0,0,1,3.717-2.931l-.539-.906a39.575,39.575,0,0,0-3.8,8.641l.987.205a21.249,21.249,0,0,1,2.024-6.612.834.834,0,0,0-.054-.875.564.564,0,0,0-.876-.044c-1.5,1.9-2.19,4.343-3.49,6.391l1.073.807c.7-1.461,1.089-3.081,1.689-4.595a.662.662,0,1,0-1.235-.463,26.566,26.566,0,0,0-.967,2.895c-.224.823-.6,1.871-.145,2.638.134.226.443.381.641.128a1.777,1.777,0,0,0,.44-.9c.08-.472.189-.937.309-1.4a24.9,24.9,0,0,1,.958-2.9l-1.235-.463c-.548,1.394-.886,2.906-1.527,4.251-.4.843.577,1.6,1.073.807,1.223-1.942,1.848-4.333,3.242-6.14l-1-.75a19.988,19.988,0,0,0-1.931,7.171.5.5,0,0,0,.987.205c.932-2.853,1.836-5.9,3.618-8.237.333-.436.092-1.149-.452-1.023a5.785,5.785,0,0,0-2.127,1.178,14.212,14.212,0,0,0-2.383,2.326c-.936,1.166-2.48,3.873-.557,4.831.206.1.429-.211.315-.427Z" transform="translate(634.744 543.139)" fill="#006838"/>
          <path id="Tracé_12314" data-name="Tracé 12314" d="M-636.4-525.453c-1.5-4.712.784-10.728-2.542-15.186,3,.211,5.908,4.428,7.892,6.743,2.264-3.1,5.208-3.687,8.487-3.748-4.348,4.608-3.79,11.5-6.611,16.678a5.827,5.827,0,0,1-5.218-.2Z" transform="translate(644.075 541.571)" fill="#609d43"/>
          <path id="Tracé_12315" data-name="Tracé 12315" d="M-645.775-512.18l5.588-3.485c-.915-4.017-1.919-5.833-4.867-8.362-1.927-1.653-5.531-4.686-7.657-1.668C-648.146-522.516-645.826-512.613-645.775-512.18Z" transform="translate(652.711 533.005)" fill="#8fc23e"/>
          <path id="Tracé_12316" data-name="Tracé 12316" d="M-611.448-506.64c-4.67-.582-7.329-5.479-3.627-9.31a11.373,11.373,0,0,1,5.817-3.21c1.567-.28,3.955,1.392,4.821,1.2C-607.98-517.18-610.911-510.314-611.448-506.64Z" transform="translate(630.203 528.122)" fill="#8fc23e"/>
          <path id="Tracé_12317" data-name="Tracé 12317" d="M-625.553-539.229a11.274,11.274,0,0,0,.707,2.114c.276.75.513,1.876,1.127,2.34.493.373,1.04-.167.971-.781a3.788,3.788,0,0,0-.513-1.2c-.191-.388-.389-.77-.592-1.151-.335-.631-.773-1.407-1.439-1.6a.22.22,0,0,0-.261.273Z" transform="translate(635.683 540.864)" fill="#006838"/>
        </g>
        <g id="Groupe_3226" data-name="Groupe 3226" transform="translate(0 21.559)" opacity="0.2">
          <path id="Tracé_12318" data-name="Tracé 12318" d="M-653.52-439.421c5.482-.2,9.67-2.027,12.718-4.869-10.137,4.082-22.911-.625-28.6-10.428-6.852-11.8-2.037-25.21,2.77-30.608l-.026.014C-680.511-472.227-681.811-438.364-653.52-439.421Z" transform="translate(676.212 485.326)" fill="#f71c1c"/>
          <path id="Tracé_12319" data-name="Tracé 12319" d="M-653.52-439.421c5.482-.2,9.67-2.027,12.718-4.869-10.137,4.082-22.911-.625-28.6-10.428-6.852-11.8-2.037-25.21,2.77-30.608l-.026.014C-680.511-472.227-681.811-438.364-653.52-439.421Z" transform="translate(676.212 485.326)" fill="#f71c1c" opacity="0.2"/>
        </g>
        <path id="Tracé_12320" data-name="Tracé 12320" d="M-631.348-456.726a30.028,30.028,0,0,1-3.128-1.473,21.552,21.552,0,0,1-2.271-1.852,22.849,22.849,0,0,0,2.812-4.789.485.485,0,0,0,.034-.274c.05.019.1.041.148.058.591.2.929-.572.57-.979-.947-1.072-2.239-1.81-3.271-2.818a30.537,30.537,0,0,1-3.121-3.65c-.166-.224-.328-.45-.491-.678q.765-.841,1.523-1.69c.44-.493-.274-1.219-.73-.73q-.709.759-1.432,1.5c-1.29-1.9-2.464-3.876-3.631-5.842a.3.3,0,0,0-.519.3c1.037,2.159,2.088,4.325,3.321,6.38q-1.957,1.979-4,3.871a71.512,71.512,0,0,1-5.9-8.751,8.678,8.678,0,0,0,.843-.922c.376-.486-.3-1.179-.687-.686-.2.255-.421.5-.647.732-.236-.428-.472-.855-.7-1.287-.192-.366-.71-.045-.546.319.227.5.466,1,.7,1.5-2.79,2.557-6.84,4.083-8.773,7.419a.342.342,0,0,0,.464.464,9.744,9.744,0,0,0,1.375-.929c1.654,3.247,3.317,6.494,5.111,9.665q-2.445,1.957-4.96,3.825c-.668.5-1.42.973-2.183,1.462-.774-1.327-1.524-2.673-2.289-4.026-.218-.385-.891-.127-.733.309a31.594,31.594,0,0,0,2.006,4.379,12.539,12.539,0,0,0-3.244,2.837c-.354.486.229,1.069.731.951a10.691,10.691,0,0,0,3.642-1.866c.99,1.6,2.073,3.133,3.19,4.591.68.886,1.413,1.845,2.2,2.8a11.6,11.6,0,0,0-1.375,1.171.606.606,0,0,0,.585,1,10.941,10.941,0,0,0,1.926-.833,19.256,19.256,0,0,0,5.645,4.695.418.418,0,0,0,.5-.654,47.2,47.2,0,0,0-4.221-4.1c-.228-.226-.45-.458-.674-.688,1.374-.886,2.691-1.93,3.927-2.79q1.363-.948,2.695-1.941c.631.8,1.275,1.583,1.951,2.337.7.782,1.516,1.746,2.416,2.644-1.879,1.467-4.491,2.962-5.662,4.956a.351.351,0,0,0,.392.509c2.286-.556,4.567-2.975,6.325-4.49a7.117,7.117,0,0,0,3.246,1.718.732.732,0,0,0,.705-1.211,11.261,11.261,0,0,0-2.268-1.979c1.711-1.527,3.369-3.106,4.966-4.758a.555.555,0,0,0-.785-.785c-1.737,1.582-3.492,3.15-5.282,4.674l-.011-.009c-1.105-.981-2.139-2.039-3.152-3.113q-.725-.77-1.419-1.564,1.212-.929,2.4-1.887a40.411,40.411,0,0,0,5.259-5c.123.112.242.229.366.34,1.545,1.378,3.721,3.5,5.966,2.843A.671.671,0,0,0-631.348-456.726ZM-658.7-471.993a.388.388,0,0,0-.059-.069c1.034-.908,2-1.94,3.036-2.771,1.166-.939,2.521-1.769,3.694-2.761a65.65,65.65,0,0,0,5.478,9.141q-2.766,2.51-5.647,4.894c-.363.3-.729.6-1.095.894C-655.178-465.728-656.944-468.863-658.7-471.993Zm7.693,22.284c-1.183.807-2.539,1.538-3.807,2.35-.76-.838-1.5-1.7-2.2-2.585a49.117,49.117,0,0,1-3.312-4.8c.922-.723,1.8-1.471,2.606-2.08q2.22-1.675,4.349-3.458c.994,1.7,2.028,3.368,3.134,5,.77,1.135,1.567,2.259,2.4,3.36Q-649.415-450.8-651.011-449.709Zm6.552-4.717q-.987.757-1.993,1.492-1.707-2.046-3.247-4.23c-.916-1.305-1.793-2.636-2.646-3.982.371-.316.742-.631,1.109-.952,1.911-1.668,3.754-3.407,5.55-5.194.628.831,1.27,1.652,1.944,2.453a64.379,64.379,0,0,0,5.04,5.34A46.142,46.142,0,0,1-644.458-454.426Zm6.893-6.374-.155-.142a69.533,69.533,0,0,1-5.591-5.74q-.692-.8-1.362-1.621,1.914-1.944,3.759-3.957c.31.48.627.955.963,1.419,1.345,1.854,3.159,4.258,5.311,5.4a.452.452,0,0,0-.094.137A20.328,20.328,0,0,1-637.565-460.8Z" transform="translate(669.682 503.835)" fill="#ddbc31"/>
      </g>
      <path id="Tracé_12321" data-name="Tracé 12321" d="M-619.765-402.187l-9.855-11.662c4.454-5.186,36.89-24.421,43.616-19.493C-602.086-425.406-619.453-402.763-619.765-402.187Z" transform="translate(-6253.345 -5236.264)" fill="#8fc23e"/>
      <path id="Tracé_12360" data-name="Tracé 12360" d="M-710.189-400.921l6.006-9.72c-6.74-9.319-56.706-37.516-60.767-26.694C-747.154-435.175-710.763-401.988-710.189-400.921Z" transform="translate(-6168.481 -5232.734)" fill="#4a7c31"/>
      <path id="Tracé_12361" data-name="Tracé 12361" d="M-626.395-396.988l-8.741-7.824c3.414-7.17,41.14-35.75,49.061-31.262C-603.1-429.171-626.2-397.745-626.395-396.988Z" transform="translate(-6249.886 -5234.754)" fill="#609d43"/>
      <path id="Tracé_12370" data-name="Tracé 12370" d="M-623.391-252.6s-4.656-32.446-4.656-32.936h0c5.769,1.555,7.254-3.7,9.944-3.7,0,0-.052,3.7-.046,3.7-4.571,12.26-.729,23.181-4.481,37.147C-622.922-247.3-623.391-252.681-623.391-252.6Z" transform="translate(-6254.331 -5327.135)" fill="#775547"/>
      <path id="Tracé_12371" data-name="Tracé 12371" d="M-626.731-218.113c-1.7.807-4.759.029-4.31,2.975.166-.345.281-.578.393-.813.544-1.147,2.5-.915,3.562-.93-.266.757-.524,1.488-.81,2.3-.417.453-.906.837-1.323,1.29a2.263,2.263,0,0,0-.51,2.2c.266-.889.543-1.77,1.579-2.142a9,9,0,0,0,.666,6.345c.14-1.921-.393-3.692.027-5.657a12.35,12.35,0,0,1,1.9-3.914l-.494-3.455a10.087,10.087,0,0,1-.315,1.37A.644.644,0,0,1-626.731-218.113Z" transform="translate(-6252.425 -5370.603)" fill="#775547"/>
      <path id="Tracé_12372" data-name="Tracé 12372" d="M-639.266-272.49c-1.489-.191-2.993-.834-4.5-.744a3.059,3.059,0,0,0-2.716,2.347c.143-.153.252-.288.379-.4,1.768-1.624,3.417-.927,5.413-.252a6.444,6.444,0,0,0-1.816,1.669,2.206,2.206,0,0,0-.218,2.179c.615-1.238.842-2.054,2.145-2.8a11.5,11.5,0,0,1,1.725-.785,7.1,7.1,0,0,0,1.83-.98,16.64,16.64,0,0,0-.544,5.506c.138,1.668,1.283,2.935,1.825,4.461a14.532,14.532,0,0,1,.5,2.039,6.181,6.181,0,0,0,.25-.914,3.433,3.433,0,0,0-.1-1.671,30.574,30.574,0,0,1-1.14-3.222,19.265,19.265,0,0,1-.14-3.175.8.8,0,0,1,.058-.2c.936,1.244,2.513,1.99,3.279,3.329a17.845,17.845,0,0,1,1.127,3.249,8.155,8.155,0,0,0-1.831-5.34c-.4-.564-1.018-1.028-1.479-1.553a2.291,2.291,0,0,1-.657-1.529c.723-2.233,2.151-4.122,2.815-6.357l-1.708-1.069C-634.986-276-636.952-273.847-639.266-272.49Z" transform="translate(-6242.769 -5333.74)" fill="#775547"/>
      <path id="Tracé_12373" data-name="Tracé 12373" d="M-615.9-194.873a16.885,16.885,0,0,0,.186,5.176c.29,1.091,1.171,3.23,2.4,3.589a7.939,7.939,0,0,1-1.4-5.376,1.126,1.126,0,0,1,.038-.229,6.541,6.541,0,0,1,2.7,2.536,6.237,6.237,0,0,0,.655,1.378c-.109-.615-.125-1-.239-1.469-.416-1.714-1.982-2.551-2.993-3.873.017-.689.034-1.44.053-2.181l-1.713-1.36A3.492,3.492,0,0,1-615.9-194.873Z" transform="translate(-6261.753 -5385.172)" fill="#775547"/>
      <path id="Tracé_12374" data-name="Tracé 12374" d="M-610.089-263.085a14.176,14.176,0,0,0,.157,4.347c.244.916.984,2.713,2.016,3.014a6.667,6.667,0,0,1-1.172-4.516.952.952,0,0,1,.032-.192,5.494,5.494,0,0,1,2.268,2.13,5.224,5.224,0,0,0,.55,1.158c-.092-.517-.105-.841-.2-1.234-.349-1.439-1.664-2.143-2.514-3.253.014-.579.029-1.209.044-1.831l-1.438-1.143A2.933,2.933,0,0,1-610.089-263.085Z" transform="translate(-6265.431 -5342.579)" fill="#775547"/>
      <path id="Tracé_12375" data-name="Tracé 12375" d="M-634.549-279.467c.225-.759.47-1.517.756-2.267.05-.13.157-.462.287-.8l2.977-2.864a5.766,5.766,0,0,0-.443.742,14.944,14.944,0,0,0-1.816,4.666,5.6,5.6,0,0,0,.433,2.731,4.146,4.146,0,0,0,.9,1.345,9.1,9.1,0,0,0,2.188,1.269,5,5,0,0,1,1.752,1.561,14.17,14.17,0,0,1,1.719,4.166.364.364,0,0,1-.044.373,14.825,14.825,0,0,0-1.863-3.924,7.072,7.072,0,0,0-3.756-2.03,7.944,7.944,0,0,1,.267,1.079c.212,1.635-.623,3.568-.957,5.29a1.738,1.738,0,0,0,.177,1.574c-1.4-.068-.33-3.823-.144-4.818-.711,1.319-2,2.533-2.372,3.7-.261-.613,1.206-2.563,1.546-3.166a4.794,4.794,0,0,0,.75-2.437c-.172-1.775-1.161-2.951-1.768-4.448a27.736,27.736,0,0,1-2.56,5.748,11.93,11.93,0,0,0,.106,3.1,8.12,8.12,0,0,1-.4,3.126,8.394,8.394,0,0,1-1.3,2.711,8.015,8.015,0,0,1-1.784,1.9c.47-1.047,1.4-1.9,1.887-2.973a10.247,10.247,0,0,0,.692-2.562,12.622,12.622,0,0,0-.223-4.212c-.435.345-.844.7-1.273,1a2.59,2.59,0,0,0-.82,1.042c-.565,1.147-.521,2.383-1.109,3.562a4.086,4.086,0,0,1-1.24,1.753,10.306,10.306,0,0,0,1-2.028c.355-1.128.245-2.373.678-3.455a6.4,6.4,0,0,0-1.537.943,9.045,9.045,0,0,0-1.535,1.587,6.96,6.96,0,0,1-.761.926.929.929,0,0,1-.466.258c.13-.223.262-.447.4-.671a10.43,10.43,0,0,1,3.089-3.575,12.045,12.045,0,0,0,3.327-2.553,14.425,14.425,0,0,0,2.208-3.778C-635.133-277.03-634.9-278.283-634.549-279.467Z" transform="translate(-6243.949 -5329.542)" fill="#775547"/>
      <path id="Tracé_12376" data-name="Tracé 12376" d="M-620.508-243.466c-.279-.738-.54-1.486-.764-2.254-.039-.133-.154-.462-.251-.8l.639-4.065a5.792,5.792,0,0,0,.094.855,14.886,14.886,0,0,0,1.368,4.8,5.58,5.58,0,0,0,1.988,1.907,4.135,4.135,0,0,0,1.523.527,9.063,9.063,0,0,0,2.5-.311,4.981,4.981,0,0,1,2.33.184,14.1,14.1,0,0,1,3.872,2.271.364.364,0,0,1,.189.323,14.767,14.767,0,0,0-3.841-1.992,7.049,7.049,0,0,0-4.2.65,8,8,0,0,1,.862.7c1.153,1.17,1.653,3.207,2.425,4.774.294.595.525,1,1.088,1.143-1.153.789-2.563-2.835-3.014-3.737.23,1.475-.065,3.215.346,4.364-.576-.329-.586-2.76-.679-3.442a4.776,4.776,0,0,0-.872-2.386c-1.2-1.3-2.7-1.643-4.08-2.465a27.635,27.635,0,0,1,1.428,6.1,11.882,11.882,0,0,0,1.953,2.4,8.083,8.083,0,0,1,1.567,2.72,8.366,8.366,0,0,1,.6,2.933,7.978,7.978,0,0,1-.27,2.584c-.257-1.113-.033-2.348-.292-3.495a10.2,10.2,0,0,0-.993-2.45,12.571,12.571,0,0,0-2.712-3.208c-.137.536-.248,1.063-.408,1.561a2.582,2.582,0,0,0-.023,1.321c.242,1.251,1.021,2.205,1.264,3.494a4.069,4.069,0,0,1,.072,2.138,10.253,10.253,0,0,0-.429-2.21c-.4-1.108-1.234-2.03-1.542-3.15a6.378,6.378,0,0,0-.653,1.673,9.031,9.031,0,0,0-.263,2.183,6.911,6.911,0,0,1-.047,1.193.925.925,0,0,1-.214.486c-.031-.255-.062-.513-.089-.772a10.39,10.39,0,0,1,.3-4.7,11.994,11.994,0,0,0,1.1-4.029,14.347,14.347,0,0,0-.522-4.328C-619.5-241.181-620.072-242.316-620.508-243.466Z" transform="translate(-6258.421 -5351.368)" fill="#775547"/>
      <path id="Tracé_12377" data-name="Tracé 12377" d="M-610.831-264.946c-.209-.593-.4-1.193-.561-1.807-.027-.107-.112-.37-.181-.644l.765-3.169a4.065,4.065,0,0,0,.04.677,10.69,10.69,0,0,0,.966,3.833,4.642,4.642,0,0,0,1.655,1.588,3.894,3.894,0,0,0,1.314.482,8.933,8.933,0,0,0,2.216-.133,4.875,4.875,0,0,1,2.042.248,12.646,12.646,0,0,1,3.3,1.959.28.28,0,0,1,.151.262,13.425,13.425,0,0,0-3.282-1.738,6.9,6.9,0,0,0-3.732.323,6.809,6.809,0,0,1,.724.585c.957.972,1.3,2.6,1.9,3.863.229.481.412.808.9.947-1.054.569-2.116-2.344-2.467-3.074.128,1.17-.217,2.526.086,3.448-.491-.285-.378-2.2-.426-2.738a3.484,3.484,0,0,0-.649-1.916c-1-1.08-2.293-1.413-3.469-2.121a19.7,19.7,0,0,1,.953,4.864,9.484,9.484,0,0,0,1.6,1.975,6.142,6.142,0,0,1,1.244,2.209,5.957,5.957,0,0,1,.384,2.334,5.682,5.682,0,0,1-.366,2.021c-.171-.888.088-1.849-.083-2.762a7.476,7.476,0,0,0-.752-1.971,10.1,10.1,0,0,0-2.228-2.644c-.147.415-.271.825-.437,1.209a1.832,1.832,0,0,0-.086,1.037c.151.995.789,1.78.939,2.805a2.875,2.875,0,0,1-.044,1.684,7.25,7.25,0,0,0-.267-1.757c-.295-.889-.985-1.652-1.2-2.547a4.78,4.78,0,0,0-.658,1.287,6.419,6.419,0,0,0-.34,1.705,4.885,4.885,0,0,1-.1.937.7.7,0,0,1-.213.373c-.015-.2-.029-.406-.04-.611a7.379,7.379,0,0,1,.5-3.681,8.785,8.785,0,0,0,1.172-3.12,10.129,10.129,0,0,0-.244-3.427C-610.061-263.1-610.5-264.022-610.831-264.946Z" transform="translate(-6264.662 -5338.841)" fill="#775547"/>
    </g>
  </g>
</svg>
