<svg xmlns="http://www.w3.org/2000/svg" width="141.216" height="172.269" viewBox="0 0 141.216 172.269">
  <g id="Groupe_3517" data-name="Groupe 3517" transform="translate(-56.209 -461.45)">
    <g id="Groupe_3453" data-name="Groupe 3453">
      <g id="Groupe_3313" data-name="Groupe 3313">
        <g id="Groupe_3310" data-name="Groupe 3310">
          <g id="Groupe_3309" data-name="Groupe 3309">
            <path id="Tracé_12567" data-name="Tracé 12567" d="M136,541.082" fill="#f1b994"/>
          </g>
        </g>
        <g id="Groupe_3312" data-name="Groupe 3312">
          <g id="Groupe_3311" data-name="Groupe 3311" opacity="0.14">
            <path id="Tracé_12579" data-name="Tracé 12579" d="M102.635,531.686c.5.127.771.316.745.429" fill="#c77353"/>
          </g>
        </g>
      </g>
      <g id="Groupe_3452" data-name="Groupe 3452">
        <path id="Tracé_12583" data-name="Tracé 12583" d="M136.125,535.347l1.687-34.272c.718-9.342-3.979-17.548-13.093-18.009l-.845.006a16.535,16.535,0,0,0-16.155,15.553c-.578,8.1-1.117,17.058-1.035,21.4.172,8.989,8.94,10.306,8.94,10.306.02,0-.117,2.125-.21,4.763" fill="#f0ad80"/>
        <path id="Tracé_12584" data-name="Tracé 12584" d="M115.577,532.4l.063-2.49a20.758,20.758,0,0,0,11.376-3.567s-2.695,6.786-11.439,6.057" fill="#e68652"/>
        <g id="Groupe_3328" data-name="Groupe 3328">
          <g id="Groupe_3327" data-name="Groupe 3327">
            <g id="Groupe_3326" data-name="Groupe 3326">
              <g id="Groupe_3325" data-name="Groupe 3325">
                <g id="Groupe_3324" data-name="Groupe 3324">
                  <g id="Groupe_3323" data-name="Groupe 3323">
                    <g id="Groupe_3322" data-name="Groupe 3322">
                      <g id="Groupe_3321" data-name="Groupe 3321">
                        <g id="Groupe_3320" data-name="Groupe 3320">
                          <g id="Groupe_3319" data-name="Groupe 3319">
                            <g id="Groupe_3318" data-name="Groupe 3318">
                              <g id="Groupe_3317" data-name="Groupe 3317">
                                <g id="Groupe_3316" data-name="Groupe 3316">
                                  <g id="Groupe_3315" data-name="Groupe 3315">
                                    <g id="Groupe_3314" data-name="Groupe 3314">
                                      <path id="Tracé_12585" data-name="Tracé 12585" d="M111.28,506.069a1.265,1.265,0,0,0,1.215,1.285,1.213,1.213,0,0,0,1.28-1.138v-.032a1.267,1.267,0,0,0-1.215-1.285,1.21,1.21,0,0,0-1.28,1.138h0Z" fill="#1a2024"/>
                                    </g>
                                  </g>
                                </g>
                              </g>
                            </g>
                          </g>
                        </g>
                      </g>
                    </g>
                  </g>
                </g>
              </g>
            </g>
          </g>
        </g>
        <g id="Groupe_3344" data-name="Groupe 3344">
          <g id="Groupe_3343" data-name="Groupe 3343">
            <g id="Groupe_3342" data-name="Groupe 3342">
              <g id="Groupe_3341" data-name="Groupe 3341">
                <g id="Groupe_3340" data-name="Groupe 3340">
                  <g id="Groupe_3339" data-name="Groupe 3339">
                    <g id="Groupe_3338" data-name="Groupe 3338">
                      <g id="Groupe_3337" data-name="Groupe 3337">
                        <g id="Groupe_3336" data-name="Groupe 3336">
                          <g id="Groupe_3335" data-name="Groupe 3335">
                            <g id="Groupe_3334" data-name="Groupe 3334">
                              <g id="Groupe_3333" data-name="Groupe 3333">
                                <g id="Groupe_3332" data-name="Groupe 3332">
                                  <g id="Groupe_3331" data-name="Groupe 3331">
                                    <g id="Groupe_3330" data-name="Groupe 3330">
                                      <g id="Groupe_3329" data-name="Groupe 3329">
                                        <path id="Tracé_12586" data-name="Tracé 12586" d="M109.554,501.274c.09.21,1.222-.157,2.492.29,1.276.428,1.972,1.423,2.166,1.312.092-.047.048-.383-.255-.83a3.368,3.368,0,0,0-1.665-1.246,3.244,3.244,0,0,0-2.054-.033C109.739,500.94,109.506,501.179,109.554,501.274Z" fill="#1a2024"/>
                                      </g>
                                    </g>
                                  </g>
                                </g>
                              </g>
                            </g>
                          </g>
                        </g>
                      </g>
                    </g>
                  </g>
                </g>
              </g>
            </g>
          </g>
        </g>
        <g id="Groupe_3359" data-name="Groupe 3359">
          <g id="Groupe_3358" data-name="Groupe 3358">
            <g id="Groupe_3357" data-name="Groupe 3357">
              <g id="Groupe_3356" data-name="Groupe 3356">
                <g id="Groupe_3355" data-name="Groupe 3355">
                  <g id="Groupe_3354" data-name="Groupe 3354">
                    <g id="Groupe_3353" data-name="Groupe 3353">
                      <g id="Groupe_3352" data-name="Groupe 3352">
                        <g id="Groupe_3351" data-name="Groupe 3351">
                          <g id="Groupe_3350" data-name="Groupe 3350">
                            <g id="Groupe_3349" data-name="Groupe 3349">
                              <g id="Groupe_3348" data-name="Groupe 3348">
                                <g id="Groupe_3347" data-name="Groupe 3347">
                                  <g id="Groupe_3346" data-name="Groupe 3346">
                                    <g id="Groupe_3345" data-name="Groupe 3345">
                                      <path id="Tracé_12587" data-name="Tracé 12587" d="M123.172,506.214a1.266,1.266,0,0,0,1.215,1.285,1.209,1.209,0,0,0,1.28-1.136h0v-.034a1.264,1.264,0,0,0-1.214-1.284,1.211,1.211,0,0,0-1.28,1.138h0Z" fill="#1a2024"/>
                                    </g>
                                  </g>
                                </g>
                              </g>
                            </g>
                          </g>
                        </g>
                      </g>
                    </g>
                  </g>
                </g>
              </g>
            </g>
          </g>
        </g>
        <g id="Groupe_3375" data-name="Groupe 3375">
          <g id="Groupe_3374" data-name="Groupe 3374">
            <g id="Groupe_3373" data-name="Groupe 3373">
              <g id="Groupe_3372" data-name="Groupe 3372">
                <g id="Groupe_3371" data-name="Groupe 3371">
                  <g id="Groupe_3370" data-name="Groupe 3370">
                    <g id="Groupe_3369" data-name="Groupe 3369">
                      <g id="Groupe_3368" data-name="Groupe 3368">
                        <g id="Groupe_3367" data-name="Groupe 3367">
                          <g id="Groupe_3366" data-name="Groupe 3366">
                            <g id="Groupe_3365" data-name="Groupe 3365">
                              <g id="Groupe_3364" data-name="Groupe 3364">
                                <g id="Groupe_3363" data-name="Groupe 3363">
                                  <g id="Groupe_3362" data-name="Groupe 3362">
                                    <g id="Groupe_3361" data-name="Groupe 3361">
                                      <g id="Groupe_3360" data-name="Groupe 3360">
                                        <path id="Tracé_12588" data-name="Tracé 12588" d="M122.815,502.349c.157.167,1.1-.563,2.446-.571,1.344-.028,2.336.672,2.48.5.072-.076-.084-.375-.52-.7a3.37,3.37,0,0,0-1.988-.608,3.237,3.237,0,0,0-1.944.663C122.878,501.975,122.74,502.276,122.815,502.349Z" fill="#1a2024"/>
                                      </g>
                                    </g>
                                  </g>
                                </g>
                              </g>
                            </g>
                          </g>
                        </g>
                      </g>
                    </g>
                  </g>
                </g>
              </g>
            </g>
          </g>
        </g>
        <g id="Groupe_3390" data-name="Groupe 3390">
          <g id="Groupe_3389" data-name="Groupe 3389">
            <g id="Groupe_3388" data-name="Groupe 3388">
              <g id="Groupe_3387" data-name="Groupe 3387">
                <g id="Groupe_3386" data-name="Groupe 3386">
                  <g id="Groupe_3385" data-name="Groupe 3385">
                    <g id="Groupe_3384" data-name="Groupe 3384">
                      <g id="Groupe_3383" data-name="Groupe 3383">
                        <g id="Groupe_3382" data-name="Groupe 3382">
                          <g id="Groupe_3381" data-name="Groupe 3381">
                            <g id="Groupe_3380" data-name="Groupe 3380">
                              <g id="Groupe_3379" data-name="Groupe 3379">
                                <g id="Groupe_3378" data-name="Groupe 3378">
                                  <g id="Groupe_3377" data-name="Groupe 3377">
                                    <g id="Groupe_3376" data-name="Groupe 3376">
                                      <path id="Tracé_12589" data-name="Tracé 12589" d="M118.067,513.01a8.62,8.62,0,0,0-2.188-.385c-.344-.033-.674-.1-.729-.341a1.828,1.828,0,0,1,.22-1.048l1-2.7a47.2,47.2,0,0,0,2.234-7.049,47.055,47.055,0,0,0-2.78,6.848c-.333.947-.651,1.849-.953,2.713a2.088,2.088,0,0,0-.168,1.386.869.869,0,0,0,.563.511,2.271,2.271,0,0,0,.585.077A8.473,8.473,0,0,0,118.067,513.01Z" fill="#1a2024"/>
                                    </g>
                                  </g>
                                </g>
                              </g>
                            </g>
                          </g>
                        </g>
                      </g>
                    </g>
                  </g>
                </g>
              </g>
            </g>
          </g>
        </g>
        <g id="Groupe_3401" data-name="Groupe 3401">
          <g id="Groupe_3400" data-name="Groupe 3400">
            <g id="Groupe_3399" data-name="Groupe 3399">
              <g id="Groupe_3398" data-name="Groupe 3398">
                <g id="Groupe_3397" data-name="Groupe 3397">
                  <g id="Groupe_3396" data-name="Groupe 3396">
                    <g id="Groupe_3395" data-name="Groupe 3395">
                      <g id="Groupe_3394" data-name="Groupe 3394">
                        <g id="Groupe_3393" data-name="Groupe 3393">
                          <g id="Groupe_3392" data-name="Groupe 3392">
                            <g id="Groupe_3391" data-name="Groupe 3391">
                              <path id="Tracé_12590" data-name="Tracé 12590" d="M121.511,498.55c.182.35,1.489-.032,3.079-.082,1.588-.083,2.915.193,3.075-.174.068-.174-.2-.49-.763-.769a5.233,5.233,0,0,0-4.688.2C121.676,498.046,121.43,498.383,121.511,498.55Z" fill="#1a2024"/>
                            </g>
                          </g>
                        </g>
                      </g>
                    </g>
                  </g>
                </g>
              </g>
            </g>
          </g>
        </g>
        <g id="Groupe_3412" data-name="Groupe 3412">
          <g id="Groupe_3411" data-name="Groupe 3411">
            <g id="Groupe_3410" data-name="Groupe 3410">
              <g id="Groupe_3409" data-name="Groupe 3409">
                <g id="Groupe_3408" data-name="Groupe 3408">
                  <g id="Groupe_3407" data-name="Groupe 3407">
                    <g id="Groupe_3406" data-name="Groupe 3406">
                      <g id="Groupe_3405" data-name="Groupe 3405">
                        <g id="Groupe_3404" data-name="Groupe 3404">
                          <g id="Groupe_3403" data-name="Groupe 3403">
                            <g id="Groupe_3402" data-name="Groupe 3402">
                              <path id="Tracé_12591" data-name="Tracé 12591" d="M110.372,497.982c.211.364,1.349.269,2.64.529,1.3.217,2.338.707,2.659.435.142-.133.036-.475-.38-.867a4.146,4.146,0,0,0-2.036-.952,4.1,4.1,0,0,0-2.229.176C110.5,497.52,110.282,497.806,110.372,497.982Z" fill="#1a2024"/>
                            </g>
                          </g>
                        </g>
                      </g>
                    </g>
                  </g>
                </g>
              </g>
            </g>
          </g>
        </g>
        <g id="Groupe_3419" data-name="Groupe 3419">
          <g id="Groupe_3418" data-name="Groupe 3418">
            <g id="Groupe_3417" data-name="Groupe 3417">
              <g id="Groupe_3416" data-name="Groupe 3416">
                <g id="Groupe_3415" data-name="Groupe 3415">
                  <g id="Groupe_3414" data-name="Groupe 3414">
                    <g id="Groupe_3413" data-name="Groupe 3413">
                      <path id="Tracé_12592" data-name="Tracé 12592" d="M137.157,507.315c.15-.068,6-1.884,5.859,4.265s-6.13,4.738-6.136,4.563S137.157,507.315,137.157,507.315Z" fill="#f0ad80"/>
                    </g>
                  </g>
                </g>
              </g>
            </g>
          </g>
        </g>
        <g id="Groupe_3427" data-name="Groupe 3427">
          <g id="Groupe_3426" data-name="Groupe 3426">
            <g id="Groupe_3425" data-name="Groupe 3425">
              <g id="Groupe_3424" data-name="Groupe 3424">
                <g id="Groupe_3423" data-name="Groupe 3423">
                  <g id="Groupe_3422" data-name="Groupe 3422">
                    <g id="Groupe_3421" data-name="Groupe 3421">
                      <g id="Groupe_3420" data-name="Groupe 3420">
                        <path id="Tracé_12593" data-name="Tracé 12593" d="M138.766,513.854c.026-.019.1.077.277.164a1.02,1.02,0,0,0,.78.036,2.678,2.678,0,0,0,1.253-2.35,3.657,3.657,0,0,0-.256-1.541,1.221,1.221,0,0,0-.765-.84.525.525,0,0,0-.622.28c-.084.169-.049.288-.081.3s-.126-.106-.071-.359a.679.679,0,0,1,.244-.379.776.776,0,0,1,.586-.143,1.48,1.48,0,0,1,1.066.979,3.732,3.732,0,0,1,.321,1.722,2.794,2.794,0,0,1-1.586,2.62,1.1,1.1,0,0,1-.951-.184C138.766,514,138.743,513.863,138.766,513.854Z" fill="#e68652"/>
                      </g>
                    </g>
                  </g>
                </g>
              </g>
            </g>
          </g>
        </g>
        <g id="Groupe_3436" data-name="Groupe 3436">
          <g id="Groupe_3435" data-name="Groupe 3435">
            <g id="Groupe_3434" data-name="Groupe 3434">
              <g id="Groupe_3433" data-name="Groupe 3433">
                <g id="Groupe_3432" data-name="Groupe 3432">
                  <g id="Groupe_3431" data-name="Groupe 3431">
                    <g id="Groupe_3430" data-name="Groupe 3430">
                      <g id="Groupe_3429" data-name="Groupe 3429">
                        <g id="Groupe_3428" data-name="Groupe 3428">
                          <path id="Tracé_12594" data-name="Tracé 12594" d="M119.436,518.369c-.145-.147-1.1.9-2.642.845s-2.524-1.151-2.664-1.012c-.074.052.056.422.5.851a3.362,3.362,0,0,0,2.17.906,3.093,3.093,0,0,0,2.149-.769C119.389,518.788,119.51,518.427,119.436,518.369Z" fill="#1a2024"/>
                        </g>
                      </g>
                    </g>
                  </g>
                </g>
              </g>
            </g>
          </g>
        </g>
        <path id="Tracé_12595" data-name="Tracé 12595" d="M96.6,488.875a4.259,4.259,0,0,1,2.248-.325,12.363,12.363,0,0,0,5.512-1.3,6.253,6.253,0,0,1-1.585-1.2,3.921,3.921,0,0,1-1-3.861.849.849,0,0,1,.483-.577c.391-.115.724.285.988.6a3.191,3.191,0,0,0,3.017,1.39,5.2,5.2,0,0,0,2.292-.643c.026-.027.05-.056.077-.083.319-.324.63-.633.936-.931h0a19.848,19.848,0,0,1,6.289-4.575,19.838,19.838,0,0,1,10.881-.645,8.344,8.344,0,0,1,6.067,6.7c1.743-1.447,4.309-1.38,6.372-.476l.053-.022c2.3.9,3.562,3.442,4.193,5.885.034.134.064.269.1.4a9.3,9.3,0,0,0,3.051,3.2c.221.138.473.305.5.573a.776.776,0,0,1-.407.626,4.607,4.607,0,0,1-1.9.761,10.786,10.786,0,0,0,.732,1.689c.252.462.547,1.012.311,1.481a.967.967,0,0,1-1.034.436,2.81,2.81,0,0,1-1.068-.525l.732,1.925a5.351,5.351,0,0,1-2.517-.228c-.544,2.26-1.006,6.457-1.61,7.984-1.589-.006-1.971-.191-2.78.064-1.044.331-.692,2.224-2.028,1.661-.681-.289-1.676-2.984-1.891-3.707a35.992,35.992,0,0,1-1.152-14.893,10.977,10.977,0,0,0-3.338-2.588l.1.1c-2.428-.926-5.179-1.845-7.528-.714-1.823.877-2.924,2.773-4.3,4.276a12.431,12.431,0,0,1-9.354,4.423c-.4,2.707-.6,7.14-.788,9.675l-1.994-5.116v.021a9.593,9.593,0,0,1-.426-.907l-.045-.091v-.012c-.207-.49-.4-.973-.662-1.456l-.025.021a1.558,1.558,0,0,1-2.2-2.164,3.511,3.511,0,0,1,.761-.749,2.4,2.4,0,0,1-2.34.568,1.961,1.961,0,0,1-1.311-1.971,1.669,1.669,0,0,1,1-1.321,5.371,5.371,0,0,1-3.11-.775" fill="#292932"/>
        <g id="Groupe_3441" data-name="Groupe 3441">
          <g id="Groupe_3440" data-name="Groupe 3440">
            <g id="Groupe_3439" data-name="Groupe 3439">
              <g id="Groupe_3438" data-name="Groupe 3438">
                <g id="Groupe_3437" data-name="Groupe 3437">
                  <path id="Tracé_12596" data-name="Tracé 12596" d="M130.024,484.407a7.8,7.8,0,0,1,.861.844,6.547,6.547,0,0,1,1.279,3.017,11.655,11.655,0,0,1,.174,2.292c-.015.829-.1,1.715-.186,2.649a24.844,24.844,0,0,0-.131,2.95,10.746,10.746,0,0,0,.164,1.56,3.275,3.275,0,0,0,.586,1.523A1.3,1.3,0,0,0,134,499.7a1.956,1.956,0,0,0,1.128-.622,4.738,4.738,0,0,0,.894-2.269l-.184.02a7.614,7.614,0,0,0,1.025,1.907,2.593,2.593,0,0,0,1.685.99,1.654,1.654,0,0,0,.906-.143,1.483,1.483,0,0,0,.628-.607,1.59,1.59,0,0,0,.2-.8,1.144,1.144,0,0,0-.267-.7l-.1.082a5.667,5.667,0,0,0,1.851,1.492,4.979,4.979,0,0,0,.578.244.989.989,0,0,0,.208.059,1.164,1.164,0,0,0-.2-.092c-.13-.058-.32-.142-.56-.273A5.844,5.844,0,0,1,140,497.472l-.094.083a1.18,1.18,0,0,1,.028,1.338,1.343,1.343,0,0,1-.567.538,1.5,1.5,0,0,1-.823.12,2.432,2.432,0,0,1-1.562-.94A7.462,7.462,0,0,1,136,496.74l-.12-.294-.064.311a4.588,4.588,0,0,1-.853,2.168,1.759,1.759,0,0,1-1.008.556,1.1,1.1,0,0,1-1.044-.384,3.116,3.116,0,0,1-.54-1.426,10.465,10.465,0,0,1-.163-1.528,24.641,24.641,0,0,1,.118-2.926c.077-.934.157-1.823.163-2.662a11.663,11.663,0,0,0-.2-2.322,6.424,6.424,0,0,0-1.361-3.045A3.606,3.606,0,0,0,130.024,484.407Z" fill="#5e4f40"/>
                </g>
              </g>
            </g>
          </g>
        </g>
        <g id="Groupe_3446" data-name="Groupe 3446">
          <g id="Groupe_3445" data-name="Groupe 3445">
            <g id="Groupe_3444" data-name="Groupe 3444">
              <g id="Groupe_3443" data-name="Groupe 3443">
                <g id="Groupe_3442" data-name="Groupe 3442">
                  <path id="Tracé_12597" data-name="Tracé 12597" d="M102.721,492.583a.345.345,0,0,0,.069.063l.215.169a2.958,2.958,0,0,0,.365.252,4.989,4.989,0,0,0,.527.3,7.591,7.591,0,0,0,3.735.774,9.781,9.781,0,0,0,5.334-1.893,17.536,17.536,0,0,0,4.663-5.28c.661-1.076,1.2-2.186,1.8-3.2a11.9,11.9,0,0,1,2.02-2.7,5.948,5.948,0,0,1,2.561-1.519,4.2,4.2,0,0,1,1.334-.129,4.632,4.632,0,0,1,1.215.266,5.031,5.031,0,0,1,1.8,1.169,5.111,5.111,0,0,1,.962,1.339,6.394,6.394,0,0,1,.423,1.359.336.336,0,0,0-.006-.1l-.035-.276a4.631,4.631,0,0,0-.311-1.023,5.134,5.134,0,0,0-2.784-2.608,4.7,4.7,0,0,0-1.249-.289,4.329,4.329,0,0,0-1.388.121,6.1,6.1,0,0,0-2.646,1.547,12.019,12.019,0,0,0-2.064,2.737c-.6,1.027-1.146,2.131-1.8,3.2a17.579,17.579,0,0,1-4.6,5.233,9.735,9.735,0,0,1-5.232,1.9,7.719,7.719,0,0,1-3.7-.7A12.839,12.839,0,0,1,102.721,492.583Z" fill="#5e4f40"/>
                </g>
              </g>
            </g>
          </g>
        </g>
        <g id="Groupe_3451" data-name="Groupe 3451">
          <g id="Groupe_3450" data-name="Groupe 3450">
            <g id="Groupe_3449" data-name="Groupe 3449">
              <g id="Groupe_3448" data-name="Groupe 3448">
                <g id="Groupe_3447" data-name="Groupe 3447">
                  <path id="Tracé_12598" data-name="Tracé 12598" d="M102.01,488.611a1.439,1.439,0,0,0,.31.231,6.766,6.766,0,0,0,.921.5,8.6,8.6,0,0,0,1.462.532,10.025,10.025,0,0,0,1.879.3,10.324,10.324,0,0,0,1.9-.091,8.916,8.916,0,0,0,1.51-.367,6.8,6.8,0,0,0,.968-.4,1.466,1.466,0,0,0,.333-.2c-.016-.037-.506.208-1.344.456a10.017,10.017,0,0,1-1.493.318,9.98,9.98,0,0,1-3.708-.2,10.375,10.375,0,0,1-1.45-.477C102.49,488.874,102.031,488.577,102.01,488.611Z" fill="#5e4f40"/>
                </g>
              </g>
            </g>
          </g>
        </g>
      </g>
    </g>
    <g id="Groupe_3500" data-name="Groupe 3500">
      <g id="Groupe_3469" data-name="Groupe 3469">
        <path id="Tracé_12624" data-name="Tracé 12624" d="M98.708,542.1s-4.93,29.848-2.539,54.721,2.977,36.837,2.977,36.837l49.583.062s-3.169-20.531-.327-30.434c3.11-10.838,13.158-50.237,13.158-50.237s-14.094-14.608-31.986-12.908C109.5,542.048,98.708,542.1,98.708,542.1Z" fill="#e8b03c"/>
        <path id="Tracé_12625" data-name="Tracé 12625" d="M115.262,541.3l.279-8.84,20.563.318s.065,3.812.112,7.487C136.216,540.262,124.871,548.213,115.262,541.3Z" fill="#f0ad80"/>
        <path id="Tracé_12626" data-name="Tracé 12626" d="M136.266,541.063" fill="#f8c09e"/>
      </g>
      <g id="Groupe_3471" data-name="Groupe 3471">
        <g id="Groupe_3470" data-name="Groupe 3470" opacity="0.14">
          <path id="Tracé_12643" data-name="Tracé 12643" d="M129.719,528.5c-.026.128-.34.169-.811.217-.235.022-.511.054-.813.1s-.63.1-.97.178-.66.174-.951.265-.551.188-.772.272c-.444.163-.744.263-.824.161s.1-.385.5-.717a4.124,4.124,0,0,1,.776-.49,5.292,5.292,0,0,1,1.063-.376,5.224,5.224,0,0,1,1.12-.128,4.114,4.114,0,0,1,.913.1C129.467,528.2,129.745,528.381,129.719,528.5Z" fill="#d57a5d"/>
        </g>
      </g>
    </g>
    <g id="Groupe_3508" data-name="Groupe 3508">
      <g id="Groupe_3467" data-name="Groupe 3467">
        <path id="Tracé_12636" data-name="Tracé 12636" d="M194.02,543.232c.239,0,.029,1.5-.866,3.946l-.368.96c-.13.334-.295.672-.44,1.028-.306.718-.69,1.47-1.087,2.27a48.165,48.165,0,0,1-3.06,5.011,49.664,49.664,0,0,1-3.721,4.623c-.621.661-1.21,1.289-1.794,1.834-.29.277-.563.549-.84.794l-.791.7c-2.052,1.74-3.438,2.515-3.533,2.306-.112-.236,1.06-1.4,2.84-3.294l.7-.749c.241-.26.48-.542.735-.826.516-.562,1.034-1.191,1.589-1.839q1.77-2.145,3.385-4.41,1.584-2.279,2.99-4.651c.418-.735.832-1.429,1.181-2.091.177-.331.362-.649.524-.962l.466-.887C193.066,544.7,193.744,543.23,194.02,543.232Z" fill="#292932"/>
      </g>
      <g id="Groupe_3467-2" data-name="Groupe 3467">
        <path id="Tracé_12636-2" data-name="Tracé 12636" d="M197.351,549.653c.193,0,.023,1.209-.7,3.185l-.3.775c-.105.27-.238.542-.355.83-.247.579-.557,1.186-.877,1.832a38.8,38.8,0,0,1-2.47,4.044,39.9,39.9,0,0,1-3,3.731c-.5.534-.976,1.041-1.448,1.481-.234.223-.455.442-.678.641l-.638.566c-1.657,1.405-2.775,2.03-2.852,1.861-.091-.191.856-1.127,2.292-2.658l.562-.6c.2-.21.388-.437.594-.666.415-.454.834-.961,1.281-1.485q1.43-1.731,2.733-3.559,1.278-1.839,2.413-3.754c.338-.593.672-1.153.954-1.688.142-.267.292-.524.422-.776l.376-.716C196.581,550.834,197.127,549.651,197.351,549.653Z" fill="#292932"/>
      </g>
    </g>
    <g id="Groupe_3509" data-name="Groupe 3509">
      <g id="Groupe_3467-3" data-name="Groupe 3467">
        <path id="Tracé_12636-3" data-name="Tracé 12636" d="M79.294,567.347c-.041.235-1.476-.253-3.713-1.592l-.875-.542c-.3-.19-.6-.415-.927-.624-.648-.435-1.314-.954-2.026-1.493A48.19,48.19,0,0,1,67.4,559.15a49.529,49.529,0,0,1-3.843-4.522c-.532-.734-1.039-1.43-1.465-2.106-.218-.337-.433-.656-.622-.974l-.542-.909c-1.324-2.342-1.825-3.849-1.6-3.9.253-.066,1.174,1.3,2.7,3.408l.6.824c.21.286.442.573.673.877.456.612.976,1.238,1.509,1.905q1.774,2.142,3.7,4.152,1.941,1.984,4.007,3.809c.644.549,1.248,1.086,1.833,1.553.292.236.57.478.846.7l.784.624C78.036,566.135,79.348,567.075,79.294,567.347Z" fill="#292932"/>
      </g>
      <g id="Groupe_3467-4" data-name="Groupe 3467">
        <path id="Tracé_12636-4" data-name="Tracé 12636" d="M72.362,569.414c-.033.189-1.191-.205-3-1.285l-.706-.437c-.245-.154-.487-.335-.748-.5-.523-.351-1.061-.77-1.635-1.206a38.8,38.8,0,0,1-3.51-3.184,39.923,39.923,0,0,1-3.1-3.65c-.43-.592-.839-1.154-1.183-1.7-.175-.271-.349-.529-.5-.786l-.437-.733c-1.069-1.891-1.473-3.107-1.293-3.15.2-.053.947,1.052,2.181,2.75l.489.665c.17.231.357.463.543.708.368.494.788,1,1.218,1.538q1.431,1.728,2.984,3.351,1.566,1.6,3.234,3.074c.52.443,1.007.877,1.479,1.254.236.19.46.385.683.561l.633.5C71.346,568.436,72.406,569.194,72.362,569.414Z" fill="#292932"/>
      </g>
    </g>
    <path id="Tracé_12843" data-name="Tracé 12843" d="M112.344,541.506s8.482,11.442,27.389-.7a26.593,26.593,0,0,0-3.471-.593c-.065,0-11.534,7.581-21,1.082Z" fill="#e0dcdc"/>
    <path id="Tracé_12844" data-name="Tracé 12844" d="M97.692,467.861s.338-.682.654-1.518c.455-1.207.87-2.732.155-2.981-1.214-.421-2.2,2.094-2.2,2.094-.532.19-.067-.724.177-2.724s-2.956-.6-2.956-.6c-.8-1.611-2.043.138-2.043.138-.368-.916-.891-.453-2.98,1.684s-.45,4.979-.228,5.667c.162.5-.772,1.572-1.289,2.115l-.022-.009s-.085.1-.244.281l-.063.062.006,0c-3.488,4.069-43.141,47.909-11.513,81.025l9.3-16.744c-11.661-20.014,4.856-57.476,7.589-61.872a.451.451,0,0,0,.138-.119,2.54,2.54,0,0,1,1.968-1.135c3.007.364,4.43-3.43,4.739-5.122S97.692,467.861,97.692,467.861Z" fill="#f8c09e"/>
    <g id="Groupe_3510" data-name="Groupe 3510">
      <path id="Tracé_12845" data-name="Tracé 12845" d="M97.318,541.262a34.058,34.058,0,0,1-12.209-6.581L74.38,554.459h0c16.271,16.938,25.691,14.994,25.691,14.994C101.1,561.218,109.812,545.262,97.318,541.262Z" fill="#e8b03c"/>
    </g>
    <path id="Tracé_12846" data-name="Tracé 12846" d="M153.136,470.908s-.339-.682-.655-1.518c-.456-1.207-.871-2.732-.155-2.981,1.215-.421,2.2,2.094,2.2,2.094.532.19.067-.724-.178-2.724s2.96-.6,2.96-.6c.8-1.611,2.046.138,2.046.138.369-.916.892-.453,2.984,1.684s.451,4.979.229,5.667c-.163.5.772,1.572,1.29,2.115l.022-.009s.085.1.244.281l.064.062-.006.005c3.493,4.068,43.2,47.908,11.528,81.024L166.4,539.4c11.676-20.013-4.863-57.476-7.6-61.872a.45.45,0,0,1-.138-.119,2.544,2.544,0,0,0-1.97-1.135c-3.012.364-4.437-3.43-4.746-5.122S153.136,470.908,153.136,470.908Z" fill="#f8c09e"/>
    <g id="Groupe_3511" data-name="Groupe 3511">
      <path id="Tracé_12847" data-name="Tracé 12847" d="M153.51,544.309a34.127,34.127,0,0,0,12.226-6.581l10.743,19.778h0c-16.293,16.938-25.726,14.994-25.726,14.994C149.722,564.265,141,548.309,153.51,544.309Z" fill="#e8b03c"/>
    </g>
    <g id="Groupe_3512" data-name="Groupe 3512">
      <path id="Tracé_12848" data-name="Tracé 12848" d="M115.957,492.77c.159-.131.305-.255.426-.366C116.245,492.533,116.1,492.648,115.957,492.77Z" fill="#f0ad80"/>
      <path id="Tracé_12849" data-name="Tracé 12849" d="M141.952,499.152c.079.026.16.043.24.066-.079-.031-.156-.064-.232-.1Z" fill="#292932"/>
      <path id="Tracé_12850" data-name="Tracé 12850" d="M142.356,499.287a.989.989,0,0,0,.208.059,1.036,1.036,0,0,0-.14-.064c-.078-.019-.155-.042-.232-.064C142.247,499.239,142.3,499.267,142.356,499.287Z" fill="#5e4f40"/>
      <path id="Tracé_12851" data-name="Tracé 12851" d="M132.165,493.207c-.008.082-.01.165-.018.248l.06.026c.045-1.076.128-2.152.27-3.224-.044-.051-.094-.1-.138-.144,0,.148.015.3.011.445C132.336,491.387,132.25,492.273,132.165,493.207Z" fill="#5e4f40"/>
      <path id="Tracé_12852" data-name="Tracé 12852" d="M141.973,499.067l-.013.053c.076.034.153.067.232.1s.154.045.232.064a.65.65,0,0,0-.06-.028C142.268,499.211,142.13,499.146,141.973,499.067Z" fill="#5e4f40"/>
      <path id="Tracé_12853" data-name="Tracé 12853" d="M141.783,499.857l.169-.7-.014,0C141.886,499.366,141.834,499.607,141.783,499.857Z" fill="#40aabc"/>
      <path id="Tracé_12854" data-name="Tracé 12854" d="M108.157,495.794l.009-.047c-.036,0-.072.006-.109.007S108.059,495.773,108.157,495.794Z" fill="#40aabc"/>
      <path id="Tracé_12855" data-name="Tracé 12855" d="M132.318,498.206a3.422,3.422,0,0,1-.12-.489,10.61,10.61,0,0,1-.164-1.56,24.624,24.624,0,0,1,.113-2.7l-.059-.025-15.127-1.612s-.136.163-.4.415c-.06.058-.12.114-.181.171-.121.111-.267.235-.426.366a12.414,12.414,0,0,1-7.791,2.977l-.009.047c.862.185,7.181,1.012,14.125,1.9,1.761.224,3.559.452,5.319.674l4.8.6C132.369,498.715,132.341,498.461,132.318,498.206Z" fill="#0b9ab2"/>
      <path id="Tracé_12856" data-name="Tracé 12856" d="M141.778,499.043a5.633,5.633,0,0,1-1.547-1.189,1.127,1.127,0,0,1,.062.32,1.578,1.578,0,0,1-.2.795,1.485,1.485,0,0,1-.629.607,1.651,1.651,0,0,1-.906.143,2.6,2.6,0,0,1-.671-.206c0,.047-.005.1-.005.142l3.834.477.066-.275c.051-.25.1-.491.155-.709l.014,0,.008-.032C141.9,499.093,141.837,499.072,141.778,499.043Z" fill="#40aabc"/>
      <path id="Tracé_12857" data-name="Tracé 12857" d="M108.167,495.742c-.037,0-.072.009-.11.012.037,0,.073-.007.109-.007Z" fill="#40aabc"/>
      <path id="Tracé_12858" data-name="Tracé 12858" d="M115.957,492.77a13.955,13.955,0,0,1-7.79,2.972v.005A12.414,12.414,0,0,0,115.957,492.77Z" fill="#40aabc"/>
      <path id="Tracé_12859" data-name="Tracé 12859" d="M136.874,498.729a7.678,7.678,0,0,1-.9-1.621,4.73,4.73,0,0,1-.839,1.963,1.981,1.981,0,0,1-.263.209l3.007.375c0-.047.005-.1.005-.142A2.584,2.584,0,0,1,136.874,498.729Z" fill="#40aabc"/>
      <path id="Tracé_12860" data-name="Tracé 12860" d="M116.564,492.233c-.056.054-.113.109-.181.171C116.444,492.347,116.5,492.291,116.564,492.233Z" fill="#40aabc"/>
      <path id="Tracé_12861" data-name="Tracé 12861" d="M132.4,498.97l.258.032a3.249,3.249,0,0,1-.338-.8C132.341,498.461,132.369,498.715,132.4,498.97Z" fill="#40aabc"/>
      <path id="Tracé_12862" data-name="Tracé 12862" d="M132.034,496.157a10.61,10.61,0,0,0,.164,1.56,3.422,3.422,0,0,0,.12.489,35.99,35.99,0,0,1-.111-4.725l-.06-.026A24.624,24.624,0,0,0,132.034,496.157Z" fill="#40aabc"/>
      <path id="Tracé_12863" data-name="Tracé 12863" d="M140.02,497.474l0,0-.094.083a1.181,1.181,0,0,1,.027,1.338,1.332,1.332,0,0,1-.567.538,1.5,1.5,0,0,1-.823.12,2.442,2.442,0,0,1-.664-.218c0,.06-.006.122-.007.182a2.6,2.6,0,0,0,.671.206,1.651,1.651,0,0,0,.906-.143,1.485,1.485,0,0,0,.629-.607,1.578,1.578,0,0,0,.2-.795,1.127,1.127,0,0,0-.062-.32c-.1-.1-.214-.191-.3-.3Z" fill="#40aabc"/>
      <path id="Tracé_12864" data-name="Tracé 12864" d="M140.02,497.474l-.093.077c.09.112.205.2.3.3a1.134,1.134,0,0,0-.186-.354A.3.3,0,0,1,140.02,497.474Z" fill="#40aabc"/>
      <path id="Tracé_12865" data-name="Tracé 12865" d="M140.045,497.5a1.134,1.134,0,0,1,.186.354,5.633,5.633,0,0,0,1.547,1.189c.059.029.122.05.182.077l.013-.053c-.056-.028-.106-.052-.169-.086A5.819,5.819,0,0,1,140.045,497.5Z" fill="#40aabc"/>
      <path id="Tracé_12866" data-name="Tracé 12866" d="M140.027,497.469l-.007.005a.3.3,0,0,0,.025.026C140.037,497.491,140.034,497.478,140.027,497.469Z" fill="#40aabc"/>
      <path id="Tracé_12867" data-name="Tracé 12867" d="M132.382,497.669a10.461,10.461,0,0,1-.162-1.528,24.513,24.513,0,0,1,.1-2.613l-.109-.047a35.99,35.99,0,0,0,.111,4.725,3.249,3.249,0,0,0,.338.8l.233.029A3.112,3.112,0,0,1,132.382,497.669Z" fill="#40aabc"/>
      <path id="Tracé_12868" data-name="Tracé 12868" d="M135.849,496.822c.036.1.089.189.129.286.018-.1.043-.2.055-.306Z" fill="#40aabc"/>
      <path id="Tracé_12869" data-name="Tracé 12869" d="M137.9,499.331a2.43,2.43,0,0,1-.9-.722,7.492,7.492,0,0,1-.985-1.871l-.12-.294-.064.311a4.588,4.588,0,0,1-.853,2.168,1.771,1.771,0,0,1-.4.319l.3.038a1.981,1.981,0,0,0,.263-.209,4.73,4.73,0,0,0,.839-1.963c-.04-.1-.093-.188-.129-.286l.184-.02c-.012.1-.037.2-.055.306a7.678,7.678,0,0,0,.9,1.621,2.584,2.584,0,0,0,1.014.784C137.889,499.453,137.9,499.391,137.9,499.331Z" fill="#40aabc"/>
    </g>
    <path id="Tracé_12870" data-name="Tracé 12870" d="M117.512,491.169l14.86,1.6-.057.755-15.354-1.711Z" fill="#e0dcdc"/>
    <path id="Tracé_12871" data-name="Tracé 12871" d="M108.045,495.756l33.672,4.376-.082.549-33.663-4.218Z" fill="#e0dcdc"/>
    <g id="KlJlDR.tif">
      <g id="Groupe_3516" data-name="Groupe 3516">
        <g id="Groupe_3515" data-name="Groupe 3515">
          <path id="Tracé_12872" data-name="Tracé 12872" d="M141.942,568.95a.513.513,0,0,1-.618-.335,3.874,3.874,0,0,0-.28-.454,9.757,9.757,0,0,1-1.743.655,3.012,3.012,0,0,1-3.47-3.007,3.4,3.4,0,0,1,1-2.614,2.994,2.994,0,0,1,4.187-.018c.1.091.193.187.293.284.37-.224.519-.789,1.085-.642Zm-4.5-3.466a1.553,1.553,0,0,0,1.427,1.81,1.7,1.7,0,0,0,1.693-1.58,1.677,1.677,0,0,0-1.464-1.788A1.538,1.538,0,0,0,137.44,565.484Z" fill="#5a833f"/>
          <g id="Groupe_3513" data-name="Groupe 3513">
            <path id="Tracé_12873" data-name="Tracé 12873" d="M106.695,560.207l-.114,1.549,2.567.189c-.988,1.482-1.942,2.91-2.905,4.353l5.091.376.112-1.519-2.572-.19,2.923-4.381Z" fill="#5a833f"/>
            <path id="Tracé_12874" data-name="Tracé 12874" d="M119.361,567.279l1.523.112.6-8.119-1.524-.112Z" fill="#5a833f"/>
            <path id="Tracé_12875" data-name="Tracé 12875" d="M135.064,564.706a2.623,2.623,0,0,0-2.418-2.712,6.339,6.339,0,0,0-1.353.138l.158-2.13-1.523-.112-.6,8.112,1.531.113c.085-1.149.159-2.269.254-3.388a1.2,1.2,0,1,1,2.383.19c-.044.64-.094,1.28-.141,1.919q-.056.732-.108,1.462l1.559.115C134.9,567.161,135.058,565.934,135.064,564.706Z" fill="#5a833f"/>
            <path id="Tracé_12876" data-name="Tracé 12876" d="M125.963,561.381a3.17,3.17,0,0,0-2.416.753c-.362-.213-.367-.808-.951-.772l-.643,8.694,1.546.115.108-1.464.111-1.5a2.925,2.925,0,0,0,2.288.655,2.955,2.955,0,0,0,2.016-1.192,3.542,3.542,0,0,0-.184-4.322A3.07,3.07,0,0,0,125.963,561.381Zm-.555,4.918a1.605,1.605,0,0,1-1.477-1.791,1.582,1.582,0,1,1,3.15.216A1.614,1.614,0,0,1,125.408,566.3Z" fill="#5a833f"/>
          </g>
          <g id="Groupe_3514" data-name="Groupe 3514">
            <path id="Tracé_12877" data-name="Tracé 12877" d="M117.5,561.69c-.067-.066-.142-.145-.222-.219a2.933,2.933,0,0,0-2.793-.812,3.265,3.265,0,0,0-2.42,3.762,2.951,2.951,0,0,0,2.381,2.6,3.19,3.19,0,0,0,2.705-.687c.37.238.311.888.933.852l.451-6.107C117.964,560.931,117.887,561.545,117.5,561.69Zm-2.472,3.841a1.565,1.565,0,0,1-1.384-1.849,1.536,1.536,0,0,1,1.7-1.512,1.691,1.691,0,0,1-.316,3.361Z" fill="#5a833f"/>
          </g>
          <path id="Tracé_12878" data-name="Tracé 12878" d="M129.329,568l.6-8.112,1.523.112-.158,2.13a6.339,6.339,0,0,1,1.353-.138,2.623,2.623,0,0,1,2.418,2.712c-.006,1.228-.164,2.455-.257,3.707l-1.559-.115q.053-.73.108-1.462c.047-.639.1-1.279.141-1.919a1.2,1.2,0,1,0-2.383-.19c-.1,1.119-.169,2.239-.254,3.388Z" fill="#5a833f"/>
          <path id="Tracé_12879" data-name="Tracé 12879" d="M108.874,564.965l2.572.19-.112,1.519-5.091-.376,2.905-4.353-2.567-.189.114-1.549,5.1.377Z" fill="#5a833f"/>
          <path id="Tracé_12880" data-name="Tracé 12880" d="M120.884,567.391l-1.523-.112.6-8.119,1.524.112Z" fill="#5a833f"/>
        </g>
      </g>
    </g>
  </g>
</svg>
