<svg xmlns="http://www.w3.org/2000/svg" width="89.452" height="173.478" viewBox="0 0 89.452 173.478">
  <g id="Groupe_3541" data-name="Groupe 3541" transform="translate(-99.688 -85.641)">
    <path id="Tracé_12661" data-name="Tracé 12661" d="M-828.362,265.375c-.275-14.066-1.617-21.053-1.821-29.947s23.168-54.547,23.168-54.547-15.062-14.481-35.472-17.788-38.9,5.125-38.9,5.125.055,26.726.473,55.471,0,41.686,0,41.686" transform="translate(995.355 -6.256)" fill="#f0b838"/>
    <path id="Tracé_12662" data-name="Tracé 12662" d="M-834.365,164.6" transform="translate(995.355 -6.256)" fill="#ffc6a8"/>
    <path id="Tracé_12664" data-name="Tracé 12664" d="M-859.726,262.328c-.145-1.23-.332-2.63-.455-4.184q-.1-1.167-.215-2.44c-.072-.848-.113-1.733-.172-2.649s-.126-1.862-.147-2.84-.065-1.982-.1-3.013c-.079-4.126-.026-8.666.247-13.422.294-4.756.783-9.272,1.351-13.359q.234-1.53.456-2.981c.138-.968.327-1.9.485-2.8s.313-1.775.485-2.609l.5-2.4c.308-1.529.66-2.9.95-4.1.149-.6.282-1.162.418-1.675s.275-.977.393-1.4a13.385,13.385,0,0,1,.847-2.576,13.589,13.589,0,0,1-.452,2.672c-.091.425-.192.9-.3,1.415s-.214,1.083-.333,1.689c-.235,1.212-.536,2.585-.795,4.117q-.208,1.146-.436,2.4c-.15.834-.275,1.708-.424,2.609s-.309,1.831-.43,2.8-.27,1.955-.41,2.971c-.514,4.073-.97,8.564-1.263,13.292-.271,4.728-.352,9.241-.327,13.345q.028,1.539.054,3c.006.973.066,1.915.095,2.828s.061,1.793.111,2.64.1,1.658.147,2.433c.076,1.552.211,2.951.3,4.182" transform="translate(995.355 -6.256)" fill="#e98e2a"/>
    <path id="Tracé_12665" data-name="Tracé 12665" d="M-847.445,170.516s-20.5,48.427-16.847,68.466l4.433,6.689,7.318-5.545s-3.7-19.523.515-40.1,7.093-28.952,7.093-28.952Z" transform="translate(995.355 -6.256)" fill="#5e9042"/>
    <g id="Groupe_3497" data-name="Groupe 3497" transform="translate(995.355 -6.256)">
      <path id="Tracé_12649" data-name="Tracé 12649" d="M-833.4,243c.054.122-.54.549-1.635.969l-.432.157c-.151.052-.312.094-.477.143-.33.1-.691.175-1.071.255a14.377,14.377,0,0,1-2.514.236,14.486,14.486,0,0,1-2.515-.236c-.38-.081-.741-.154-1.071-.256-.165-.049-.326-.091-.477-.143s-.294-.107-.433-.156c-1.094-.421-1.688-.848-1.633-.97.061-.142.747.038,1.839.26l.429.086c.148.03.3.05.466.078.32.061.666.1,1.028.149a22.618,22.618,0,0,0,2.367.144,22.6,22.6,0,0,0,2.366-.143c.362-.05.708-.088,1.028-.149.161-.029.318-.049.466-.078l.429-.086C-834.148,243.042-833.462,242.862-833.4,243Z" fill="#e98e2a"/>
    </g>
    <g id="Groupe_3498" data-name="Groupe 3498" transform="translate(995.355 -6.256)">
      <path id="Tracé_12650" data-name="Tracé 12650" d="M-833.281,244.926c.063.282-1.427.853-3.327,1.278s-3.492.54-3.555.258-.358-.292,1.543-.717S-833.344,244.644-833.281,244.926Z" fill="#e98e2a"/>
    </g>
    <path id="Tracé_12666" data-name="Tracé 12666" d="M-844.138,197.018l-1.581,9.04,4.393,5.324,6.2-4.776,1.36-7.775Z" transform="translate(995.355 -6.256)" fill="#e98e2a"/>
    <path id="Tracé_12667" data-name="Tracé 12667" d="M-807.015,180.881s6.154,50.485-15.7,59.621a7.979,7.979,0,0,1-7.506-.746l-41.789-28.046,3.814-9.061s31.462,16.282,35.1,12.4S-830.536,181.851-807.015,180.881Z" transform="translate(995.355 -6.256)" fill="#e5ab35"/>
    <path id="Tracé_12663" data-name="Tracé 12663" d="M-881.387,168.218s-18.27,20.074-13.48,46.773c5.156,28.743,62.471,8.37,62.471,8.37l2.576-2.238-3.036-5.431s-37.361-7.568-38.857-9.428S-855.227,173.717-881.387,168.218Z" transform="translate(995.355 -6.256)" fill="#e5ab35"/>
    <g id="Groupe_3490" data-name="Groupe 3490" transform="translate(995.355 -6.256)">
      <path id="Tracé_12654" data-name="Tracé 12654" d="M-834.863,215.832a8.886,8.886,0,0,1-1.535.183c-.5.035-1.1.065-1.81.1-.707.015-1.512.046-2.4.033a70.32,70.32,0,0,1-13.816-1.46,47.221,47.221,0,0,1-13.133-4.525,17.152,17.152,0,0,1-2.024-1.32c-.289-.207-.532-.438-.765-.635-.113-.1-.212-.212-.311-.31a3.311,3.311,0,0,1-.272-.291,4.473,4.473,0,0,1-.65-.959c-.1-.246-.149-.375-.132-.382s.094.109.224.331a5.689,5.689,0,0,0,.708.872,3.441,3.441,0,0,0,.28.267c.1.09.2.19.318.285.237.182.481.4.774.587a18.464,18.464,0,0,0,2.027,1.231,51.153,51.153,0,0,0,13.062,4.338,80.084,80.084,0,0,0,13.717,1.6c.885.036,1.686.031,2.39.045l1.806-.01A8.785,8.785,0,0,1-834.863,215.832Z" fill="#e98e2a"/>
    </g>
    <g id="Groupe_3495" data-name="Groupe 3495" transform="translate(995.355 -6.256)">
      <path id="Tracé_12655" data-name="Tracé 12655" d="M-831.922,217.294a4.382,4.382,0,0,1,.618,1c.362.659.864,1.617,1.468,2.795l.05.1-.06.1a4.345,4.345,0,0,1-1.058,1.182,7.462,7.462,0,0,1-1.492.892c-.545.254-1.125.473-1.716.69s-1.2.439-1.831.655a79.237,79.237,0,0,1-7.692,2.232,17.332,17.332,0,0,1-3.265.6,26.26,26.26,0,0,1,3.173-.952c1.966-.554,4.67-1.353,7.614-2.369.624-.215,1.234-.429,1.825-.644s1.161-.42,1.687-.655a7.288,7.288,0,0,0,1.419-.8,4.059,4.059,0,0,0,.987-1.036l-.009.2c-.561-1.2-1.009-2.184-1.307-2.873A4.481,4.481,0,0,1-831.922,217.294Z" fill="#e98e2a"/>
    </g>
    <g id="Groupe_3491" data-name="Groupe 3491" transform="translate(995.355 -6.256)">
      <path id="Tracé_12656" data-name="Tracé 12656" d="M-832.734,215.226s3.981-11.848,4.1-10.615a41.247,41.247,0,0,1-.757,5.9s1.586-5.462,2.2-5.109-1.445,6.783-1.445,6.783,1.621-4.841,2.15-4.094-1.062,5.386-1.062,5.386,1.645-3.568,2.172-2.99c.332.364-3.594,11.045-5.083,9.808Z" fill="#ffc6a8"/>
      <path id="Tracé_12657" data-name="Tracé 12657" d="M-832.651,215.226s.787-3.872-.6-4.722-.219-1.416.41-1.07a2.767,2.767,0,0,1,1.544,2.614Z" fill="#ffc6a8"/>
    </g>
    <g id="Groupe_3492" data-name="Groupe 3492" transform="translate(995.355 -6.256)">
      <path id="Tracé_12658" data-name="Tracé 12658" d="M-868.108,202.649s-3.981-11.848-4.105-10.614a41.274,41.274,0,0,0,.757,5.9s-1.586-5.462-2.2-5.11,1.445,6.784,1.445,6.784-1.621-4.842-2.15-4.1,1.062,5.386,1.062,5.386-1.645-3.567-2.172-2.99c-.332.365,3.594,11.045,5.083,9.808Z" fill="#ffc6a8"/>
      <path id="Tracé_12659" data-name="Tracé 12659" d="M-868.192,202.649s-.786-3.871.6-4.721.217-1.417-.411-1.07a2.763,2.763,0,0,0-1.544,2.613Z" fill="#ffc6a8"/>
    </g>
    <path id="Tracé_12566" data-name="Tracé 12566" d="M-833.034,164.751s-14.558,6.034-23.8-1.831" transform="translate(995.355 -6.256)" fill="#f8b48a"/>
    <path id="Tracé_12566-2" data-name="Tracé 12566" d="M-856.83,162.92l1.086-6.117,20.863.1s-.657,2.2,1.847,7.85" transform="translate(995.355 -6.256)" fill="#f8b48a"/>
    <path id="Tracé_12583" data-name="Tracé 12583" d="M-835,158.795l.56-34.94c.415-9.533-4.642-17.726-13.934-17.889l-.86.036a16.84,16.84,0,0,0-15.919,16.374c-.315,8.265-.561,17.4-.33,21.817.478,9.144,9.448,10.189,9.448,10.189.019,0-.049,2.167-.053,4.854" transform="translate(995.355 -6.256)" fill="#f8b48a"/>
    <path id="Tracé_12584" data-name="Tracé 12584" d="M-855.95,156.475l-.021-2.544a21.207,21.207,0,0,0,11.495-4.026s-2.522,7.019-11.474,6.57" transform="translate(995.355 -6.256)" fill="#f18e5a"/>
    <g id="Groupe_3328" data-name="Groupe 3328" transform="translate(995.355 -6.256)">
      <g id="Groupe_3327" data-name="Groupe 3327">
        <g id="Groupe_3326" data-name="Groupe 3326">
          <g id="Groupe_3325" data-name="Groupe 3325">
            <g id="Groupe_3324" data-name="Groupe 3324">
              <g id="Groupe_3323" data-name="Groupe 3323">
                <g id="Groupe_3322" data-name="Groupe 3322">
                  <g id="Groupe_3321" data-name="Groupe 3321">
                    <g id="Groupe_3320" data-name="Groupe 3320">
                      <g id="Groupe_3319" data-name="Groupe 3319">
                        <g id="Groupe_3318" data-name="Groupe 3318">
                          <g id="Groupe_3317" data-name="Groupe 3317">
                            <g id="Groupe_3316" data-name="Groupe 3316">
                              <g id="Groupe_3315" data-name="Groupe 3315">
                                <g id="Groupe_3314" data-name="Groupe 3314">
                                  <path id="Tracé_12585" data-name="Tracé 12585" d="M-861.277,129.833A1.289,1.289,0,0,0-860,131.1a1.233,1.233,0,0,0,1.264-1.2v-.033a1.29,1.29,0,0,0-1.28-1.267,1.233,1.233,0,0,0-1.264,1.2Z" fill="#1b2429"/>
                                </g>
                              </g>
                            </g>
                          </g>
                        </g>
                      </g>
                    </g>
                  </g>
                </g>
              </g>
            </g>
          </g>
        </g>
      </g>
    </g>
    <g id="Groupe_3344" data-name="Groupe 3344" transform="translate(995.355 -6.256)">
      <g id="Groupe_3343" data-name="Groupe 3343">
        <g id="Groupe_3342" data-name="Groupe 3342">
          <g id="Groupe_3341" data-name="Groupe 3341">
            <g id="Groupe_3340" data-name="Groupe 3340">
              <g id="Groupe_3339" data-name="Groupe 3339">
                <g id="Groupe_3338" data-name="Groupe 3338">
                  <g id="Groupe_3337" data-name="Groupe 3337">
                    <g id="Groupe_3336" data-name="Groupe 3336">
                      <g id="Groupe_3335" data-name="Groupe 3335">
                        <g id="Groupe_3334" data-name="Groupe 3334">
                          <g id="Groupe_3333" data-name="Groupe 3333">
                            <g id="Groupe_3332" data-name="Groupe 3332">
                              <g id="Groupe_3331" data-name="Groupe 3331">
                                <g id="Groupe_3330" data-name="Groupe 3330">
                                  <g id="Groupe_3329" data-name="Groupe 3329">
                                    <path id="Tracé_12586" data-name="Tracé 12586" d="M-863.1,125.9c.164.164,1.1-.609,2.468-.664,1.368-.075,2.4.606,2.542.428.07-.08-.1-.381-.553-.69a3.426,3.426,0,0,0-2.045-.552,3.3,3.3,0,0,0-1.955.74C-863.046,125.515-863.176,125.828-863.1,125.9Z" fill="#1b2429"/>
                                  </g>
                                </g>
                              </g>
                            </g>
                          </g>
                        </g>
                      </g>
                    </g>
                  </g>
                </g>
              </g>
            </g>
          </g>
        </g>
      </g>
    </g>
    <g id="Groupe_3359" data-name="Groupe 3359" transform="translate(995.355 -6.256)">
      <g id="Groupe_3358" data-name="Groupe 3358">
        <g id="Groupe_3357" data-name="Groupe 3357">
          <g id="Groupe_3356" data-name="Groupe 3356">
            <g id="Groupe_3355" data-name="Groupe 3355">
              <g id="Groupe_3354" data-name="Groupe 3354">
                <g id="Groupe_3353" data-name="Groupe 3353">
                  <g id="Groupe_3352" data-name="Groupe 3352">
                    <g id="Groupe_3351" data-name="Groupe 3351">
                      <g id="Groupe_3350" data-name="Groupe 3350">
                        <g id="Groupe_3349" data-name="Groupe 3349">
                          <g id="Groupe_3348" data-name="Groupe 3348">
                            <g id="Groupe_3347" data-name="Groupe 3347">
                              <g id="Groupe_3346" data-name="Groupe 3346">
                                <g id="Groupe_3345" data-name="Groupe 3345">
                                  <path id="Tracé_12587" data-name="Tracé 12587" d="M-849.167,129.58a1.289,1.289,0,0,0,1.28,1.267,1.232,1.232,0,0,0,1.264-1.2v-.035a1.291,1.291,0,0,0-1.281-1.267,1.234,1.234,0,0,0-1.264,1.2Z" fill="#1b2429"/>
                                </g>
                              </g>
                            </g>
                          </g>
                        </g>
                      </g>
                    </g>
                  </g>
                </g>
              </g>
            </g>
          </g>
        </g>
      </g>
    </g>
    <g id="Groupe_3375" data-name="Groupe 3375" transform="translate(995.355 -6.256)">
      <g id="Groupe_3374" data-name="Groupe 3374">
        <g id="Groupe_3373" data-name="Groupe 3373">
          <g id="Groupe_3372" data-name="Groupe 3372">
            <g id="Groupe_3371" data-name="Groupe 3371">
              <g id="Groupe_3370" data-name="Groupe 3370">
                <g id="Groupe_3369" data-name="Groupe 3369">
                  <g id="Groupe_3368" data-name="Groupe 3368">
                    <g id="Groupe_3367" data-name="Groupe 3367">
                      <g id="Groupe_3366" data-name="Groupe 3366">
                        <g id="Groupe_3365" data-name="Groupe 3365">
                          <g id="Groupe_3364" data-name="Groupe 3364">
                            <g id="Groupe_3363" data-name="Groupe 3363">
                              <g id="Groupe_3362" data-name="Groupe 3362">
                                <g id="Groupe_3361" data-name="Groupe 3361">
                                  <g id="Groupe_3360" data-name="Groupe 3360">
                                    <path id="Tracé_12588" data-name="Tracé 12588" d="M-849.661,125.658c.165.164,1.1-.61,2.47-.664,1.366-.074,2.4.606,2.541.427.07-.079-.1-.379-.553-.689a3.436,3.436,0,0,0-2.043-.553,3.31,3.31,0,0,0-1.957.741C-849.61,125.275-849.74,125.586-849.661,125.658Z" fill="#1b2429"/>
                                  </g>
                                </g>
                              </g>
                            </g>
                          </g>
                        </g>
                      </g>
                    </g>
                  </g>
                </g>
              </g>
            </g>
          </g>
        </g>
      </g>
    </g>
    <g id="Groupe_3390" data-name="Groupe 3390" transform="translate(995.355 -6.256)">
      <g id="Groupe_3389" data-name="Groupe 3389">
        <g id="Groupe_3388" data-name="Groupe 3388">
          <g id="Groupe_3387" data-name="Groupe 3387">
            <g id="Groupe_3386" data-name="Groupe 3386">
              <g id="Groupe_3385" data-name="Groupe 3385">
                <g id="Groupe_3384" data-name="Groupe 3384">
                  <g id="Groupe_3383" data-name="Groupe 3383">
                    <g id="Groupe_3382" data-name="Groupe 3382">
                      <g id="Groupe_3381" data-name="Groupe 3381">
                        <g id="Groupe_3380" data-name="Groupe 3380">
                          <g id="Groupe_3379" data-name="Groupe 3379">
                            <g id="Groupe_3378" data-name="Groupe 3378">
                              <g id="Groupe_3377" data-name="Groupe 3377">
                                <g id="Groupe_3376" data-name="Groupe 3376">
                                  <path id="Tracé_12589" data-name="Tracé 12589" d="M-854.138,136.669a8.791,8.791,0,0,0-2.24-.318c-.351-.022-.689-.08-.753-.322a1.869,1.869,0,0,1,.19-1.075q.439-1.324.923-2.777a47.967,47.967,0,0,0,2.036-7.25,47.76,47.76,0,0,0-2.6,7.064q-.461,1.463-.879,2.793a2.123,2.123,0,0,0-.124,1.417.882.882,0,0,0,.59.5,2.358,2.358,0,0,0,.6.059A8.664,8.664,0,0,0-854.138,136.669Z" fill="#1b2429"/>
                                </g>
                              </g>
                            </g>
                          </g>
                        </g>
                      </g>
                    </g>
                  </g>
                </g>
              </g>
            </g>
          </g>
        </g>
      </g>
    </g>
    <g id="Groupe_3401" data-name="Groupe 3401" transform="translate(995.355 -6.256)">
      <g id="Groupe_3400" data-name="Groupe 3400">
        <g id="Groupe_3399" data-name="Groupe 3399">
          <g id="Groupe_3398" data-name="Groupe 3398">
            <g id="Groupe_3397" data-name="Groupe 3397">
              <g id="Groupe_3396" data-name="Groupe 3396">
                <g id="Groupe_3395" data-name="Groupe 3395">
                  <g id="Groupe_3394" data-name="Groupe 3394">
                    <g id="Groupe_3393" data-name="Groupe 3393">
                      <g id="Groupe_3392" data-name="Groupe 3392">
                        <g id="Groupe_3391" data-name="Groupe 3391">
                          <path id="Tracé_12590" data-name="Tracé 12590" d="M-850.28,121.279c.2.351,1.514-.083,3.131-.187,1.614-.138,2.974.1,3.124-.281.064-.179-.222-.492-.8-.757a5.091,5.091,0,0,0-2.423-.385,5.1,5.1,0,0,0-2.343.743C-850.13,120.761-850.37,121.112-850.28,121.279Z" fill="#1b2429"/>
                        </g>
                      </g>
                    </g>
                  </g>
                </g>
              </g>
            </g>
          </g>
        </g>
      </g>
    </g>
    <g id="Groupe_3412" data-name="Groupe 3412" transform="translate(995.355 -6.256)">
      <g id="Groupe_3411" data-name="Groupe 3411">
        <g id="Groupe_3410" data-name="Groupe 3410">
          <g id="Groupe_3409" data-name="Groupe 3409">
            <g id="Groupe_3408" data-name="Groupe 3408">
              <g id="Groupe_3407" data-name="Groupe 3407">
                <g id="Groupe_3406" data-name="Groupe 3406">
                  <g id="Groupe_3405" data-name="Groupe 3405">
                    <g id="Groupe_3404" data-name="Groupe 3404">
                      <g id="Groupe_3403" data-name="Groupe 3403">
                        <g id="Groupe_3402" data-name="Groupe 3402">
                          <path id="Tracé_12591" data-name="Tracé 12591" d="M-863.325,121.771c.3.311,1.4-.052,2.741-.1,1.339-.092,2.483.148,2.737-.2.109-.165-.077-.479-.581-.769a4.226,4.226,0,0,0-2.243-.463,4.187,4.187,0,0,0-2.166.7C-863.308,121.283-863.455,121.618-863.325,121.771Z" fill="#1b2429"/>
                        </g>
                      </g>
                    </g>
                  </g>
                </g>
              </g>
            </g>
          </g>
        </g>
      </g>
    </g>
    <g id="Groupe_3419" data-name="Groupe 3419" transform="translate(995.355 -6.256)">
      <g id="Groupe_3418" data-name="Groupe 3418">
        <g id="Groupe_3417" data-name="Groupe 3417">
          <g id="Groupe_3416" data-name="Groupe 3416">
            <g id="Groupe_3415" data-name="Groupe 3415">
              <g id="Groupe_3414" data-name="Groupe 3414">
                <g id="Groupe_3413" data-name="Groupe 3413">
                  <path id="Tracé_12592" data-name="Tracé 12592" d="M-834.9,130.228c.15-.074,6.048-2.119,6.106,4.144s-6.08,5.03-6.091,4.852S-834.9,130.228-834.9,130.228Z" fill="#f8b48a"/>
                </g>
              </g>
            </g>
          </g>
        </g>
      </g>
    </g>
    <g id="Groupe_3427" data-name="Groupe 3427" transform="translate(995.355 -6.256)">
      <g id="Groupe_3426" data-name="Groupe 3426">
        <g id="Groupe_3425" data-name="Groupe 3425">
          <g id="Groupe_3424" data-name="Groupe 3424">
            <g id="Groupe_3423" data-name="Groupe 3423">
              <g id="Groupe_3422" data-name="Groupe 3422">
                <g id="Groupe_3421" data-name="Groupe 3421">
                  <g id="Groupe_3420" data-name="Groupe 3420">
                    <path id="Tracé_12593" data-name="Tracé 12593" d="M-833.041,136.831c.026-.021.107.074.288.157a1.036,1.036,0,0,0,.794.01,2.722,2.722,0,0,0,1.2-2.435,3.677,3.677,0,0,0-.312-1.558,1.24,1.24,0,0,0-.806-.83.538.538,0,0,0-.625.306c-.08.175-.039.295-.072.311-.016.016-.132-.1-.085-.363a.7.7,0,0,1,.237-.394.789.789,0,0,1,.591-.165,1.506,1.506,0,0,1,1.118.96,3.793,3.793,0,0,1,.385,1.742,2.843,2.843,0,0,1-1.526,2.72,1.114,1.114,0,0,1-.974-.155C-833.028,136.98-833.061,136.843-833.041,136.831Z" fill="#f18e5a"/>
                  </g>
                </g>
              </g>
            </g>
          </g>
        </g>
      </g>
    </g>
    <g id="Groupe_3436" data-name="Groupe 3436" transform="matrix(0.788, 0.616, -0.616, 0.788, 898.471, 549.722)">
      <g id="Groupe_3435" data-name="Groupe 3435">
        <g id="Groupe_3434" data-name="Groupe 3434">
          <g id="Groupe_3433" data-name="Groupe 3433">
            <g id="Groupe_3432" data-name="Groupe 3432">
              <g id="Groupe_3431" data-name="Groupe 3431">
                <g id="Groupe_3430" data-name="Groupe 3430">
                  <g id="Groupe_3429" data-name="Groupe 3429">
                    <g id="Groupe_3428" data-name="Groupe 3428">
                      <path id="Tracé_12594" data-name="Tracé 12594" d="M-849.836,137.539c-.21-.013-.219,1.425-1.422,2.44s-2.694.85-2.706,1.051c-.02.089.331.28.961.3a3.429,3.429,0,0,0,2.259-.795,3.145,3.145,0,0,0,1.1-2.046C-849.586,137.888-849.74,137.532-849.836,137.539Z" fill="#1b2429"/>
                    </g>
                  </g>
                </g>
              </g>
            </g>
          </g>
        </g>
      </g>
    </g>
    <path id="Tracé_12595" data-name="Tracé 12595" d="M-868.635,112.269c.709-.339.846-.817,1.628-.744,1.947-.064-3.155,0-1.442-.93-.609-.3.9,1.5.419,1.023-1.062-.994.2.62.558-.791.055-.263-.01-1.7.233-1.814.394-.13.7-1.9.976-1.581.712.986-2.075-.107-.872-.287a5.3,5.3,0,0,0,2.311-.732c.026-.028.05-.059.076-.087.313-.34.62-.665.921-.979h0a20.215,20.215,0,0,1,6.247-4.869,20.214,20.214,0,0,1,11.053-1.024,8.5,8.5,0,0,1,6.4,6.616c1.725-1.532,4.339-1.55,6.469-.7l.053-.024c2.372.837,3.743,3.383,4.467,5.849.039.134.074.27.111.406a8.94,8.94,0,0,0,2.954,3.218c.23.134-.159.266-.127.538-.01.27.379.447.145.582a3.368,3.368,0,0,1-1.531.87,11.034,11.034,0,0,0,.8,1.695c.272.461.591,1.011.366,1.5a.983.983,0,0,1-1.038.478,2.9,2.9,0,0,1-1.1-.5l.812,1.934a5.464,5.464,0,0,1-2.572-.146c-.476,2.318-.8,6.606-1.368,8.18-1.618.048-2.013-.128-2.828.159-1.052.372-.628,2.287-2.008,1.759-.7-.271-1.807-2.981-2.05-3.709a36.665,36.665,0,0,1-1.674-15.12,11.194,11.194,0,0,0-3.486-2.522l.107.1c-2.5-.86-5.334-1.7-7.687-.472-1.826.954-2.882,2.921-4.235,4.5a12.655,12.655,0,0,1-9.371,4.818c-.319,2.769-.373,7.288-.476,9.874l-2.2-5.14v.021c-.176-.3-.323-.6-.465-.908l-.048-.092V123.2a15.96,15.96,0,0,0-.723-1.46l-.024.022a1.587,1.587,0,0,1-2.235-.207,1.589,1.589,0,0,1-.082-1.922,3.545,3.545,0,0,1,.75-.787c-.612.627.73-2.543-.119-2.765-.853-.266,3.231-.781,3.256-1.674.058-.6-.592-.536-.046-.791-1.109.1-.175.314-1.144-.233" transform="translate(995.355 -6.256)" fill="#2e2e3a"/>
    <g id="Groupe_3441" data-name="Groupe 3441" transform="translate(995.355 -6.256)">
      <g id="Groupe_3440" data-name="Groupe 3440">
        <g id="Groupe_3439" data-name="Groupe 3439">
          <g id="Groupe_3438" data-name="Groupe 3438">
            <g id="Groupe_3437" data-name="Groupe 3437">
              <path id="Tracé_12596" data-name="Tracé 12596" d="M-842.929,107.153a7.987,7.987,0,0,1,.905.83,6.652,6.652,0,0,1,1.4,3.027,11.755,11.755,0,0,1,.254,2.328c.014.844-.043,1.749-.1,2.7a24.953,24.953,0,0,0-.034,3.007,10.808,10.808,0,0,0,.219,1.582,3.332,3.332,0,0,0,.648,1.531,1.323,1.323,0,0,0,1.264.419,1.987,1.987,0,0,0,1.127-.671,4.815,4.815,0,0,0,.834-2.34l-.187.027a7.789,7.789,0,0,0,1.108,1.907,2.635,2.635,0,0,0,1.748.95,1.667,1.667,0,0,0,.918-.176,1.508,1.508,0,0,0,.619-.639,1.606,1.606,0,0,0,.18-.816,1.155,1.155,0,0,0-.3-.709l-.1.088a5.747,5.747,0,0,0,1.934,1.455,5.072,5.072,0,0,0,.6.23,1.044,1.044,0,0,0,.214.052,1.1,1.1,0,0,0-.2-.087c-.134-.054-.331-.134-.579-.259a5.948,5.948,0,0,1-1.872-1.477l-.092.088a1.2,1.2,0,0,1,.074,1.361,1.364,1.364,0,0,1-.56.566,1.518,1.518,0,0,1-.833.15,2.477,2.477,0,0,1-1.622-.9,7.621,7.621,0,0,1-1.066-1.871l-.132-.3-.056.319a4.673,4.673,0,0,1-.794,2.236,1.79,1.79,0,0,1-1.008.6,1.115,1.115,0,0,1-1.075-.355,3.177,3.177,0,0,1-.6-1.433,10.815,10.815,0,0,1-.218-1.55,25.356,25.356,0,0,1,.022-2.982c.047-.953.1-1.861.076-2.715a11.763,11.763,0,0,0-.284-2.357,6.537,6.537,0,0,0-1.488-3.053A3.655,3.655,0,0,0-842.929,107.153Z" fill="#6a5948"/>
            </g>
          </g>
        </g>
      </g>
    </g>
    <g id="Groupe_3446" data-name="Groupe 3446" transform="translate(995.355 -6.256)">
      <g id="Groupe_3445" data-name="Groupe 3445">
        <g id="Groupe_3444" data-name="Groupe 3444">
          <g id="Groupe_3443" data-name="Groupe 3443">
            <g id="Groupe_3442" data-name="Groupe 3442">
              <path id="Tracé_12597" data-name="Tracé 12597" d="M-870.443,116.395a.327.327,0,0,0,.072.062l.224.165a2.93,2.93,0,0,0,.381.244,4.751,4.751,0,0,0,.547.288,7.726,7.726,0,0,0,3.828.661,9.964,9.964,0,0,0,5.365-2.106,17.864,17.864,0,0,0,4.568-5.532c.637-1.117,1.153-2.265,1.725-3.319a12.121,12.121,0,0,1,1.965-2.813,6.056,6.056,0,0,1,2.554-1.633,4.254,4.254,0,0,1,1.355-.176,4.716,4.716,0,0,1,1.245.229,5.135,5.135,0,0,1,1.872,1.13,5.236,5.236,0,0,1,1.023,1.33,6.434,6.434,0,0,1,.475,1.369.294.294,0,0,0-.008-.1l-.046-.28a4.7,4.7,0,0,0-.349-1.031,5.177,5.177,0,0,0-1.016-1.379,5.19,5.19,0,0,0-1.906-1.182,4.827,4.827,0,0,0-1.281-.252,4.384,4.384,0,0,0-1.409.17,6.213,6.213,0,0,0-2.641,1.664,12.207,12.207,0,0,0-2.008,2.856c-.579,1.065-1.095,2.207-1.728,3.313a17.9,17.9,0,0,1-4.5,5.481,9.9,9.9,0,0,1-5.261,2.113,7.843,7.843,0,0,1-3.786-.591A12.726,12.726,0,0,1-870.443,116.395Z" fill="#6a5948"/>
            </g>
          </g>
        </g>
      </g>
    </g>
    <g id="Groupe_3451" data-name="Groupe 3451" transform="translate(995.355 -6.256)">
      <g id="Groupe_3450" data-name="Groupe 3450">
        <g id="Groupe_3449" data-name="Groupe 3449">
          <g id="Groupe_3448" data-name="Groupe 3448">
            <g id="Groupe_3447" data-name="Groupe 3447">
              <path id="Tracé_12598" data-name="Tracé 12598" d="M-871.3,112.376a1.442,1.442,0,0,0,.323.225,6.831,6.831,0,0,0,.954.483,8.881,8.881,0,0,0,1.507.493,10.115,10.115,0,0,0,1.922.239,10.423,10.423,0,0,0,1.932-.156,9.069,9.069,0,0,0,1.524-.425,6.812,6.812,0,0,0,.972-.443,1.437,1.437,0,0,0,.332-.211c-.017-.036-.508.23-1.352.51a10.174,10.174,0,0,1-1.509.374,11.107,11.107,0,0,1-1.893.137,11.065,11.065,0,0,1-1.887-.217,10.6,10.6,0,0,1-1.493-.437C-870.8,112.628-871.281,112.341-871.3,112.376Z" fill="#6a5948"/>
            </g>
          </g>
        </g>
      </g>
    </g>
    <path id="Tracé_12569" data-name="Tracé 12569" d="M-858.513,162.771l.76-4.1,10.3,6.2-1.1,5.943Z" transform="translate(995.355 -6.256)" fill="#e98e2a"/>
    <path id="Tracé_12570" data-name="Tracé 12570" d="M-847.451,164.866l1.273,4.023-2.084.349Z" transform="translate(995.355 -6.256)" fill="#b85040"/>
    <path id="Tracé_12571" data-name="Tracé 12571" d="M-846.169,168.889l1.742-3.728,1.013,4.845Z" transform="translate(995.355 -6.256)" fill="#b85040"/>
    <path id="Tracé_12572" data-name="Tracé 12572" d="M-834,161.257c-.028.153-10.431,3.9-10.431,3.9l.915,5.837,10.886-5.222Z" transform="translate(995.355 -6.256)" fill="#e98e2a"/>
    <path id="Tracé_12573" data-name="Tracé 12573" d="M-848.078,167.4l4.033.225.626,2.382-4.957-.137Z" transform="translate(995.355 -6.256)" fill="#4d7537"/>
    <path id="Tracé_12574" data-name="Tracé 12574" d="M-847.047,167.331l-.318,3.29,2.4.531.343-3.533Z" transform="translate(995.355 -6.256)" fill="#5e9042"/>
    <g id="Groupe_3187" data-name="Groupe 3187" transform="translate(995.355 -6.256)">
      <ellipse id="Ellipse_776" data-name="Ellipse 776" cx="4.548" cy="9.728" rx="4.548" ry="9.728" transform="matrix(0.048, -0.999, 0.999, 0.048, -858.789, 111.055)" fill="#e83116" opacity="0.2" style="isolation: isolate"/>
      <g id="Groupe_3205" data-name="Groupe 3205">
        <g id="Groupe_3204" data-name="Groupe 3204">
          <g id="Groupe_3201" data-name="Groupe 3201">
            <g id="Groupe_3193" data-name="Groupe 3193">
              <path id="Tracé_12238" data-name="Tracé 12238" d="M-870.7,120.793a25.167,25.167,0,0,1,12.346-2.929c18.9.852,29.3,8.118,29.3,8.118l.637-5.207s-27.5-6.265-27.7-6.274-8.55,1.118-8.748,1.178-5.158.692-5.158.692Z" fill="#30454e"/>
            </g>
            <g id="Groupe_3194" data-name="Groupe 3194">
              <path id="Tracé_12239" data-name="Tracé 12239" d="M-823.823,126.429A5.282,5.282,0,0,0-823.7,125h0A5.321,5.321,0,0,1-823.823,126.429Z" fill="#f36e48"/>
              <path id="Tracé_12240" data-name="Tracé 12240" d="M-823.826,126.442a6.605,6.605,0,0,1-.193.69A6.374,6.374,0,0,0-823.826,126.442Z" fill="#f36e48"/>
              <path id="Tracé_12241" data-name="Tracé 12241" d="M-823.823,126.429v0Z"/>
              <path id="Tracé_12242" data-name="Tracé 12242" d="M-824.02,127.13l-.016.043A.125.125,0,0,0-824.02,127.13Z"/>
              <path id="Tracé_12243" data-name="Tracé 12243" d="M-875.059,120.695a6.261,6.261,0,0,1,.385-.74c.2-.323.4-.622.608-.9a5.934,5.934,0,0,1,1.043-1.087c.132-.1.269-.2.41-.292a5.224,5.224,0,0,1,.953-.474,46.655,46.655,0,0,1,7.234-2.1,50.954,50.954,0,0,1,6.048-.862c.469-.039.938-.073,1.4-.1q1.852-.1,3.712-.086.66.007,1.319.027,1.257.041,2.52.135,1.89.139,3.774.4a68.864,68.864,0,0,1,11.118,2.477q1.207.375,2.4.79.31.108.619.222c.206.076.413.154.623.234.264.1.527.211.789.322a17.024,17.024,0,0,1,3.337,1.819,11.081,11.081,0,0,1,1,.818,8,8,0,0,1,1.894,2.582l.012.211a3.737,3.737,0,0,1,.1.444.05.05,0,0,0,0,.024,4.425,4.425,0,0,1,.049.443,6.114,6.114,0,0,0-2.129-5.885,28,28,0,0,0-5.53-17.25c-2.183-2.786-6.252-5.277-7.087-6.031l-.067-1.51s-1.5-1.871-9.094-2.357c-7.851-.5-9.536,1.882-9.536,1.882l-.236,1.337s-12.347,5.071-14.023,20.636c0,0-4.391,2.657-4.039,5.8,0,0,.038-.057.111-.153a5.735,5.735,0,0,1,.266-.752Z" fill="#f36e48"/>
              <path id="Tracé_12244" data-name="Tracé 12244" d="M-831.507,118.105q-.31-.114-.619-.222-1.191-.414-2.4-.79,1.209.375,2.4.79C-831.921,117.955-831.714,118.029-831.507,118.105Z" fill="#f36e48"/>
              <path id="Tracé_12245" data-name="Tracé 12245" d="M-864.427,115.105a46.657,46.657,0,0,0-7.234,2.1,5.184,5.184,0,0,0-.952.474,5.184,5.184,0,0,1,.952-.474A46.657,46.657,0,0,1-864.427,115.105Z" fill="#f36e48"/>
              <path id="Tracé_12246" data-name="Tracé 12246" d="M-823.751,124.538a4.023,4.023,0,0,0-.1-.445l-.011-.21.011.21A3.812,3.812,0,0,1-823.751,124.538Z" fill="#f36e48"/>
              <path id="Tracé_12247" data-name="Tracé 12247" d="M-873.023,117.968a5.966,5.966,0,0,0-1.043,1.087A5.966,5.966,0,0,1-873.023,117.968Z" fill="#f36e48"/>
              <path id="Tracé_12248" data-name="Tracé 12248" d="M-875.068,120.72a5.734,5.734,0,0,0-.266.752h0A6.043,6.043,0,0,1-875.068,120.72Z" fill="#f36e48"/>
              <path id="Tracé_12249" data-name="Tracé 12249" d="M-823.705,125h0a4.339,4.339,0,0,0-.049-.442A2.873,2.873,0,0,1-823.705,125Z" fill="#f36e48"/>
              <path id="Tracé_12250" data-name="Tracé 12250" d="M-830.883,118.339c.263.1.527.211.789.322C-830.356,118.55-830.62,118.442-830.883,118.339Z" fill="#f36e48"/>
              <path id="Tracé_12251" data-name="Tracé 12251" d="M-849.42,114.219q-1.258-.095-2.52-.134Q-850.68,114.124-849.42,114.219Z" fill="#f36e48"/>
              <path id="Tracé_12252" data-name="Tracé 12252" d="M-864.427,115.105a51.162,51.162,0,0,1,6.048-.862A51.162,51.162,0,0,0-864.427,115.105Z" fill="#f36e48"/>
              <path id="Tracé_12253" data-name="Tracé 12253" d="M-856.972,114.143q1.852-.1,3.712-.086Q-855.119,114.04-856.972,114.143Z" fill="#f36e48"/>
              <path id="Tracé_12254" data-name="Tracé 12254" d="M-875.06,120.694a5.77,5.77,0,0,1,.385-.74A6.11,6.11,0,0,0-875.06,120.694Z" fill="#f36e48"/>
              <path id="Tracé_12255" data-name="Tracé 12255" d="M-849.42,114.22q1.89.14,3.774.4Q-847.529,114.36-849.42,114.22Z" fill="#f36e48"/>
              <path id="Tracé_12256" data-name="Tracé 12256" d="M-845.648,114.615a68.864,68.864,0,0,1,11.118,2.477A68.864,68.864,0,0,0-845.648,114.615Z" fill="#f36e48"/>
              <path id="Tracé_12257" data-name="Tracé 12257" d="M-826.755,120.481a10.938,10.938,0,0,1,1,.818A10.938,10.938,0,0,0-826.755,120.481Z" fill="#f36e48"/>
              <path id="Tracé_12258" data-name="Tracé 12258" d="M-858.378,114.24c.468-.039.937-.073,1.4-.1C-857.441,114.171-857.91,114.205-858.378,114.24Z" fill="#f36e48"/>
              <path id="Tracé_12259" data-name="Tracé 12259" d="M-830.1,118.661a16.971,16.971,0,0,1,3.337,1.819A16.971,16.971,0,0,0-830.1,118.661Z" fill="#f36e48"/>
              <path id="Tracé_12260" data-name="Tracé 12260" d="M-875.068,120.72a.06.06,0,0,1,.01-.025C-875.062,120.7-875.065,120.714-875.068,120.72Z" fill="#f36e48"/>
              <path id="Tracé_12261" data-name="Tracé 12261" d="M-823.748,124.539a.04.04,0,0,0,0,.024A.04.04,0,0,1-823.748,124.539Z" fill="#f36e48"/>
              <path id="Tracé_12262" data-name="Tracé 12262" d="M-853.258,114.058q.659.006,1.318.027Q-852.6,114.062-853.258,114.058Z" fill="#f36e48"/>
              <path id="Tracé_12263" data-name="Tracé 12263" d="M-823.752,124.538a3.8,3.8,0,0,0-.1-.445l-.012-.21a7.992,7.992,0,0,0-1.894-2.582,10.913,10.913,0,0,0-1-.818,17.029,17.029,0,0,0-3.337-1.82c-.261-.111-.525-.219-.789-.321q-.311-.12-.623-.234t-.619-.222q-1.191-.414-2.4-.79a68.867,68.867,0,0,0-11.118-2.478q-1.883-.253-3.774-.4-1.258-.093-2.52-.134-.659-.021-1.318-.027-1.86-.02-3.712.086c-.47.027-.939.061-1.4.1a51.356,51.356,0,0,0-6.049.862,46.879,46.879,0,0,0-7.234,2.1,5.222,5.222,0,0,0-.952.475,4.746,4.746,0,0,0-.41.291,5.908,5.908,0,0,0-1.043,1.088c-.21.276-.409.576-.608.9a5.9,5.9,0,0,0-.386.739.058.058,0,0,1-.009.025,6.048,6.048,0,0,0-.266.753c.821-1.072,6.65-7.507,26.25-4.3,22.389,3.661,24.968,9.67,24.968,9.67a9.1,9.1,0,0,0,.414-1.836,3.854,3.854,0,0,0-.049-.443A.25.25,0,0,1-823.752,124.538Z" fill="#f36e48"/>
            </g>
            <g id="Groupe_3196" data-name="Groupe 3196" opacity="0.3">
              <g id="Groupe_3195" data-name="Groupe 3195">
                <path id="Tracé_12264" data-name="Tracé 12264" d="M-838.517,94.327c-1.321,1.436-3.607,3.912-4.1,6.065a43.527,43.527,0,0,0-.809,6.615c1.64-7.242,2.746-8.239,4.977-11.17Z"/>
              </g>
            </g>
            <g id="Groupe_3198" data-name="Groupe 3198" opacity="0.5">
              <g id="Groupe_3197" data-name="Groupe 3197">
                <path id="Tracé_12265" data-name="Tracé 12265" d="M-825.831,119.12a11.511,11.511,0,0,1-1.739-.615c-.549-.222-1.224-.483-2.025-.74s-1.691-.611-2.712-.889a87.225,87.225,0,0,0-16.174-3.248,61.649,61.649,0,0,0-16.451.208c-1.028.218-1.966.408-2.771.632-.789.27-1.491.46-2.034.681a11.56,11.56,0,0,1-1.692.721,11.309,11.309,0,0,1,1.605-.923c.539-.254,1.236-.479,2.03-.781.808-.256,1.749-.475,2.788-.723a57.336,57.336,0,0,1,16.585-.377,78.444,78.444,0,0,1,16.236,3.43c1.02.3,1.907.683,2.7.97s1.461.578,2,.833A11.559,11.559,0,0,1-825.831,119.12Z" fill="#1b2429"/>
              </g>
            </g>
            <g id="Groupe_3200" data-name="Groupe 3200" opacity="0.3">
              <g id="Groupe_3199" data-name="Groupe 3199">
                <path id="Tracé_12266" data-name="Tracé 12266" d="M-838.608,99.436a1.49,1.49,0,0,1,.237-.932.836.836,0,0,1,.85-.225,2.337,2.337,0,0,1,.8.455,24.063,24.063,0,0,1,9.016,17.612.4.4,0,0,1-.357.433.388.388,0,0,1-.246-.057,27,27,0,0,0-7.854-3.35c-.91-.238-2.237-.226-2.588-1.2a5.011,5.011,0,0,1-.175-1.843Q-838.766,104.882-838.608,99.436Z" fill="#fff"/>
              </g>
            </g>
          </g>
          <g id="Groupe_3203" data-name="Groupe 3203">
            <g id="Groupe_3202" data-name="Groupe 3202">
              <path id="Tracé_12267" data-name="Tracé 12267" d="M-857.57,102.522a14.189,14.189,0,0,1-.155-4.422,14.352,14.352,0,0,1,.677-4.375,23.367,23.367,0,0,1-.113,4.407A22.228,22.228,0,0,1-857.57,102.522Z" opacity="0.5" style="isolation: isolate"/>
            </g>
          </g>
        </g>
      </g>
      <g id="Groupe_2658" data-name="Groupe 2658">
        <g id="Groupe_2653" data-name="Groupe 2653">
          <path id="Tracé_9159" data-name="Tracé 9159" d="M-847.948,107.548q-.815-.187-1.635-.352c-.582-.12-1.165-.228-1.748-.331a.079.079,0,0,1-.067-.057.075.075,0,0,1,.027-.079q2.173-1.758,4.252-3.622l1.068-.96-1.406-.085c-1.109-.069-2.217-.122-3.327-.136l-.834-.012-.84.009c-.56.008-1.117.025-1.678.065.542.15,1.085.278,1.629.4l.82.173.82.156c.583.11,1.148.208,1.727.3a.079.079,0,0,1,.067.057.075.075,0,0,1-.027.079q-2.177,1.748-4.227,3.6l-1.046.937,1.369.1c1.108.085,2.218.153,3.324.182.559.027,1.114.029,1.674.031s1.12-.009,1.681-.039C-846.861,107.81-847.406,107.673-847.948,107.548Z" fill="#30454e"/>
          <path id="Tracé_9160" data-name="Tracé 9160" d="M-851.253,102.448l.676-2.765.407,2.818Z" fill="#30454e"/>
          <path id="Tracé_11071" data-name="Tracé 11071" d="M-850.06,102.506l.676-2.766.407,2.818Z" fill="#30454e"/>
          <path id="Tracé_9161" data-name="Tracé 9161" d="M-849.318,107.543l-.675,2.735-.408-2.788Z" fill="#30454e"/>
          <path id="Tracé_11072" data-name="Tracé 11072" d="M-850.406,107.49l-.675,2.735-.408-2.787Z" fill="#30454e"/>
        </g>
      </g>
    </g>
  </g>
</svg>
