<svg xmlns="http://www.w3.org/2000/svg" width="156.816" height="164.098" viewBox="0 0 156.816 164.098">
  <g id="Groupe_3539" data-name="Groupe 3539" transform="translate(-247.734 -259.982)">
    <ellipse id="Ellipse_760" data-name="Ellipse 760" cx="26.65" cy="12.099" rx="26.65" ry="12.099" transform="translate(302.07 399.881)" fill="#4f5a86"/>
    <g id="Groupe_3145" data-name="Groupe 3145" transform="translate(302.07 409.708)" style="mix-blend-mode: multiply;isolation: isolate">
      <path id="Tracé_12168" data-name="Tracé 12168" d="M1006.358-618.624c-13.7,0-21.049-3.941-26.476-7.853a5.844,5.844,0,0,0-.476,2.272c0,6.682,11.931,12.1,26.649,12.1s26.65-5.417,26.65-12.1a5.678,5.678,0,0,0-.218-1.524C1030.046-621.677,1019.277-618.624,1006.358-618.624Z" transform="translate(-979.406 626.477)" fill="#bdb3ab"/>
    </g>
    <path id="Tracé_12169" data-name="Tracé 12169" d="M995.471-621.7c-.4-.148,8.793,5.558,25.568,2.829C1021.039-618.867,999.312-620.282,995.471-621.7Z" transform="translate(-684.669 1034.003)" fill="#bdb3ab" style="mix-blend-mode: soft-light;isolation: isolate"/>
    <ellipse id="Ellipse_761" data-name="Ellipse 761" cx="23.178" cy="10.523" rx="23.178" ry="10.523" transform="translate(302.163 389.363)" fill="#848484"/>
    <g id="Groupe_3146" data-name="Groupe 3146" transform="translate(302.163 397.91)" style="mix-blend-mode: multiply;isolation: isolate">
      <path id="Tracé_12170" data-name="Tracé 12170" d="M1003.017-641.368c-11.917,0-18.308-3.428-23.027-6.83a5.086,5.086,0,0,0-.414,1.976c0,5.812,10.377,10.523,23.178,10.523s23.178-4.712,23.178-10.523a4.94,4.94,0,0,0-.19-1.325C1023.619-644.023,1014.253-641.368,1003.017-641.368Z" transform="translate(-979.576 648.198)" fill="#bdb3ab"/>
    </g>
    <path id="Tracé_12171" data-name="Tracé 12171" d="M993.549-644.04c-.35-.129,7.646,4.834,22.237,2.461C1015.786-641.579,996.889-642.81,993.549-644.04Z" transform="translate(-683.791 1044.209)" fill="#bdb3ab" style="mix-blend-mode: soft-light;isolation: isolate"/>
    <ellipse id="Ellipse_762" data-name="Ellipse 762" cx="23.178" cy="8.323" rx="23.178" ry="8.323" transform="translate(312.622 382.393)" fill="#a57a67"/>
    <g id="Groupe_3147" data-name="Groupe 3147" transform="translate(312.622 389.153)" style="mix-blend-mode: multiply;isolation: isolate">
      <path id="Tracé_12172" data-name="Tracé 12172" d="M1022.273-658.916c-11.917,0-18.307-2.711-23.028-5.4a3.322,3.322,0,0,0-.414,1.563c0,4.6,10.377,8.323,23.178,8.323s23.178-3.726,23.178-8.323a3.151,3.151,0,0,0-.19-1.048C1042.875-661.016,1033.508-658.916,1022.273-658.916Z" transform="translate(-998.831 664.318)" fill="#bdb3ab"/>
    </g>
    <path id="Tracé_12173" data-name="Tracé 12173" d="M1012.8-661.03c-.35-.1,7.646,3.823,22.237,1.947C1035.042-659.083,1016.145-660.056,1012.8-661.03Z" transform="translate(-692.588 1051.97)" fill="#bdb3ab" style="mix-blend-mode: soft-light;isolation: isolate"/>
    <ellipse id="Ellipse_763" data-name="Ellipse 763" cx="17.039" cy="6.119" rx="17.039" ry="6.119" transform="translate(306.862 377.252)" fill="#2c2826"/>
    <g id="Groupe_3148" data-name="Groupe 3148" transform="translate(306.862 382.222)" style="mix-blend-mode: multiply;isolation: isolate">
      <path id="Tracé_12174" data-name="Tracé 12174" d="M1005.46-673.107c-8.761,0-13.458-1.993-16.928-3.972a2.442,2.442,0,0,0-.3,1.149c0,3.379,7.628,6.118,17.039,6.118s17.039-2.739,17.039-6.118a2.324,2.324,0,0,0-.14-.771C1020.6-674.651,1013.719-673.107,1005.46-673.107Z" transform="translate(-988.227 677.079)" fill="#bdb3ab"/>
    </g>
    <path id="Tracé_12175" data-name="Tracé 12175" d="M998.5-674.661c-.257-.075,5.621,2.811,16.347,1.431C1014.846-673.23,1000.954-673.946,998.5-674.661Z" transform="translate(-686.054 1058.197)" fill="#bdb3ab" style="mix-blend-mode: soft-light;isolation: isolate"/>
    <path id="Tracé_12274" data-name="Tracé 12274" d="M996.865-757.7c-61.739,2.306-44.167-88.989-3.38-90.513S1050.781-759.714,996.865-757.7Z" transform="translate(-666.945 1137.486)" fill="#fdbf21"/>
    <ellipse id="Ellipse_783" data-name="Ellipse 783" cx="14.044" cy="6.565" rx="14.044" ry="6.565" transform="translate(313.759 289.235)" fill="#f71c1c" opacity="0.2"/>
    <path id="Tracé_12177" data-name="Tracé 12177" d="M1022.03-888.045c-1.271-2.414.8-5.1,2.224-6.772,1.775-2.078,4.229-4.366,6.6-5.208l-.957-1.61c-3.057,4.628-4.857,10.022-6.761,15.352l1.753.365c.37-4.2,1.966-8.012,3.6-11.748a1.481,1.481,0,0,0-.1-1.554,1,1,0,0,0-1.557-.077c-2.666,3.37-3.891,7.716-6.2,11.355l1.906,1.434c1.249-2.6,1.934-5.474,3-8.163a1.175,1.175,0,1,0-2.194-.823,47.129,47.129,0,0,0-1.719,5.144c-.4,1.463-1.064,3.323-.259,4.686.238.4.788.678,1.139.228a3.16,3.16,0,0,0,.782-1.6c.142-.839.336-1.665.549-2.485a44.224,44.224,0,0,1,1.7-5.15l-2.194-.823c-.974,2.477-1.575,5.164-2.714,7.552-.714,1.5,1.024,2.835,1.906,1.434,2.173-3.45,3.284-7.7,5.761-10.908l-1.778-1.332c-1.7,4.061-3.3,8.182-3.432,12.741a.9.9,0,0,0,1.753.365c1.656-5.07,3.262-10.49,6.428-14.635.592-.774.164-2.042-.8-1.818a10.269,10.269,0,0,0-3.779,2.093,25.247,25.247,0,0,0-4.234,4.133c-1.664,2.072-4.406,6.882-.99,8.583.366.182.763-.375.56-.759Z" transform="translate(-695.815 1162.104)" fill="#006838"/>
    <path id="Tracé_12178" data-name="Tracé 12178" d="M1006.2-872.089c-2.657-8.373,1.393-19.062-4.516-26.983,5.325.376,10.5,7.868,14.022,11.98,4.022-5.508,9.254-6.551,15.081-6.661-7.726,8.187-6.734,20.429-11.746,29.633a10.356,10.356,0,0,1-9.272-.363Z" transform="translate(-687.523 1160.711)" fill="#609d43"/>
    <path id="Tracé_12179" data-name="Tracé 12179" d="M997.21-856.114l9.929-6.192c-1.625-7.137-3.41-10.364-8.649-14.858-3.424-2.937-9.827-8.325-13.6-2.963C993-874.479,997.119-856.882,997.21-856.114Z" transform="translate(-679.85 1153.099)" fill="#8fc23e"/>
    <path id="Tracé_12180" data-name="Tracé 12180" d="M1038.211-850.609c-8.3-1.034-13.022-9.734-6.444-16.542a20.21,20.21,0,0,1,10.336-5.7c2.783-.5,7.027,2.473,8.565,2.135C1044.372-869.334,1039.166-857.135,1038.211-850.609Z" transform="translate(-699.851 1148.76)" fill="#8fc23e"/>
    <path id="Tracé_12181" data-name="Tracé 12181" d="M1018.017-897.2a19.967,19.967,0,0,0,1.255,3.756c.49,1.332.911,3.333,2,4.158.876.662,1.847-.3,1.725-1.388a6.739,6.739,0,0,0-.913-2.128c-.339-.689-.692-1.369-1.05-2.045-.6-1.122-1.374-2.5-2.557-2.838a.391.391,0,0,0-.463.485Z" transform="translate(-694.981 1160.082)" fill="#006838"/>
    <path id="Tracé_12182" data-name="Tracé 12182" d="M996.537-750.035c9.741-.363,17.182-3.6,22.6-8.651-18.011,7.254-40.709-1.11-50.824-18.529-12.175-20.965-3.62-44.793,4.921-54.384l-.046.024C948.58-808.326,946.27-748.158,996.537-750.035Z" transform="translate(-666.836 1129.888)" fill="#f71c1c"/>
    <path id="Tracé_12183" data-name="Tracé 12183" d="M996.537-750.035c9.741-.363,17.182-3.6,22.6-8.651-18.011,7.254-40.709-1.11-50.824-18.529-12.175-20.965-3.62-44.793,4.921-54.384l-.046.024C948.58-808.326,946.27-748.158,996.537-750.035Z" transform="translate(-666.836 1129.888)" fill="#f39c29"/>
    <path id="Tracé_12275" data-name="Tracé 12275" d="M1030.132-783.494c-1.828-.974-3.813-1.423-5.557-2.618a38.321,38.321,0,0,1-4.034-3.291,40.6,40.6,0,0,0,5-8.509.868.868,0,0,0,.061-.486c.088.033.175.073.263.1,1.051.358,1.651-1.016,1.013-1.74-1.682-1.906-3.977-3.216-5.811-5.006a54.218,54.218,0,0,1-5.546-6.485c-.3-.4-.585-.8-.872-1.2q1.36-1.494,2.706-3c.782-.877-.487-2.167-1.3-1.3q-1.259,1.35-2.544,2.672c-2.293-3.367-4.379-6.886-6.453-10.38a.534.534,0,0,0-.922.539c1.843,3.836,3.71,7.684,5.9,11.336q-3.478,3.517-7.1,6.878a127.155,127.155,0,0,1-10.488-15.549,15.31,15.31,0,0,0,1.5-1.638c.668-.864-.53-2.1-1.22-1.22-.359.454-.747.883-1.149,1.3-.419-.759-.84-1.518-1.242-2.286-.341-.651-1.262-.08-.97.567.4.893.829,1.776,1.253,2.659-4.958,4.544-12.153,7.254-15.588,13.183a.607.607,0,0,0,.824.825,17.236,17.236,0,0,0,2.443-1.65c2.939,5.769,5.894,11.539,9.082,17.174q-4.345,3.477-8.813,6.8c-1.186.881-2.522,1.729-3.878,2.6-1.375-2.357-2.708-4.749-4.067-7.154-.387-.684-1.583-.225-1.3.549a56.107,56.107,0,0,0,3.564,7.78,22.275,22.275,0,0,0-5.764,5.041c-.63.864.406,1.9,1.3,1.69a19,19,0,0,0,6.472-3.316c1.759,2.836,3.682,5.566,5.668,8.156,1.207,1.575,2.51,3.278,3.9,4.98a20.585,20.585,0,0,0-2.442,2.08,1.076,1.076,0,0,0,1.039,1.785,19.478,19.478,0,0,0,3.422-1.48c2.991,3.4,6.342,6.538,10.03,8.341a.743.743,0,0,0,.9-1.161c-2.136-2.73-5.041-4.844-7.5-7.283-.4-.4-.8-.814-1.2-1.223,2.441-1.574,4.781-3.43,6.977-4.957q2.421-1.685,4.788-3.449c1.121,1.416,2.265,2.812,3.467,4.153,1.244,1.389,2.693,3.1,4.292,4.7-3.339,2.607-7.98,5.263-10.06,8.8a.623.623,0,0,0,.7.905c4.062-.989,8.115-5.286,11.239-7.978a12.651,12.651,0,0,0,5.769,3.052,1.3,1.3,0,0,0,1.252-2.152,19.979,19.979,0,0,0-4.029-3.517c3.041-2.713,5.985-5.52,8.824-8.454a.987.987,0,0,0-1.394-1.394c-3.087,2.811-6.2,5.6-9.386,8.3l-.02-.017c-1.964-1.743-3.8-3.621-5.6-5.532q-1.289-1.367-2.521-2.778c1.436-1.1,2.861-2.214,4.266-3.352A71.747,71.747,0,0,0,1018.6-787c.219.2.43.407.651.6,2.745,2.448,6.611,6.216,10.6,5.051A1.192,1.192,0,0,0,1030.132-783.494Zm-48.6-27.127a.691.691,0,0,0-.106-.123c1.837-1.613,3.562-3.445,5.4-4.923,2.071-1.669,4.48-3.144,6.563-4.906a116.689,116.689,0,0,0,9.734,16.242q-4.915,4.46-10.035,8.695c-.644.534-1.3,1.061-1.945,1.589C987.792-799.487,984.655-805.058,981.528-810.62ZM995.2-771.025c-2.1,1.435-4.511,2.732-6.765,4.176-1.351-1.489-2.659-3.019-3.907-4.593a87.192,87.192,0,0,1-5.885-8.521c1.638-1.286,3.2-2.614,4.631-3.7q3.944-2.976,7.728-6.145c1.766,3.013,3.6,5.983,5.568,8.878,1.368,2.016,2.784,4.015,4.256,5.97Q998.032-772.957,995.2-771.025Zm11.642-8.38q-1.754,1.346-3.542,2.651-3.033-3.635-5.77-7.515c-1.627-2.319-3.185-4.683-4.7-7.075.658-.562,1.318-1.122,1.97-1.691,3.395-2.963,6.669-6.054,9.86-9.229,1.116,1.476,2.257,2.935,3.454,4.357a114.4,114.4,0,0,0,8.954,9.489A81.9,81.9,0,0,1,1006.839-779.406Zm12.248-11.325-.275-.253a123.737,123.737,0,0,1-9.934-10.2q-1.23-1.423-2.419-2.88,3.4-3.455,6.68-7.029c.55.853,1.114,1.7,1.711,2.521,2.389,3.294,5.612,7.564,9.437,9.587a.815.815,0,0,0-.167.243A36.118,36.118,0,0,1,1019.087-790.731Z" transform="translate(-672.58 1127.177)" fill="#f49625"/>
    <path id="Tracé_12185" data-name="Tracé 12185" d="M1020.014-818.407c10.079-2.688,19.009,15.764,20.4,25.732s-10.2,19.473-19.473,12.75S1006.1-814.7,1020.014-818.407Z" transform="translate(-692.056 1123.982)" fill="#ffe91a" opacity="0.15"/>
    <g id="Groupe_3152" data-name="Groupe 3152" transform="translate(329.396 317.244)">
      <ellipse id="Ellipse_765" data-name="Ellipse 765" cx="6.155" cy="6.294" rx="6.155" ry="6.294" transform="translate(1.508 2.832)" fill="#f71c1c" opacity="0.2"/>
      <circle id="Ellipse_766" data-name="Ellipse 766" cx="5.195" cy="5.195" r="5.195" transform="translate(0 10.528) rotate(-45)" fill="#fce9ff"/>
      <circle id="Ellipse_767" data-name="Ellipse 767" cx="2.35" cy="2.35" r="2.35" transform="translate(5.066 9.4)" fill="#543200"/>
      <path id="Tracé_12186" data-name="Tracé 12186" d="M1046.047-795.413a.274.274,0,0,1-.351.393,7.021,7.021,0,0,0-3.393-.393c-1.11.117-.638-1.621,1.745-1.234A2.748,2.748,0,0,1,1046.047-795.413Z" transform="translate(-1035.209 796.704)" fill="#543200"/>
      <path id="Tracé_12187" data-name="Tracé 12187" d="M1043.548-778.208a.934.934,0,0,1-.935.934.934.934,0,0,1-.934-.934.934.934,0,0,1,.934-.935A.935.935,0,0,1,1043.548-778.208Z" transform="translate(-1035.184 788.682)" fill="#fff"/>
    </g>
    <g id="Groupe_3153" data-name="Groupe 3153" transform="translate(307.546 317.244)">
      <ellipse id="Ellipse_768" data-name="Ellipse 768" cx="6.155" cy="6.294" rx="6.155" ry="6.294" transform="translate(1.508 2.832)" fill="#f71c1c" opacity="0.2"/>
      <circle id="Ellipse_769" data-name="Ellipse 769" cx="5.195" cy="5.195" r="5.195" transform="translate(0 10.528) rotate(-45)" fill="#fce9ff"/>
      <circle id="Ellipse_770" data-name="Ellipse 770" cx="2.35" cy="2.35" r="2.35" transform="translate(5.134 9.401)" fill="#543200"/>
      <path id="Tracé_12188" data-name="Tracé 12188" d="M995.481-795.413a.274.274,0,0,0,.351.393,7.022,7.022,0,0,1,3.393-.393c1.109.117.637-1.621-1.745-1.234A2.75,2.75,0,0,0,995.481-795.413Z" transform="translate(-992.21 796.704)" fill="#543200"/>
      <path id="Tracé_12189" data-name="Tracé 12189" d="M1003.322-778.208a.934.934,0,0,1-.934.934.935.935,0,0,1-.935-.934.935.935,0,0,1,.935-.935A.934.934,0,0,1,1003.322-778.208Z" transform="translate(-994.958 788.682)" fill="#fff"/>
    </g>
    <path id="Tracé_12190" data-name="Tracé 12190" d="M1018.642-766.3l-.187,0c-4.647-.08-5.664-2.65-5.7-2.759a.322.322,0,0,1,.188-.414.322.322,0,0,1,.414.187c.038.1.939,2.271,5.114,2.343,4.192.074,4.911-2.5,4.919-2.523a.323.323,0,0,1,.394-.229.322.322,0,0,1,.229.394C1023.974-769.181,1023.157-766.3,1018.642-766.3Z" transform="translate(-692.563 1101.616)" fill="#f71c1c" opacity="0.75"/>
    <g id="Groupe_3155" data-name="Groupe 3155" transform="translate(257.468 337.804)">
      <path id="Tracé_12191" data-name="Tracé 12191" d="M932.363-756.53l-33.9-.007c-.174,0-.269-.242-.211-.539s.241-.533.413-.539l34.132-1.237c.379-.014.592.495.475,1.136s-.517,1.172-.9,1.186Z" transform="translate(-898.236 758.852)" fill="#bf6511"/>
    </g>
    <g id="Groupe_3156" data-name="Groupe 3156" transform="translate(247.734 337.499)">
      <path id="Tracé_12192" data-name="Tracé 12192" d="M880.612-756.984c2.126-2.529,9.93-3.58,10.839-.7s-3.142,1.024-5.552,1.068S879.148-755.241,880.612-756.984Z" transform="translate(-880.317 759.414)" fill="#b5682c"/>
      <path id="Tracé_12193" data-name="Tracé 12193" d="M891.453-756.7a1.758,1.758,0,0,0-.3-.562c0,.009.008.017.011.027.908,2.879-3.141,1.023-5.552,1.067-1.671.031-4.268.679-5.217.494-.628,1.232,3.272.083,5.511.042C888.311-755.678,892.361-753.823,891.453-756.7Z" transform="translate(-880.32 758.432)" fill="#a1531e"/>
    </g>
    <g id="Groupe_3158" data-name="Groupe 3158" transform="translate(362.039 336.996)">
      <path id="Tracé_12194" data-name="Tracé 12194" d="M1089.832-758.018l32.165-.007c.166,0,.256-.242.2-.539s-.229-.533-.393-.539l-32.386-1.237c-.359-.014-.561.495-.451,1.136s.491,1.172.85,1.186Z" transform="translate(-1088.938 760.341)" fill="#bf6511"/>
    </g>
    <g id="Groupe_3159" data-name="Groupe 3159" transform="translate(393.862 336.69)">
      <path id="Tracé_12195" data-name="Tracé 12195" d="M1157.932-758.472c-2.017-2.529-9.422-3.579-10.284-.7s2.981,1.024,5.268,1.067S1159.322-756.729,1157.932-758.472Z" transform="translate(-1147.524 760.902)" fill="#b5682c"/>
      <path id="Tracé_12196" data-name="Tracé 12196" d="M1147.648-758.19a1.785,1.785,0,0,1,.289-.562c0,.009-.008.017-.01.026-.861,2.879,2.981,1.024,5.268,1.068,1.585.03,4.049.678,4.95.494.6,1.232-3.1.082-5.229.041C1150.629-757.166,1146.786-755.311,1147.648-758.19Z" transform="translate(-1147.524 759.92)" fill="#a1531e"/>
    </g>
    <path id="Tracé_12197" data-name="Tracé 12197" d="M1006.617-689.312c2.609,6.016,10.072,5.846,15.843,4.627a2.8,2.8,0,0,1,3.05,1.351,5.022,5.022,0,0,0,1.781,1.882c.872.488,2.5.5,2.623-.822.092-.99-1.128-2.42-1.638-3.134l-.01-.015a2.856,2.856,0,0,0-3.118-1.109c-.543.156-1.084.327-1.6.435a32.457,32.457,0,0,1-4.884.665c-2.771.144-5.937-.139-8.232-1.856a6.539,6.539,0,0,1-2.542-5.472" transform="translate(-689.749 1066.464)" fill="#f7841c"/>
    <path id="Tracé_12198" data-name="Tracé 12198" d="M1008.411-692.76a6.539,6.539,0,0,0,2.542,5.472c2.295,1.718,5.461,2,8.232,1.856a32.457,32.457,0,0,0,4.884-.665c.52-.108,1.061-.278,1.6-.435a2.856,2.856,0,0,1,3.118,1.109l.01.015c.511.713,1.73,2.144,1.638,3.134a1.323,1.323,0,0,1-.11.43,8.928,8.928,0,0,0-1.738-2.941c-.034-.046-.068-.1-.1-.148a2.8,2.8,0,0,0-3.005-1.119c-.594.155-1.187.334-1.757.438a32.542,32.542,0,0,1-4.986.557c-2.835.077-6.085-.3-8.48-2.12-1.8-1.372-2.49-1.555-2.491-3.74" transform="translate(-690.275 1066.464)" fill="#f49625"/>
    <path id="Tracé_12199" data-name="Tracé 12199" d="M1024.84-688.088c-1.647,5.819-9.5,4.71-15.763,2.741-1.309-.411-2.53-.034-2.951,1a3.327,3.327,0,0,1-1.526,1.7,2.141,2.141,0,0,1-2.9-1.169c-.275-1.023.744-2.331,1.15-3l.008-.014a2.42,2.42,0,0,1,3.067-.741c.6.228,1.195.47,1.76.645a40.581,40.581,0,0,0,5.237,1.292c2.929.495,6.195.6,8.289-.864,1.575-1.1,2.116-3.09,1.675-5.272" transform="translate(-687.506 1066.012)" fill="#f7841c"/>
    <path id="Tracé_12200" data-name="Tracé 12200" d="M1022.89-691.769c.441,2.182-.1,4.168-1.675,5.272-2.094,1.467-5.36,1.359-8.289.864a40.615,40.615,0,0,1-5.238-1.292c-.564-.175-1.162-.417-1.759-.645a2.42,2.42,0,0,0-3.067.741l-.008.014c-.406.665-1.425,1.973-1.15,3a1.744,1.744,0,0,0,.193.453,6.229,6.229,0,0,1,1.289-2.788c.027-.043.054-.09.083-.138a2.347,2.347,0,0,1,2.947-.766c.65.232,1.3.489,1.92.667a40.013,40.013,0,0,0,5.325,1.194c2.984.433,6.322.461,8.5-1.1,1.639-1.175,2.328-1.276,1.934-3.509" transform="translate(-687.506 1066.012)" fill="#f49625"/>
  </g>
</svg>
