<svg xmlns="http://www.w3.org/2000/svg" width="128.509" height="160.194" viewBox="0 0 128.509 160.194">
  <g id="Groupe_3537" data-name="Groupe 3537" transform="translate(-630.728 -258.059)">
    <path id="Tracé_11954" data-name="Tracé 11954" d="M1540.621-706.233s51.99,17,70.267-4.5c0,0-12.434,44.8-9.026,49.344,0,0-12.682-13.388-42.289-7.036-26.481,5.681-23.283,6.522-23.283,6.522S1538.121-706.005,1540.621-706.233Z" transform="translate(-892.149 1071.846)" fill="#361c07"/>
    <path id="Tracé_11955" data-name="Tracé 11955" d="M1665.291-710.728s-3.724,57.81,34.413,52.977c0,0-39.874,4.5-43.711-3.9S1664.572-709.894,1665.291-710.728Z" transform="translate(-946.551 1071.846)" fill="#91430f"/>
    <path id="Tracé_11955-2" data-name="Tracé 11955" d="M1656.175-648.1s5.258,23.968,43.395,19.136c0,0-39.2,4.157-43.712-3.9C1654.2-635.824,1655.456-647.269,1656.175-648.1Z" transform="translate(-946.451 1043.238)" fill="#361c07" opacity="0.3"/>
    <path id="Tracé_11956" data-name="Tracé 11956" d="M1543.647-651.3s6-18.726,1.755-31.5-7.094-19.727-7.094-19.727-6.547,36.545-6.04,41.545,10.1,11.135,10.1,11.135Z" transform="translate(-890.354 1068.099)" fill="#91430f"/>
    <path id="Tracé_11956-2" data-name="Tracé 11956" d="M1543.787-651.53s.119,2.11-4.129-10.664-1.212-40.564-1.212-40.564-6.546,36.545-6.04,41.545,10.1,11.135,10.1,11.135Z" transform="translate(-890.417 1068.205)" fill="#361c07" opacity="0.25"/>
    <path id="Tracé_11957" data-name="Tracé 11957" d="M1576.912-747.918c-65.215,2.431-46.654-94-3.571-95.609S1633.865-750.049,1576.912-747.918Z" transform="translate(-891.306 1132.52)" fill="#f6b82f"/>
    <ellipse id="Ellipse_716" data-name="Ellipse 716" cx="14.834" cy="6.935" rx="14.834" ry="6.935" transform="translate(668.473 288.953)" fill="#e83116" opacity="0.2" style="isolation: isolate"/>
    <g id="Groupe_3078" data-name="Groupe 3078" transform="translate(659.277 258.059)">
      <path id="Tracé_11958" data-name="Tracé 11958" d="M1603.494-885.6c-1.343-2.55.846-5.39,2.349-7.154,1.874-2.2,4.467-4.612,6.976-5.5l-1.011-1.7c-3.23,4.889-5.13,10.586-7.141,16.217l1.851.386c.391-4.439,2.077-8.463,3.8-12.411a1.567,1.567,0,0,0-.106-1.641,1.056,1.056,0,0,0-1.476-.234,1.043,1.043,0,0,0-.168.153c-2.816,3.56-4.111,8.152-6.552,11.994l2.014,1.514c1.319-2.743,2.043-5.782,3.171-8.623a1.24,1.24,0,0,0-.6-1.647,1.24,1.24,0,0,0-1.648.6,1.186,1.186,0,0,0-.066.175,49.653,49.653,0,0,0-1.816,5.433c-.423,1.546-1.123,3.511-.273,4.95.25.423.832.716,1.2.241a3.337,3.337,0,0,0,.826-1.691c.15-.886.355-1.759.58-2.625a46.641,46.641,0,0,1,1.8-5.439l-2.316-.87c-1.03,2.617-1.665,5.455-2.867,7.978-.755,1.586,1.083,2.994,2.015,1.514,2.3-3.645,3.468-8.131,6.085-11.519l-1.877-1.408c-1.8,4.291-3.488,8.644-3.626,13.459a.951.951,0,0,0,.849,1.043.951.951,0,0,0,1-.658c1.749-5.355,3.447-11.082,6.79-15.458.625-.818.172-2.157-.846-1.92a10.854,10.854,0,0,0-3.992,2.211,26.736,26.736,0,0,0-4.471,4.366c-1.757,2.189-4.65,7.269-1.045,9.067.386.192.806-.4.592-.8Z" transform="translate(-1581.122 900.459)" fill="#1d5c34"/>
      <path id="Tracé_11959" data-name="Tracé 11959" d="M1586.775-868.746c-2.807-8.844,1.471-20.136-4.771-28.5,5.625.4,11.088,8.311,14.812,12.655,4.249-5.818,9.775-6.92,15.93-7.036-8.161,8.649-7.114,21.58-12.407,31.3a10.94,10.94,0,0,1-9.794-.383Z" transform="translate(-1572.365 898.993)" fill="#5e9042"/>
      <path id="Tracé_11960" data-name="Tracé 11960" d="M1577.277-851.873l10.488-6.541c-1.716-7.539-3.6-10.948-9.134-15.7-3.617-3.1-10.382-8.794-14.373-3.129C1572.827-871.272,1577.18-852.685,1577.277-851.873Z" transform="translate(-1564.258 890.952)" fill="#8ab842"/>
      <path id="Tracé_11961" data-name="Tracé 11961" d="M1620.584-846.056c-8.763-1.093-13.756-10.282-6.807-17.474a21.348,21.348,0,0,1,10.919-6.024c2.94-.528,7.422,2.613,9.048,2.255C1627.092-865.836,1621.593-852.951,1620.584-846.056Z" transform="translate(-1585.385 886.369)" fill="#8ab842"/>
      <path id="Tracé_11962" data-name="Tracé 11962" d="M1599.245-895.263a21.1,21.1,0,0,0,1.325,3.969c.518,1.406.964,3.52,2.114,4.392.925.7,1.952-.317,1.822-1.467a7.119,7.119,0,0,0-.965-2.248q-.538-1.091-1.11-2.159c-.634-1.186-1.451-2.642-2.7-3a.414.414,0,0,0-.494.315.414.414,0,0,0,0,.2Z" transform="translate(-1580.233 898.323)" fill="#1d5c34"/>
    </g>
    <g id="Groupe_3079" data-name="Groupe 3079" transform="translate(642.829 298.517)">
      <path id="Tracé_11963" data-name="Tracé 11963" d="M1576.566-739.821c10.29-.385,18.149-3.8,23.87-9.139-19.023,7.662-43-1.172-53.688-19.572-12.86-22.145-3.824-47.315,5.2-57.446l-.049.026C1525.908-801.394,1523.468-737.838,1576.566-739.821Z" transform="translate(-1533.977 825.977)" fill="#f39c29"/>
      <path id="Tracé_11964" data-name="Tracé 11964" d="M1576.566-739.821c10.29-.385,18.149-3.8,23.87-9.139-19.023,7.662-43-1.172-53.688-19.572-12.86-22.145-3.824-47.315,5.2-57.446l-.049.026C1525.908-801.394,1523.468-737.838,1576.566-739.821Z" transform="translate(-1533.977 825.977)" fill="#f39c29" opacity="0.2" style="isolation: isolate"/>
    </g>
    <path id="Tracé_11965" data-name="Tracé 11965" d="M1612.052-775.159c-1.93-1.028-4.028-1.5-5.87-2.766a40.489,40.489,0,0,1-4.261-3.476,42.915,42.915,0,0,0,5.277-8.989.913.913,0,0,0,.066-.514c.093.035.184.077.278.106,1.11.378,1.743-1.074,1.069-1.838-1.776-2.008-4.2-3.4-6.138-5.284a57.35,57.35,0,0,1-5.858-6.85c-.317-.423-.617-.845-.922-1.268q1.437-1.579,2.853-3.171c.826-.926-.513-2.29-1.374-1.374q-1.33,1.425-2.687,2.823c-2.421-3.556-4.625-7.273-6.816-10.964a.565.565,0,0,0-.772-.2.565.565,0,0,0-.2.772c1.947,4.053,3.919,8.116,6.235,11.975q-3.673,3.714-7.5,7.265a134.263,134.263,0,0,1-11.078-16.424,16.255,16.255,0,0,0,1.586-1.73c.706-.913-.558-2.213-1.288-1.29-.379.48-.79.933-1.214,1.374-.442-.8-.886-1.6-1.311-2.416-.361-.687-1.333-.084-1.024.6.422.945.875,1.877,1.323,2.809-5.236,4.8-12.837,7.662-16.466,13.925a.642.642,0,0,0,.254.871.644.644,0,0,0,.617,0,18.235,18.235,0,0,0,2.58-1.743c3.105,6.094,6.227,12.189,9.593,18.141q-4.59,3.674-9.31,7.18c-1.252.931-2.664,1.826-4.1,2.748-1.453-2.49-2.861-5.016-4.3-7.557-.408-.724-1.672-.238-1.374.579a59.21,59.21,0,0,0,3.765,8.218,23.511,23.511,0,0,0-6.089,5.324c-.664.913.43,2.008,1.374,1.785a20.05,20.05,0,0,0,6.835-3.5c1.858,3,3.89,5.879,5.987,8.615,1.276,1.664,2.653,3.462,4.122,5.261a21.762,21.762,0,0,0-2.579,2.2,1.137,1.137,0,0,0,.043,1.607,1.137,1.137,0,0,0,1.054.279,20.609,20.609,0,0,0,3.615-1.563c3.159,3.587,6.7,6.906,10.595,8.811a.786.786,0,0,0,1.068-.3.786.786,0,0,0-.117-.923c-2.255-2.884-5.325-5.117-7.927-7.693-.423-.423-.845-.859-1.268-1.292,2.579-1.662,5.05-3.622,7.369-5.237,1.705-1.186,3.388-2.405,5.057-3.643,1.184,1.5,2.393,2.971,3.662,4.387,1.313,1.467,2.845,3.276,4.534,4.967-3.527,2.754-8.431,5.56-10.626,9.3a.659.659,0,0,0,.267.892.662.662,0,0,0,.473.059c4.291-1.046,8.573-5.584,11.873-8.429a13.354,13.354,0,0,0,6.092,3.224,1.374,1.374,0,0,0,1.656-1.017,1.375,1.375,0,0,0-.331-1.256,21.151,21.151,0,0,0-4.258-3.715c3.212-2.865,6.322-5.831,9.322-8.93a1.042,1.042,0,0,0-.036-1.473,1.042,1.042,0,0,0-1.438,0c-3.26,2.97-6.552,5.912-9.913,8.772l-.022-.018c-2.074-1.841-4.016-3.826-5.918-5.844q-1.362-1.444-2.664-2.936,2.273-1.743,4.507-3.54a75.856,75.856,0,0,0,9.869-9.392c.231.212.454.429.688.634,2.9,2.586,6.983,6.567,11.2,5.335a1.259,1.259,0,0,0,.838-1.57A1.257,1.257,0,0,0,1612.052-775.159Zm-51.341-28.655a.764.764,0,0,0-.111-.13c1.94-1.7,3.761-3.64,5.7-5.2,2.188-1.763,4.732-3.321,6.933-5.179a123.26,123.26,0,0,0,10.283,17.157q-5.19,4.711-10.6,9.184c-.681.564-1.374,1.121-2.056,1.678C1567.328-792.054,1564.014-797.934,1560.712-803.814Zm14.439,41.825c-2.219,1.516-4.765,2.886-7.146,4.41-1.428-1.574-2.809-3.188-4.127-4.852a92.317,92.317,0,0,1-6.217-9c1.729-1.358,3.382-2.762,4.891-3.9q4.168-3.142,8.163-6.49c1.865,3.183,3.805,6.321,5.882,9.379,1.445,2.129,2.941,4.241,4.5,6.306q-2.948,2.112-5.941,4.153Zm12.3-8.852q-1.853,1.422-3.741,2.8-3.2-3.839-6.094-7.939c-1.718-2.45-3.365-4.947-4.967-7.473.7-.593,1.392-1.185,2.081-1.786,3.585-3.129,7.044-6.395,10.415-9.748,1.178,1.558,2.385,3.1,3.648,4.6a120.9,120.9,0,0,0,9.459,10.023,86.575,86.575,0,0,1-10.8,9.519Zm12.937-11.963-.289-.267a130.517,130.517,0,0,1-10.494-10.774q-1.3-1.5-2.555-3.042,3.593-3.649,7.054-7.425c.581.9,1.177,1.8,1.807,2.663,2.525,3.48,5.929,7.991,9.968,10.127a.849.849,0,0,0-.177.257,38.118,38.118,0,0,1-5.315,8.46Z" transform="translate(-897.277 1121.627)" fill="#e98e2a"/>
    <g id="Groupe_3084" data-name="Groupe 3084" transform="translate(663.516 305.933)">
      <path id="Tracé_11966" data-name="Tracé 11966" d="M1601.365-812.044c10.648-2.839,20.08,16.652,21.55,27.181s-10.78,20.57-20.569,13.469S1586.672-808.125,1601.365-812.044Z" transform="translate(-1581.398 812.323)" fill="#fce535" opacity="0.15" style="isolation: isolate"/>
      <g id="Groupe_3081" data-name="Groupe 3081" transform="translate(23.081 12.605)">
        <ellipse id="Ellipse_717" data-name="Ellipse 717" cx="6.502" cy="6.649" rx="6.502" ry="6.649" transform="translate(0 2.992)" fill="#e83116" opacity="0.2" style="isolation: isolate"/>
        <circle id="Ellipse_718" data-name="Ellipse 718" cx="5.487" cy="5.487" r="5.487" transform="translate(0.68 5.634)" fill="#fdf5e5"/>
        <circle id="Ellipse_719" data-name="Ellipse 719" cx="2.483" cy="2.483" r="2.483" transform="translate(3.772 10.548)" fill="#482d08"/>
        <path id="Tracé_11969" data-name="Tracé 11969" d="M1628.864-787.754a.289.289,0,0,1-.085.4.288.288,0,0,1-.286.016,7.4,7.4,0,0,0-3.584-.416c-1.171.124-.674-1.712,1.843-1.3A2.9,2.9,0,0,1,1628.864-787.754Z" transform="translate(-1619.008 789.117)" fill="#482d08"/>
        <path id="Tracé_11970" data-name="Tracé 11970" d="M1626.223-769.58a.987.987,0,0,1-.987.987h0a.987.987,0,0,1-.988-.986h0a.987.987,0,0,1,.987-.987h0a.987.987,0,0,1,.987.987Z" transform="translate(-1618.982 780.643)" fill="#fff"/>
      </g>
      <g id="Groupe_3083" data-name="Groupe 3083" transform="translate(0 12.605)">
        <ellipse id="Ellipse_720" data-name="Ellipse 720" cx="6.502" cy="6.649" rx="6.502" ry="6.649" transform="translate(0 2.992)" fill="#e83116" opacity="0.2" style="isolation: isolate"/>
        <circle id="Ellipse_721" data-name="Ellipse 721" cx="5.487" cy="5.487" r="5.487" transform="translate(0.68 5.634)" fill="#fdf5e5"/>
        <circle id="Ellipse_722" data-name="Ellipse 722" cx="2.483" cy="2.483" r="2.483" transform="translate(3.772 10.548)" fill="#482d08"/>
        <path id="Tracé_11973" data-name="Tracé 11973" d="M1575.449-787.754a.289.289,0,0,0,.089.4.289.289,0,0,0,.283.016,7.4,7.4,0,0,1,3.584-.416c1.172.124.673-1.712-1.842-1.3A2.9,2.9,0,0,0,1575.449-787.754Z" transform="translate(-1573.588 789.117)" fill="#482d08"/>
        <path id="Tracé_11974" data-name="Tracé 11974" d="M1583.731-769.58a.987.987,0,0,1-.987.987h0a.988.988,0,0,1-.988-.987.987.987,0,0,1,.987-.987h0a.987.987,0,0,1,.987.987Z" transform="translate(-1576.49 780.643)" fill="#fff"/>
      </g>
    </g>
    <g id="Groupe_3086" data-name="Groupe 3086" transform="translate(670.207 381.611)">
      <path id="Tracé_11975" data-name="Tracé 11975" d="M1591.15-647.728l.054-24.288v-.035a1.014,1.014,0,0,0-1.076-.939,1,1,0,0,0-1,1v.005l.846,23.356c-1.386-.569-6.039-.148-5.555,1.625.145.529.607.661,1.66.7s4.806,0,5.057-.307S1591.165-647.682,1591.15-647.728Z" transform="translate(-1584.378 672.997)" fill="#eb7e22"/>
      <path id="Tracé_11976" data-name="Tracé 11976" d="M1615.108-648.638l.846-23.356v-.035a1.01,1.01,0,0,0-1.043-.971,1.008,1.008,0,0,0-1.039.974l.054,24.287c-.015.051-.222.815.022,1.112s4,.343,5.057.307,1.513-.166,1.659-.7C1621.146-648.789,1616.493-649.207,1615.108-648.638Z" transform="translate(-1597.832 673.001)" fill="#eb7e22"/>
      <g id="Groupe_3085" data-name="Groupe 3085" transform="translate(17.847 23.154)" opacity="0.2">
        <path id="Tracé_11977" data-name="Tracé 11977" d="M1617.235-630.048a3.36,3.36,0,0,1,1.429-.317,5.323,5.323,0,0,0-1.423.105Z" transform="translate(-1617.235 630.375)" fill="#e83116"/>
      </g>
      <path id="Tracé_11978" data-name="Tracé 11978" d="M1619.573-646.718c-1.057.036-4.805,0-5.057-.307s-.036-1.057-.021-1.112l-.056-24.265a.931.931,0,0,1,.113-.442.979.979,0,0,0-.684.914l.054,24.267c-.015.051-.222.814.022,1.111s4,.344,5.057.308c.984-.034,1.45-.149,1.626-.6A4.477,4.477,0,0,1,1619.573-646.718Z" transform="translate(-1597.83 672.929)" fill="#e98e2a"/>
      <path id="Tracé_11979" data-name="Tracé 11979" d="M1591.221-647.61l.054-24.25c0-.012,0-.023,0-.035a.968.968,0,0,0-.569-.834.919.919,0,0,1,.12.423v.035l-.053,24.25c.014.051.222.814-.022,1.111s-4,.343-5.058.307a3.8,3.8,0,0,1-1.162-.162c.182.429.648.542,1.617.576,1.057.036,4.806,0,5.057-.308S1591.236-647.56,1591.221-647.61Z" transform="translate(-1584.448 672.877)" fill="#e98e2a"/>
    </g>
    <g id="Groupe_3087" data-name="Groupe 3087" transform="translate(709.767 275.256)">
      <path id="Tracé_11980" data-name="Tracé 11980" d="M1657.209-839.9l21.56-26.625s2.173.106,2.04,1.192-22.545,27.8-22.545,27.8Z" transform="translate(-1657.209 867.761)" fill="#764421"/>
      <path id="Tracé_11981" data-name="Tracé 11981" d="M1680.174-823.557s37-16.381,37-45.242c0,0-20.273,33.559-34.934,41.807C1681.363-826.5,1680.174-823.557,1680.174-823.557Z" transform="translate(-1667.7 868.799)" fill="#cfcfcf"/>
      <path id="Tracé_11982" data-name="Tracé 11982" d="M1666.544-844.089s10.538,7.1,10.538,9.737-2.29,8.133-2.29,8.133,19.4-9.487,34.7-41.348c0,0-13.634,15.577-29.207,2.864l-15.807,19.357Z" transform="translate(-1660.532 868.237)" fill="#a3a3a3"/>
    </g>
    <path id="Tracé_11983" data-name="Tracé 11983" d="M1609.389-793.835s-12.8,60.486-71.188,42.659l1.448,3.816s52.506,19.341,71.648-41.429C1610.282-791.807,1609.389-793.835,1609.389-793.835Z" transform="translate(-893.077 1109.811)" fill="#361c07"/>
    <path id="Tracé_11984" data-name="Tracé 11984" d="M1522.175-788.585a34.617,34.617,0,0,0-7.643,10.068c-1.148,2.106-4.094,6.814-2.232,9.509a9.913,9.913,0,0,0,4.432,3.012,20.122,20.122,0,0,0,5.6,1.517c1.219.141,4.222.715,4.977-.674a1.778,1.778,0,0,0-.442-2.131c-.633-.466-1.646-.2-2.325-.234a22.057,22.057,0,0,1-6.178-1.315,10.713,10.713,0,0,1-4.224-2.288c.026.079.108.328.148.406-.442-.864,1.125-4.024,1.436-4.774.755-1.814,1.611-3.563,2.52-5.257a53.772,53.772,0,0,1,2.79-4.674c.484-.715,1.132-1.357,1.562-2.116C1522.812-787.915,1522.916-789.2,1522.175-788.585Z" transform="translate(-880.971 1107.486)" fill="#bf6511"/>
    <path id="Tracé_11985" data-name="Tracé 11985" d="M1529.4-791.387c1.009-2.111,1.93-3.785,4.883-2.462s-.37,2.729-3.309,3.7S1529.4-791.387,1529.4-791.387Z" transform="translate(-888.912 1110.032)" fill="#eb7e22"/>
    <path id="Tracé_11986" data-name="Tracé 11986" d="M1666.653-727.338a45.565,45.565,0,0,0,12.309-5.455c2.114-1.274,7.23-4.016,6.535-6.633-.4-1.5-1.954-2.7-3.18-3.627a21.694,21.694,0,0,0-5.04-2.829c-1.182-.469-3.993-1.8-5.383-.961a1.242,1.242,0,0,0-.561,1.664c.017.035.036.068.057.1.439.545,1.595.634,2.27.869a24.889,24.889,0,0,1,5.722,2.844,9.379,9.379,0,0,1,3.293,3.01,3.063,3.063,0,0,0,.029-.353c.068.794-2.948,2.753-3.6,3.236-1.585,1.169-3.24,2.255-4.927,3.285-1.609.982-3.252,1.917-4.941,2.758-.814.4-1.763.7-2.542,1.162C1666.305-728.041,1665.624-727.086,1666.653-727.338Z" transform="translate(-951.508 1088.469)" fill="#bf6511"/>
    <path id="Tracé_11987" data-name="Tracé 11987" d="M1662.418-711.3c-2.124,1.718-3.931,3.041-6.227.8s1.8-2.526,5.284-2.512S1662.418-711.3,1662.418-711.3Z" transform="translate(-946.673 1072.893)" fill="#eb7e22"/>
    <path id="Tracé_11988" data-name="Tracé 11988" d="M1597.26-741.241c-5.645-.468-6.595-6.228-6.706-6.489-.031-.072.013-.146.106-.187a.432.432,0,0,1,.323,0,23.713,23.713,0,0,0,8.1,1.551,11.723,11.723,0,0,0,7.081-1.65.4.4,0,0,1,.317-.042c.112.028.235.112.187.17-.093.113-.211,6.359-6.578,6.643C1599.65-741.225,1597.669-741.206,1597.26-741.241Z" transform="translate(-916.988 1088.906)" fill="#9d6e1f"/>
    <path id="Tracé_11989" data-name="Tracé 11989" d="M1604.046-746.167a31.507,31.507,0,0,1-10.771-.871,10.8,10.8,0,0,0,1.815,3.079c1.147.628,3.889.731,7.273.7,3.159-.025,3.784-2.734,4.1-3.682C1606.139-747.08,1604.577-746.237,1604.046-746.167Z" transform="translate(-918.236 1088.433)" fill="#fff"/>
    <path id="Tracé_12292" data-name="Tracé 12292" d="M1703.149-824.358c.227,1.7-13.73,13.978-16.235,14.845" transform="translate(-961.012 1123.754)" fill="#cfcfcf" opacity="0.5"/>
  </g>
</svg>
