<svg xmlns="http://www.w3.org/2000/svg" width="114.492" height="100.618" viewBox="0 0 114.492 100.618">
  <g id="Groupe_3531" data-name="Groupe 3531" transform="translate(-206.273 -373.986)">
    <g id="Groupe_3302" data-name="Groupe 3302" transform="translate(206.273 373.986)">
      <path id="Tracé_12526" data-name="Tracé 12526" d="M320.794-177.766s29.952,12.892,57.664,1.594c14.955-6.671,23.974-19.783,19.83-40.274-6.851-27.57-52.952-11.874-42.132,11.742-8.09,3.371-5.986,16,3.223,14.735-2.889,2.325-2.3,7.482,1.266,7.828C346.832-172.472,320.794-177.766,320.794-177.766Z" transform="translate(-320.794 234.295)" fill="#c0dee6"/>
      <path id="Tracé_12535" data-name="Tracé 12535" d="M332.16-152.758s18.342,7.6,39.11,4.489,26.332-19.339,42.045-21.411c8.262-.377,16.567,2.641,21.3,9.7,3.426,5.116,4.882,12.288,2.143,18.029-3.065,6.426-13.076,9.283-18.447,3.988-3.48-2.877-3.272-5.908-3.954-9.785a16.948,16.948,0,0,0-9.5-1.037s-12.95,12.375-29.181,12.375C350.693-137.448,332.16-152.758,332.16-152.758Z" transform="translate(-323.696 218.63)" fill="#fff"/>
      <path id="Tracé_12526-2" data-name="Tracé 12526" d="M320.794-178.871s27.743,9.669,55.455-1.628c14.955-6.671,23.974-19.783,19.83-40.274-6.851-27.57-52.952-11.874-42.132,11.742-8.09,3.371-5.986,16,3.223,14.735-2.889,2.325-2.3,7.482,1.266,7.828C344.622-176.8,320.794-178.871,320.794-178.871Z" transform="translate(-320.794 235.4)" fill="#fff"/>
      <path id="Tracé_9381" data-name="Tracé 9381" d="M363.31-210.367a10.905,10.905,0,0,0,13.113,8.12,10.835,10.835,0,0,0,2.006-.683,4.605,4.605,0,0,0,2.879,3.356,4.3,4.3,0,0,0,4.161-.932,5.021,5.021,0,0,1-4.227,2.805,4.715,4.715,0,0,1-4.285-2.387,9.532,9.532,0,0,1-10.172-.561A9.774,9.774,0,0,1,363.31-210.367Z" transform="translate(-331.592 229.009)" fill="#c0dee6"/>
      <path id="Tracé_9382" data-name="Tracé 9382" d="M426.275-140.633a8.449,8.449,0,0,1,11.868,1.4c.995,1.261,1.043,3.235,1.773,4.378a9.547,9.547,0,0,0-1.151-8.3,6.75,6.75,0,0,0-7.728-2.458C428.842-144.693,427.508-142.667,426.275-140.633Z" transform="translate(-347.723 212.574)" fill="#c0dee6"/>
      <path id="Tracé_9386" data-name="Tracé 9386" d="M430.265-177.1a29.2,29.2,0,0,1,5.289-4.707,6.393,6.393,0,0,1,3.29-1.372,3.558,3.558,0,0,1,3.681,3.432,3.558,3.558,0,0,1-1.055,2.656,2.381,2.381,0,0,1-2.284.713,1.441,1.441,0,0,1-.964-1.795,1.568,1.568,0,0,1,.073-.192" transform="translate(-348.741 222.07)" fill="none" stroke="#c0dee6" stroke-miterlimit="10.001" stroke-width="1"/>
      <path id="Tracé_9387" data-name="Tracé 9387" d="M433.468-184.662a14.968,14.968,0,0,1,5.781-6.68,4.815,4.815,0,0,1,2.808-.9,2.094,2.094,0,0,1,2.01,1.848" transform="translate(-349.559 224.383)" fill="none" stroke="#c0dee6" stroke-miterlimit="10.001" stroke-width="1"/>
      <g id="Groupe_3297" data-name="Groupe 3297" transform="translate(73.102 15.111)">
        <path id="Tracé_12545" data-name="Tracé 12545" d="M424.587-212.792a13.433,13.433,0,0,0-4-2.239h0l-.217-.077-.069.235c-.227.85-.465,1.772-.746,2.983l-.089.38A9.866,9.866,0,0,0,419.1-207a4.239,4.239,0,0,0,1.865,2.466,8.907,8.907,0,0,0,2.691,1.176c.077,1.02.12,2.011.107,3.028a.23.23,0,0,0,.222.232.18.18,0,0,0,.1-.025.224.224,0,0,0,.132-.2c0-1.036-.02-2.036-.107-3.073a5.741,5.741,0,0,0,2.464-2.2,4.374,4.374,0,0,0,.555-3.386A7.481,7.481,0,0,0,424.587-212.792Zm-.86,1.936c-.271.376-.561.76-.851,1.145.136.475.261.932.388,1.39a.176.176,0,0,1,.042.137c.074.347.167.685.241,1.032.391-.41.745-.8,1.071-1.2a.239.239,0,0,1,.328-.02.239.239,0,0,1,.02.327c-.4.483-.829.955-1.312,1.453.09.429.163.867.235,1.3a.238.238,0,0,1-.133.242l-.055.026a.231.231,0,0,1-.269-.187c-.161-.958-.35-1.88-.585-2.8-.55-.212-1.128-.388-1.759-.583a.227.227,0,0,1-.158-.285.227.227,0,0,1,.285-.157c.524.156,1.011.331,1.489.486-.236-.832-.491-1.655-.792-2.479-.343-.107-.687-.17-1.04-.25a.229.229,0,0,1-.176-.276.229.229,0,0,1,.276-.176l.76.18c-.06-.174-.129-.321-.189-.494h0a.232.232,0,0,1,.152-.3.24.24,0,0,1,.287.133l.337.852a.264.264,0,0,1,.034.119c.12.348.24.7.351,1.025.224-.286.439-.59.655-.894a.228.228,0,0,1,.31-.057A.229.229,0,0,1,423.727-210.857Z" transform="translate(-418.956 215.109)" fill="#e0b044"/>
        <path id="Tracé_12546" data-name="Tracé 12546" d="M422.14-211.1h0c.06.174.13.32.189.494l-.76-.18a.229.229,0,0,0-.276.176.229.229,0,0,0,.176.276c.353.08.7.143,1.04.25.3.824.556,1.647.792,2.479-.478-.156-.965-.33-1.489-.486a.227.227,0,0,0-.285.157.227.227,0,0,0,.158.285c.632.2,1.209.372,1.759.583.235.923.424,1.845.585,2.8a.231.231,0,0,0,.269.187l.055-.026a.238.238,0,0,0,.133-.242c-.072-.438-.145-.876-.235-1.3.483-.5.911-.97,1.312-1.453a.239.239,0,0,0-.02-.327.239.239,0,0,0-.328.02c-.326.4-.68.794-1.071,1.2-.074-.347-.167-.685-.241-1.032a.176.176,0,0,0-.042-.137c-.127-.457-.252-.915-.388-1.39.29-.384.58-.769.851-1.145a.229.229,0,0,0-.057-.31.228.228,0,0,0-.31.057c-.216.3-.431.608-.655.894-.111-.329-.231-.677-.351-1.025a.264.264,0,0,0-.034-.119l-.337-.852a.24.24,0,0,0-.287-.133A.232.232,0,0,0,422.14-211.1Z" transform="translate(-419.551 214.165)" fill="#896b4c"/>
      </g>
      <g id="Groupe_3298" data-name="Groupe 3298" transform="translate(91.584 62.43)">
        <path id="Tracé_12547" data-name="Tracé 12547" d="M454.883-143.987a13.415,13.415,0,0,0,3.791-2.583h0l.166-.159-.179-.166c-.659-.582-1.377-1.206-2.336-2l-.3-.249a9.865,9.865,0,0,0-3.873-2.335,4.241,4.241,0,0,0-3.039.567,8.914,8.914,0,0,0-2.254,1.884c-.947-.386-1.853-.79-2.758-1.256a.229.229,0,0,0-.306.1.177.177,0,0,0-.022.1.224.224,0,0,0,.118.206c.925.465,1.831.891,2.8,1.276a5.74,5.74,0,0,0,.869,3.187,4.381,4.381,0,0,0,2.783,2.008A7.475,7.475,0,0,0,454.883-143.987Zm-1.349-1.633c-.215-.41-.429-.842-.644-1.273-.486-.092-.951-.182-1.416-.273a.176.176,0,0,1-.142-.023c-.344-.088-.687-.156-1.031-.245.192.532.385,1.024.6,1.5a.238.238,0,0,1-.128.3.239.239,0,0,1-.3-.128c-.252-.574-.484-1.168-.714-1.823-.424-.11-.848-.241-1.273-.372a.238.238,0,0,1-.158-.226v-.061a.231.231,0,0,1,.287-.156c.929.283,1.838.525,2.769.728.435-.4.85-.836,1.307-1.314a.227.227,0,0,1,.325-.013.227.227,0,0,1,.013.325c-.374.4-.747.757-1.1,1.115.85.16,1.7.3,2.572.4.249-.259.458-.539.687-.818a.229.229,0,0,1,.326-.034.229.229,0,0,1,.034.326l-.5.6c.182.025.345.028.527.052h0a.232.232,0,0,1,.2.267.24.24,0,0,1-.248.2l-.912-.08a.258.258,0,0,1-.121-.022c-.365-.048-.73-.1-1.074-.144.156.328.331.657.508.986a.23.23,0,0,1-.088.3A.23.23,0,0,1,453.535-145.62Z" transform="translate(-443.774 151.568)" fill="#e0b044"/>
        <path id="Tracé_12548" data-name="Tracé 12548" d="M457.136-146.182h0c-.182-.025-.345-.028-.527-.052l.5-.6a.229.229,0,0,0-.034-.326.229.229,0,0,0-.326.034c-.229.279-.438.559-.687.818-.871-.1-1.722-.238-2.572-.4.353-.358.726-.716,1.1-1.115a.227.227,0,0,0-.013-.325.227.227,0,0,0-.325.013c-.457.478-.872.917-1.307,1.314-.931-.2-1.84-.445-2.769-.728a.231.231,0,0,0-.287.156v.061a.238.238,0,0,0,.158.226c.424.131.848.261,1.273.372.23.655.462,1.249.714,1.823a.239.239,0,0,0,.3.128.238.238,0,0,0,.128-.3c-.214-.472-.407-.964-.6-1.5.344.089.687.157,1.031.245a.176.176,0,0,0,.141.023c.465.091.931.182,1.416.273.215.431.43.862.644,1.273a.23.23,0,0,0,.3.088.23.23,0,0,0,.088-.3c-.177-.329-.352-.658-.508-.986.344.048.709.1,1.074.144a.259.259,0,0,0,.121.022l.912.08a.24.24,0,0,0,.248-.2A.232.232,0,0,0,457.136-146.182Z" transform="translate(-445.334 150.71)" fill="#896b4c"/>
      </g>
      <path id="Tracé_12549" data-name="Tracé 12549" d="M356.472-147.486a5.224,5.224,0,0,0,.769-3.777,12.882,12.882,0,0,0-2.8-4.826h0c-.105-.14-.21-.245-.315-.385-.944-1.189-1.679-2.1-2.378-2.9l-.28-.314-.28.279a15.392,15.392,0,0,0-3.252,4.617,9.245,9.245,0,0,0-.8,5.6,5.347,5.347,0,0,0,2.448,3.532,7.207,7.207,0,0,0,3.847,1.154c.455,1.154.909,2.273,1.469,3.392a.385.385,0,0,0,.35.21.315.315,0,0,0,.175-.035.369.369,0,0,0,.175-.524,35.4,35.4,0,0,1-1.434-3.323A10.621,10.621,0,0,0,356.472-147.486Zm-3.883-2.939c.21,1.119.49,2.2.8,3.322a.429.429,0,0,1-.28.49h-.1a.379.379,0,0,1-.385-.28c-.14-.489-.28-1.014-.419-1.5-.77-.315-1.5-.594-2.169-.909a.383.383,0,0,1-.21-.524.383.383,0,0,1,.524-.21,17.3,17.3,0,0,0,1.609.7c-.07-.315-.14-.664-.21-1.014a.441.441,0,0,1-.035-.209c-.1-.56-.209-1.119-.279-1.679-.49-.244-1.014-.524-1.5-.8a.394.394,0,0,1-.139-.524c.105-.175.349-.245.454-.07.315.175.63.349.979.524-.035-.349-.07-.734-.105-1.084v-.175c-.035-.385-.035-.735-.07-1.119a.37.37,0,0,1,.35-.42.369.369,0,0,1,.42.35c0,.14.034.28.034.42.21-.141.385-.315.6-.455a.393.393,0,0,1,.559.07.393.393,0,0,1-.07.559c-.314.245-.664.525-.979.77.105.979.21,1.924.385,2.868.384-.385.8-.8,1.259-1.189h0a.527.527,0,0,1,.629.034.391.391,0,0,1-.034.56C353.6-151.4,353.079-150.914,352.589-150.425Z" transform="translate(-327.481 216.072)" fill="#e0b044"/>
      <path id="Tracé_12550" data-name="Tracé 12550" d="M354.548-151.23h0c-.455.385-.875.8-1.259,1.189-.175-.944-.28-1.889-.385-2.868.315-.245.665-.525.979-.77a.393.393,0,0,0,.07-.559.393.393,0,0,0-.559-.07c-.21.14-.385.314-.6.455,0-.14-.034-.28-.034-.42a.369.369,0,0,0-.42-.35.37.37,0,0,0-.35.42c.035.384.035.734.07,1.119v.175c.035.349.07.734.105,1.084-.349-.175-.664-.349-.979-.524-.105-.175-.349-.105-.454.07a.4.4,0,0,0,.139.524c.49.28,1.014.56,1.5.8.07.56.175,1.119.279,1.679a.441.441,0,0,0,.035.209c.07.35.14.7.21,1.014a17.308,17.308,0,0,1-1.609-.7.383.383,0,0,0-.524.21.383.383,0,0,0,.21.524c.664.315,1.4.594,2.169.909.139.489.279,1.014.419,1.5a.379.379,0,0,0,.385.28h.1a.429.429,0,0,0,.28-.49c-.314-1.119-.594-2.2-.8-3.322.49-.489,1.014-.979,1.609-1.5a.391.391,0,0,0,.034-.56A.527.527,0,0,0,354.548-151.23Z" transform="translate(-328.425 214.779)" fill="#896b4c"/>
      <path id="Tracé_12551" data-name="Tracé 12551" d="M409.521-163.986a4.564,4.564,0,0,0-3.2,1.037,11.242,11.242,0,0,0-2.469,4.2h0c-.062.139-.1.264-.158.4-.5,1.228-.875,2.177-1.186,3.054l-.119.348.333.092a13.436,13.436,0,0,0,4.906.492,8.074,8.074,0,0,0,4.6-1.79,4.672,4.672,0,0,0,1.635-3.377,6.294,6.294,0,0,0-.774-3.42c.682-.842,1.338-1.667,1.949-2.573a.335.335,0,0,0,.01-.356.281.281,0,0,0-.1-.118.323.323,0,0,0-.474.092,30.657,30.657,0,0,1-1.911,2.516A9.306,9.306,0,0,0,409.521-163.986Zm-.568,4.214c.761-.64,1.465-1.317,2.18-2.038a.376.376,0,0,1,.493,0l.045.08a.33.33,0,0,1-.048.413c-.312.316-.651.648-.963.964.091.72.193,1.4.239,2.039a.334.334,0,0,1-.309.384.334.334,0,0,1-.384-.308,14.93,14.93,0,0,0-.159-1.524c-.209.188-.445.392-.681.6a.379.379,0,0,1-.144.116c-.38.32-.76.64-1.156.933.024.477.036,1,.034,1.489a.344.344,0,0,1-.339.331c-.178,0-.337-.161-.248-.316,0-.314,0-.629-.022-.97-.251.176-.529.369-.78.545l-.133.075c-.278.192-.544.342-.821.534a.323.323,0,0,1-.469-.086.322.322,0,0,1,.086-.469c.106-.06.2-.147.3-.206-.2-.1-.4-.158-.6-.257a.345.345,0,0,1-.187-.456.345.345,0,0,1,.456-.187c.321.134.684.28,1.005.414.7-.5,1.372-.984,2.015-1.523-.457-.127-.957-.267-1.445-.448h0a.461.461,0,0,1-.243-.493.341.341,0,0,1,.44-.214C407.773-160.124,408.371-159.934,408.953-159.773Z" transform="translate(-341.624 217.698)" fill="#e0b044"/>
      <path id="Tracé_12552" data-name="Tracé 12552" d="M407.771-158.218h0c.488.181.987.32,1.445.448-.643.538-1.316,1.023-2.015,1.523-.322-.134-.684-.28-1.005-.414a.345.345,0,0,0-.456.187.345.345,0,0,0,.187.456c.2.1.4.157.6.257-.107.06-.2.147-.3.206a.322.322,0,0,0-.086.469.323.323,0,0,0,.469.086c.278-.192.544-.342.821-.534l.133-.075c.251-.176.529-.369.78-.545.017.341.019.655.022.97-.089.155.07.311.248.316a.344.344,0,0,0,.339-.331c0-.492-.01-1.011-.034-1.489.4-.293.776-.613,1.156-.933a.38.38,0,0,0,.144-.116c.236-.2.472-.407.681-.6a14.948,14.948,0,0,1,.159,1.524.334.334,0,0,0,.384.308.334.334,0,0,0,.309-.384c-.046-.64-.148-1.319-.239-2.039.312-.316.651-.648.963-.964a.33.33,0,0,0,.048-.413l-.045-.08a.376.376,0,0,0-.493,0c-.716.72-1.419,1.4-2.18,2.038-.582-.162-1.18-.351-1.834-.578a.341.341,0,0,0-.44.214A.461.461,0,0,0,407.771-158.218Z" transform="translate(-342.473 216.272)" fill="#896b4c"/>
      <path id="Tracé_9389" data-name="Tracé 9389" d="M350.414-169.349a8.841,8.841,0,0,0,7.4-2.073,4.4,4.4,0,0,0,1.6-2.716,3.726,3.726,0,0,0-.782-2.522,4.056,4.056,0,0,0-2.765-1.693,2.891,2.891,0,0,0-2.819,1.4,2.257,2.257,0,0,0,.749,2.926" transform="translate(-328.356 220.841)" fill="none" stroke="#c0dee6" stroke-miterlimit="10.001" stroke-width="1"/>
      <g id="Groupe_3301" data-name="Groupe 3301" transform="translate(28.21 44.329)">
        <g id="Groupe_3300" data-name="Groupe 3300">
          <path id="Tracé_12553" data-name="Tracé 12553" d="M359.029-126.031a3.326,3.326,0,0,1,1.486-4.481l44.227-21.772c.349-.172,5.618-2.416,5.789-2.067s-4.82,3.157-5.168,3.328l-44.227,21.772a1.909,1.909,0,0,0-.868,2.552,1.921,1.921,0,0,0,2.576.916l1.18-.581a.7.7,0,0,1,.941.32.7.7,0,0,1-.32.941l-1.18.581A3.316,3.316,0,0,1,359.029-126.031Z" transform="translate(-358.674 170.389)" fill="#3b393b"/>
          <g id="Groupe_3299" data-name="Groupe 3299" transform="translate(13.312)">
            <path id="Tracé_12554" data-name="Tracé 12554" d="M409.615-157.139a33.566,33.566,0,0,0-33.066-18.607c3.721,2.272,4.811,5.512,4.552,9.249C393.8-169.115,405.391-165.72,409.615-157.139Z" transform="translate(-376.549 175.874)" fill="#d44f57"/>
            <path id="Tracé_12555" data-name="Tracé 12555" d="M417.532-150.716c4.224,8.582-.156,19.84-9.974,28.3a8.792,8.792,0,0,1,4.553,9.249A33.567,33.567,0,0,0,417.532-150.716Z" transform="translate(-384.465 169.452)" fill="#d44f57"/>
            <path id="Tracé_12556" data-name="Tracé 12556" d="M411.176-154.22c-4.225-8.581-15.818-11.976-28.514-9.358,4.065,3.088,5.431,7.18,5.742,11.665C400.21-156.342,409.568-157.486,411.176-154.22Z" transform="translate(-378.11 172.956)" fill="#f2ae5a"/>
            <path id="Tracé_12557" data-name="Tracé 12557" d="M415.563-150.716c1.607,3.266-5.007,9.986-15.716,16.64,4.4,3.4,6.1,7.326,5.742,11.665C415.408-130.876,419.787-142.134,415.563-150.716Z" transform="translate(-382.497 169.452)" fill="#f2ae5a"/>
            <path id="Tracé_12558" data-name="Tracé 12558" d="M413.145-151.359c-1.608-3.266-10.967-2.122-22.772,2.307a20.963,20.963,0,0,1,7.055,14.333C408.138-141.373,414.752-148.093,413.145-151.359Z" transform="translate(-380.078 170.094)" fill="#d44f57"/>
          </g>
        </g>
      </g>
    </g>
  </g>
</svg>
