<svg xmlns="http://www.w3.org/2000/svg" width="33.941" height="87.975" viewBox="0 0 33.941 87.975">
  <g id="Groupe_3524" data-name="Groupe 3524" transform="translate(-254.681 -47.318)">
    <g id="Groupe_3296" data-name="Groupe 3296" transform="translate(254.681 47.318)">
      <path id="Tracé_12537" data-name="Tracé 12537" d="M1016.051-146.418h-6.536V-223.46a1.879,1.879,0,0,1,2-1.725h2.531a1.88,1.88,0,0,1,2,1.725Z" transform="translate(-1006.119 234.392)" fill="#fff"/>
      <g id="Groupe_3295" data-name="Groupe 3295" transform="translate(2.287 12.036)">
        <path id="Tracé_12538" data-name="Tracé 12538" d="M1035.354-177.941a84.635,84.635,0,0,0-1.837-13.761c-1.1-4.273-23.506-1.447-25.2,6.474a45.775,45.775,0,0,0,3.368,12.234C1019.658-170.986,1029.289-172.44,1035.354-177.941Z" transform="translate(-1007.962 207.307)" fill="#d44f57"/>
        <path id="Tracé_12539" data-name="Tracé 12539" d="M1039.536-152.3c-.427-3.2-.673-6.863-.957-10.565-6.065,5.5-15.7,6.955-23.666,4.946a53,53,0,0,0,6.136,10.71A23.642,23.642,0,0,0,1039.536-152.3Z" transform="translate(-1011.186 192.23)" fill="#fff"/>
        <path id="Tracé_12540" data-name="Tracé 12540" d="M1047.115-132.853c-.569-2.9-1.188-5.833-1.567-8.342-.048-.322-.093-.656-.137-.99a23.642,23.642,0,0,1-18.487,5.091c.929,1.257,1.905,2.47,2.932,3.622,1.6,1.795,2.96,3.5,4.262,5.263A17.807,17.807,0,0,0,1047.115-132.853Z" transform="translate(-1017.061 182.115)" fill="#d44f57"/>
        <path id="Tracé_12541" data-name="Tracé 12541" d="M1055.434-114.094c-.072-.913-.164-1.884-.285-2.947-.238-2.093-.676-4.473-1.147-6.877a17.808,17.808,0,0,1-13,4.645c1.012,1.373,1.991,2.784,3.017,4.314a20.688,20.688,0,0,1,2.217,4.584A15.069,15.069,0,0,0,1055.434-114.094Z" transform="translate(-1023.948 173.181)" fill="#fff"/>
        <path id="Tracé_12542" data-name="Tracé 12542" d="M1058.219-89.389a3.267,3.267,0,0,0,1.633-2.776,49.3,49.3,0,0,0,.592-12.524,15.069,15.069,0,0,1-9.2,3.718c1.084,3.018,1.779,6.236,3.049,9.121a5.123,5.123,0,0,0,1.348,2.032A2.615,2.615,0,0,0,1058.219-89.389Z" transform="translate(-1028.958 163.776)" fill="#d44f57"/>
        <path id="Tracé_12543" data-name="Tracé 12543" d="M1033.915-190.712l.006-.01c0-.019-.009-.039-.014-.058-1.3-5.045-23.832-2.714-25.2,6.474,0,.022.008.045.011.067C1013.371-177.628,1034.121-184.612,1033.915-190.712Z" transform="translate(-1008.153 207.159)" fill="#3b393b"/>
        <path id="Tracé_12544" data-name="Tracé 12544" d="M1007.727-185.424c-.913-3.554,4.014-7.677,11.46-9.59s13.75-.675,14.663,2.878-4.013,7.677-11.459,9.59S1008.641-181.87,1007.727-185.424Zm24.055-6.18c-.506-1.967-5.772-2.959-12.064-1.342s-10.429,5.024-9.924,6.991,5.773,2.959,12.065,1.342S1032.288-189.637,1031.782-191.6Z" transform="translate(-1007.618 208.393)" fill="#fff"/>
        <rect id="Rectangle_2567" data-name="Rectangle 2567" width="0.762" height="15.392" transform="translate(4.833 0.325) rotate(-25.215)" fill="#fff"/>
        <rect id="Rectangle_2568" data-name="Rectangle 2568" width="0.762" height="26.018" transform="translate(3.518 0.609) rotate(-17.375)" fill="#fff"/>
      </g>
      <ellipse id="Ellipse_793" data-name="Ellipse 793" cx="6.739" cy="6.739" rx="6.739" ry="6.739" transform="translate(0 0)" fill="#fff"/>
    </g>
  </g>
</svg>
