<svg xmlns="http://www.w3.org/2000/svg" width="236.045" height="168.055" viewBox="0 0 236.045 168.055">
  <g id="Groupe_3493" data-name="Groupe 3493" transform="translate(1685.607 -89.107)">
    <g id="Groupe_3453" data-name="Groupe 3453">
      <g id="Groupe_3313" data-name="Groupe 3313">
        <path id="Tracé_12563" data-name="Tracé 12563" d="M-1672.273,173.718l6.093-1.059.681-2.654-5.022-.083s.385-6.4-3.219-7.7-4.018.824-2.242,1.66,2.078,3.255-.309,2.709-5.244-2.4-4.039-4.118,2.422-4.767.312-3.37-4.726,3.663-2.244,6.123c0,0-8-4.329-9.112-4.5,0,0-2.4.341,8.24,6.684,0,0-7.271-2.2-6.619-1.088s7.453,2.964,7.453,2.964-7.66-.766-6.158.609c1.152,1.055,8.975,2.915,12.58,3.729A9.213,9.213,0,0,0-1672.273,173.718Z" transform="translate(6 -3)" fill="#f8b48a"/>
        <path id="Tracé_12564" data-name="Tracé 12564" d="M-1472.328,199.882l-5.209-3.335.4-2.707,4.659,1.867s2.123-6.051,5.95-5.853,3.382,2.317,1.425,2.4-3.177,2.2-.763,2.617,5.763-.181,5.318-2.232-.388-5.333,1.017-3.231,2.938,5.207-.3,6.514c0,0,9.048-.9,10.139-.616,0,0,2.085,1.245-10.185,2.972,0,0,7.558.783,6.524,1.56s-8.023-.157-8.023-.157,7.363,2.258,5.443,2.946c-1.47.525-9.4-.787-13.043-1.433A9.192,9.192,0,0,1-1472.328,199.882Z" fill="#f8b48a"/>
        <g id="Groupe_3310" data-name="Groupe 3310">
          <g id="Groupe_3309" data-name="Groupe 3309">
            <path id="Tracé_12565" data-name="Tracé 12565" d="M-1601.376,163.9a410.664,410.664,0,0,1,3.006,45.04c.378,25.924-.878,39.465-.878,39.465l52.165.326a93.445,93.445,0,0,1-1.116-25.116c4.525-10.787,16.96-53.15,16.96-53.15s-14.07-13.192-32.476-16.174S-1601.376,163.9-1601.376,163.9Z" fill="#f0b838"/>
            <path id="Tracé_12566" data-name="Tracé 12566" d="M-1578.689,155.211l1.1-6.193,21.119.1s-.665,2.226,1.87,7.946C-1554.6,157.063-1569.337,163.172-1578.689,155.211Z" fill="#f8b48a"/>
            <path id="Tracé_12567" data-name="Tracé 12567" d="M-1556.391,155.648" fill="#f8c09e"/>
            <g id="Groupe_3305" data-name="Groupe 3305">
              <path id="Tracé_12568" data-name="Tracé 12568" d="M-1578.383,249.016a12.128,12.128,0,0,1-.482-2.4q-.092-.582-.2-1.293c-.067-.474-.126-.99-.2-1.545-.13-1.109-.3-2.371-.411-3.774q-.092-1.05-.194-2.2c-.065-.766-.1-1.564-.154-2.389s-.115-1.679-.134-2.561-.058-1.788-.089-2.717c-.07-3.721-.023-7.816.223-12.1.265-4.289.705-8.361,1.219-12.048q.21-1.38.412-2.688c.124-.872.294-1.711.436-2.527s.282-1.6.438-2.353.309-1.473.454-2.161c.277-1.379.6-2.612.856-3.7.134-.542.255-1.047.378-1.51s.247-.882.353-1.26a12.314,12.314,0,0,1,.764-2.323,12.236,12.236,0,0,1-.407,2.41l-.273,1.276q-.14.7-.3,1.522c-.211,1.093-.483,2.332-.717,3.713q-.187,1.034-.393,2.163c-.137.752-.248,1.539-.382,2.352s-.279,1.651-.388,2.522-.243,1.762-.37,2.679c-.463,3.673-.874,7.724-1.138,11.987-.245,4.264-.317,8.334-.3,12.034q.025,1.389.049,2.705c.005.876.059,1.726.086,2.549s.054,1.618.1,2.381.09,1.5.133,2.194c.068,1.4.19,2.662.271,3.773q.063.831.117,1.548c.045.474.084.909.12,1.3A12.208,12.208,0,0,1-1578.383,249.016Z" fill="#e98e2a"/>
            </g>
            <g id="Groupe_3306" data-name="Groupe 3306">
              <path id="Tracé_12569" data-name="Tracé 12569" d="M-1578.69,155.21l.716-3.868,9.708,5.842-1.033,5.6Z" fill="#e98e2a"/>
              <path id="Tracé_12570" data-name="Tracé 12570" d="M-1568.267,157.184l1.2,3.791-1.964.329Z" fill="#b85040"/>
              <path id="Tracé_12571" data-name="Tracé 12571" d="M-1567.059,160.975l1.642-3.513.954,4.565Z" fill="#b85040"/>
              <path id="Tracé_12572" data-name="Tracé 12572" d="M-1555.592,153.783c-.026.145-9.828,3.678-9.828,3.678l.862,5.5,10.257-4.921Z" fill="#e98e2a"/>
              <path id="Tracé_12573" data-name="Tracé 12573" d="M-1568.858,159.571l3.8.212.59,2.244-4.67-.129Z" fill="#4d7537"/>
              <path id="Tracé_12574" data-name="Tracé 12574" d="M-1567.886,159.507l-.3,3.1,2.266.5.324-3.329Z" fill="#5e9042"/>
              <path id="Tracé_12575" data-name="Tracé 12575" d="M-1568.188,162.609s-18.489,43.672-15.193,61.745l4,6.031,6.6-5a104.933,104.933,0,0,1,.465-36.163c3.806-18.557,6.4-26.11,6.4-26.11Z" fill="#5e9042"/>
            </g>
            <g id="Groupe_3307" data-name="Groupe 3307">
              <path id="Tracé_12576" data-name="Tracé 12576" d="M-1554.187,222.536c.049.109-.487.5-1.474.874l-.391.141c-.136.048-.281.085-.43.129-.3.091-.624.158-.967.23a13.161,13.161,0,0,1-2.267.212,12.957,12.957,0,0,1-2.267-.213c-.343-.072-.668-.138-.967-.23-.15-.044-.294-.082-.43-.129l-.39-.141c-.988-.379-1.522-.764-1.474-.874.055-.127.674.035,1.659.234l.386.077c.134.028.276.046.42.071.289.055.6.089.927.135a20.316,20.316,0,0,0,2.135.128,20.314,20.314,0,0,0,2.135-.128c.326-.046.639-.08.927-.135.144-.025.286-.043.42-.07l.386-.077C-1554.862,222.571-1554.242,222.408-1554.187,222.536Z" fill="#e98e2a"/>
            </g>
            <g id="Groupe_3308" data-name="Groupe 3308">
              <path id="Tracé_12577" data-name="Tracé 12577" d="M-1555.939,224.947c.057.254-1.287.769-3,1.152s-3.149.487-3.206.232,1.287-.769,3-1.152S-1556,224.692-1555.939,224.947Z" fill="#e98e2a"/>
            </g>
            <path id="Tracé_12578" data-name="Tracé 12578" d="M-1565.2,184.882l-1.426,8.152,3.962,4.8,5.589-4.307,1.226-7.011Z" fill="#e98e2a"/>
          </g>
        </g>
        <g id="Groupe_3312" data-name="Groupe 3312">
          <g id="Groupe_3311" data-name="Groupe 3311" opacity="0.14">
            <path id="Tracé_12579" data-name="Tracé 12579" d="M-1591.2,147.08c.522.114.809.3.786.418" fill="#d57a5d"/>
          </g>
        </g>
        <path id="Tracé_12581" data-name="Tracé 12581" d="M-1541.874,162.495s20.749,16.232,44.714,19.5c9.664,1.318,23.123,12.122,23.123,12.122l-2.114,5.208s-42.032,3.041-67.364-9.142C-1543.514,190.182-1552.089,182.1-1541.874,162.495Z" fill="#f0b838"/>
        <path id="Tracé_12582" data-name="Tracé 12582" d="M-1488.533,257.162" fill="#e2e2e2"/>
      </g>
      <g id="Groupe_3452" data-name="Groupe 3452">
        <path id="Tracé_12583" data-name="Tracé 12583" d="M-1556.459,149.716l.568-35.478c.422-9.68-4.713-18-14.149-18.165l-.873.036a17.1,17.1,0,0,0-16.164,16.627c-.32,8.392-.57,17.669-.335,22.153.485,9.285,9.593,10.346,9.593,10.346.02,0-.049,2.2-.054,4.929" fill="#f8b48a"/>
        <path id="Tracé_12584" data-name="Tracé 12584" d="M-1577.8,147.369l-.021-2.575a21.472,21.472,0,0,0,11.636-4.076s-2.553,7.1-11.615,6.651" fill="#f18e5a"/>
        <g id="Groupe_3328" data-name="Groupe 3328">
          <g id="Groupe_3327" data-name="Groupe 3327">
            <g id="Groupe_3326" data-name="Groupe 3326">
              <g id="Groupe_3325" data-name="Groupe 3325">
                <g id="Groupe_3324" data-name="Groupe 3324">
                  <g id="Groupe_3323" data-name="Groupe 3323">
                    <g id="Groupe_3322" data-name="Groupe 3322">
                      <g id="Groupe_3321" data-name="Groupe 3321">
                        <g id="Groupe_3320" data-name="Groupe 3320">
                          <g id="Groupe_3319" data-name="Groupe 3319">
                            <g id="Groupe_3318" data-name="Groupe 3318">
                              <g id="Groupe_3317" data-name="Groupe 3317">
                                <g id="Groupe_3316" data-name="Groupe 3316">
                                  <g id="Groupe_3315" data-name="Groupe 3315">
                                    <g id="Groupe_3314" data-name="Groupe 3314">
                                      <path id="Tracé_12585" data-name="Tracé 12585" d="M-1583.141,120.308a1.308,1.308,0,0,0,1.3,1.286,1.254,1.254,0,0,0,1.284-1.22v-.033a1.309,1.309,0,0,0-1.3-1.286,1.252,1.252,0,0,0-1.284,1.219Z" fill="#1b2429"/>
                                    </g>
                                  </g>
                                </g>
                              </g>
                            </g>
                          </g>
                        </g>
                      </g>
                    </g>
                  </g>
                </g>
              </g>
            </g>
          </g>
        </g>
        <g id="Groupe_3344" data-name="Groupe 3344">
          <g id="Groupe_3343" data-name="Groupe 3343">
            <g id="Groupe_3342" data-name="Groupe 3342">
              <g id="Groupe_3341" data-name="Groupe 3341">
                <g id="Groupe_3340" data-name="Groupe 3340">
                  <g id="Groupe_3339" data-name="Groupe 3339">
                    <g id="Groupe_3338" data-name="Groupe 3338">
                      <g id="Groupe_3337" data-name="Groupe 3337">
                        <g id="Groupe_3336" data-name="Groupe 3336">
                          <g id="Groupe_3335" data-name="Groupe 3335">
                            <g id="Groupe_3334" data-name="Groupe 3334">
                              <g id="Groupe_3333" data-name="Groupe 3333">
                                <g id="Groupe_3332" data-name="Groupe 3332">
                                  <g id="Groupe_3331" data-name="Groupe 3331">
                                    <g id="Groupe_3330" data-name="Groupe 3330">
                                      <g id="Groupe_3329" data-name="Groupe 3329">
                                        <path id="Tracé_12586" data-name="Tracé 12586" d="M-1584.989,116.315c.167.167,1.115-.618,2.506-.674,1.389-.076,2.438.615,2.582.434.071-.081-.1-.386-.562-.7a3.474,3.474,0,0,0-2.076-.561,3.342,3.342,0,0,0-1.986.752C-1584.938,115.923-1585.07,116.241-1584.989,116.315Z" fill="#1b2429"/>
                                      </g>
                                    </g>
                                  </g>
                                </g>
                              </g>
                            </g>
                          </g>
                        </g>
                      </g>
                    </g>
                  </g>
                </g>
              </g>
            </g>
          </g>
        </g>
        <g id="Groupe_3359" data-name="Groupe 3359">
          <g id="Groupe_3358" data-name="Groupe 3358">
            <g id="Groupe_3357" data-name="Groupe 3357">
              <g id="Groupe_3356" data-name="Groupe 3356">
                <g id="Groupe_3355" data-name="Groupe 3355">
                  <g id="Groupe_3354" data-name="Groupe 3354">
                    <g id="Groupe_3353" data-name="Groupe 3353">
                      <g id="Groupe_3352" data-name="Groupe 3352">
                        <g id="Groupe_3351" data-name="Groupe 3351">
                          <g id="Groupe_3350" data-name="Groupe 3350">
                            <g id="Groupe_3349" data-name="Groupe 3349">
                              <g id="Groupe_3348" data-name="Groupe 3348">
                                <g id="Groupe_3347" data-name="Groupe 3347">
                                  <g id="Groupe_3346" data-name="Groupe 3346">
                                    <g id="Groupe_3345" data-name="Groupe 3345">
                                      <path id="Tracé_12587" data-name="Tracé 12587" d="M-1570.845,120.051a1.31,1.31,0,0,0,1.3,1.286,1.252,1.252,0,0,0,1.284-1.218v-.035a1.31,1.31,0,0,0-1.3-1.286,1.254,1.254,0,0,0-1.284,1.221Z" fill="#1b2429"/>
                                    </g>
                                  </g>
                                </g>
                              </g>
                            </g>
                          </g>
                        </g>
                      </g>
                    </g>
                  </g>
                </g>
              </g>
            </g>
          </g>
        </g>
        <g id="Groupe_3375" data-name="Groupe 3375">
          <g id="Groupe_3374" data-name="Groupe 3374">
            <g id="Groupe_3373" data-name="Groupe 3373">
              <g id="Groupe_3372" data-name="Groupe 3372">
                <g id="Groupe_3371" data-name="Groupe 3371">
                  <g id="Groupe_3370" data-name="Groupe 3370">
                    <g id="Groupe_3369" data-name="Groupe 3369">
                      <g id="Groupe_3368" data-name="Groupe 3368">
                        <g id="Groupe_3367" data-name="Groupe 3367">
                          <g id="Groupe_3366" data-name="Groupe 3366">
                            <g id="Groupe_3365" data-name="Groupe 3365">
                              <g id="Groupe_3364" data-name="Groupe 3364">
                                <g id="Groupe_3363" data-name="Groupe 3363">
                                  <g id="Groupe_3362" data-name="Groupe 3362">
                                    <g id="Groupe_3361" data-name="Groupe 3361">
                                      <g id="Groupe_3360" data-name="Groupe 3360">
                                        <path id="Tracé_12588" data-name="Tracé 12588" d="M-1571.347,116.068c.168.167,1.118-.619,2.508-.674,1.388-.075,2.438.615,2.581.434.071-.081-.1-.385-.562-.7a3.479,3.479,0,0,0-2.075-.561,3.36,3.36,0,0,0-1.987.752C-1571.3,115.679-1571.427,116-1571.347,116.068Z" fill="#1b2429"/>
                                      </g>
                                    </g>
                                  </g>
                                </g>
                              </g>
                            </g>
                          </g>
                        </g>
                      </g>
                    </g>
                  </g>
                </g>
              </g>
            </g>
          </g>
        </g>
        <g id="Groupe_3390" data-name="Groupe 3390">
          <g id="Groupe_3389" data-name="Groupe 3389">
            <g id="Groupe_3388" data-name="Groupe 3388">
              <g id="Groupe_3387" data-name="Groupe 3387">
                <g id="Groupe_3386" data-name="Groupe 3386">
                  <g id="Groupe_3385" data-name="Groupe 3385">
                    <g id="Groupe_3384" data-name="Groupe 3384">
                      <g id="Groupe_3383" data-name="Groupe 3383">
                        <g id="Groupe_3382" data-name="Groupe 3382">
                          <g id="Groupe_3381" data-name="Groupe 3381">
                            <g id="Groupe_3380" data-name="Groupe 3380">
                              <g id="Groupe_3379" data-name="Groupe 3379">
                                <g id="Groupe_3378" data-name="Groupe 3378">
                                  <g id="Groupe_3377" data-name="Groupe 3377">
                                    <g id="Groupe_3376" data-name="Groupe 3376">
                                      <path id="Tracé_12589" data-name="Tracé 12589" d="M-1575.892,127.249a8.927,8.927,0,0,0-2.275-.323c-.356-.022-.7-.081-.765-.327a1.9,1.9,0,0,1,.193-1.091q.447-1.346.938-2.82c1.3-4.015,2.224-7.309,2.067-7.362s-1.34,3.159-2.638,7.173c-.312.99-.61,1.933-.893,2.836a2.162,2.162,0,0,0-.126,1.439.9.9,0,0,0,.6.508,2.384,2.384,0,0,0,.607.06A8.8,8.8,0,0,0-1575.892,127.249Z" fill="#1b2429"/>
                                    </g>
                                  </g>
                                </g>
                              </g>
                            </g>
                          </g>
                        </g>
                      </g>
                    </g>
                  </g>
                </g>
              </g>
            </g>
          </g>
        </g>
        <g id="Groupe_3401" data-name="Groupe 3401">
          <g id="Groupe_3400" data-name="Groupe 3400">
            <g id="Groupe_3399" data-name="Groupe 3399">
              <g id="Groupe_3398" data-name="Groupe 3398">
                <g id="Groupe_3397" data-name="Groupe 3397">
                  <g id="Groupe_3396" data-name="Groupe 3396">
                    <g id="Groupe_3395" data-name="Groupe 3395">
                      <g id="Groupe_3394" data-name="Groupe 3394">
                        <g id="Groupe_3393" data-name="Groupe 3393">
                          <g id="Groupe_3392" data-name="Groupe 3392">
                            <g id="Groupe_3391" data-name="Groupe 3391">
                              <path id="Tracé_12590" data-name="Tracé 12590" d="M-1571.975,111.622c.2.356,1.537-.084,3.179-.19,1.639-.14,3.02.1,3.172-.285.065-.182-.225-.5-.815-.769a5.169,5.169,0,0,0-2.46-.391,5.192,5.192,0,0,0-2.379.754C-1571.823,111.1-1572.066,111.452-1571.975,111.622Z" fill="#1b2429"/>
                            </g>
                          </g>
                        </g>
                      </g>
                    </g>
                  </g>
                </g>
              </g>
            </g>
          </g>
        </g>
        <g id="Groupe_3412" data-name="Groupe 3412">
          <g id="Groupe_3411" data-name="Groupe 3411">
            <g id="Groupe_3410" data-name="Groupe 3410">
              <g id="Groupe_3409" data-name="Groupe 3409">
                <g id="Groupe_3408" data-name="Groupe 3408">
                  <g id="Groupe_3407" data-name="Groupe 3407">
                    <g id="Groupe_3406" data-name="Groupe 3406">
                      <g id="Groupe_3405" data-name="Groupe 3405">
                        <g id="Groupe_3404" data-name="Groupe 3404">
                          <g id="Groupe_3403" data-name="Groupe 3403">
                            <g id="Groupe_3402" data-name="Groupe 3402">
                              <path id="Tracé_12591" data-name="Tracé 12591" d="M-1585.221,112.121c.3.316,1.422-.052,2.783-.1,1.36-.094,2.521.15,2.779-.2.111-.168-.078-.487-.59-.781a4.291,4.291,0,0,0-2.277-.47,4.239,4.239,0,0,0-2.2.712C-1585.2,111.626-1585.353,111.966-1585.221,112.121Z" fill="#1b2429"/>
                            </g>
                          </g>
                        </g>
                      </g>
                    </g>
                  </g>
                </g>
              </g>
            </g>
          </g>
        </g>
        <g id="Groupe_3419" data-name="Groupe 3419">
          <g id="Groupe_3418" data-name="Groupe 3418">
            <g id="Groupe_3417" data-name="Groupe 3417">
              <g id="Groupe_3416" data-name="Groupe 3416">
                <g id="Groupe_3415" data-name="Groupe 3415">
                  <g id="Groupe_3414" data-name="Groupe 3414">
                    <g id="Groupe_3413" data-name="Groupe 3413">
                      <path id="Tracé_12592" data-name="Tracé 12592" d="M-1556.353,120.709c.152-.075,6.141-2.152,6.2,4.208s-6.173,5.107-6.185,4.926S-1556.353,120.709-1556.353,120.709Z" fill="#f8b48a"/>
                    </g>
                  </g>
                </g>
              </g>
            </g>
          </g>
        </g>
        <g id="Groupe_3427" data-name="Groupe 3427">
          <g id="Groupe_3426" data-name="Groupe 3426">
            <g id="Groupe_3425" data-name="Groupe 3425">
              <g id="Groupe_3424" data-name="Groupe 3424">
                <g id="Groupe_3423" data-name="Groupe 3423">
                  <g id="Groupe_3422" data-name="Groupe 3422">
                    <g id="Groupe_3421" data-name="Groupe 3421">
                      <g id="Groupe_3420" data-name="Groupe 3420">
                        <path id="Tracé_12593" data-name="Tracé 12593" d="M-1554.47,127.413c.026-.021.108.076.292.16a1.052,1.052,0,0,0,.806.01,2.763,2.763,0,0,0,1.214-2.472,3.73,3.73,0,0,0-.317-1.583,1.258,1.258,0,0,0-.819-.842.545.545,0,0,0-.634.31c-.081.178-.04.3-.073.316-.017.016-.134-.1-.086-.368a.7.7,0,0,1,.24-.4.8.8,0,0,1,.6-.168,1.529,1.529,0,0,1,1.136.975,3.841,3.841,0,0,1,.39,1.769,2.89,2.89,0,0,1-1.549,2.762,1.137,1.137,0,0,1-.989-.158C-1554.457,127.565-1554.491,127.426-1554.47,127.413Z" fill="#f18e5a"/>
                      </g>
                    </g>
                  </g>
                </g>
              </g>
            </g>
          </g>
        </g>
        <g id="Groupe_3436" data-name="Groupe 3436">
          <g id="Groupe_3435" data-name="Groupe 3435">
            <g id="Groupe_3434" data-name="Groupe 3434">
              <g id="Groupe_3433" data-name="Groupe 3433">
                <g id="Groupe_3432" data-name="Groupe 3432">
                  <g id="Groupe_3431" data-name="Groupe 3431">
                    <g id="Groupe_3430" data-name="Groupe 3430">
                      <g id="Groupe_3429" data-name="Groupe 3429">
                        <g id="Groupe_3428" data-name="Groupe 3428">
                          <path id="Tracé_12594" data-name="Tracé 12594" d="M-1571.524,128.132c-.213-.013-.223,1.447-1.444,2.478s-2.736.863-2.748,1.067c-.02.091.336.285.976.306a3.484,3.484,0,0,0,2.294-.807,3.2,3.2,0,0,0,1.119-2.078C-1571.27,128.487-1571.427,128.125-1571.524,128.132Z" fill="#1b2429"/>
                        </g>
                      </g>
                    </g>
                  </g>
                </g>
              </g>
            </g>
          </g>
        </g>
        <path id="Tracé_12595" data-name="Tracé 12595" d="M-1598.9,103.04a4.409,4.409,0,0,1,2.312-.413,12.774,12.774,0,0,0,5.652-1.528,6.463,6.463,0,0,1-1.679-1.182,4.062,4.062,0,0,1-1.163-3.956.88.88,0,0,1,.48-.613c.4-.132.758.27,1.042.589a3.3,3.3,0,0,0,3.165,1.333,5.389,5.389,0,0,0,2.347-.743c.026-.029.05-.06.077-.089.318-.345.629-.675.935-.994h0a20.544,20.544,0,0,1,6.343-4.944,20.524,20.524,0,0,1,11.224-1.039c3.163.813,6.024,3.406,6.5,6.718,1.752-1.556,4.406-1.574,6.569-.71l.054-.025c2.408.85,3.8,3.435,4.536,5.939.039.137.075.275.112.413a9.623,9.623,0,0,0,3.263,3.2c.233.136.5.3.533.576a.8.8,0,0,1-.4.661,4.747,4.747,0,0,1-1.932.851,11.183,11.183,0,0,0,.815,1.721c.276.468.6,1.027.372,1.52a1,1,0,0,1-1.054.486,2.947,2.947,0,0,1-1.122-.506l.824,1.964a5.549,5.549,0,0,1-2.611-.149c-.484,2.354-.818,6.708-1.39,8.306-1.643.049-2.044-.129-2.871.162-1.068.378-.638,2.322-2.039,1.786-.714-.275-1.835-3.027-2.082-3.766a37.243,37.243,0,0,1-1.7-15.353,11.335,11.335,0,0,0-3.539-2.561l.108.1c-2.542-.874-5.416-1.729-7.8-.48-1.854.969-2.927,2.966-4.3,4.567a12.852,12.852,0,0,1-9.516,4.892c-.324,2.811-.378,7.4-.483,10.026l-2.236-5.219v.021a10.141,10.141,0,0,1-.472-.922l-.049-.093v-.012a16.175,16.175,0,0,0-.734-1.482l-.024.022a1.612,1.612,0,0,1-2.27-.21,1.613,1.613,0,0,1-.083-1.951,3.638,3.638,0,0,1,.762-.8,2.479,2.479,0,0,1-2.4.667,2.028,2.028,0,0,1-1.422-1.992,1.728,1.728,0,0,1,.988-1.4,5.549,5.549,0,0,1-3.24-.694" fill="#2e2e3a"/>
        <g id="Groupe_3441" data-name="Groupe 3441">
          <g id="Groupe_3440" data-name="Groupe 3440">
            <g id="Groupe_3439" data-name="Groupe 3439">
              <g id="Groupe_3438" data-name="Groupe 3438">
                <g id="Groupe_3437" data-name="Groupe 3437">
                  <path id="Tracé_12596" data-name="Tracé 12596" d="M-1564.511,97.278a7.878,7.878,0,0,1,.919.843,6.749,6.749,0,0,1,1.425,3.074,11.949,11.949,0,0,1,.258,2.363c.014.857-.044,1.776-.1,2.744a25.273,25.273,0,0,0-.034,3.053,11.035,11.035,0,0,0,.222,1.607,3.4,3.4,0,0,0,.658,1.554,1.345,1.345,0,0,0,1.284.426,2.023,2.023,0,0,0,1.144-.681,4.9,4.9,0,0,0,.847-2.376l-.19.027a7.911,7.911,0,0,0,1.125,1.936,2.68,2.68,0,0,0,1.775.965,1.7,1.7,0,0,0,.932-.179,1.529,1.529,0,0,0,.628-.649,1.611,1.611,0,0,0,.183-.828,1.175,1.175,0,0,0-.3-.72l-.1.089a5.855,5.855,0,0,0,1.964,1.478,5.3,5.3,0,0,0,.606.233,1.077,1.077,0,0,0,.217.053,1.075,1.075,0,0,0-.206-.088c-.136-.055-.336-.136-.588-.263a6.052,6.052,0,0,1-1.9-1.5l-.094.089a1.22,1.22,0,0,1,.075,1.382,1.387,1.387,0,0,1-.568.575,1.554,1.554,0,0,1-.846.152,2.516,2.516,0,0,1-1.647-.918,7.747,7.747,0,0,1-1.083-1.9l-.134-.3-.056.324a4.744,4.744,0,0,1-.807,2.27,1.821,1.821,0,0,1-1.023.609,1.138,1.138,0,0,1-1.092-.361,3.239,3.239,0,0,1-.607-1.455,10.857,10.857,0,0,1-.221-1.574,25.7,25.7,0,0,1,.022-3.028c.048-.968.1-1.89.077-2.757a11.9,11.9,0,0,0-.288-2.393,6.635,6.635,0,0,0-1.511-3.1A3.7,3.7,0,0,0-1564.511,97.278Z" fill="#6a5948"/>
                </g>
              </g>
            </g>
          </g>
        </g>
        <g id="Groupe_3446" data-name="Groupe 3446">
          <g id="Groupe_3445" data-name="Groupe 3445">
            <g id="Groupe_3444" data-name="Groupe 3444">
              <g id="Groupe_3443" data-name="Groupe 3443">
                <g id="Groupe_3442" data-name="Groupe 3442">
                  <path id="Tracé_12597" data-name="Tracé 12597" d="M-1592.449,106.663a.4.4,0,0,0,.073.063l.228.167a3.059,3.059,0,0,0,.387.248,4.894,4.894,0,0,0,.555.292,7.857,7.857,0,0,0,3.887.672,10.12,10.12,0,0,0,5.448-2.139,18.15,18.15,0,0,0,4.638-5.617c.647-1.134,1.171-2.3,1.752-3.37a12.312,12.312,0,0,1,1.995-2.857,6.149,6.149,0,0,1,2.594-1.658,4.294,4.294,0,0,1,1.375-.179,4.781,4.781,0,0,1,1.265.233,5.2,5.2,0,0,1,1.9,1.147,5.279,5.279,0,0,1,1.039,1.351,6.506,6.506,0,0,1,.483,1.39.28.28,0,0,0-.009-.1l-.046-.284a4.723,4.723,0,0,0-.355-1.047,5.281,5.281,0,0,0-1.031-1.4,5.261,5.261,0,0,0-1.936-1.2,4.889,4.889,0,0,0-1.3-.256,4.409,4.409,0,0,0-1.431.173,6.306,6.306,0,0,0-2.682,1.689,12.381,12.381,0,0,0-2.039,2.9c-.588,1.082-1.112,2.241-1.754,3.364a18.172,18.172,0,0,1-4.572,5.566,10.06,10.06,0,0,1-5.342,2.145,7.969,7.969,0,0,1-3.844-.6A13.127,13.127,0,0,1-1592.449,106.663Z" fill="#6a5948"/>
                </g>
              </g>
            </g>
          </g>
        </g>
        <g id="Groupe_3451" data-name="Groupe 3451">
          <g id="Groupe_3450" data-name="Groupe 3450">
            <g id="Groupe_3449" data-name="Groupe 3449">
              <g id="Groupe_3448" data-name="Groupe 3448">
                <g id="Groupe_3447" data-name="Groupe 3447">
                  <path id="Tracé_12598" data-name="Tracé 12598" d="M-1593.32,102.582a1.49,1.49,0,0,0,.328.228,7.038,7.038,0,0,0,.969.491,9.12,9.12,0,0,0,1.53.5,10.351,10.351,0,0,0,1.952.243,10.565,10.565,0,0,0,1.961-.159,9.3,9.3,0,0,0,1.548-.431,7.023,7.023,0,0,0,.987-.45,1.48,1.48,0,0,0,.337-.214c-.018-.037-.516.233-1.373.518a10.325,10.325,0,0,1-1.532.379,11.358,11.358,0,0,1-1.923.14,11.317,11.317,0,0,1-1.916-.221,10.7,10.7,0,0,1-1.516-.444C-1592.814,102.838-1593.3,102.546-1593.32,102.582Z" fill="#6a5948"/>
                </g>
              </g>
            </g>
          </g>
        </g>
      </g>
    </g>
    <path id="Tracé_12660" data-name="Tracé 12660" d="M-1583.336,191.023c1.225-9.768.4-20.587-.17-30.414l-85.013,7.067-.174,7.494s35.944,9.3,48.245,10.285C-1606.505,186.568-1583.336,191.023-1583.336,191.023Z" transform="translate(6 -2.681)" fill="#f0b838"/>
  </g>
</svg>
