<svg xmlns="http://www.w3.org/2000/svg" width="105.02" height="85.938" viewBox="0 0 105.02 85.938">
  <g id="Groupe_3528" data-name="Groupe 3528" transform="translate(-58.704 -386.42)">
    <g id="Groupe_3285" data-name="Groupe 3285" transform="translate(58.704 386.42)">
      <path id="Tracé_9339" data-name="Tracé 9339" d="M144.18,84.648a12.777,12.777,0,0,1-15.466-.777A2.121,2.121,0,0,1,125.16,86.1a11.419,11.419,0,0,1-8.685,8.4,14.78,14.78,0,0,1-12.006-2.943A21.162,21.162,0,0,1,97.5,81.093a3.3,3.3,0,0,1-6.052-1.85c-3.96.611-8.21.508-11.717-1.438s-5.989-6.092-5.04-9.985c.88-3.569,4.366-6.017,7.99-6.684.1-.02.186-.041.282-.054,3.721-.6,7.51.33,11.12,1.409a6.437,6.437,0,0,1,11.139-5.631,14.2,14.2,0,0,1,8.355-9.235,13.961,13.961,0,0,1,11.862.79,6.858,6.858,0,0,1,3.012,3.494c.3.873.791,4.1-.4,4.635a4.867,4.867,0,0,1,6.67,5.845,12.734,12.734,0,0,1,10.569,3.142,11.917,11.917,0,0,1,3.06,4.208A12.778,12.778,0,0,1,144.18,84.648Z" transform="translate(-74.484 -46.672)" fill="#86c0cb"/>
      <path id="Tracé_9340" data-name="Tracé 9340" d="M144.18,85.87a12.777,12.777,0,0,1-15.466-.777,2.121,2.121,0,0,1-3.555,2.229,11.419,11.419,0,0,1-8.685,8.4,14.78,14.78,0,0,1-12.006-2.943A21.162,21.162,0,0,1,97.5,82.315a3.3,3.3,0,0,1-6.052-1.85c-3.96.611-8.21.508-11.717-1.438s-5.989-6.092-5.04-9.985c.88-3.569,4.366-6.017,7.99-6.684a7.815,7.815,0,0,0-2.131,4.725,7.771,7.771,0,0,0,12.212,6.944,3.872,3.872,0,0,0,6.8,2.029,10.362,10.362,0,0,0,19.77,3.267A1.612,1.612,0,0,0,121.6,77.8a15.631,15.631,0,0,0,23.682-11.044,11.917,11.917,0,0,1,3.06,4.208A12.778,12.778,0,0,1,144.18,85.87Z" transform="translate(-74.484 -47.894)" fill="#c5e4ea" style="mix-blend-mode: multiply;isolation: isolate"/>
      <path id="Tracé_9341" data-name="Tracé 9341" d="M136.274,69.824a4.771,4.771,0,0,1-4.878,1.625,2.783,2.783,0,0,1-5.2.966,5.853,5.853,0,0,0,2.851-.291,2.008,2.008,0,0,0,1.2-2.343,5.923,5.923,0,0,0,4.983-.407,5.825,5.825,0,0,0,1.716-1.521c.39-.514.58-1.3,1.048-1.723A6.911,6.911,0,0,1,136.274,69.824Z" transform="translate(-78.511 -48.188)" fill="#c5e4ea" style="mix-blend-mode: multiply;isolation: isolate"/>
      <path id="Tracé_9342" data-name="Tracé 9342" d="M107.556,59.864a7.027,7.027,0,0,0,10.154,6.761,2.187,2.187,0,0,0,4.019-.123,2,2,0,0,1-1.954-.078,1.976,1.976,0,0,1-.922-1.713,7.289,7.289,0,0,1-6.907.6A7.411,7.411,0,0,1,107.556,59.864Z" transform="translate(-77.059 -47.699)" fill="#c5e4ea" style="mix-blend-mode: multiply;isolation: isolate"/>
    </g>
    <g id="Groupe_3286" data-name="Groupe 3286" transform="translate(75.221 389.637)">
      <g id="Groupe_2562" data-name="Groupe 2562" transform="translate(0 0)">
        <path id="Tracé_9414" data-name="Tracé 9414" d="M273,246.306a11.66,11.66,0,0,1-12.326,2.327,3.485,3.485,0,0,1-2.645,4.647c2.746,2.016,3.524,6.007,2.422,9.227s-3.741,5.71-6.67,7.441A24.594,24.594,0,0,1,225.9,267.4a16.21,16.21,0,0,1-14.449,5.764c-3.322-.433-6.962-2.658-6.947-6.007a11.572,11.572,0,0,1-11.643,1.117c-3.646-1.874-5.858-6.434-4.586-10.323a6.9,6.9,0,0,1,1.982-2.976,7.112,7.112,0,0,1,7.915-1.36,6.551,6.551,0,0,1,10.181-4.823,15.858,15.858,0,0,1,7.57-15.546,15.638,15.638,0,0,1,9.383-1.915,9.714,9.714,0,0,1,3.674,1.225c.845.507,2.4,1.793,2.456,2.9-.136-2.734,2.144-5.98,5.168-5.175a8.215,8.215,0,0,1-4.972-4.336,9.98,9.98,0,0,1-1.319-4.959,8.682,8.682,0,0,1,5.7-8.084,7.239,7.239,0,0,1,8.733,3.964,11.634,11.634,0,0,1,20.747,9.9,11.655,11.655,0,0,1,7.773,3.531,11.08,11.08,0,0,1,2.429,3.761A11.66,11.66,0,0,1,273,246.306Z" transform="translate(-187.915 -211.88)" fill="#9bd9e5"/>
        <path id="Tracé_9415" data-name="Tracé 9415" d="M273,254.063a11.66,11.66,0,0,1-12.326,2.327,3.485,3.485,0,0,1-2.645,4.647c2.746,2.016,3.524,6.007,2.422,9.227s-3.741,5.71-6.67,7.441a24.594,24.594,0,0,1-27.878-2.551,16.21,16.21,0,0,1-14.449,5.764c-3.322-.433-6.962-2.658-6.947-6.007a11.572,11.572,0,0,1-11.643,1.117c-3.646-1.874-5.858-6.434-4.586-10.323a6.9,6.9,0,0,1,1.982-2.976,6.238,6.238,0,0,0,.839,5.357,7.69,7.69,0,0,0,6.974,2.977,10.8,10.8,0,0,0,6.833-3.694,8.435,8.435,0,0,0,16.127-.48,2.051,2.051,0,0,0,3.2-.142,17.691,17.691,0,0,0,17.3,3.24,11.259,11.259,0,0,0,5.615-4.065,6.639,6.639,0,0,0,.561-6.691,3.793,3.793,0,0,0,3.775-.365,3.436,3.436,0,0,0,1.373-3.322c1.434.535,3.457-.338,4.593-1.366a4.326,4.326,0,0,0,1.278-4.187,10.994,10.994,0,0,0,14.544-11.94,11.08,11.08,0,0,1,2.429,3.761A11.66,11.66,0,0,1,273,254.063Z" transform="translate(-187.915 -219.636)" fill="#c5e4ea" style="mix-blend-mode: multiply;isolation: isolate"/>
        <path id="Tracé_9416" data-name="Tracé 9416" d="M247.279,247.1a8.568,8.568,0,0,1-4.547,11,2.32,2.32,0,0,1,.312,2.019,2.5,2.5,0,0,1-1.4,1.6,2.261,2.261,0,0,0,2.289-.692,2.29,2.29,0,0,0,.386-2.378,3.651,3.651,0,0,0,2.116-1.25,8.39,8.39,0,0,0,2.191-4.968A8.592,8.592,0,0,0,247.279,247.1Z" transform="translate(-203.84 -222.318)" fill="#c5e4ea" style="mix-blend-mode: multiply;isolation: isolate"/>
        <path id="Tracé_9417" data-name="Tracé 9417" d="M267.674,222.108a5.746,5.746,0,0,0,4.867,8.074,2.845,2.845,0,0,0,.92,3.015,2.961,2.961,0,0,0,3.21.272,2.79,2.79,0,0,1-2.719-1.144,2.888,2.888,0,0,1-.084-3.005,6.672,6.672,0,0,1-4.676-2.19A6.875,6.875,0,0,1,267.674,222.108Z" transform="translate(-211.41 -214.911)" fill="#c5e4ea" style="mix-blend-mode: multiply;isolation: isolate"/>
      </g>
    </g>
    <rect id="Rectangle_2545" data-name="Rectangle 2545" width="1.407" height="7.74" rx="0.704" transform="translate(85.515 453.346) rotate(20)" fill="#68abba"/>
    <rect id="Rectangle_2548" data-name="Rectangle 2548" width="1.407" height="7.74" rx="0.704" transform="translate(106.623 459.679) rotate(20)" fill="#68abba"/>
    <rect id="Rectangle_2555" data-name="Rectangle 2555" width="1.407" height="7.74" rx="0.704" transform="translate(134.768 458.975) rotate(20)" fill="#68abba"/>
    <rect id="Rectangle_2552" data-name="Rectangle 2552" width="1.407" height="7.74" rx="0.704" transform="translate(99.587 464.604) rotate(20)" fill="#68abba"/>
    <rect id="Rectangle_2546" data-name="Rectangle 2546" width="1.407" height="7.74" rx="0.704" transform="translate(92.551 458.272) rotate(20)" fill="#68abba"/>
    <rect id="Rectangle_2549" data-name="Rectangle 2549" width="1.407" height="7.74" rx="0.704" transform="translate(113.659 464.604) rotate(20)" fill="#68abba"/>
    <rect id="Rectangle_2547" data-name="Rectangle 2547" width="1.407" height="7.74" rx="0.704" transform="translate(99.587 453.346) rotate(20)" fill="#68abba"/>
    <rect id="Rectangle_2554" data-name="Rectangle 2554" width="1.407" height="7.74" rx="0.704" transform="translate(127.731 452.643) rotate(20)" fill="#68abba"/>
    <rect id="Rectangle_2551" data-name="Rectangle 2551" width="1.407" height="7.74" rx="0.704" transform="translate(113.659 453.346) rotate(20)" fill="#68abba"/>
    <rect id="Rectangle_2553" data-name="Rectangle 2553" width="1.407" height="7.74" rx="0.704" transform="translate(141.804 452.643) rotate(20)" fill="#68abba"/>
    <rect id="Rectangle_2550" data-name="Rectangle 2550" width="1.407" height="7.74" rx="0.704" transform="translate(120.695 459.679) rotate(20)" fill="#68abba"/>
  </g>
</svg>
