<svg xmlns="http://www.w3.org/2000/svg" width="111.154" height="68.404" viewBox="0 0 111.154 68.404">
  <g id="Groupe_3527" data-name="Groupe 3527" transform="translate(-54.235 -285.691)">
    <g id="Groupe_3283" data-name="Groupe 3283" transform="translate(54.235 285.691)">
      <path id="Tracé_9339" data-name="Tracé 9339" d="M148.251,86.866a13.524,13.524,0,0,1-16.369-.823A2.245,2.245,0,0,1,128.12,88.4a12.086,12.086,0,0,1-9.193,8.886,15.643,15.643,0,0,1-12.707-3.115A22.4,22.4,0,0,1,98.84,83.1a3.5,3.5,0,0,1-6.405-1.958c-4.192.647-8.69.538-12.4-1.522S73.694,73.176,74.7,69.057c.931-3.777,4.621-6.368,8.457-7.075.1-.021.2-.043.3-.058,3.938-.633,7.948.349,11.769,1.491a6.813,6.813,0,0,1,11.79-5.96,15.025,15.025,0,0,1,8.843-9.774,14.776,14.776,0,0,1,12.555.836,7.259,7.259,0,0,1,3.188,3.7c.321.924.837,4.337-.422,4.905a5.151,5.151,0,0,1,7.059,6.187,13.478,13.478,0,0,1,11.186,3.325,12.612,12.612,0,0,1,3.239,4.454A13.524,13.524,0,0,1,148.251,86.866Z" transform="translate(-74.484 -46.672)" fill="#9bd9e5"/>
      <path id="Tracé_9340" data-name="Tracé 9340" d="M148.251,87.243a13.524,13.524,0,0,1-16.369-.823,2.245,2.245,0,0,1-3.762,2.359,12.086,12.086,0,0,1-9.193,8.886A15.643,15.643,0,0,1,106.22,94.55a22.4,22.4,0,0,1-7.38-11.069,3.5,3.5,0,0,1-6.405-1.958c-4.192.647-8.69.538-12.4-1.522S73.694,73.553,74.7,69.434c.931-3.777,4.621-6.368,8.457-7.075a8.272,8.272,0,0,0-2.255,5,8.224,8.224,0,0,0,12.926,7.35,4.1,4.1,0,0,0,7.2,2.147,10.967,10.967,0,0,0,20.925,3.458,1.706,1.706,0,0,0,2.409-1.616,16.544,16.544,0,0,0,25.066-11.689,12.613,12.613,0,0,1,3.239,4.454A13.524,13.524,0,0,1,148.251,87.243Z" transform="translate(-74.484 -47.049)" fill="#c5e4ea" style="mix-blend-mode: multiply;isolation: isolate"/>
      <path id="Tracé_9341" data-name="Tracé 9341" d="M136.863,70.04a5.05,5.05,0,0,1-5.163,1.72,2.946,2.946,0,0,1-5.508,1.023,6.2,6.2,0,0,0,3.018-.308,2.126,2.126,0,0,0,1.273-2.48,6.269,6.269,0,0,0,5.274-.43,6.165,6.165,0,0,0,1.816-1.609c.413-.544.614-1.376,1.11-1.824A7.315,7.315,0,0,1,136.863,70.04Z" transform="translate(-75.726 -47.14)" fill="#c5e4ea" style="mix-blend-mode: multiply;isolation: isolate"/>
      <path id="Tracé_9342" data-name="Tracé 9342" d="M107.557,59.864A7.438,7.438,0,0,0,118.3,67.02a2.314,2.314,0,0,0,4.253-.13,2.115,2.115,0,0,1-2.068-.083,2.092,2.092,0,0,1-.976-1.813,7.715,7.715,0,0,1-7.311.631A7.844,7.844,0,0,1,107.557,59.864Z" transform="translate(-75.278 -46.989)" fill="#c5e4ea" style="mix-blend-mode: multiply;isolation: isolate"/>
    </g>
    <g id="Groupe_3284" data-name="Groupe 3284" transform="translate(71.717 289.096)">
      <g id="Groupe_2562" data-name="Groupe 2562" transform="translate(0 0)">
        <path id="Tracé_9414" data-name="Tracé 9414" d="M277.969,248.317a12.341,12.341,0,0,1-13.046,2.463,3.688,3.688,0,0,1-2.8,4.919c2.907,2.134,3.73,6.358,2.563,9.766s-3.96,6.043-7.06,7.876a26.031,26.031,0,0,1-29.506-2.7,17.157,17.157,0,0,1-15.293,6.1c-3.516-.458-7.368-2.814-7.353-6.358a12.248,12.248,0,0,1-12.323,1.182c-3.859-1.983-6.2-6.81-4.854-10.926a7.3,7.3,0,0,1,2.1-3.15,7.527,7.527,0,0,1,8.377-1.439,6.934,6.934,0,0,1,10.775-5.1,16.784,16.784,0,0,1,8.012-16.454,16.552,16.552,0,0,1,9.931-2.026,10.282,10.282,0,0,1,3.888,1.3c.894.537,2.542,1.9,2.6,3.064-.144-2.893,2.269-6.329,5.47-5.477a8.7,8.7,0,0,1-5.262-4.59,10.563,10.563,0,0,1-1.4-5.249,9.189,9.189,0,0,1,6.036-8.556c3.558-1.131,7.912.709,9.243,4.2a12.313,12.313,0,0,1,21.959,10.482,12.336,12.336,0,0,1,8.227,3.737,11.728,11.728,0,0,1,2.571,3.981A12.341,12.341,0,0,1,277.969,248.317Z" transform="translate(-187.915 -211.88)" fill="#fff"/>
        <path id="Tracé_9415" data-name="Tracé 9415" d="M277.969,255a12.341,12.341,0,0,1-13.046,2.463,3.688,3.688,0,0,1-2.8,4.919c2.907,2.134,3.73,6.358,2.563,9.766s-3.96,6.043-7.06,7.876a26.031,26.031,0,0,1-29.506-2.7,17.157,17.157,0,0,1-15.293,6.1c-3.516-.458-7.368-2.814-7.353-6.358a12.248,12.248,0,0,1-12.323,1.182c-3.859-1.983-6.2-6.81-4.854-10.926a7.3,7.3,0,0,1,2.1-3.15,6.6,6.6,0,0,0,.888,5.67,8.14,8.14,0,0,0,7.382,3.151,11.426,11.426,0,0,0,7.232-3.91,8.927,8.927,0,0,0,17.069-.508,2.171,2.171,0,0,0,3.386-.15,18.725,18.725,0,0,0,18.308,3.429,11.917,11.917,0,0,0,5.943-4.3,7.027,7.027,0,0,0,.594-7.081,4.015,4.015,0,0,0,4-.387,3.637,3.637,0,0,0,1.454-3.516c1.518.566,3.659-.357,4.861-1.446a4.579,4.579,0,0,0,1.353-4.432,11.636,11.636,0,0,0,15.394-12.638,11.728,11.728,0,0,1,2.571,3.981A12.341,12.341,0,0,1,277.969,255Z" transform="translate(-187.915 -218.561)" fill="#c5e4ea" style="mix-blend-mode: multiply;isolation: isolate"/>
        <path id="Tracé_9416" data-name="Tracé 9416" d="M247.608,247.1a9.069,9.069,0,0,1-4.813,11.639,2.456,2.456,0,0,1,.33,2.137,2.642,2.642,0,0,1-1.477,1.693,2.393,2.393,0,0,0,2.423-.733,2.424,2.424,0,0,0,.409-2.516,3.864,3.864,0,0,0,2.239-1.323,8.88,8.88,0,0,0,2.319-5.258A9.094,9.094,0,0,0,247.608,247.1Z" transform="translate(-201.632 -220.871)" fill="#c5e4ea" style="mix-blend-mode: multiply;isolation: isolate"/>
        <path id="Tracé_9417" data-name="Tracé 9417" d="M267.7,222.108a6.081,6.081,0,0,0,5.151,8.546,3.012,3.012,0,0,0,.973,3.191,3.134,3.134,0,0,0,3.4.288,2.953,2.953,0,0,1-2.878-1.211,3.056,3.056,0,0,1-.089-3.181,7.061,7.061,0,0,1-4.949-2.318A7.277,7.277,0,0,1,267.7,222.108Z" transform="translate(-208.152 -214.491)" fill="#c5e4ea" style="mix-blend-mode: multiply;isolation: isolate"/>
      </g>
    </g>
  </g>
</svg>
