<svg xmlns="http://www.w3.org/2000/svg" width="61.675" height="50.237" viewBox="0 0 61.675 50.237">
  <g id="Groupe_3533" data-name="Groupe 3533" transform="translate(-144.283 -184.897)">
    <g id="Groupe_3258" data-name="Groupe 3258" transform="translate(7252.83 5814.15)">
      <path id="Tracé_12386" data-name="Tracé 12386" d="M-1200.757-336.445l6.231-3.813c-1.374-3.337-14.764-15.65-16.88-12.667C-1206.019-350.934-1200.852-336.812-1200.757-336.445Z" transform="translate(-5880.802 -5275.866)" fill="#609d43"/>
      <path id="Tracé_12387" data-name="Tracé 12387" d="M-1175.952-296.015a4.185,4.185,0,0,1-4.008-3.2l-.041-11.752a.926.926,0,0,1,.926-.926h5.883a.926.926,0,0,1,.926.926l.042,11.752A3.614,3.614,0,0,1-1175.952-296.015Z" transform="translate(-5900.495 -5301.886)" fill="#609d43"/>
      <path id="Tracé_12388" data-name="Tracé 12388" d="M-1223.181-304.359l1.672-6.477c-3.348-4.032-27.272-12.617-29.586-6.973C-1241.849-318.189-1223.462-304.836-1223.181-304.359Z" transform="translate(-5855.913 -5297.007)" fill="#8fc23e"/>
      <path id="Tracé_12389" data-name="Tracé 12389" d="M-1168.138-313.089l.737-5.73c4.329-3.312,28.351-9.394,28.464-4.351C-1146.958-324.036-1167.728-313.488-1168.138-313.089Z" transform="translate(-5907.935 -5293.608)" fill="#8fc23e"/>
      <path id="Tracé_12390" data-name="Tracé 12390" d="M-1206.116-292.852l1.188-5.148c-2.62-3.458-21.05-11.8-22.742-7.359C-1220.6-305.132-1206.338-293.255-1206.116-292.852Z" transform="translate(-5870.603 -5305.187)" fill="#609d43"/>
      <path id="Tracé_12391" data-name="Tracé 12391" d="M-1167.538-303.547l-1.223-5.139c2.4-3.7,19.639-13.517,21.322-9.138C-1154.109-317.074-1167.338-303.972-1167.538-303.547Z" transform="translate(-5907.544 -5297.476)" fill="#609d43"/>
      <path id="Tracé_12392" data-name="Tracé 12392" d="M-1176.116-326.189l-6.194-7.33c2.8-3.26,23.187-15.349,27.414-12.251C-1165-340.782-1175.92-326.55-1176.116-326.189Z" transform="translate(-5899.047 -5280.328)" fill="#4a7c31"/>
      <path id="Tracé_12393" data-name="Tracé 12393" d="M-1219.543-311.356l.108-7.929c-4.691-4.627-34.21-16.834-35.785-9.8C-1244.542-330.281-1219.963-311.913-1219.543-311.356Z" transform="translate(-5853.326 -5289.768)" fill="#609d43"/>
      <path id="Tracé_12394" data-name="Tracé 12394" d="M-1176.117-261.171s-3.8-20.538-3.8-20.935h0c4.717,1.26,5.932-3,8.132-3,0,0-.043,3-.038,3-3.738,9.934-.7,10.142-3.764,21.458C-1175.828-259.768-1176.117-261.24-1176.117-261.171Z" transform="translate(-5900.546 -5318.686)" fill="#775547"/>
      <path id="Tracé_12395" data-name="Tracé 12395" d="M-1176.1-245.763c-1.39.66-3.892.024-3.524,2.433.136-.282.23-.472.322-.665.445-.938,2.048-.748,2.913-.76.321,2.116-.429,1.217-.663,1.879-.341.37-.741.685-1.082,1.055a1.849,1.849,0,0,0-.417,1.8c.218-.727.443-1.447,1.291-1.752a7.355,7.355,0,0,0,.544,5.189c.115-1.571-.321-3.019.022-4.626a10.107,10.107,0,0,1,1.555-3.2l-.4-2.825a8.276,8.276,0,0,1-.258,1.12A.526.526,0,0,1-1176.1-245.763Z" transform="translate(-5900.71 -5342.432)" fill="#775547"/>
      <path id="Tracé_12396" data-name="Tracé 12396" d="M-1188.537-271.494a20.274,20.274,0,0,0-3.681-.609,2.5,2.5,0,0,0-2.221,1.919c.116-.125.206-.236.309-.33,1.446-1.328,2.794-.758,4.427-.206a5.274,5.274,0,0,0-1.485,1.365,1.8,1.8,0,0,0-.178,1.782c.5-1.012.688-1.68,1.755-2.287a9.384,9.384,0,0,1,1.411-.642,5.8,5.8,0,0,0,1.5-.8,13.609,13.609,0,0,0-.445,4.5c.112,1.364,1.049,2.4,1.493,3.648a11.921,11.921,0,0,1,.406,1.667,5.022,5.022,0,0,0,.2-.748,2.8,2.8,0,0,0-.085-1.366,25.018,25.018,0,0,1-.932-2.635,15.745,15.745,0,0,1-.114-2.6.65.65,0,0,1,.048-.163c.765,1.017,2.055,1.627,2.682,2.723a14.587,14.587,0,0,1,.922,2.657,6.668,6.668,0,0,0-1.5-4.367c-.329-.461-.833-.841-1.21-1.27a1.871,1.871,0,0,1-.538-1.25c.591-1.826,1.759-3.371,2.3-5.2l-1.4-.875A6.809,6.809,0,0,1-1188.537-271.494Z" transform="translate(-5891.441 -5324.036)" fill="#775547"/>
      <path id="Tracé_12397" data-name="Tracé 12397" d="M-1164.678-263.8a11.59,11.59,0,0,0,.128,3.555c.2.749.8,2.218,1.648,2.465a5.454,5.454,0,0,1-.958-3.693.78.78,0,0,1,.026-.157,4.493,4.493,0,0,1,1.855,1.742,4.288,4.288,0,0,0,.45.946c-.075-.422-.086-.687-.164-1.009-.286-1.177-1.361-1.752-2.056-2.66.012-.473.024-.989.036-1.5l-1.177-.934A2.392,2.392,0,0,1-1164.678-263.8Z" transform="translate(-5909.972 -5331.265)" fill="#775547"/>
      <path id="Tracé_12398" data-name="Tracé 12398" d="M-1184.679-277.2c.183-.621.384-1.241.618-1.854.041-.106.129-.378.234-.651l2.435-2.342a4.705,4.705,0,0,0-.363.607,12.217,12.217,0,0,0-1.485,3.816,4.582,4.582,0,0,0,.354,2.233,3.4,3.4,0,0,0,.735,1.1,7.442,7.442,0,0,0,1.789,1.037,4.087,4.087,0,0,1,1.433,1.277,11.584,11.584,0,0,1,1.406,3.407.3.3,0,0,1-.036.305,12.12,12.12,0,0,0-1.524-3.209,5.784,5.784,0,0,0-3.071-1.66,6.548,6.548,0,0,1,.219.882c.173,1.338-.51,2.918-.782,4.326a1.421,1.421,0,0,0,.145,1.287c-1.146-.056-.27-3.126-.117-3.94-.582,1.079-1.638,2.071-1.939,3.026-.213-.5.986-2.1,1.264-2.588a3.922,3.922,0,0,0,.614-1.993c-.141-1.451-.949-2.413-1.446-3.637a22.724,22.724,0,0,1-2.094,4.7,9.778,9.778,0,0,0,.086,2.538,6.626,6.626,0,0,1-.324,2.556,6.87,6.87,0,0,1-1.062,2.217,6.551,6.551,0,0,1-1.458,1.557c.384-.856,1.143-1.552,1.543-2.431a8.371,8.371,0,0,0,.566-2.1,10.317,10.317,0,0,0-.183-3.444c-.355.282-.69.572-1.041.819a2.121,2.121,0,0,0-.67.852c-.462.939-.426,1.949-.907,2.913a3.339,3.339,0,0,1-1.014,1.434,8.4,8.4,0,0,0,.816-1.658c.29-.922.2-1.941.555-2.826a5.217,5.217,0,0,0-1.257.771,7.4,7.4,0,0,0-1.255,1.3,5.693,5.693,0,0,1-.622.757.761.761,0,0,1-.381.211c.106-.182.214-.366.325-.549a8.537,8.537,0,0,1,2.526-2.924,9.858,9.858,0,0,0,2.721-2.088,11.793,11.793,0,0,0,1.806-3.09C-1185.156-275.207-1184.964-276.231-1184.679-277.2Z" transform="translate(-5892.406 -5320.603)" fill="#775547"/>
      <path id="Tracé_12399" data-name="Tracé 12399" d="M-1164.522-278.024c-.123-.348-.236-.7-.33-1.061-.016-.063-.066-.217-.106-.378l.449-1.862a2.392,2.392,0,0,0,.024.4,6.268,6.268,0,0,0,.567,2.252,2.728,2.728,0,0,0,.972.933,2.293,2.293,0,0,0,.772.283,5.252,5.252,0,0,0,1.3-.078,2.863,2.863,0,0,1,1.2.146,7.436,7.436,0,0,1,1.936,1.151.165.165,0,0,1,.088.154,7.874,7.874,0,0,0-1.928-1.021,4.054,4.054,0,0,0-2.192.19,4.022,4.022,0,0,1,.425.344,8.131,8.131,0,0,1,1.114,2.269c.135.282.242.474.529.556-.619.335-1.242-1.377-1.449-1.806a12.825,12.825,0,0,0,.051,2.025c-.288-.167-.222-1.29-.25-1.608a2.046,2.046,0,0,0-.381-1.125,7.913,7.913,0,0,0-2.038-1.246,11.566,11.566,0,0,1,.56,2.857,5.577,5.577,0,0,0,.939,1.16,3.606,3.606,0,0,1,.731,1.3,3.5,3.5,0,0,1,.225,1.371,3.347,3.347,0,0,1-.215,1.187c-.1-.521.051-1.086-.049-1.622a4.4,4.4,0,0,0-.442-1.158,5.929,5.929,0,0,0-1.309-1.553c-.087.244-.16.484-.257.71a1.074,1.074,0,0,0-.051.609c.089.584.464,1.046.551,1.647a1.692,1.692,0,0,1-.025.99,4.28,4.28,0,0,0-.157-1.032c-.173-.522-.579-.97-.7-1.5a2.8,2.8,0,0,0-.386.756,3.763,3.763,0,0,0-.2,1,2.845,2.845,0,0,1-.059.55.414.414,0,0,1-.125.219c-.008-.119-.016-.239-.023-.359a4.338,4.338,0,0,1,.292-2.163,5.158,5.158,0,0,0,.689-1.832,5.945,5.945,0,0,0-.143-2.013C-1164.07-276.942-1164.33-277.481-1164.522-278.024Z" transform="translate(-5909.929 -5321.055)" fill="#775547"/>
    </g>
  </g>
</svg>
